<svg width="20" height="20" viewBox="0 0 20 20" fill="none" xmlns="http://www.w3.org/2000/svg">
<path d="M9.16667 3.3335C7.33333 3.3335 5.83333 4.8335 5.83333 6.66683C5.83333 8.50016 7.33333 10.0002 9.16667 10.0002C11 10.0002 12.5 8.50016 12.5 6.66683C12.5 4.8335 11 3.3335 9.16667 3.3335ZM9.16667 5.00016C10.0833 5.00016 10.8333 5.75016 10.8333 6.66683C10.8333 7.5835 10.0833 8.3335 9.16667 8.3335C8.25 8.3335 7.5 7.5835 7.5 6.66683C7.5 5.75016 8.25 5.00016 9.16667 5.00016ZM9.16667 10.8335C6.91667 10.8335 2.5 11.9168 2.5 14.1668V16.6668H10.4167C10.1667 16.1668 10.0833 15.6668 10 15.0835H4.08333V14.1668C4.08333 13.6668 6.66667 12.4168 9.16667 12.4168C9.58333 12.4168 10 12.5002 10.4167 12.5002C10.6667 12.0002 10.9167 11.5002 11.3333 11.0835C10.5 10.9168 9.75 10.8335 9.16667 10.8335Z" fill="#25009D"/>
<path d="M17.7868 11.0423V14.3757H14.4534L15.9284 12.9007C15.5534 12.5257 15.0284 12.2923 14.4534 12.2923C13.3034 12.2923 12.3701 13.2257 12.3701 14.3757C12.3701 15.5257 13.3034 16.459 14.4534 16.459C15.1368 16.459 15.7368 16.134 16.1201 15.6257H17.5451C17.0534 16.8507 15.8534 17.709 14.4534 17.709C12.6118 17.709 11.1201 16.2173 11.1201 14.3757C11.1201 12.534 12.6118 11.0423 14.4534 11.0423C15.3784 11.0423 16.2118 11.4173 16.8118 12.0173L17.7868 11.0423Z" fill="#25009D"/>
</svg>
