<svg width="20" height="20" viewBox="0 0 20 20" fill="none" xmlns="http://www.w3.org/2000/svg">
<path d="M17.5833 10.4168L18.75 11.5918L13.3083 17.0835L10.4167 14.1668L11.5833 12.9918L13.3083 14.7252L17.5833 10.4168ZM9.16667 3.3335C10.0507 3.3335 10.8986 3.68469 11.5237 4.30981C12.1488 4.93493 12.5 5.78277 12.5 6.66683C12.5 7.55088 12.1488 8.39873 11.5237 9.02385C10.8986 9.64897 10.0507 10.0002 9.16667 10.0002C8.28261 10.0002 7.43476 9.64897 6.80964 9.02385C6.18452 8.39873 5.83333 7.55088 5.83333 6.66683C5.83333 5.78277 6.18452 4.93493 6.80964 4.30981C7.43476 3.68469 8.28261 3.3335 9.16667 3.3335ZM9.16667 5.00016C8.72464 5.00016 8.30072 5.17576 7.98816 5.48832C7.67559 5.80088 7.5 6.2248 7.5 6.66683C7.5 7.10886 7.67559 7.53278 7.98816 7.84534C8.30072 8.1579 8.72464 8.3335 9.16667 8.3335C9.60869 8.3335 10.0326 8.1579 10.3452 7.84534C10.6577 7.53278 10.8333 7.10886 10.8333 6.66683C10.8333 6.2248 10.6577 5.80088 10.3452 5.48832C10.0326 5.17576 9.60869 5.00016 9.16667 5.00016ZM9.16667 10.8335C9.73333 10.8335 10.4167 10.9085 11.175 11.0502L9.78333 12.4418L9.16667 12.4168C6.69167 12.4168 4.08333 13.6335 4.08333 14.1668V15.0835H9.25L10.8333 16.6668H2.5V14.1668C2.5 11.9502 6.94167 10.8335 9.16667 10.8335Z" fill="white"/>
</svg>
