<svg width="16" height="16" viewBox="0 0 16 16" fill="none" xmlns="http://www.w3.org/2000/svg">
<path d="M7.99935 2.66675C8.70659 2.66675 9.38487 2.9477 9.88497 3.4478C10.3851 3.94789 10.666 4.62617 10.666 5.33341C10.666 6.04066 10.3851 6.71894 9.88497 7.21903C9.38487 7.71913 8.70659 8.00008 7.99935 8.00008C7.2921 8.00008 6.61383 7.71913 6.11373 7.21903C5.61363 6.71894 5.33268 6.04066 5.33268 5.33341C5.33268 4.62617 5.61363 3.94789 6.11373 3.4478C6.61383 2.9477 7.2921 2.66675 7.99935 2.66675ZM7.99935 4.00008C7.64573 4.00008 7.30659 4.14056 7.05654 4.39061C6.80649 4.64065 6.66602 4.97979 6.66602 5.33341C6.66602 5.68704 6.80649 6.02617 7.05654 6.27622C7.30659 6.52627 7.64573 6.66675 7.99935 6.66675C8.35297 6.66675 8.69211 6.52627 8.94216 6.27622C9.19221 6.02617 9.33268 5.68704 9.33268 5.33341C9.33268 4.97979 9.19221 4.64065 8.94216 4.39061C8.69211 4.14056 8.35297 4.00008 7.99935 4.00008ZM7.99935 8.66675C9.77935 8.66675 13.3327 9.55341 13.3327 11.3334V13.3334H2.66602V11.3334C2.66602 9.55341 6.21935 8.66675 7.99935 8.66675ZM7.99935 9.93341C6.01935 9.93341 3.93268 10.9067 3.93268 11.3334V12.0667H12.066V11.3334C12.066 10.9067 9.97935 9.93341 7.99935 9.93341Z" fill="#202124"/>
</svg>
