<svg width="20" height="20" viewBox="0 0 20 20" fill="none" xmlns="http://www.w3.org/2000/svg">
<path d="M10.0001 1.66602C8.90573 1.66602 7.8221 1.88156 6.81105 2.30035C5.80001 2.71914 4.88135 3.33297 4.10752 4.10679C2.54472 5.6696 1.66675 7.78921 1.66675 9.99935C1.66675 12.2095 2.54472 14.3291 4.10752 15.8919C4.88135 16.6657 5.80001 17.2796 6.81105 17.6983C7.8221 18.1171 8.90573 18.3327 10.0001 18.3327C12.2102 18.3327 14.3298 17.4547 15.8926 15.8919C17.4554 14.3291 18.3334 12.2095 18.3334 9.99935C18.3334 8.905 18.1179 7.82137 17.6991 6.81032C17.2803 5.79927 16.6665 4.88061 15.8926 4.10679C15.1188 3.33297 14.2002 2.71914 13.1891 2.30035C12.1781 1.88156 11.0944 1.66602 10.0001 1.66602ZM5.89175 15.2327C6.25008 14.4827 8.43341 13.7493 10.0001 13.7493C11.5667 13.7493 13.7501 14.4827 14.1084 15.2327C12.9751 16.1327 11.5501 16.666 10.0001 16.666C8.45008 16.666 7.02508 16.1327 5.89175 15.2327ZM15.3001 14.0243C14.1084 12.5743 11.2167 12.0827 10.0001 12.0827C8.78341 12.0827 5.89175 12.5743 4.70008 14.0243C3.85008 12.916 3.33341 11.516 3.33341 9.99935C3.33341 6.32435 6.32508 3.33268 10.0001 3.33268C13.6751 3.33268 16.6667 6.32435 16.6667 9.99935C16.6667 11.516 16.1501 12.916 15.3001 14.0243ZM10.0001 4.99935C8.38342 4.99935 7.08342 6.29935 7.08342 7.91602C7.08342 9.53268 8.38342 10.8327 10.0001 10.8327C11.6167 10.8327 12.9167 9.53268 12.9167 7.91602C12.9167 6.29935 11.6167 4.99935 10.0001 4.99935ZM10.0001 9.16602C9.66856 9.16602 9.35062 9.03432 9.1162 8.7999C8.88178 8.56548 8.75008 8.24754 8.75008 7.91602C8.75008 7.5845 8.88178 7.26655 9.1162 7.03213C9.35062 6.79771 9.66856 6.66602 10.0001 6.66602C10.3316 6.66602 10.6495 6.79771 10.884 7.03213C11.1184 7.26655 11.2501 7.5845 11.2501 7.91602C11.2501 8.24754 11.1184 8.56548 10.884 8.7999C10.6495 9.03432 10.3316 9.16602 10.0001 9.16602Z" fill="#202124"/>
</svg>
