<svg width="20" height="20" viewBox="0 0 20 20" fill="none" xmlns="http://www.w3.org/2000/svg">
<path d="M10.0001 1.66699C8.90573 1.66699 7.8221 1.88254 6.81105 2.30133C5.80001 2.72012 4.88135 3.33395 4.10752 4.10777C2.54472 5.67057 1.66675 7.79019 1.66675 10.0003C1.66675 12.2105 2.54472 14.3301 4.10752 15.8929C4.88135 16.6667 5.80001 17.2805 6.81105 17.6993C7.8221 18.1181 8.90573 18.3337 10.0001 18.3337C12.2102 18.3337 14.3298 17.4557 15.8926 15.8929C17.4554 14.3301 18.3334 12.2105 18.3334 10.0003C18.3334 8.90598 18.1179 7.82234 17.6991 6.8113C17.2803 5.80025 16.6665 4.88159 15.8926 4.10777C15.1188 3.33395 14.2002 2.72012 13.1891 2.30133C12.1781 1.88254 11.0944 1.66699 10.0001 1.66699ZM5.89175 15.2337C6.25008 14.4837 8.43341 13.7503 10.0001 13.7503C11.5667 13.7503 13.7501 14.4837 14.1084 15.2337C12.9751 16.1337 11.5501 16.667 10.0001 16.667C8.45008 16.667 7.02508 16.1337 5.89175 15.2337ZM15.3001 14.0253C14.1084 12.5753 11.2167 12.0837 10.0001 12.0837C8.78341 12.0837 5.89175 12.5753 4.70008 14.0253C3.85008 12.917 3.33341 11.517 3.33341 10.0003C3.33341 6.32533 6.32508 3.33366 10.0001 3.33366C13.6751 3.33366 16.6667 6.32533 16.6667 10.0003C16.6667 11.517 16.1501 12.917 15.3001 14.0253ZM10.0001 5.00033C8.38342 5.00033 7.08342 6.30033 7.08342 7.91699C7.08342 9.53366 8.38342 10.8337 10.0001 10.8337C11.6167 10.8337 12.9167 9.53366 12.9167 7.91699C12.9167 6.30033 11.6167 5.00033 10.0001 5.00033ZM10.0001 9.16699C9.66856 9.16699 9.35062 9.0353 9.1162 8.80088C8.88178 8.56646 8.75008 8.24851 8.75008 7.91699C8.75008 7.58547 8.88178 7.26753 9.1162 7.03311C9.35062 6.79869 9.66856 6.66699 10.0001 6.66699C10.3316 6.66699 10.6495 6.79869 10.884 7.03311C11.1184 7.26753 11.2501 7.58547 11.2501 7.91699C11.2501 8.24851 11.1184 8.56646 10.884 8.80088C10.6495 9.0353 10.3316 9.16699 10.0001 9.16699Z" fill="#202124"/>
</svg>
