<svg width="40" height="40" viewBox="0 0 40 40" fill="none" xmlns="http://www.w3.org/2000/svg">
<g filter="url(#filter0_d_10938_37767)">
<rect x="2" y="1" width="36" height="36" rx="4" fill="white"/>
<rect x="2.5" y="1.5" width="35" height="35" rx="3.5" stroke="#25009D"/>
<path d="M20 25.668C16.325 25.668 13.3333 22.6763 13.3333 19.0013C13.3333 15.3263 16.325 12.3346 20 12.3346C23.675 12.3346 26.6667 15.3263 26.6667 19.0013C26.6667 22.6763 23.675 25.668 20 25.668ZM20 10.668C18.9056 10.668 17.822 10.8835 16.811 11.3023C15.7999 11.7211 14.8813 12.3349 14.1074 13.1087C12.5446 14.6715 11.6667 16.7912 11.6667 19.0013C11.6667 21.2114 12.5446 23.3311 14.1074 24.8939C14.8813 25.6677 15.7999 26.2815 16.811 26.7003C17.822 27.1191 18.9056 27.3346 20 27.3346C22.2101 27.3346 24.3297 26.4567 25.8925 24.8939C27.4553 23.3311 28.3333 21.2114 28.3333 19.0013C28.3333 17.907 28.1178 16.8233 27.699 15.8123C27.2802 14.8012 26.6664 13.8826 25.8925 13.1087C25.1187 12.3349 24.2001 11.7211 23.189 11.3023C22.178 10.8835 21.0943 10.668 20 10.668ZM20.8333 14.8346H19.1667V18.168H15.8333V19.8346H19.1667V23.168H20.8333V19.8346H24.1667V18.168H20.8333V14.8346Z" fill="#25009D"/>
</g>
<defs>
<filter id="filter0_d_10938_37767" x="0" y="0" width="40" height="40" filterUnits="userSpaceOnUse" color-interpolation-filters="sRGB">
<feFlood flood-opacity="0" result="BackgroundImageFix"/>
<feColorMatrix in="SourceAlpha" type="matrix" values="0 0 0 0 0 0 0 0 0 0 0 0 0 0 0 0 0 0 127 0" result="hardAlpha"/>
<feOffset dy="1"/>
<feGaussianBlur stdDeviation="1"/>
<feColorMatrix type="matrix" values="0 0 0 0 0.0627451 0 0 0 0 0.0941176 0 0 0 0 0.156863 0 0 0 0.05 0"/>
<feBlend mode="normal" in2="BackgroundImageFix" result="effect1_dropShadow_10938_37767"/>
<feBlend mode="normal" in="SourceGraphic" in2="effect1_dropShadow_10938_37767" result="shape"/>
</filter>
</defs>
</svg>
