<?xml version="1.0" encoding="UTF-8"?>
<svg version="1.1" xmlns="http://www.w3.org/2000/svg" width="512" height="512">
<path d="M0 0 C31.02 0 62.04 0 94 0 C95.98 8.3325 97.96 16.665 100 25.25 C100.62648438 27.87614258 101.25296875 30.50228516 101.8984375 33.20800781 C102.3909796 35.28962967 102.88318981 37.3713301 103.375 39.453125 C103.63410156 40.53384277 103.89320313 41.61456055 104.16015625 42.72802734 C104.40378906 43.7629834 104.64742188 44.79793945 104.8984375 45.86425781 C105.11161621 46.76138489 105.32479492 47.65851196 105.54443359 48.58282471 C106 51 106 51 106 55 C106.61746094 55.17015625 107.23492187 55.3403125 107.87109375 55.515625 C113.14080148 57.02354746 117.942309 58.77113985 122.796875 61.328125 C126.67172653 62.50981731 130.02222335 61.49521216 133.56689453 59.69995117 C134.41364746 59.15314697 135.26040039 58.60634277 136.1328125 58.04296875 C137.09477539 57.42993896 138.05673828 56.81690918 139.04785156 56.18530273 C140.06331055 55.52602783 141.07876953 54.86675293 142.125 54.1875 C144.26759226 52.82712136 146.41083264 51.46776301 148.5546875 50.109375 C150.70321703 48.73972769 152.85165651 47.3699391 155 46 C158.73532666 43.6213207 162.48463511 41.26828966 166.25 38.9375 C167.0764502 38.40729248 167.90290039 37.87708496 168.75439453 37.33081055 C169.90464111 36.62371948 169.90464111 36.62371948 171.078125 35.90234375 C171.74231445 35.48460693 172.40650391 35.06687012 173.09082031 34.63647461 C175 34 175 34 176.73423767 34.59428406 C179.95268331 36.59106028 182.4968322 39.19355961 185.16137695 41.85498047 C185.76828873 42.45356873 186.3752005 43.05215698 187.00050354 43.66888428 C189.00190077 45.64621363 190.99558119 47.63109596 192.98828125 49.6171875 C194.37493812 50.99487949 195.7616732 52.37249275 197.14848328 53.75003052 C200.05137042 56.63643659 202.9498422 59.52720022 205.84594727 62.42041016 C209.56465317 66.13371645 213.29926455 69.83057784 217.03799152 73.52371025 C219.90562629 76.3616722 222.76201091 79.21075245 225.61534691 82.06308365 C226.9880477 83.43156694 228.36488712 84.79591147 229.74584389 86.15606308 C231.67106524 88.05455907 233.57999528 89.96806924 235.4855957 91.88623047 C236.06265259 92.44845306 236.63970947 93.01067566 237.23425293 93.5899353 C238.79341125 95.17868042 238.79341125 95.17868042 241 98 C240.91442871 100.24635315 240.91442871 100.24635315 240 102 C239.63156982 102.71679932 239.26313965 103.43359863 238.88354492 104.17211914 C238.18902222 105.34182251 238.18902222 105.34182251 237.48046875 106.53515625 C236.95815674 107.41840576 236.43584473 108.30165527 235.89770508 109.21166992 C235.3333374 110.15244385 234.76896973 111.09321777 234.1875 112.0625 C233.32257935 113.51523315 233.32257935 113.51523315 232.44018555 114.99731445 C226.17953457 125.46187441 219.76503974 135.8524404 213 146 C213.33727144 150.9657838 215.14606458 155.22347735 217.0625 159.75 C220 166.75429062 220 166.75429062 220 169 C221.64669678 169.17112305 221.64669678 169.17112305 223.32666016 169.34570312 C228.56911147 170.00408221 233.64342902 171.22554926 238.7734375 172.46875 C239.77839264 172.70911987 240.78334778 172.94948975 241.8187561 173.19714355 C243.92865663 173.70277285 246.03805587 174.21049808 248.14697266 174.72021484 C251.38451043 175.50229741 254.62374202 176.27703561 257.86328125 177.05078125 C259.91676992 177.54384101 261.97015898 178.03731586 264.0234375 178.53125 C264.99421234 178.76356323 265.96498718 178.99587646 266.96517944 179.23522949 C268.30765244 179.56061707 268.30765244 179.56061707 269.67724609 179.89257812 C270.46586029 180.08275513 271.25447449 180.27293213 272.06698608 180.46887207 C274 181 274 181 276 182 C276 212.36 276 242.72 276 274 C265.90561723 277.36479426 265.90561723 277.36479426 261.88256836 278.04882812 C260.98811508 278.20750366 260.0936618 278.3661792 259.17210388 278.52966309 C258.23745804 278.69518677 257.30281219 278.86071045 256.33984375 279.03125 C253.26010657 279.63782049 250.18359468 280.25914952 247.10717773 280.88232422 C244.99752743 281.29343223 242.88226242 281.67672491 240.76245117 282.03173828 C228.86961074 283.6894344 228.86961074 283.6894344 219.21368408 290.07226562 C215.63829716 295.92818654 212.7056822 302.89292894 213.20410156 309.84814453 C214.02136832 312.05777312 214.9398379 313.86574584 216.23046875 315.8359375 C216.69735107 316.55966553 217.1642334 317.28339355 217.64526367 318.02905273 C218.15420166 318.80321533 218.66313965 319.57737793 219.1875 320.375 C220.27248312 322.06013684 221.35573765 323.74638755 222.4375 325.43359375 C223.01242187 326.32804199 223.58734375 327.22249023 224.1796875 328.14404297 C227.40643339 333.20660647 230.5518882 338.31815036 233.6875 343.4375 C234.29940186 344.4260498 234.91130371 345.41459961 235.54174805 346.43310547 C236.10933838 347.3613916 236.67692871 348.28967773 237.26171875 349.24609375 C237.76662842 350.06779053 238.27153809 350.8894873 238.79174805 351.73608398 C239.94930671 353.90501538 240.75673971 355.55305011 241 358 C239.22635396 360.1259456 237.52483307 361.89264985 235.5 363.75 C234.37962759 364.81964593 233.26113047 365.89125959 232.14453125 366.96484375 C231.32782959 367.74384033 231.32782959 367.74384033 230.49462891 368.53857422 C228.61623102 370.37524356 226.88996277 372.31259546 225.1875 374.3125 C222.51807298 377.44729929 219.68624476 380.33493819 216.75 383.21875 C214.30054006 385.7119503 212.04893678 388.36040171 209.7734375 391.01171875 C207.43752887 393.63061191 204.93378282 396.04905254 202.3828125 398.45703125 C200.75744954 400.06488866 200.75744954 400.06488866 200 403 C200.67278713 406.21525341 201.4795277 409.35682773 202.35351562 412.52148438 C210.28041193 443.39917792 206 484.09097781 206 512 C101.72 512 -2.56 512 -110 512 C-110 425.68185921 -110 425.68185921 -105.8125 410.625 C-104.07106607 404.822595 -104.07106607 404.822595 -105 399 C-106.54940881 397.02239108 -106.54940881 397.02239108 -108.53515625 395.13671875 C-109.26283203 394.41419922 -109.99050781 393.69167969 -110.74023438 392.94726562 C-111.50658203 392.20154297 -112.27292969 391.45582031 -113.0625 390.6875 C-113.80177734 389.95337891 -114.54105469 389.21925781 -115.30273438 388.46289062 C-119.40189773 384.42110839 -123.60759659 380.56069556 -127.9621582 376.79760742 C-131.78315285 373.42705709 -135.42617984 369.87991487 -139.0625 366.3125 C-139.84560547 365.56677734 -140.62871094 364.82105469 -141.43554688 364.05273438 C-142.53672852 362.96895508 -142.53672852 362.96895508 -143.66015625 361.86328125 C-144.32668213 361.21657471 -144.99320801 360.56986816 -145.67993164 359.90356445 C-147 358 -147 358 -146.92529297 356.13061523 C-145.68497812 353.27461849 -144.16218543 350.70309947 -142.53515625 348.046875 C-142.18576492 347.47379608 -141.8363736 346.90071716 -141.47639465 346.31027222 C-140.72919456 345.08652949 -139.9795641 343.86426796 -139.22772217 342.64337158 C-138.05811819 340.74287999 -136.89665991 338.83761354 -135.73681641 336.93115234 C-132.43108716 331.50939169 -129.1050225 326.10938631 -125.61328125 320.8046875 C-124.90449829 319.71849121 -124.90449829 319.71849121 -124.18139648 318.61035156 C-123.33805945 317.32871882 -122.48039092 316.05635002 -121.60571289 314.79589844 C-119.84114892 312.1109447 -118.94100062 310.54727868 -119.29101562 307.30053711 C-119.52498047 306.21135986 -119.75894531 305.12218262 -120 304 C-120.21994629 302.73792725 -120.43989258 301.47585449 -120.66650391 300.17553711 C-121.87497791 295.44427577 -123.45203357 291.45399529 -127 288 C-135.34765039 283.56993052 -145.18936628 282.31590809 -154.375 280.5625 C-156.93755136 280.02397875 -159.49877892 279.47911685 -162.05859375 278.92773438 C-167.65377159 277.72742273 -173.25783438 276.58950749 -178.87680054 275.50611877 C-181 275 -181 275 -182 274 C-182.09522418 271.13908182 -182.12553326 268.30236379 -182.11352539 265.44116211 C-182.11367142 264.54368759 -182.11381744 263.64621307 -182.1139679 262.72154236 C-182.11326842 259.74011866 -182.10547441 256.7587566 -182.09765625 253.77734375 C-182.09579219 251.71611058 -182.09436823 249.65487696 -182.09336853 247.59364319 C-182.08954237 242.1569599 -182.07971126 236.72030314 -182.06866455 231.28363037 C-182.05845253 225.74052286 -182.05387136 220.19741108 -182.04882812 214.65429688 C-182.03808908 203.76951957 -182.02101149 192.88476198 -182 182 C-174.18709072 179.73087019 -166.38049552 177.51037372 -158.4609375 175.640625 C-157.23970688 175.34946808 -157.23970688 175.34946808 -155.99380493 175.0524292 C-154.30566122 174.65101147 -152.61713362 174.25120465 -150.92822266 173.85302734 C-148.34268206 173.24236706 -145.75922549 172.62336839 -143.17578125 172.00390625 C-141.52095161 171.61148007 -139.86600785 171.21953475 -138.2109375 170.828125 C-137.44429779 170.6438092 -136.67765808 170.45949341 -135.88778687 170.26959229 C-132.4662888 169.46945877 -129.53628542 169 -126 169 C-125.82984375 168.38253906 -125.6596875 167.76507813 -125.484375 167.12890625 C-123.97022611 161.83743913 -122.2049082 156.99715967 -119.671875 152.10546875 C-118.52295678 148.50507968 -119.62883627 145.73117512 -121.30004883 142.43896484 C-121.84685303 141.53871582 -122.39365723 140.6384668 -122.95703125 139.7109375 C-123.87645508 138.18762817 -123.87645508 138.18762817 -124.81445312 136.63354492 C-125.80348633 135.02056519 -125.80348633 135.02056519 -126.8125 133.375 C-127.48087891 132.26938721 -128.14925781 131.16377441 -128.83789062 130.0246582 C-132.0545339 124.72582645 -135.32083491 119.46683328 -138.69921875 114.26953125 C-139.53779419 112.97426514 -139.53779419 112.97426514 -140.39331055 111.65283203 C-141.44407418 110.04052217 -142.50632901 108.43562838 -143.58129883 106.83935547 C-144.04947021 106.12279785 -144.5176416 105.40624023 -145 104.66796875 C-145.4125 104.05203857 -145.825 103.4361084 -146.25 102.80151367 C-147.23630037 100.4324022 -146.81821922 99.40273192 -146 97 C-144.08865412 94.81415177 -142.17015038 92.79149914 -140.10327148 90.76269531 C-139.48865051 90.14763626 -138.87402954 89.53257721 -138.24078369 88.89888 C-136.20791723 86.8681032 -134.16463179 84.84815814 -132.12109375 82.828125 C-130.70939476 81.42202131 -129.29835676 80.01525372 -127.88795471 78.60784912 C-124.17419679 74.90554505 -120.45151782 71.21233831 -116.72692871 67.52093506 C-112.92777269 63.75246804 -109.13709597 59.97549324 -105.34570312 56.19921875 C-97.9054239 48.79111324 -90.45569534 41.39258788 -83 34 C-78.87552666 35.32365777 -75.45426014 36.7582093 -71.796875 39.08984375 C-70.82476074 39.70472656 -69.85264648 40.31960937 -68.85107422 40.953125 C-67.82771973 41.60796875 -66.80436523 42.2628125 -65.75 42.9375 C-63.60167756 44.2905473 -61.45323892 45.64341009 -59.3046875 46.99609375 C-55.40057605 49.46798718 -51.51136023 51.96089761 -47.6328125 54.47265625 C-46.04702614 55.48200832 -44.46109823 56.49113807 -42.875 57.5 C-42.16053711 57.97429443 -41.44607422 58.44858887 -40.70996094 58.93725586 C-37.57452667 60.91631965 -35.75916876 62.00690153 -31.9921875 61.97265625 C-28.33429628 60.78360284 -24.79101557 59.43669225 -21.25 57.9375 C-14.24570938 55 -14.24570938 55 -12 55 C-11.88664307 53.90816406 -11.77328613 52.81632812 -11.65649414 51.69140625 C-10.98574832 46.34946026 -9.74456884 41.16945248 -8.49609375 35.9375 C-8.2808606 35.02162109 -8.06562744 34.10574219 -7.84387207 33.16210938 C-7.04630197 29.77366445 -6.24148305 26.38692904 -5.4375 23 C-3.643125 15.41 -1.84875 7.82 0 0 Z M26 31 C23.90330003 36.97873348 22.18704011 42.94717495 20.7734375 49.12109375 C20.58028961 49.94706558 20.38714172 50.77303741 20.18814087 51.6240387 C19.57975887 54.22761337 18.97693241 56.83242733 18.375 59.4375 C17.76530459 62.06741248 17.15436666 64.69701589 16.54043579 67.32594299 C16.16052354 68.95353957 15.7831337 70.58172743 15.40853882 72.21055603 C14.11206201 77.77587598 14.11206201 77.77587598 13 80 C11.17378235 80.97528076 11.17378235 80.97528076 8.7590332 82.00292969 C7.85752029 82.3896283 6.95600739 82.7763269 6.0271759 83.17474365 C5.04496567 83.586297 4.06275543 83.99785034 3.05078125 84.421875 C2.04540817 84.84551331 1.0400351 85.26915161 0.00419617 85.70562744 C-2.12866526 86.60036675 -4.26317484 87.4911856 -6.39916992 88.37841797 C-9.66423023 89.74029404 -12.91683916 91.12933339 -16.16992188 92.51953125 C-18.24147509 93.38452063 -20.31371965 94.24785653 -22.38671875 95.109375 C-23.35880783 95.52902527 -24.33089691 95.94867554 -25.33244324 96.38104248 C-32.11679599 99.14789195 -32.11679599 99.14789195 -36.32714844 98.44287109 C-39.06949811 96.96248321 -41.74863759 95.47799771 -44.37890625 93.8046875 C-45.37696289 93.17425537 -46.37501953 92.54382324 -47.40332031 91.89428711 C-48.44584961 91.22792236 -49.48837891 90.56155762 -50.5625 89.875 C-51.63209961 89.20154541 -52.70169922 88.52809082 -53.80371094 87.83422852 C-58.33533454 84.97977353 -62.8534233 82.10907156 -67.32421875 79.16015625 C-67.91968506 78.77424316 -68.51515137 78.38833008 -69.12866211 77.99072266 C-70.63030937 77.01525115 -72.12038929 76.02203502 -73.609375 75.02734375 C-75.8684104 73.74825011 -75.8684104 73.74825011 -77.75585938 74.55444336 C-81.01045942 76.65088449 -83.59848121 79.35429686 -86.296875 82.1015625 C-87.18732513 82.99625748 -87.18732513 82.99625748 -88.09576416 83.9090271 C-89.98526627 85.8096981 -91.86768392 87.71721474 -93.75 89.625 C-95.03209065 90.91712468 -96.31463761 92.20879676 -97.59765625 93.5 C-100.73708432 96.66144479 -103.87017801 99.8290461 -107 103 C-105.6978697 106.44904054 -104.19164104 109.56851782 -102.3125 112.73828125 C-101.78269531 113.63329346 -101.25289062 114.52830566 -100.70703125 115.45043945 C-100.14371094 116.39491943 -99.58039063 117.33939941 -99 118.3125 C-98.42636719 119.28856201 -97.85273437 120.26462402 -97.26171875 121.27026367 C-94.56411535 125.83293683 -91.82819869 130.32727066 -88.8125 134.6875 C-88.33554688 135.39092529 -87.85859375 136.09435059 -87.3671875 136.8190918 C-86.48196325 138.10978036 -85.57167723 139.3837755 -84.6328125 140.63598633 C-83.4375 142.39453125 -83.4375 142.39453125 -82 146 C-82.38252258 148.00018311 -82.38252258 148.00018311 -83.1730957 150.15527344 C-83.46141266 150.94799149 -83.74972961 151.74070953 -84.04678345 152.55744934 C-85.56277938 156.44208276 -87.14676981 160.28987543 -88.79296875 164.12109375 C-89.14386063 164.94706558 -89.4947525 165.77303741 -89.85627747 166.6240387 C-91.34194585 170.12096522 -92.83573427 173.61440581 -94.32885742 177.1081543 C-95.42393873 179.6737531 -96.51482034 182.24110813 -97.60546875 184.80859375 C-97.94603806 185.6012413 -98.28660736 186.39388885 -98.63749695 187.21055603 C-100.37485069 190.97128622 -100.37485069 190.97128622 -101 195 C-102.03511719 195.20753906 -103.07023437 195.41507813 -104.13671875 195.62890625 C-114.68143475 197.77929993 -125.16110106 200.17694472 -135.625 202.6875 C-136.60851944 202.9216008 -136.60851944 202.9216008 -137.61190796 203.16043091 C-139.48440481 203.60691399 -141.35551676 204.05919313 -143.2265625 204.51171875 C-144.85972412 204.90556763 -144.85972412 204.90556763 -146.52587891 205.30737305 C-148.92418768 205.76075344 -148.92418768 205.76075344 -150 207 C-150.09268999 208.35094982 -150.11747326 209.70667091 -150.11352539 211.06079102 C-150.11344986 211.92160782 -150.11337433 212.78242462 -150.11329651 213.66932678 C-150.10813522 214.60473801 -150.10297394 215.54014923 -150.09765625 216.50390625 C-150.0962413 217.45692123 -150.09482635 218.40993622 -150.09336853 219.39183044 C-150.08775152 222.44875165 -150.07519616 225.50560077 -150.0625 228.5625 C-150.05748719 230.62955624 -150.05292391 232.69661362 -150.04882812 234.76367188 C-150.03777656 239.84247588 -150.02050055 244.9212257 -150 250 C-143.50496617 251.57132452 -137.0086748 253.13736445 -130.51147461 254.69970703 C-128.300568 255.23201345 -126.08995399 255.76553663 -123.87963867 256.30029297 C-120.70567428 257.06796935 -117.53068928 257.83128823 -114.35546875 258.59375 C-113.36475876 258.83436157 -112.37404877 259.07497314 -111.35331726 259.32287598 C-110.43258926 259.54310425 -109.51186127 259.76333252 -108.56323242 259.99023438 C-107.7527092 260.18564819 -106.94218597 260.38106201 -106.10710144 260.58239746 C-103.86755365 261.09720346 -103.86755365 261.09720346 -101 261 C-100.82907333 261.54377792 -100.65814667 262.08755585 -100.48204041 262.64781189 C-98.65703421 268.30394285 -96.47689138 273.70060187 -94.06640625 279.12890625 C-93.32707603 280.83976115 -92.58949628 282.55137338 -91.85351562 284.26367188 C-90.70772205 286.92602215 -89.55345952 289.5826991 -88.36938477 292.22827148 C-87.21824783 294.80850456 -86.10811335 297.40330745 -85.00390625 300.00390625 C-84.6426918 300.78745987 -84.28147736 301.57101349 -83.90931702 302.37831116 C-81.6647268 307.80050514 -81.6647268 307.80050514 -82.60513306 311.16496277 C-83.61199233 313.22280859 -84.73088419 315.09439709 -86 317 C-86.50176758 317.86778076 -87.00353516 318.73556152 -87.52050781 319.62963867 C-87.99327148 320.3847876 -88.46603516 321.13993652 -88.953125 321.91796875 C-89.48671631 322.77398682 -90.02030762 323.63000488 -90.57006836 324.51196289 C-91.1244458 325.39489014 -91.67882324 326.27781738 -92.25 327.1875 C-92.82049072 328.10716553 -93.39098145 329.02683105 -93.97875977 329.97436523 C-96.50992717 334.05090706 -99.05720573 338.1114576 -101.69921875 342.1171875 C-102.27591309 343.00627808 -102.27591309 343.00627808 -102.86425781 343.91333008 C-103.86512403 345.45128533 -104.8830945 346.97807189 -105.90234375 348.50390625 C-107.29281772 350.88563584 -107.29281772 350.88563584 -106.29956055 352.92651367 C-104.85726193 355.22774271 -103.30190133 356.8331702 -101.3046875 358.671875 C-100.58925781 359.33574219 -99.87382813 359.99960937 -99.13671875 360.68359375 C-98.39035156 361.36550781 -97.64398438 362.04742187 -96.875 362.75 C-95.74384766 363.79607422 -95.74384766 363.79607422 -94.58984375 364.86328125 C-92.73124309 366.58072237 -90.86789532 368.29268148 -89 370 C-86.02101669 367.17226749 -83.65499017 364.24386426 -81.3125 360.875 C-77.24408476 355.20341741 -72.77980031 350.07798969 -68 345 C-67.20916016 344.11248047 -67.20916016 344.11248047 -66.40234375 343.20703125 C-52.97965954 328.75447358 -34.07538636 319.20191175 -16 312 C-19.10381895 308.27541727 -22.19469726 304.79515864 -25.75 301.5 C-43.66445528 283.75713912 -52.15702019 257.9069158 -52.3125 233.1875 C-52.36744675 205.25827184 -42.14450206 180.55392355 -22.75 160.3125 C-3.50879121 141.71355687 21.47897184 132.3519459 48 131.75 C77.4764021 132.41902381 102.93258985 143.8373086 123.3671875 164.95703125 C139.85751024 183.39999428 148.44553706 207.68185569 148.3125 232.25 C148.30686035 233.34755615 148.3012207 234.4451123 148.29541016 235.57592773 C147.85924595 264.85722906 134.73468764 288.8243345 114.125 308.9453125 C113.42375 309.62335938 112.7225 310.30140625 112 311 C114.65689123 313.65689123 117.77008825 314.65904877 121.1875 316.0625 C147.86549609 327.44174004 168.03881414 346.0582212 184 370 C188.5803176 367.94056964 191.414654 364.80025883 194.8125 361.1875 C195.42287109 360.57068359 196.03324219 359.95386719 196.66210938 359.31835938 C197.23380859 358.71185547 197.80550781 358.10535156 198.39453125 357.48046875 C198.91893799 356.93285889 199.44334473 356.38524902 199.98364258 355.82104492 C201.21577987 353.99819357 201.21577987 353.99819357 200.85424805 351.6081543 C199.89043425 348.66547845 198.60752377 346.39728585 196.9375 343.7890625 C196.3086792 342.7990625 195.6798584 341.8090625 195.03198242 340.7890625 C194.36142822 339.74492187 193.69087402 338.70078125 193 337.625 C192.32751221 336.54734375 191.65502441 335.4696875 190.9621582 334.359375 C188.03718277 329.67997539 185.11092304 325.06030481 181.79296875 320.6484375 C175.75630598 312.42013375 175.75630598 312.42013375 176.33984375 306.625 C177.56352302 303.1734062 178.99714966 300.04610603 180.65039062 296.78808594 C183.34221747 291.22718459 185.61698031 285.47715972 187.98065186 279.77099609 C188.86944088 277.63833917 189.77145929 275.51178898 190.67822266 273.38671875 C190.9624408 272.71796722 191.24665894 272.0492157 191.53948975 271.36019897 C192.3253611 269.51240743 193.11354357 267.66559932 193.90185547 265.81884766 C195.12099974 263.1936032 195.12099974 263.1936032 195 261 C195.56565674 260.90928223 196.13131348 260.81856445 196.71411133 260.72509766 C206.47470443 259.05963293 216.06371018 256.68247041 225.6875 254.375 C234.7521875 252.209375 234.7521875 252.209375 244 250 C244 235.81 244 221.62 244 207 C237.93608395 204.97869465 232.0709341 203.18098236 225.87890625 201.73828125 C224.6399485 201.44500191 224.6399485 201.44500191 223.3759613 201.14579773 C221.64962241 200.73805691 219.92281425 200.3322981 218.19555664 199.9284668 C215.543899 199.30814856 212.89394488 198.68091757 210.24414062 198.05273438 C208.55999079 197.65584683 206.87574925 197.25934819 205.19140625 196.86328125 C204.00243492 196.58210197 204.00243492 196.58210197 202.78944397 196.29524231 C198.9359306 195.34313187 198.9359306 195.34313187 195 195 C194.8282576 194.45490784 194.6565152 193.90981567 194.47956848 193.34820557 C192.66721197 187.73830405 190.52366989 182.37135427 188.13671875 176.984375 C187.40737488 175.30504697 186.67888345 173.6253485 185.95117188 171.9453125 C184.81576841 169.33247793 183.67526055 166.72240299 182.52026367 164.11816406 C181.39726426 161.58019963 180.29656507 159.03351568 179.19921875 156.484375 C178.84832687 155.7072113 178.497435 154.93004761 178.13591003 154.1293335 C175.83339921 148.71116065 175.83339921 148.71116065 176.64794922 145.23413086 C177.31721436 144.12823608 177.31721436 144.12823608 178 143 C178.3808374 142.30108643 178.7616748 141.60217285 179.15405273 140.88208008 C179.78742554 139.83636841 179.78742554 139.83636841 180.43359375 138.76953125 C181.15264893 137.5774707 181.15264893 137.5774707 181.88623047 136.36132812 C182.39814941 135.52021484 182.91006836 134.67910156 183.4375 133.8125 C183.96230957 132.93916016 184.48711914 132.06582031 185.02783203 131.16601562 C187.73073605 126.68031072 190.4777943 122.23040494 193.30859375 117.82421875 C193.82429932 117.01170654 194.34000488 116.19919434 194.87133789 115.36206055 C195.858213 113.81180618 196.85834743 112.2698972 197.87280273 110.73754883 C198.31438721 110.04040771 198.75597168 109.3432666 199.2109375 108.625 C199.60587402 108.01914063 200.00081055 107.41328125 200.40771484 106.7890625 C201.18332409 105.00182897 201.18332409 105.00182897 200.49316406 103.16699219 C198.31146721 100.00074934 195.63066646 97.3867496 192.8984375 94.703125 C192.30197418 94.10949158 191.70551086 93.51585815 191.0909729 92.90423584 C189.1903019 91.01473373 187.28278526 89.13231608 185.375 87.25 C184.08287532 85.96790935 182.79120324 84.68536239 181.5 83.40234375 C178.33855521 80.26291568 175.1709539 77.12982199 172 74 C167.93620086 75.48116704 164.42330672 77.44578995 160.73828125 79.703125 C160.14758347 80.06339783 159.55688568 80.42367065 158.94828796 80.79486084 C157.06748408 81.94300772 155.18992341 83.09633552 153.3125 84.25 C152.07118328 85.00947384 150.82964858 85.76859155 149.58789062 86.52734375 C148.98089325 86.8989563 148.37389587 87.27056885 147.74850464 87.65344238 C146.53770171 88.39224563 145.32475509 89.12754756 144.10964966 89.85925293 C141.40539716 91.49289684 138.77093408 93.1624061 136.19287109 94.99023438 C135.35965332 95.56580078 134.52643555 96.14136719 133.66796875 96.734375 C132.97340576 97.24709961 132.27884277 97.75982422 131.56323242 98.28808594 C127.3394828 99.46119327 123.96419633 97.55816731 120 96 C118.48892504 95.47134747 116.97614153 94.94755269 115.46166992 94.42871094 C111.24317801 92.93484457 107.05741023 91.36183713 102.87817383 89.76171875 C101.08349391 89.08690217 99.28048544 88.43383645 97.4699707 87.80273438 C82.51836689 82.56825063 82.51836689 82.56825063 79.05981445 76.71826172 C78.18610449 73.49505264 77.61365942 70.40444461 77.26498413 67.08544922 C76.80098623 63.4337435 75.80820768 59.91201284 74.89453125 56.3515625 C74.54448085 54.90177354 74.19747241 53.45124672 73.85351562 52 C73.68247314 51.28199219 73.51143066 50.56398438 73.33520508 49.82421875 C72.98080894 48.33313961 72.626986 46.84192414 72.27368164 45.35058594 C71.7545342 43.16266608 71.23107096 40.97581487 70.70703125 38.7890625 C70.4025708 37.50725098 70.09811035 36.22543945 69.78442383 34.90478516 C69.29314563 32.12704357 69.29314563 32.12704357 68 31 C64.89748799 30.91125865 61.8173188 30.88481545 58.71484375 30.90234375 C57.78402481 30.9037587 56.85320587 30.90517365 55.8941803 30.90663147 C52.90858809 30.91224828 49.92306971 30.9248036 46.9375 30.9375 C44.91862087 30.94251284 42.89974057 30.94707612 40.88085938 30.95117188 C35.92054428 30.96222317 30.96028468 30.97949905 26 31 Z M2 180 C1.17628906 180.71800781 0.35257813 181.43601563 -0.49609375 182.17578125 C-13.51408295 194.28231307 -21.00508521 211.30587382 -22.203125 229 C-22.51137753 248.72816204 -16.08705856 266.01399075 -2.6875 280.5 C-1.3571875 281.7375 -1.3571875 281.7375 0 283 C0.5775 283.59425781 1.155 284.18851562 1.75 284.80078125 C15.26553066 297.98354317 32.52172047 302.5194158 50.93066406 302.34765625 C70.11749391 301.8494673 86.82895478 293.49309337 100.16796875 279.76953125 C113.0934567 264.8439678 119.18945552 245.55032349 118 226 C115.23412612 206.3122048 106.16759482 189.75050305 91 177 C64.38389567 156.97991654 27.1002972 157.82143051 2 180 Z M-5.625 341.125 C-6.40294922 341.4235791 -7.18089844 341.7221582 -7.98242188 342.02978516 C-20.63004134 347.05950364 -31.94594079 353.78251152 -42 363 C-42.92425781 363.84304688 -43.84851563 364.68609375 -44.80078125 365.5546875 C-64.48365847 384.33917613 -73.06264146 406.66742112 -78 433 C-78 448.84 -78 464.68 -78 481 C5.16 481 88.32 481 174 481 C174.28766281 420.51345737 174.28766281 420.51345737 146 371 C145.15695312 370.07574219 144.31390625 369.15148437 143.4453125 368.19921875 C123.68421747 347.49302787 96.47273279 335.74683528 67.9597168 334.71264648 C62.44404891 334.58680162 56.93089094 334.57797346 51.4140625 334.60888672 C48.00480145 334.62497734 44.59672547 334.60894717 41.1875 334.58984375 C25.24422963 334.57321735 9.38900728 335.18573805 -5.625 341.125 Z " fill="#039855" transform="translate(209,0)"/>
</svg>