<svg width="20" height="20" viewBox="0 0 20 20" fill="none" xmlns="http://www.w3.org/2000/svg">
<path d="M5.08333 8.33337L3.33333 15V6.66671H17.5C17.5 6.22468 17.3244 5.80076 17.0118 5.4882C16.6993 5.17564 16.2754 5.00004 15.8333 5.00004H10L8.33333 3.33337H3.33333C2.8913 3.33337 2.46738 3.50897 2.15482 3.82153C1.84226 4.13409 1.66666 4.55801 1.66666 5.00004V15C1.66666 15.4421 1.84226 15.866 2.15482 16.1786C2.46738 16.4911 2.8913 16.6667 3.33333 16.6667H15.8333C16.5833 16.6667 17.25 16.1667 17.4167 15.4167L19.3333 8.33337H5.08333ZM15.8333 15H5L6.33333 10H17.1667L15.8333 15Z" fill="#202124"/>
</svg>
