<svg width="20" height="20" viewBox="0 0 20 20" fill="none" xmlns="http://www.w3.org/2000/svg">
<path d="M19.5833 14.168L15.4167 18.3346L12.5 15.418L13.75 14.168L15.4167 15.8346L18.3333 12.918L19.5833 14.168ZM5.00001 1.66797C4.07501 1.66797 3.33334 2.41797 3.33334 3.33464V16.668C3.33334 17.593 4.07501 18.3346 5.00001 18.3346H11.5083C11.2083 17.818 11 17.2513 10.9 16.668H5.00001V3.33464H10.8333V7.5013H15V10.9013C15.275 10.8596 15.5583 10.8346 15.8333 10.8346C16.1167 10.8346 16.3917 10.8596 16.6667 10.9013V6.66797L11.6667 1.66797M6.66668 10.0013V11.668H13.3333V10.0013M6.66668 13.3346V15.0013H10.8333V13.3346H6.66668Z" fill="white"/>
</svg>
