<svg width="16" height="16" viewBox="0 0 16 16" fill="none" xmlns="http://www.w3.org/2000/svg">
<path d="M8.83333 4.25H13V5.91667H8.83333V4.25ZM8.83333 10.0833H13V11.75H8.83333V10.0833ZM13.8333 0.5C14.2754 0.5 14.6993 0.675595 15.0118 0.988155C15.3244 1.30072 15.5 1.72464 15.5 2.16667V13.8333C15.5 14.2754 15.3244 14.6993 15.0118 15.0118C14.6993 15.3244 14.2754 15.5 13.8333 15.5H2.16667C1.72464 15.5 1.30072 15.3244 0.988155 15.0118C0.675595 14.6993 0.5 14.2754 0.5 13.8333V2.16667C0.5 1.72464 0.675595 1.30072 0.988155 0.988155C1.30072 0.675595 1.72464 0.5 2.16667 0.5H13.8333ZM13.8333 13.8333V2.16667H2.16667V13.8333H13.8333ZM7.16667 3V7.16667H3V3H7.16667ZM6.33333 6.33333V3.83333H3.83333V6.33333H6.33333ZM7.16667 8.83333V13H3V8.83333H7.16667ZM6.33333 12.1667V9.66667H3.83333V12.1667H6.33333Z" fill="#202124"/>
</svg>