<svg width="20" height="20" viewBox="0 0 20 20" fill="none" xmlns="http://www.w3.org/2000/svg">
<path d="M9.16634 9.16658V5.83325H10.833V9.16658H9.16634ZM10.833 0.833252V4.16658H9.16634V0.833252H10.833ZM9.16634 14.1666V10.8333H10.833V14.1666H9.16634ZM7.49967 16.6666H4.99967V3.33325H7.49967V1.66659H4.99967C4.07467 1.66659 3.33301 2.41659 3.33301 3.33325V16.6666C3.33301 17.5916 4.07467 18.3333 4.99967 18.3333H7.49967V16.6666ZM12.4997 2.49992V6.66658H14.9997V16.6666H12.4997V18.3333H14.9997C15.9247 18.3333 16.6663 17.5916 16.6663 16.6666V6.66658L12.4997 2.49992ZM10.833 15.8333H9.16634V19.1666H10.833V15.8333Z" fill="white"/>
</svg>