<svg width="36" height="36" viewBox="0 0 36 36" fill="none" xmlns="http://www.w3.org/2000/svg">
<rect width="36" height="36" rx="18" fill="#667085"/>
<path d="M27.1663 18L25.1663 15.6667L25.4163 12.5833L22.4163 11.9167L20.833 9.25L17.9997 10.5L15.1663 9.25L13.583 11.9167L10.583 12.5833L10.833 15.6667L8.83301 18L10.833 20.3333L10.583 23.4167L13.583 24.0833L15.1663 26.75L17.9997 25.5L20.833 26.75L22.4163 24.0833L25.4163 23.4167L25.1663 20.3333L27.1663 18ZM23.583 22.0833L21.333 22.5833L20.1663 24.5833L17.9997 23.6667L15.833 24.5833L14.6663 22.5833L12.4163 22.0833L12.583 19.75L11.083 18L12.583 16.25L12.4163 13.9167L14.6663 13.4167L15.833 11.4167L17.9997 12.3333L20.1663 11.4167L21.333 13.4167L23.583 13.9167L23.4163 16.25L24.9163 18L23.4163 19.75L23.583 22.0833ZM21.833 14.3333L22.9997 15.5L16.333 22.1667L12.9997 18.8333L14.1663 17.6667L16.333 19.8333L21.833 14.3333Z" fill="white"/>
</svg>