<svg width="17" height="18" viewBox="0 0 17 18" fill="none" xmlns="http://www.w3.org/2000/svg">
<path d="M8.49996 0.666016C3.91663 0.666016 0.166626 4.41602 0.166626 8.99935C0.166626 13.5827 3.91663 17.3327 8.49996 17.3327C13.0833 17.3327 16.8333 13.5827 16.8333 8.99935C16.8333 4.41602 13.0833 0.666016 8.49996 0.666016ZM8.49996 15.666C4.82496 15.666 1.83329 12.6743 1.83329 8.99935C1.83329 5.32435 4.82496 2.33268 8.49996 2.33268C12.175 2.33268 15.1666 5.32435 15.1666 8.99935C15.1666 12.6743 12.175 15.666 8.49996 15.666ZM12.325 5.31602L6.83329 10.8077L4.67496 8.65768L3.49996 9.83268L6.83329 13.166L13.5 6.49935L12.325 5.31602Z" fill="#25009D"/>
</svg>
