<svg width="20" height="20" viewBox="0 0 20 20" fill="none" xmlns="http://www.w3.org/2000/svg">
<path d="M9.99935 1.66663C5.41602 1.66663 1.66602 5.41663 1.66602 9.99996C1.66602 14.5833 5.41602 18.3333 9.99935 18.3333C14.5827 18.3333 18.3327 14.5833 18.3327 9.99996C18.3327 5.41663 14.5827 1.66663 9.99935 1.66663ZM9.99935 16.6666C6.32435 16.6666 3.33268 13.675 3.33268 9.99996C3.33268 6.32496 6.32435 3.33329 9.99935 3.33329C13.6743 3.33329 16.666 6.32496 16.666 9.99996C16.666 13.675 13.6743 16.6666 9.99935 16.6666ZM13.8243 6.31663L8.33268 11.8083L6.17435 9.65829L4.99935 10.8333L8.33268 14.1666L14.9993 7.49996L13.8243 6.31663Z" fill="white"/>
</svg>
