<svg width="17" height="18" viewBox="0 0 17 18" fill="none" xmlns="http://www.w3.org/2000/svg">
<path d="M8.50002 0.666016C3.91669 0.666016 0.166687 4.41602 0.166687 8.99935C0.166687 13.5827 3.91669 17.3327 8.50002 17.3327C13.0834 17.3327 16.8334 13.5827 16.8334 8.99935C16.8334 4.41602 13.0834 0.666016 8.50002 0.666016ZM8.50002 15.666C4.82502 15.666 1.83335 12.6743 1.83335 8.99935C1.83335 5.32435 4.82502 2.33268 8.50002 2.33268C12.175 2.33268 15.1667 5.32435 15.1667 8.99935C15.1667 12.6743 12.175 15.666 8.50002 15.666ZM12.325 5.31602L6.83335 10.8077L4.67502 8.65768L3.50002 9.83268L6.83335 13.166L13.5 6.49935L12.325 5.31602Z" fill="#202124"/>
</svg>
