<svg width="20" height="17" viewBox="0 0 20 17" fill="none" xmlns="http://www.w3.org/2000/svg">
<path d="M18.1 8.5L19.5 9.91L12.97 16.5L9.5 13L10.9 11.59L12.97 13.67L18.1 8.5ZM8 0C9.06087 0 10.0783 0.421427 10.8284 1.17157C11.5786 1.92172 12 2.93913 12 4C12 5.06087 11.5786 6.07828 10.8284 6.82843C10.0783 7.57857 9.06087 8 8 8C6.93913 8 5.92172 7.57857 5.17157 6.82843C4.42143 6.07828 4 5.06087 4 4C4 2.93913 4.42143 1.92172 5.17157 1.17157C5.92172 0.421427 6.93913 0 8 0ZM8 2C7.46957 2 6.96086 2.21071 6.58579 2.58579C6.21071 2.96086 6 3.46957 6 4C6 4.53043 6.21071 5.03914 6.58579 5.41421C6.96086 5.78929 7.46957 6 8 6C8.53043 6 9.03914 5.78929 9.41421 5.41421C9.78929 5.03914 10 4.53043 10 4C10 3.46957 9.78929 2.96086 9.41421 2.58579C9.03914 2.21071 8.53043 2 8 2ZM8 9C8.68 9 9.5 9.09 10.41 9.26L8.74 10.93L8 10.9C5.03 10.9 1.9 12.36 1.9 13V14.1H8.1L10 16H0V13C0 10.34 5.33 9 8 9Z" fill="white"/>
</svg>
