<svg width="18" height="10" viewBox="0 0 18 10" fill="none" xmlns="http://www.w3.org/2000/svg">
<path d="M5.24996 10C4.03438 10 2.8686 9.51712 2.00905 8.65758C1.14951 7.79804 0.666626 6.63225 0.666626 5.41668C0.666626 4.2011 1.14951 3.03531 2.00905 2.17577C2.8686 1.31623 4.03438 0.833344 5.24996 0.833344H14C14.884 0.833344 15.7319 1.18453 16.357 1.80965C16.9821 2.43478 17.3333 3.28262 17.3333 4.16668C17.3333 5.05073 16.9821 5.89858 16.357 6.5237C15.7319 7.14882 14.884 7.50001 14 7.50001H6.91663C6.36409 7.50001 5.83419 7.28052 5.44349 6.88982C5.05279 6.49911 4.83329 5.96921 4.83329 5.41668C4.83329 4.86414 5.05279 4.33424 5.44349 3.94354C5.83419 3.55284 6.36409 3.33334 6.91663 3.33334H13.1666V4.58334H6.91663C6.69561 4.58334 6.48365 4.67114 6.32737 4.82742C6.17109 4.9837 6.08329 5.19566 6.08329 5.41668C6.08329 5.63769 6.17109 5.84965 6.32737 6.00593C6.48365 6.16221 6.69561 6.25001 6.91663 6.25001H14C14.2735 6.25001 14.5445 6.19612 14.7972 6.09143C15.05 5.98673 15.2796 5.83327 15.4731 5.63982C15.6666 5.44636 15.82 5.2167 15.9247 4.96393C16.0294 4.71117 16.0833 4.44026 16.0833 4.16668C16.0833 3.89309 16.0294 3.62218 15.9247 3.36942C15.82 3.11666 15.6666 2.88699 15.4731 2.69354C15.2796 2.50008 15.05 2.34662 14.7972 2.24193C14.5445 2.13723 14.2735 2.08334 14 2.08334H5.24996C4.3659 2.08334 3.51806 2.43453 2.89294 3.05965C2.26782 3.68478 1.91663 4.53262 1.91663 5.41668C1.91663 6.30073 2.26782 7.14858 2.89294 7.7737C3.51806 8.39882 4.3659 8.75001 5.24996 8.75001H13.1666V10H5.24996Z" fill="#202124"/>
</svg>
