<svg width="36" height="36" viewBox="0 0 36 36" xmlns="http://www.w3.org/2000/svg">
  <rect width="36" height="36" rx="18" fill="#667085"/>
  <path d="M21.41 11.58L14.41 18.58C13.63 19.36 13.63 20.64 14.41 21.42C15.19 22.2 16.47 22.2 17.25 21.42L24.25 14.42L22.83 13L15.83 20C15.64 20.19 15.36 20.19 15.17 20C14.98 19.81 14.98 19.53 15.17 19.34L22.17 12.34L20.75 10.92L13.75 17.92C12.57 19.1 12.57 20.9 13.75 22.08C14.93 23.26 16.73 23.26 17.91 22.08L24.91 15.08L21.41 11.58Z" fill="white"/>
</svg>
