<svg width="24" height="24" viewBox="0 0 24 24" fill="none" xmlns="http://www.w3.org/2000/svg">
<path d="M13 4V2C17.66 2.5 21.33 6.19 21.85 10.85C22.4501 16.34 18.5 21.28 13 21.88V19.88C16.64 19.43 19.5 16.56 19.96 12.92C20.5 8.53 17.39 4.54 13 4ZM5.67005 4.2C7.19005 2.95 9.04005 2.18 11 2V4.06C9.57005 4.26 8.22005 4.84 7.10005 5.74L5.67005 4.2ZM2.05005 11C2.24005 9.04 3.00005 7.19 4.26005 5.67L5.69005 7.1C4.80005 8.23 4.24005 9.58 4.05005 11H2.05005ZM4.27005 18.33C3.03005 16.81 2.26005 14.96 2.06005 13H4.06005C4.24005 14.42 4.81005 15.77 5.69005 16.9L4.27005 18.33ZM5.67005 19.74L7.06005 18.37H7.10005C8.23005 19.25 9.58005 19.82 11 20V22C9.04005 21.79 7.18005 21 5.67005 19.74ZM12 17L13.56 13.58L17 12L13.56 10.44L12 7L10.43 10.44L7.00005 12L10.43 13.58L12 17Z" fill="white"/>
</svg>
