<svg width="20" height="20" viewBox="0 0 20 20" fill="none" xmlns="http://www.w3.org/2000/svg">
<path d="M10.8333 3.33341V1.66675C14.7166 2.08341 17.7749 5.15842 18.2083 9.04175C18.7083 13.6167 15.4166 17.7334 10.8333 18.2334V16.5667C13.8666 16.1917 16.2499 13.8001 16.6333 10.7667C17.0833 7.10842 14.4916 3.78341 10.8333 3.33341ZM4.72492 3.50008C5.99158 2.45841 7.53325 1.81675 9.16658 1.66675V3.38341C7.97492 3.55008 6.84992 4.03341 5.91658 4.78341L4.72492 3.50008ZM1.70825 9.16675C1.86659 7.53341 2.49992 5.99175 3.54992 4.72508L4.74159 5.91675C3.99992 6.85841 3.53325 7.98342 3.37492 9.16675H1.70825ZM3.55825 15.2751C2.52492 14.0084 1.88325 12.4667 1.71659 10.8334H3.38325C3.53325 12.0167 4.00825 13.1417 4.74159 14.0834L3.55825 15.2751ZM4.72492 16.4501L5.88325 15.3084H5.91658C6.85825 16.0417 7.98325 16.5167 9.16658 16.6667V18.3334C7.53325 18.1584 5.98325 17.5001 4.72492 16.4501ZM9.99992 14.1667L11.2999 11.3167L14.1666 10.0001L11.2999 8.70008L9.99992 5.83342L8.69158 8.70008L5.83325 10.0001L8.69158 11.3167L9.99992 14.1667Z" fill="#202124"/>
</svg>
