<svg width="16" height="10" viewBox="0 0 16 10" fill="none" xmlns="http://www.w3.org/2000/svg">
<path d="M0.833252 0H15.8333V10H0.833252V0ZM8.33325 2.5C8.99629 2.5 9.63218 2.76339 10.101 3.23223C10.5699 3.70107 10.8333 4.33696 10.8333 5C10.8333 5.66304 10.5699 6.29893 10.101 6.76777C9.63218 7.23661 8.99629 7.5 8.33325 7.5C7.67021 7.5 7.03433 7.23661 6.56548 6.76777C6.09664 6.29893 5.83325 5.66304 5.83325 5C5.83325 4.33696 6.09664 3.70107 6.56548 3.23223C7.03433 2.76339 7.67021 2.5 8.33325 2.5ZM4.16659 1.66667C4.16659 2.10869 3.99099 2.53262 3.67843 2.84518C3.36587 3.15774 2.94195 3.33333 2.49992 3.33333V6.66667C2.94195 6.66667 3.36587 6.84226 3.67843 7.15482C3.99099 7.46738 4.16659 7.89131 4.16659 8.33333H12.4999C12.4999 7.89131 12.6755 7.46738 12.9881 7.15482C13.3006 6.84226 13.7246 6.66667 14.1666 6.66667V3.33333C13.7246 3.33333 13.3006 3.15774 12.9881 2.84518C12.6755 2.53262 12.4999 2.10869 12.4999 1.66667H4.16659Z" fill="#1570EF"/>
</svg>
