<svg width="18" height="18" viewBox="0 0 18 18" fill="none" xmlns="http://www.w3.org/2000/svg">
<path d="M8.99999 0.666504C4.41666 0.666504 0.666656 4.4165 0.666656 8.99984C0.666656 13.5832 4.41666 17.3332 8.99999 17.3332C13.5833 17.3332 17.3333 13.5832 17.3333 8.99984C17.3333 4.4165 13.5833 0.666504 8.99999 0.666504ZM8.99999 15.6665C5.32499 15.6665 2.33332 12.6748 2.33332 8.99984C2.33332 5.32484 5.32499 2.33317 8.99999 2.33317C12.675 2.33317 15.6667 5.32484 15.6667 8.99984C15.6667 12.6748 12.675 15.6665 8.99999 15.6665ZM12.825 5.3165L7.33332 10.8082L5.17499 8.65817L3.99999 9.83317L7.33332 13.1665L14 6.49984L12.825 5.3165Z" fill="#19AF9D"/>
</svg>
