<svg width="16" height="15" viewBox="0 0 16 15" fill="none" xmlns="http://www.w3.org/2000/svg">
<path d="M7.16667 10H12.1667V11.6667H7.16667V10ZM5.5 3.33333H3.83333V5H5.5V3.33333ZM7.16667 8.33333H12.1667V6.66667H7.16667V8.33333ZM7.16667 5H12.1667V3.33333H7.16667V5ZM5.5 6.66667H3.83333V8.33333H5.5V6.66667ZM15.5 1.66667V13.3333C15.5 14.25 14.75 15 13.8333 15H2.16667C1.25 15 0.5 14.25 0.5 13.3333V1.66667C0.5 0.75 1.25 0 2.16667 0H13.8333C14.75 0 15.5 0.75 15.5 1.66667ZM13.8333 1.66667H2.16667V13.3333H13.8333V1.66667ZM5.5 10H3.83333V11.6667H5.5V10Z" fill="black"/>
</svg>