<svg width="40" height="40" viewBox="0 0 40 40" fill="none" xmlns="http://www.w3.org/2000/svg">
<g filter="url(#filter0_d_7671_41298)">
<rect x="2" y="1" width="36" height="36" rx="4" fill="white"/>
<rect x="2.5" y="1.5" width="35" height="35" rx="3.5" stroke="#D0D5DD"/>
<path d="M18.3333 26.4998H21.6667C21.6667 27.4165 20.9167 28.1665 20 28.1665C19.0833 28.1665 18.3333 27.4165 18.3333 26.4998ZM27.5 24.8332V25.6665H12.5V24.8332L14.1667 23.1665V18.1665C14.1667 15.5832 15.8333 13.3332 18.3333 12.5832V12.3332C18.3333 11.4165 19.0833 10.6665 20 10.6665C20.9167 10.6665 21.6667 11.4165 21.6667 12.3332V12.5832C24.1667 13.3332 25.8333 15.5832 25.8333 18.1665V23.1665L27.5 24.8332ZM24.1667 18.1665C24.1667 15.8332 22.3333 13.9998 20 13.9998C17.6667 13.9998 15.8333 15.8332 15.8333 18.1665V23.9998H24.1667V18.1665Z" fill="#202124"/>
</g>
<defs>
<filter id="filter0_d_7671_41298" x="0" y="0" width="40" height="40" filterUnits="userSpaceOnUse" color-interpolation-filters="sRGB">
<feFlood flood-opacity="0" result="BackgroundImageFix"/>
<feColorMatrix in="SourceAlpha" type="matrix" values="0 0 0 0 0 0 0 0 0 0 0 0 0 0 0 0 0 0 127 0" result="hardAlpha"/>
<feOffset dy="1"/>
<feGaussianBlur stdDeviation="1"/>
<feColorMatrix type="matrix" values="0 0 0 0 0.0627451 0 0 0 0 0.0941176 0 0 0 0 0.156863 0 0 0 0.05 0"/>
<feBlend mode="normal" in2="BackgroundImageFix" result="effect1_dropShadow_7671_41298"/>
<feBlend mode="normal" in="SourceGraphic" in2="effect1_dropShadow_7671_41298" result="shape"/>
</filter>
</defs>
</svg>
