<svg width="1656" height="1045" viewBox="0 0 1656 1045" fill="none" xmlns="http://www.w3.org/2000/svg">
<g clip-path="url(#clip0_7726_45121)">
<path d="M1656 0H0V1104H1656V0Z" fill="url(#paint0_linear_7726_45121)"/>
<mask id="mask0_7726_45121" style="mask-type:luminance" maskUnits="userSpaceOnUse" x="0" y="0" width="1656" height="1104">
<path d="M1656 0H0V1104H1656V0Z" fill="white"/>
</mask>
<g mask="url(#mask0_7726_45121)">
<path d="M1642.03 1040.83C1641.73 1040.52 1611.03 1009.3 1549.77 975.604C1493.24 944.508 1398.37 904.894 1267.5 892.763C1123.6 879.421 1013.15 923.378 906.345 965.885C825.875 997.91 742.665 1031.03 647.261 1037.84C486.178 1049.34 354.682 1015.66 258.667 991.065C223.252 981.995 192.669 974.159 167.373 970.352C78.6228 956.996 -16.1253 981.84 -17.0719 982.094L-17.428 980.76C-16.4785 980.506 78.54 955.586 167.579 968.988C192.942 972.805 223.559 980.648 259.009 989.73C354.933 1014.3 486.305 1047.96 647.163 1036.46C742.353 1029.67 825.464 996.59 905.835 964.604C1012.79 922.035 1123.38 878.024 1267.62 891.388C1398.77 903.546 1493.84 943.255 1550.49 974.427C1611.91 1008.22 1642.71 1039.56 1643.02 1039.87L1642.03 1040.83Z" fill="#4DB151"/>
<path d="M1645.47 1069.73C1640.08 1064.76 1510.67 947.661 1268.44 926.911C1229.52 923.72 1190.8 924.67 1153.35 929.726C1071.94 940.721 997.221 967.174 924.967 992.755C837.22 1023.82 746.486 1055.95 646.167 1058.48C613.573 1059.3 579.891 1057.84 543.189 1054.01C446.652 1043.95 360.51 1022.16 291.293 1004.66C244.318 992.778 203.749 982.518 170.155 978.239C87.0338 967.654 -4.30014 989.101 -13.8898 993.38L-14.4514 992.119C-4.81212 987.819 86.9386 966.246 170.329 976.87C204.007 981.159 244.613 991.429 291.633 1003.32C360.806 1020.81 446.895 1042.59 543.332 1052.64C579.974 1056.46 613.599 1057.92 646.133 1057.1C746.232 1054.57 832.829 1023.91 924.506 991.452C996.826 965.848 1071.61 939.372 1153.16 928.359C1190.71 923.286 1229.54 922.336 1268.56 925.535C1511.26 946.323 1641 1063.73 1646.41 1068.72L1645.47 1069.73Z" fill="#4DB151"/>
<path d="M1648.88 1098.6C1647.6 1097.42 1509.41 978.975 1269.39 961.059C1230.5 958.156 1191.8 959.686 1154.35 965.599C1083.62 976.769 1015.27 998.334 949.163 1019.19C855.552 1048.72 758.855 1079.23 656.278 1079.23C652.547 1079.23 648.819 1079.19 645.073 1079.11C613.671 1078.42 580.469 1075.01 543.568 1068.68C467.915 1055.69 398.013 1037.55 336.339 1021.55C273.016 1005.12 218.328 990.926 172.939 986.124C87.9929 977.144 1.34959 999.274 -10.8082 1004.7L-11.3699 1003.44C0.845887 997.989 87.859 975.732 173.085 984.752C218.577 989.564 273.31 1003.77 336.687 1020.21C398.334 1036.21 468.208 1054.34 543.803 1067.31C580.635 1073.64 613.772 1077.04 645.104 1077.73C751.64 1080.09 851.841 1048.45 948.75 1017.87C1014.9 997.004 1083.3 975.42 1154.14 964.235C1191.7 958.304 1230.51 956.775 1269.49 959.681C1509.97 977.632 1648.53 1096.4 1649.82 1097.59L1648.88 1098.6Z" fill="#4DB151"/>
<path d="M1652.3 1127.48C1647.44 1122.99 1608.59 1093.78 1541.27 1063.24C1482.1 1036.4 1387.06 1002.81 1270.33 995.205C1231.01 992.641 1192.33 994.75 1155.36 1001.47C1097 1012.07 1037.95 1028.81 980.839 1045C871.88 1075.89 759.214 1107.82 643.977 1099.74C612.505 1097.53 580.719 1092.32 543.946 1083.33C493.982 1071.12 446.506 1057.79 400.592 1044.89C313.611 1020.46 238.492 999.362 175.721 994.007C96.6235 987.26 12.4393 1007.02 -7.72936 1016.02L-8.29102 1014.76C12.6588 1005.41 95.3925 985.77 175.838 992.633C238.739 997.998 313.917 1019.11 400.966 1043.56C446.869 1056.46 494.334 1069.79 544.275 1081.99C580.97 1090.96 612.683 1096.16 644.075 1098.36C759.063 1106.43 871.619 1074.53 980.465 1043.67C1037.6 1027.48 1096.69 1010.73 1155.11 1000.11C1192.2 993.372 1231 991.26 1270.43 993.828C1387.36 1001.45 1482.57 1035.1 1541.84 1061.99C1609.33 1092.6 1648.35 1121.95 1653.24 1126.46L1652.3 1127.48Z" fill="#4DB151"/>
<path d="M1655.71 1156.35C1648.47 1149.66 1605.53 1120.97 1538.4 1092.53C1478.47 1067.14 1383.48 1035.56 1271.28 1029.35C1231.37 1027.15 1192.71 1029.83 1156.36 1037.34C1112.81 1046.34 1069.19 1057.67 1023.01 1069.67C898.399 1102.04 769.546 1135.51 642.881 1120.37C611.597 1116.63 579.357 1109.31 544.322 1097.99C527.861 1092.67 511.522 1087.33 495.334 1082.03C378.512 1043.84 268.169 1007.77 178.5 1001.89C100.79 996.8 20.867 1015.96 -4.65196 1027.34L-5.21362 1026.08C25.599 1012.33 106.616 995.806 178.59 1000.52C268.432 1006.4 378.856 1042.5 495.764 1080.72C511.95 1086.02 528.288 1091.36 544.745 1096.68C579.695 1107.97 611.849 1115.28 643.044 1119C769.459 1134.1 898.177 1100.67 1022.66 1068.33C1068.86 1056.33 1112.49 1045 1156.08 1035.99C1192.54 1028.46 1231.33 1025.76 1271.36 1027.98C1383.75 1034.2 1478.91 1065.82 1538.94 1091.26C1606.23 1119.77 1649.36 1148.61 1656.65 1155.34L1655.71 1156.35Z" fill="#4DB151"/>
<path d="M1659.13 1185.22C1649.81 1176.62 1602.56 1148.32 1535.54 1121.86C1474.91 1097.92 1380.01 1068.36 1272.23 1063.5C1231.59 1061.67 1192.94 1064.94 1157.36 1073.21C1132.69 1078.95 1107.68 1085.16 1081.2 1091.73C942.276 1126.22 784.819 1165.31 641.786 1141C609.823 1135.57 578.065 1126.29 544.694 1112.64C421.493 1062.24 292.196 1014.89 181.28 1009.78C111.751 1006.58 35.1749 1022.27 -1.57311 1038.66L-2.13477 1037.4C34.7582 1020.94 111.599 1005.17 181.343 1008.4C292.469 1013.52 421.901 1060.91 545.217 1111.36C578.492 1124.97 610.156 1134.22 642.016 1139.64C784.765 1163.9 942.075 1124.85 1080.86 1090.39C1107.35 1083.82 1132.36 1077.61 1157.05 1071.87C1192.75 1063.56 1231.53 1060.28 1272.29 1062.12C1380.26 1066.99 1475.32 1096.59 1536.04 1120.57C1603.23 1147.1 1650.68 1175.55 1660.06 1184.2L1659.13 1185.22Z" fill="#4DB151"/>
<path d="M1662.54 1214.09C1653 1205.29 1605.12 1177.81 1532.67 1151.23C1471.41 1128.75 1376.66 1101.2 1273.17 1097.65C1231.68 1096.23 1193.05 1100.07 1158.37 1109.08C1053.14 1136.43 906.972 1174.41 768.094 1174.42C724.402 1174.42 681.441 1170.66 640.691 1161.63C608.228 1154.43 576.056 1142.88 545.071 1127.28C405.858 1057.23 284.396 1020.35 184.06 1017.66C112.291 1015.74 40.6672 1032.51 1.50697 1049.98L0.945312 1048.72C40.2477 1031.19 112.133 1014.37 184.098 1016.28C284.637 1018.97 406.295 1055.9 545.691 1126.05C576.574 1141.59 608.637 1153.11 640.989 1160.28C810.942 1197.94 1019.81 1143.66 1158.02 1107.75C1192.83 1098.7 1231.58 1094.85 1273.22 1096.27C1376.89 1099.83 1471.79 1127.42 1533.15 1149.93C1605.78 1176.59 1653.87 1204.21 1663.48 1213.08L1662.54 1214.09Z" fill="#4DB151"/>
<path d="M1665.96 1242.97C1654.86 1232.73 1603.92 1205.84 1529.8 1180.64C1467.98 1159.62 1373.45 1134.09 1274.12 1131.8C1231.62 1130.82 1193.02 1135.24 1159.38 1144.95C1072.07 1170.15 984.586 1187.85 906.38 1196.16C802.968 1207.14 713.208 1202.46 639.594 1182.25C606.012 1173.03 574.335 1159.46 545.446 1141.93C458.89 1089.39 326.416 1026.55 186.841 1025.55C124.836 1025.1 55.0207 1038.8 4.58583 1061.31L4.02417 1060.04C54.6274 1037.47 124.689 1023.69 186.851 1024.17C326.74 1025.17 459.459 1088.12 546.163 1140.75C574.944 1158.22 606.502 1171.73 639.96 1180.92C713.406 1201.08 802.993 1205.75 906.235 1194.79C984.361 1186.49 1071.76 1168.8 1158.99 1143.63C1192.77 1133.88 1231.52 1129.44 1274.16 1130.42C1373.65 1132.71 1468.34 1158.28 1530.24 1179.33C1605.37 1204.88 1655.38 1231.33 1666.89 1241.95L1665.96 1242.97Z" fill="#4DB151"/>
<path d="M1669.37 1271.84C1640.75 1245.42 1446.88 1167.84 1275.07 1165.95C1231.47 1165.47 1192.86 1170.47 1160.38 1180.82C1083.4 1205.36 993.563 1222.23 907.423 1228.31C804.236 1235.59 711.247 1226.79 638.5 1202.87C603.714 1191.44 572.534 1175.86 545.825 1156.56C435.665 1077 311.528 1033.39 195.583 1033.39C193.589 1033.39 191.612 1033.4 189.623 1033.43C127.126 1034.24 62.5058 1048.16 7.66737 1072.63L7.10571 1071.36C62.1125 1046.82 126.926 1032.86 189.607 1032.05C307.546 1030.54 434.341 1074.34 546.635 1155.44C573.229 1174.65 604.281 1190.17 638.932 1201.56C792.576 1252.08 1011.33 1226.89 1159.96 1179.51C1192.59 1169.11 1231.31 1164.07 1275.09 1164.56C1447.22 1166.47 1641.58 1244.31 1670.31 1270.82L1669.37 1271.84Z" fill="#4DB151"/>
<path d="M1672.78 1300.71C1652.8 1282.26 1563.88 1246.97 1463.36 1223.85C1390.66 1207.12 1254.76 1183.94 1161.39 1216.69C1075.02 1246.98 954.169 1263.81 845.977 1260.63C784.487 1258.81 728.422 1250.96 679.337 1237.28C624.602 1222.03 579.81 1199.8 546.204 1171.2C472.874 1108.79 387.308 1066.79 298.759 1049.73C251.7 1040.67 204.008 1038.69 157.011 1043.86C107.347 1049.32 58.1366 1062.8 10.7433 1083.95L10.1816 1082.69C57.7047 1061.49 107.055 1047.96 156.86 1042.48C203.994 1037.3 251.827 1039.29 299.021 1048.37C387.803 1065.48 473.588 1107.58 547.1 1170.15C580.552 1198.62 625.168 1220.76 679.708 1235.95C728.686 1249.6 784.64 1257.43 846.02 1259.25C954.031 1262.44 1074.71 1245.63 1160.93 1215.39C1254.63 1182.53 1390.83 1205.74 1463.67 1222.5C1564.4 1245.68 1653.6 1281.13 1673.72 1299.7L1672.78 1300.71Z" fill="#4DB151"/>
<path d="M1650.81 1255.22C1462.18 1081.1 1113.75 1195.44 898.074 1205.49C563.364 1221.09 322.471 889.119 -11.9771 1038.33V1314.5H1650.81V1255.22Z" fill="url(#paint1_linear_7726_45121)"/>
<path d="M1656.65 1204.52C1644.06 1197.85 1631.04 1191.98 1617.75 1186.84C1603.52 1181.34 1588.97 1176.66 1574.25 1172.64C1558.05 1168.22 1541.63 1164.61 1525.11 1161.6C1506.81 1158.27 1488.38 1155.68 1469.89 1153.63C1449.32 1151.35 1428.68 1149.73 1408.02 1148.58C1385 1147.3 1361.95 1146.6 1338.9 1146.3C1313.25 1145.97 1287.59 1146.13 1261.95 1146.64C1233.48 1147.2 1205.02 1148.19 1176.58 1149.46C1145.1 1150.86 1113.64 1152.62 1082.2 1154.6C1047.53 1156.79 1012.88 1159.26 978.239 1161.92C946.317 1164.37 914.322 1165.91 882.302 1166C855.82 1166.08 829.319 1165.2 802.928 1162.94C781.404 1161.09 759.943 1158.33 738.722 1154.27C721.435 1150.95 704.296 1146.78 687.537 1141.38C674.23 1137.1 661.153 1132.04 648.563 1125.95C638.554 1121.11 628.845 1115.61 619.704 1109.27C612.676 1104.39 605.976 1099.02 599.838 1093.06C595.233 1088.59 590.937 1083.78 587.138 1078.61C584.578 1075.12 582.232 1071.46 580.253 1067.61C579.226 1065.61 578.266 1063.55 577.545 1061.42C577.456 1061.15 577.369 1060.89 577.29 1060.62C578.466 1062.35 579.803 1063.97 581.158 1065.56C584.963 1070.03 589.151 1074.17 593.535 1078.06C600.44 1084.2 607.879 1089.72 615.647 1094.71C626.177 1101.47 637.328 1107.25 648.835 1112.15C663.41 1118.37 678.565 1123.19 693.977 1126.84C713.301 1131.42 733.037 1134.18 752.844 1135.53C777.186 1137.18 801.65 1136.72 825.958 1134.72C856.051 1132.24 885.928 1127.42 915.42 1120.99C951.299 1113.17 986.637 1102.94 1021.39 1091.12C1057.43 1078.85 1092.9 1064.9 1127.6 1049.26C1159.14 1035.04 1190.05 1019.46 1220.28 1002.64C1249.06 986.638 1277.21 969.515 1304.7 951.392C1330.69 934.265 1356.08 916.243 1380.85 897.413C1403.72 880.033 1426.06 861.966 1447.86 843.265C1467.8 826.158 1487.29 808.52 1506.3 790.384C1522.99 774.459 1539.32 758.149 1555.25 741.462C1568.82 727.249 1582.11 712.764 1595.07 697.996C1605.31 686.338 1615.34 674.506 1625.13 662.474C1632 654.032 1638.76 645.495 1645.34 636.83C1648.78 632.304 1652.18 627.746 1655.48 623.117C1655.89 622.553 1656.29 621.988 1656.68 621.42L1656.65 1204.52Z" fill="url(#paint2_linear_7726_45121)"/>
<path d="M-11.9771 815.25C183.104 792.273 379.823 855.76 540.093 964.271C719.6 1085.81 922.553 1094.7 1094.45 951.813C1008.88 1097.88 736.187 1131.97 598.173 1054.8C525.634 1014.24 468.601 950.369 396.954 907.934C273.308 834.701 129.234 819.68 -11.9771 828.815V815.25Z" fill="url(#paint3_linear_7726_45121)" fill-opacity="0.6"/>
<path d="M-3.16724 126.892C183.091 49.6233 404.91 32.8108 601.448 71.0726C838.642 117.249 1067.82 216.093 1314.41 179.352C1423.06 163.164 1557.53 121.779 1659.17 187.398V-54.7461H-3.16724V126.892Z" fill="url(#paint4_linear_7726_45121)"/>
<path d="M1144.87 187.184C1114.78 198.181 1082.12 205.045 1049.25 209.449C1014.07 214.162 978.188 216.044 942.47 215.477C908.745 214.94 874.899 212.261 842.037 206.459C801.086 199.227 761.051 189.341 721.387 178.903C681.643 168.444 642.186 157.365 602.146 147.545C562.442 137.808 522.119 129.573 481.158 123.374C440.21 117.177 398.718 112.933 357.023 110.935C315.474 108.944 273.715 109.188 232.24 111.978C191.556 114.715 150.983 119.796 111.55 127.829C75.3011 135.213 39.6143 145.54 8.50906 161.545C0.988056 165.415 -6.23762 169.608 -13.0769 174.132C34.6269 167.992 83.0484 165.017 131.448 165.083C179.868 165.15 228.204 168.318 275.935 174.38C322.714 180.323 369.426 187.646 414.057 199.922C453.605 210.799 491.109 225.344 528.003 240.465C564.851 255.566 601.254 271.335 639.158 284.932C676.215 298.224 714.892 309.416 755.34 315.302C792.068 320.645 829.855 321.72 867.069 319.002C904.441 316.271 941.348 309.71 976.304 299.433C1011.02 289.225 1043.89 275.304 1072.87 257.683C1086.55 249.364 1098.82 240.106 1110.93 230.551C1122.15 221.692 1134.24 212.502 1141.42 201.393C1144.22 197.066 1146.4 192.011 1144.87 187.184Z" fill="url(#paint5_linear_7726_45121)"/>
<path d="M1758.43 490.936C1601.16 454.281 1451.2 381.811 1324.76 281.358C1307.32 267.504 1290.01 252.876 1273.28 238.729C1241.1 211.527 1207.82 183.397 1172.22 159.621C1109.03 117.407 1047.96 96.4446 990.731 97.2436C957.808 97.717 925.094 105.481 893.457 112.989C879.37 116.332 864.803 119.79 850.39 122.564C768.111 138.406 680.765 132.625 597.797 105.851C514.834 79.0745 440.587 32.7052 383.088 -28.2453L384.093 -29.1934C441.433 31.5887 515.478 77.8325 598.223 104.537C680.969 131.241 768.076 137.006 850.131 121.209C864.515 118.44 879.067 114.986 893.14 111.647C924.85 104.122 957.638 96.3411 990.713 95.8636C1048.25 95.0605 1109.56 116.1 1172.99 158.474C1208.65 182.294 1241.96 210.449 1274.17 237.677C1290.9 251.817 1308.19 266.439 1325.61 280.279C1451.9 380.606 1601.67 452.986 1758.74 489.594L1758.43 490.936Z" fill="url(#paint6_linear_7726_45121)"/>
<path d="M1758.82 469.259C1601.32 430.297 1451.42 359.599 1325.32 264.806C1307.87 251.676 1290.52 237.83 1273.74 224.44C1253.58 208.359 1232.75 191.73 1211.62 176.26C1197.38 165.836 1184.26 156.839 1171.49 148.754C1108.01 108.539 1047 88.4438 990.084 89.0151C957.542 89.3421 925.188 96.4505 893.899 103.326C879.606 106.467 864.827 109.714 850.211 112.275C771.881 125.989 688.957 120.362 610.4 96.0048C568.666 83.0687 527.829 64.7657 489.021 41.601C450.323 18.504 415.136 -8.34393 384.431 -38.1961L385.393 -39.1855C416.019 -9.40653 451.123 17.3751 489.727 40.417C528.441 63.5251 569.178 81.7839 610.807 94.6869C689.157 118.98 771.859 124.591 849.971 110.916C864.556 108.36 879.321 105.116 893.601 101.977C924.959 95.0885 957.385 87.9635 990.068 87.6351C1047.28 87.0541 1108.52 107.228 1172.23 147.588C1185.02 155.69 1198.17 164.704 1212.43 175.146C1233.58 190.633 1254.43 207.27 1274.6 223.361C1291.37 236.744 1308.71 250.584 1326.15 263.702C1452.1 358.383 1601.83 429 1759.15 467.918L1758.82 469.259Z" fill="url(#paint7_linear_7726_45121)"/>
<path d="M1759.22 447.581C1601.1 406.165 1451.26 337.239 1325.89 248.257C1308.44 235.859 1291.08 222.807 1274.29 210.184C1253.79 194.776 1232.59 178.844 1211.15 164.036C1196.83 154.145 1183.61 145.593 1170.76 137.891C1107 99.6765 1046.01 80.4393 989.434 80.7899C957.305 80.9734 925.342 87.4304 894.432 93.6749C879.902 96.6102 864.876 99.6462 850.029 101.989C771.712 114.327 689.306 107.643 611.715 82.6584C571.415 69.6919 530.832 51.262 491.092 27.882C453.072 5.51223 416.654 -20.7768 385.776 -48.1435L386.691 -49.1758C417.504 -21.8656 453.847 4.36821 491.792 26.6939C531.445 50.0214 571.935 68.4099 612.139 81.346C689.524 106.265 771.71 112.934 849.815 100.627C864.633 98.2883 879.644 95.255 894.158 92.3225C925.133 86.0656 957.162 79.5948 989.425 79.4112C1046.3 79.0483 1107.49 98.3614 1171.47 136.709C1184.35 144.427 1197.59 152.994 1211.93 162.901C1233.4 177.727 1254.6 193.667 1275.11 209.083C1291.9 221.7 1309.26 234.747 1326.69 247.134C1451.92 336.021 1601.61 404.875 1759.57 446.248L1759.22 447.581Z" fill="url(#paint8_linear_7726_45121)"/>
<path d="M1759.61 425.903C1600.33 381.819 1450.55 314.667 1326.46 231.705C1309.06 220.05 1291.71 207.801 1274.94 195.955C1254.06 181.211 1232.47 165.965 1210.68 151.804C1196.25 142.432 1182.95 134.325 1170.02 127.021C1105.99 90.8043 1045.04 72.5235 988.785 72.5594C957.1 72.6008 925.563 78.4119 895.062 84.0313C880.263 86.7582 864.96 89.5775 849.848 91.6986C771.54 102.65 689.648 94.9085 613.032 69.3081C574.334 56.3913 534.005 37.8358 493.165 14.1591C455.514 -7.6697 418.846 -32.6546 387.124 -58.0935L387.988 -59.1699C419.656 -33.7738 456.265 -8.8289 493.858 12.9654C534.616 36.5966 574.858 55.1134 613.468 67.9998C689.887 93.5326 771.561 101.256 849.656 90.3324C864.738 88.2155 880.027 85.3989 894.812 82.6748C925.373 77.0444 956.973 71.2221 988.782 71.1794C988.904 71.1794 989.029 71.1794 989.149 71.1794C1045.51 71.1794 1106.59 89.5609 1170.7 125.82C1183.65 133.137 1196.98 141.259 1211.43 150.647C1233.25 164.822 1254.85 180.075 1275.73 194.827C1292.5 206.669 1309.84 218.913 1327.23 230.558C1451.2 313.44 1600.84 380.528 1759.98 424.573L1759.61 425.903Z" fill="url(#paint9_linear_7726_45121)"/>
<path d="M1760.01 404.224C1596.45 356.486 1450.77 292.873 1327.03 215.153C1309.71 204.25 1292.42 192.812 1275.7 181.752C1254.41 167.662 1232.39 153.093 1210.21 139.575C1195.68 130.726 1182.3 123.066 1169.29 116.155C1104.97 81.9349 1044.02 64.4986 988.135 64.333C987.846 64.333 987.554 64.3316 987.264 64.3316C956.358 64.3316 925.584 69.4528 895.81 74.407C880.703 76.9214 865.082 79.5213 849.666 81.4105C771.359 90.967 689.99 82.164 614.347 55.9605C576.952 43.0217 537.99 24.8595 495.236 0.436241C458.519 -20.537 421.601 -44.2164 388.474 -68.0435L389.28 -69.1641C422.368 -45.366 459.244 -21.7128 495.921 -0.762978C538.6 23.6175 577.484 41.7452 614.798 54.6551C690.244 80.7923 771.403 89.5677 849.499 80.0402C864.884 78.1523 880.491 75.5552 895.584 73.0449C925.69 68.0355 956.794 62.8385 988.139 62.9516C1044.25 63.1186 1105.42 80.6087 1169.94 114.936C1182.96 121.86 1196.37 129.534 1210.93 138.396C1233.13 151.928 1255.16 166.504 1276.46 180.601C1293.17 191.657 1310.45 203.091 1327.76 213.984C1451.4 291.637 1596.95 355.196 1760.39 402.898L1760.01 404.224Z" fill="url(#paint10_linear_7726_45121)"/>
<path d="M1760.41 382.546C1593.54 331.275 1447.92 269.388 1327.6 198.602C1310.41 188.464 1293.24 177.855 1276.64 167.593C1254.87 154.144 1232.37 140.238 1209.74 127.347C1195.12 119.021 1181.65 111.807 1168.56 105.289C1103.97 73.0647 1043.05 56.5157 987.486 56.1044C956.776 55.8602 926.25 60.4114 896.691 64.7998C881.232 67.0961 865.247 69.4698 849.485 71.1216C771.182 79.2678 690.327 69.4104 615.663 42.6108C579.932 29.8044 542.325 12.0424 497.31 -13.2861C463.213 -32.4695 427.05 -54.2403 389.829 -77.9929L390.572 -79.1562C427.772 -55.4189 463.912 -33.6618 497.987 -14.4894C542.932 10.799 580.472 28.5307 616.128 41.3108C690.599 68.0401 771.242 77.8767 849.342 69.7485C865.074 68.0994 881.044 65.7272 896.489 63.4336C926.103 59.037 956.744 54.4719 987.497 54.7231C1043.27 55.1371 1104.39 71.733 1169.17 104.053C1182.28 110.581 1195.78 117.808 1210.43 126.146C1233.07 139.049 1255.59 152.963 1277.36 166.419C1293.96 176.676 1311.13 187.283 1328.3 197.411C1448.52 268.141 1594.04 329.986 1760.81 381.226L1760.41 382.546Z" fill="url(#paint11_linear_7726_45121)"/>
<path d="M1760.8 360.869C1583.54 303.628 1446.07 246.808 1328.17 182.05C1311.2 172.702 1294.22 162.938 1277.8 153.496C1255.49 140.666 1232.42 127.399 1209.28 115.118C1194.56 107.32 1181 100.55 1167.83 94.4225C1102.05 63.7672 1042.85 48.5416 986.841 47.8765C956.759 47.5094 926.758 51.4286 897.744 55.2167C881.876 57.2881 865.47 59.4298 849.304 60.8319C771 67.5636 690.664 56.6478 616.98 29.263C574.179 13.382 533.515 -8.09357 499.383 -27.0065C477.593 -39.0801 456.044 -51.2945 435.205 -63.1059C419.684 -71.9034 405.023 -80.2124 391.187 -87.9417L391.859 -89.1465C405.699 -81.4157 420.362 -73.1054 435.884 -64.3065C456.72 -52.4964 478.266 -40.2834 500.051 -28.214C534.138 -9.3259 574.745 12.1193 617.46 27.9686C690.956 55.2829 771.086 66.1684 849.184 59.4574C865.319 58.0567 881.712 55.9177 897.564 53.8477C926.627 50.0541 956.682 46.146 986.856 46.4965C1043.07 47.1644 1102.45 62.4313 1168.41 93.1708C1181.61 99.3091 1195.18 106.089 1209.92 113.898C1233.09 126.19 1256.17 139.463 1278.49 152.3C1294.9 161.738 1311.87 171.498 1328.83 180.841C1446.66 245.555 1584.05 302.342 1761.22 359.555L1760.8 360.869Z" fill="url(#paint12_linear_7726_45121)"/>
<path d="M1761.2 339.189C1625.38 293.163 1467.79 236.533 1328.74 165.496C1312.08 156.954 1295.39 148.057 1279.24 139.454C1256.3 127.223 1232.57 114.576 1208.81 102.887C1194.01 95.613 1180.36 89.2885 1167.1 83.5532C1101.05 54.9223 1041.87 40.5607 986.189 39.6485C956.742 39.16 927.385 42.4637 898.978 45.6611C882.642 47.4993 865.751 49.3996 849.122 50.5422C770.817 55.8497 690.999 43.8727 618.297 15.9139C577.776 0.357132 538.357 -20.5982 501.456 -40.7296C460.765 -62.9255 424.484 -82.5491 392.548 -97.8933L393.145 -99.1367C425.112 -83.7773 461.41 -64.1468 502.117 -41.9412C538.978 -21.8319 578.35 -0.901421 618.792 14.625C691.31 42.512 770.92 54.46 849.03 49.165C865.628 48.0251 882.505 46.1262 898.824 44.2894C927.274 41.0878 956.691 37.7814 986.214 38.2671C1042.08 39.1821 1101.43 53.581 1167.65 82.2864C1180.93 88.0313 1194.6 94.3655 1209.42 101.649C1233.2 113.347 1256.94 126.001 1279.89 138.236C1296.03 146.837 1312.72 155.731 1329.37 164.268C1468.35 235.263 1625.87 291.871 1761.64 337.882L1761.2 339.189Z" fill="url(#paint13_linear_7726_45121)"/>
<path d="M1761.59 317.51L1736.99 308.779C1599.7 260.073 1457.74 209.709 1329.31 148.945C1313.08 141.235 1296.8 133.228 1281.05 125.485C1257.35 113.828 1232.84 101.775 1208.34 90.6576C1193.45 83.9094 1179.72 78.032 1166.37 72.6859C1100.05 46.0767 1040.91 32.5789 985.539 31.4211C956.848 30.8098 928.174 33.5228 900.453 36.1435C883.568 37.7387 866.11 39.3892 848.939 40.2545C770.628 44.1171 691.329 31.0871 619.61 2.5653C581.45 -12.5857 544.444 -32.4674 508.655 -51.6963L503.527 -54.4508C474.084 -70.2587 430.687 -92.9928 393.908 -107.846L394.426 -109.125C431.266 -94.2472 474.709 -71.4896 504.18 -55.6666L509.31 -52.9121C545.064 -33.7025 582.036 -13.8388 620.121 1.2819C691.657 29.7334 770.76 42.7316 848.871 38.8759C866.012 38.0134 883.455 36.3643 900.323 34.769C928.083 32.1456 956.794 29.4339 985.571 30.0411C1041.11 31.2031 1100.41 44.734 1166.88 71.4052C1180.26 76.7582 1194 82.6453 1208.91 89.4018C1233.43 100.529 1257.95 112.586 1281.66 124.247C1297.4 131.987 1313.68 139.993 1329.9 147.699C1458.27 208.432 1600.2 258.786 1737.45 307.479L1762.05 316.21L1761.59 317.51Z" fill="url(#paint14_linear_7726_45121)"/>
<path d="M1761.99 295.831C1720.16 280.28 1677.21 264.824 1635.68 249.877C1533.33 213.044 1427.49 174.954 1329.88 132.392C1314.25 125.546 1298.55 118.458 1283.36 111.605C1258.74 100.492 1233.27 89.0009 1207.88 78.4274C1192.9 72.2022 1179.08 66.7691 1165.64 61.8177C1099.07 37.2303 1039.94 24.5963 984.892 23.1929C957.02 22.4767 929.158 24.6074 902.215 26.6677C884.687 28.0091 866.565 29.3946 848.758 29.9632C770.434 32.3878 691.656 18.2911 620.927 -10.7841C587.771 -24.3881 555.421 -41.6367 524.136 -58.3182C517.958 -61.6123 511.781 -64.9049 505.599 -68.1728C460.542 -91.9778 424.455 -108.211 395.273 -117.8L395.705 -119.111C424.96 -109.497 461.119 -93.2336 506.245 -69.3927C512.428 -66.1262 518.607 -62.8322 524.786 -59.5367C556.04 -42.8718 588.359 -25.6398 621.451 -12.0606C692.004 16.9415 770.589 30.9996 848.714 28.5845C866.491 28.0174 884.598 26.6332 902.11 25.2932C929.088 23.2288 956.984 21.098 984.928 21.8143C1040.13 23.2219 1099.4 35.8834 1166.11 60.5233C1179.58 65.4816 1193.41 70.9216 1208.41 77.1536C1233.82 87.7355 1259.3 99.2309 1283.93 110.348C1299.11 117.2 1314.81 124.285 1330.43 131.128C1428.01 173.672 1533.82 211.753 1636.14 248.58C1677.68 263.528 1720.63 278.986 1762.47 294.54L1761.99 295.831Z" fill="url(#paint15_linear_7726_45121)"/>
<path d="M1762.38 274.152C1694.74 247.863 1624.75 223.149 1557.06 199.249C1481.62 172.615 1403.62 145.074 1330.45 115.837C1315.64 109.891 1300.75 103.759 1286.34 97.8282C1260.57 87.2229 1233.93 76.256 1207.41 66.1972C1192.34 60.4923 1178.43 55.5036 1164.91 50.9496C1098.09 28.3852 1038.99 16.6152 984.242 14.9661C957.32 14.1505 930.388 15.7251 904.337 17.25C886.049 18.3208 867.137 19.4276 848.574 19.6746C769.121 20.6475 692.978 5.90498 622.242 -24.1349C593.04 -36.5121 564.421 -51.7694 536.745 -66.5257C527.227 -71.6 517.387 -76.8453 507.671 -81.8961C463.656 -104.771 426.301 -120.202 396.639 -127.76L396.98 -129.098C426.743 -121.513 464.199 -106.045 508.306 -83.1216C518.028 -78.068 527.873 -72.8199 537.393 -67.7442C565.042 -53.0031 593.633 -37.761 622.78 -25.4058C693.339 4.55809 769.314 19.2827 848.555 18.2932C867.087 18.0476 885.982 16.9408 904.256 15.8713C930.332 14.3437 957.3 12.7677 984.282 13.5847C1039.17 15.2379 1098.4 27.0314 1165.35 49.6399C1178.89 54.1994 1192.81 59.1923 1207.9 64.9041C1234.43 74.9698 1261.09 85.9408 1286.86 96.5503C1301.27 102.48 1316.16 108.611 1330.96 114.555C1404.11 143.782 1482.09 171.317 1557.51 197.947C1625.21 221.85 1695.22 246.569 1762.88 272.866L1762.38 274.152Z" fill="url(#paint16_linear_7726_45121)"/>
<path d="M1762.78 252.473C1674.6 216.681 1582.53 185.591 1493.49 155.526C1439.66 137.347 1383.99 118.551 1331.02 99.2829C1317.4 94.3011 1303.67 89.1841 1290.4 84.2354C1263.13 74.0731 1234.95 63.5644 1206.94 53.9665C1191.8 48.786 1177.81 44.2444 1164.18 40.0809C1097.13 19.5397 1038.06 8.63213 983.593 6.7374C957.774 5.83487 931.918 6.88504 906.912 7.90349C887.712 8.68456 867.858 9.50015 848.391 9.3856C768.934 8.86121 693.291 -6.90668 623.558 -37.4833C597.563 -48.8614 571.999 -62.5621 547.277 -75.8128C535.009 -82.3885 522.324 -89.1864 509.744 -95.6172C465.891 -118.033 428.297 -132.197 398.01 -137.72L398.258 -139.076C428.677 -133.53 466.398 -119.321 510.374 -96.8454C522.965 -90.4091 535.656 -83.6071 547.93 -77.0286C572.628 -63.7903 598.168 -50.1021 624.114 -38.746C693.671 -8.24664 769.133 7.48259 848.399 8.00423C867.831 8.11325 887.671 7.30457 906.854 6.52348C931.888 5.50504 957.771 4.45212 983.64 5.35739C1038.23 7.25627 1097.42 18.1817 1164.58 38.7603C1178.23 42.9279 1192.23 47.4736 1207.39 52.6596C1235.41 62.2644 1263.61 72.7759 1290.88 82.941C1304.15 87.8883 1317.88 93.0053 1331.49 97.9857C1384.45 117.248 1440.11 136.042 1493.94 154.218C1582.99 184.29 1675.08 215.386 1763.3 251.193L1762.78 252.473Z" fill="url(#paint17_linear_7726_45121)"/>
<path d="M1763.17 230.793C1658.28 186.374 1547.64 151.424 1440.64 117.623C1404.65 106.255 1367.43 94.4988 1331.59 82.7274C1319.68 78.7902 1307.83 74.8255 1296.02 70.869C1266.75 61.071 1236.48 50.9363 1206.48 41.7331C1191.26 37.0742 1177.18 32.9784 1163.45 29.211C1096.18 10.69 1037.14 0.647705 982.943 -1.48991C958.43 -2.46281 933.854 -1.89838 910.084 -1.3519C889.774 -0.886841 868.772 -0.403839 848.208 -0.906158C768.741 -2.93338 693.6 -19.7307 624.873 -50.8318C601.531 -61.3764 578.516 -73.8281 556.258 -85.87C541.76 -93.7139 526.766 -101.826 511.817 -109.338C468.608 -131.051 429.728 -144.31 399.379 -147.683L399.53 -149.055C430.04 -145.664 469.081 -132.357 512.435 -110.572C527.404 -103.05 542.406 -94.9338 556.914 -87.0844C579.15 -75.0536 602.143 -62.6142 625.441 -52.0904C693.999 -21.0666 768.959 -4.31062 848.242 -2.28754C868.771 -1.78246 889.756 -2.26685 910.052 -2.73329C933.84 -3.27977 958.44 -3.84695 982.996 -2.8699C1037.3 -0.726761 1096.45 9.33067 1163.81 27.8792C1177.56 31.6494 1191.65 35.7508 1206.88 40.4138C1236.9 49.6225 1267.18 59.76 1296.46 69.5621C1308.27 73.5172 1320.11 77.482 1332.02 81.4177C1367.85 93.1864 1405.07 104.941 1441.05 116.308C1548.08 150.118 1658.76 185.079 1763.71 229.523L1763.17 230.793Z" fill="url(#paint18_linear_7726_45121)"/>
<path d="M1763.57 209.114C1644.88 156.724 1518.21 120.082 1395.71 84.6475C1374.8 78.6004 1353.18 72.3476 1332.17 66.1735C1322.82 63.4107 1313.51 60.6383 1304.23 57.8742C1272.1 48.3066 1238.87 38.4134 1206.01 29.5C1190.76 25.371 1176.6 21.7209 1162.72 18.3399C1095.28 1.84477 1036.26 -7.33223 982.293 -9.71825C959.343 -10.7381 936.305 -10.6097 914.025 -10.4869C892.348 -10.3668 869.937 -10.2426 848.025 -11.1976C768.542 -14.7414 693.907 -32.5683 626.189 -64.1813C605.075 -74.0207 584.212 -85.4499 564.036 -96.5023C547.711 -105.445 530.829 -114.692 513.89 -123.06C483.73 -137.956 439.618 -156.048 400.749 -157.649L400.806 -159.027C439.916 -157.417 484.22 -139.252 514.501 -124.297C531.467 -115.916 548.362 -106.662 564.699 -97.7126C584.855 -86.6712 605.698 -75.2531 626.772 -65.4316C694.326 -33.8959 768.787 -16.1118 848.087 -12.5748C869.966 -11.6213 892.362 -11.7441 914.019 -11.8655C936.316 -11.9883 959.372 -12.1167 982.357 -11.0955C1036.41 -8.70671 1095.52 0.4841 1163.05 16.9999C1176.93 20.3837 1191.11 24.0365 1206.38 28.1696C1239.25 37.0858 1272.48 46.9818 1304.62 56.5521C1313.91 59.3163 1323.22 62.0887 1332.56 64.8501C1353.57 71.0242 1375.19 77.2756 1396.09 83.3227C1518.64 118.771 1645.35 155.425 1764.13 207.853L1763.57 209.114Z" fill="url(#paint19_linear_7726_45121)"/>
<path d="M1763.96 187.434C1633.78 127.589 1493.02 91.1339 1356.89 55.8791C1348.82 53.7884 1340.77 51.7032 1332.74 49.6166L1317.3 45.5746C1280.7 35.9919 1242.87 26.0807 1205.55 17.2667C1190.25 13.6607 1176 10.455 1161.99 7.47005C1094.42 -6.99786 1035.43 -15.3124 981.645 -17.9454C960.619 -18.9804 939.483 -19.2219 919.044 -19.4565C895.647 -19.7242 871.453 -20.003 847.843 -21.4865C768.347 -26.5621 694.214 -45.4171 627.505 -77.5297C608.291 -86.7646 589.271 -97.3396 570.877 -107.567C553.042 -117.483 534.598 -127.737 515.963 -136.781C485.743 -151.445 441.463 -168.688 402.118 -167.619L402.081 -168.999C441.681 -170.101 486.207 -152.756 516.564 -138.023C535.236 -128.962 553.695 -118.699 571.548 -108.773C589.924 -98.5567 608.925 -87.9915 628.103 -78.7744C694.652 -46.7391 768.612 -27.9283 847.928 -22.8651C871.503 -21.383 895.679 -21.107 919.058 -20.8379C939.511 -20.6033 960.659 -20.3604 981.711 -19.3254C1035.57 -16.6868 1094.63 -8.36406 1162.28 6.11903C1176.29 9.10811 1190.55 12.3139 1205.87 15.9225C1243.2 24.7421 1281.04 34.6533 1317.64 44.2388L1333.09 48.2808C1341.11 50.366 1349.17 52.4512 1357.24 54.5419C1493.43 89.8133 1634.25 126.284 1764.54 186.18L1763.96 187.434Z" fill="url(#paint20_linear_7726_45121)"/>
<path d="M1764.36 165.754C1624.73 98.9575 1469.91 63.9469 1333.31 33.0584C1287.72 22.6766 1246.6 13.4016 1205.09 5.03194C1189.77 1.95039 1175.43 -0.808228 1161.26 -3.40262C1093.65 -15.8392 1034.68 -23.287 980.996 -26.174C962.399 -27.1773 943.676 -27.6989 925.567 -28.204C899.949 -28.9174 873.458 -29.6557 847.661 -31.7796C768.152 -38.3953 694.524 -58.2797 628.82 -90.8808C611.245 -99.59 593.819 -109.44 576.97 -118.968C557.876 -129.762 538.132 -140.925 518.034 -150.505C487.732 -164.948 443.259 -181.367 403.487 -177.594L403.356 -178.968C443.452 -182.778 488.169 -166.269 518.629 -151.75C538.771 -142.149 558.536 -130.975 577.649 -120.169C594.483 -110.651 611.891 -100.81 629.433 -92.1159C694.98 -59.5935 768.439 -39.756 847.774 -33.154C873.533 -31.0344 900.006 -30.2961 925.606 -29.584C943.723 -29.0789 962.456 -28.5573 981.069 -27.5526C1034.81 -24.6629 1093.84 -17.2068 1161.51 -4.76054C1175.69 -2.16476 1190.03 0.59523 1205.36 3.67815C1246.88 12.052 1288.01 21.3284 1333.62 31.7129C1470.28 62.6166 1625.18 97.6451 1764.95 164.509L1764.36 165.754Z" fill="url(#paint21_linear_7726_45121)"/>
<path d="M1764.75 144.074C1630.23 77.155 1478.14 44.358 1333.88 16.5013C1298.52 9.62335 1251.87 0.714066 1204.62 -7.20299C1189.57 -9.71872 1174.74 -12.0965 1160.53 -14.2741C1093.06 -24.6641 1034.12 -31.2481 980.346 -34.4028C964.925 -35.3094 949.368 -35.9829 934.32 -36.6315C905.738 -37.8666 876.182 -39.1431 847.476 -42.0701C767.955 -50.241 694.83 -71.1549 630.135 -104.231C613.98 -112.48 597.945 -121.711 582.438 -130.64C562.299 -142.236 541.473 -154.225 520.107 -164.226C477.135 -184.337 436.2 -192.627 404.852 -187.569L404.632 -188.931C427.001 -192.538 465.297 -191.4 520.692 -165.475C542.112 -155.449 562.962 -143.445 583.128 -131.834C598.62 -122.913 614.639 -113.691 630.763 -105.458C695.305 -72.4604 768.265 -51.5948 847.616 -43.4418C876.283 -40.519 905.817 -39.2438 934.38 -38.0087C949.431 -37.3587 964.996 -36.6867 980.426 -35.7786C1034.25 -32.6226 1093.23 -26.0331 1160.74 -15.6362C1174.95 -13.4585 1189.79 -11.078 1204.85 -8.56229C1252.11 -0.643845 1298.77 8.2682 1334.15 15.1489C1478.49 43.0235 1630.69 75.8454 1765.37 142.84L1764.75 144.074Z" fill="url(#paint22_linear_7726_45121)"/>
<path d="M1765.15 122.393C1627.19 51.0789 1470.5 21.7939 1334.46 -0.0570221C1287.73 -7.61665 1245.1 -13.9564 1204.16 -19.4391C1189.3 -21.4236 1174.38 -23.3431 1159.81 -25.1468C1092.99 -33.4558 1034.08 -39.1759 979.696 -42.63C968.63 -43.3352 957.44 -43.9714 946.615 -44.5869C913.89 -46.4485 880.051 -48.3736 847.291 -52.3604C767.755 -62.1004 695.135 -84.0438 631.452 -117.579C616.547 -125.42 601.736 -134.114 587.413 -142.523C566.396 -154.861 544.661 -167.621 522.181 -177.947C479.057 -197.757 437.872 -204.718 406.218 -197.547L405.913 -198.894C437.866 -206.131 479.359 -199.136 522.756 -179.202C545.3 -168.845 567.064 -156.069 588.112 -143.712C602.421 -135.312 617.217 -126.626 632.095 -118.8C695.63 -85.3424 768.09 -63.4501 847.461 -53.7307C880.176 -49.7481 913.993 -47.8257 946.697 -45.9641C957.521 -45.3486 968.714 -44.711 979.785 -44.0072C1034.19 -40.5504 1093.13 -34.8289 1159.98 -26.5158C1174.55 -24.7121 1189.48 -22.7911 1204.34 -20.8067C1245.3 -15.3226 1287.93 -8.98148 1334.68 -1.41908C1470.82 20.4498 1627.64 49.761 1765.78 121.168L1765.15 122.393Z" fill="url(#paint23_linear_7726_45121)"/>
<path d="M1765.54 100.711C1632.16 29.1143 1479.8 2.00836 1335.03 -16.6175C1292.84 -22.0837 1248.65 -27.151 1203.69 -31.6774C1189.3 -33.1223 1174.29 -34.5851 1159.08 -36.0217C1096.24 -41.9916 1035.67 -46.983 979.046 -50.8608C974.328 -51.1851 969.617 -51.5025 964.912 -51.8213C926.043 -54.4488 885.851 -57.1674 847.11 -62.657C767.56 -73.9758 695.445 -96.9473 632.767 -130.934C618.967 -138.411 605.243 -146.633 591.969 -154.586C570.213 -167.618 547.719 -181.097 524.252 -191.673C480.966 -211.185 439.528 -216.817 407.58 -207.534L407.195 -208.858C439.461 -218.233 481.236 -212.576 524.821 -192.932C548.361 -182.321 570.891 -168.823 592.679 -155.768C605.94 -147.824 619.652 -139.609 633.425 -132.147C695.959 -98.239 767.92 -75.3199 847.305 -64.0246C885.994 -58.5405 924.375 -55.9461 965.006 -53.1999C969.712 -52.8825 974.423 -52.5637 979.142 -52.2394C1035.78 -48.3616 1096.36 -43.3688 1159.21 -37.3975C1174.42 -35.961 1189.43 -34.4982 1203.83 -33.0533C1248.8 -28.5255 1293 -23.4568 1335.21 -17.9878C1480.11 0.654587 1632.61 27.7895 1766.2 99.493L1765.54 100.711Z" fill="url(#paint24_linear_7726_45121)"/>
<path d="M1765.94 79.0321C1631.07 3.90213 1472.72 -19.8504 1335.61 -33.1757C1295.73 -37.0756 1253.67 -40.4883 1203.23 -43.9135C1188.35 -44.9209 1173.39 -45.9076 1158.35 -46.8943L1128.12 -48.8787C1079.07 -52.0941 1028.35 -55.4185 978.398 -59.088C935.877 -62.2151 890.702 -65.861 846.928 -72.9473C767.367 -85.8586 695.756 -109.86 634.084 -144.281C621.264 -151.432 608.505 -159.24 596.165 -166.79C573.797 -180.478 550.665 -194.633 526.326 -205.393C482.863 -224.605 441.175 -228.908 408.94 -217.513L408.48 -218.813C441.051 -230.328 483.101 -226.01 526.884 -206.654C551.307 -195.857 574.477 -181.679 596.886 -167.967C609.213 -160.424 621.96 -152.623 634.756 -145.486C696.287 -111.143 767.746 -87.1958 847.149 -74.3094C890.867 -67.2314 936.011 -63.5881 978.501 -60.4638C1028.45 -56.7944 1079.17 -53.4714 1128.21 -50.256L1158.44 -48.2715C1173.48 -47.2862 1188.44 -46.2981 1203.33 -45.2907C1253.78 -41.8642 1295.85 -38.4514 1335.74 -34.5488C1426.34 -25.7444 1494.84 -15.1888 1557.84 -0.326187C1637.76 18.5287 1706.05 44.0933 1766.61 77.826L1765.94 79.0321Z" fill="url(#paint25_linear_7726_45121)"/>
<path d="M1766.33 57.351C1630.93 -20.8812 1472.9 -40.6842 1336.18 -49.7356C1288.64 -52.8986 1242.06 -54.7533 1202.77 -56.1512L1194.4 -56.4479C1182.19 -56.8799 1169.93 -57.3146 1157.62 -57.7686C1100.35 -59.8896 1038.92 -62.5144 977.748 -67.3154C924.734 -71.4789 884.331 -76.3889 846.743 -83.2392C766.054 -97.9597 696.923 -122.295 635.397 -157.631C623.456 -164.488 611.562 -171.926 600.06 -179.12C577.178 -193.431 553.518 -208.227 528.398 -219.115C469.512 -244.636 429.126 -235.324 410.295 -227.498L409.765 -228.773C428.799 -236.679 469.592 -246.105 528.946 -220.382C554.161 -209.454 577.867 -194.629 600.79 -180.292C612.282 -173.105 624.164 -165.674 636.085 -158.829C697.471 -123.573 766.46 -99.29 846.991 -84.5985C884.53 -77.7579 924.891 -72.852 977.855 -68.694C1039 -63.8944 1100.42 -61.271 1157.67 -59.1486C1169.97 -58.696 1182.24 -58.2612 1194.45 -57.8293L1202.82 -57.5326C1242.12 -56.1347 1288.71 -54.28 1336.27 -51.1156C1473.16 -42.0531 1631.38 -22.2212 1767.03 56.1532L1766.33 57.351Z" fill="url(#paint26_linear_7726_45121)"/>
<path d="M1766.73 35.6694C1691.99 -9.09642 1603.09 -38.2365 1494.93 -53.4165C1400.97 -66.6052 1302.89 -68.0238 1202.3 -68.3895C1097.23 -68.7704 1002.67 -70.1283 909.482 -82.9195C801.03 -97.807 711.808 -126.612 636.715 -170.98C625.562 -177.571 614.445 -184.679 603.695 -191.555C580.39 -206.457 556.293 -221.868 530.473 -232.834C471.336 -257.953 430.645 -246.527 411.651 -237.481L411.058 -238.726C430.258 -247.872 471.375 -259.435 531.011 -234.105C556.939 -223.093 581.085 -207.651 604.437 -192.716C615.178 -185.848 626.284 -178.745 637.416 -172.168C712.347 -127.895 801.403 -99.1483 909.668 -84.2857C1002.77 -71.5056 1097.28 -70.149 1202.31 -69.7681C1302.95 -69.4024 1401.07 -67.9824 1495.12 -54.7813C1603.47 -39.5751 1692.54 -10.3743 1767.44 34.4881L1766.73 35.6694Z" fill="url(#paint27_linear_7726_45121)"/>
</g>
</g>
<defs>
<linearGradient id="paint0_linear_7726_45121" x1="708.362" y1="1229.15" x2="947.638" y2="-125.152" gradientUnits="userSpaceOnUse">
<stop offset="0.00031973" stop-color="#F5F5F5"/>
<stop offset="0.9385" stop-color="#E8F5FF"/>
</linearGradient>
<linearGradient id="paint1_linear_7726_45121" x1="-11.9764" y1="1157.09" x2="1650.81" y2="1157.09" gradientUnits="userSpaceOnUse">
<stop stop-color="#D7FDDB" stop-opacity="0"/>
<stop offset="0.9382" stop-color="#4DB151"/>
</linearGradient>
<linearGradient id="paint2_linear_7726_45121" x1="577.289" y1="912.971" x2="1656.68" y2="912.971" gradientUnits="userSpaceOnUse">
<stop stop-color="#D7EDFD" stop-opacity="0"/>
<stop offset="0.9385" stop-color="#4DB151"/>
</linearGradient>
<linearGradient id="paint3_linear_7726_45121" x1="-11.9777" y1="952.74" x2="1094.45" y2="952.74" gradientUnits="userSpaceOnUse">
<stop offset="0.0614" stop-color="#4DB151"/>
<stop offset="1" stop-color="#F3FFF3"/>
</linearGradient>
<linearGradient id="paint4_linear_7726_45121" x1="828" y1="187.399" x2="828" y2="-54.7457" gradientUnits="userSpaceOnUse">
<stop stop-color="#DBD7FD" stop-opacity="0"/>
<stop offset="0.9389" stop-color="#26009C" stop-opacity="0.5"/>
</linearGradient>
<linearGradient id="paint5_linear_7726_45121" x1="-13.0773" y1="215.038" x2="1145.37" y2="215.038" gradientUnits="userSpaceOnUse">
<stop offset="0.0614" stop-color="#BFA3E4"/>
<stop offset="1" stop-color="#D7EDFD" stop-opacity="0"/>
</linearGradient>
<linearGradient id="paint6_linear_7726_45121" x1="1070.91" y1="490.935" x2="1070.91" y2="-29.1929" gradientUnits="userSpaceOnUse">
<stop offset="0.061" stop-color="#26009C"/>
<stop offset="1" stop-color="#D7EDFD" stop-opacity="0"/>
</linearGradient>
<linearGradient id="paint7_linear_7726_45121" x1="1071.79" y1="469.258" x2="1071.79" y2="-39.1851" gradientUnits="userSpaceOnUse">
<stop offset="0.061" stop-color="#26009C"/>
<stop offset="1" stop-color="#D7EDFD" stop-opacity="0"/>
</linearGradient>
<linearGradient id="paint8_linear_7726_45121" x1="1072.67" y1="447.581" x2="1072.67" y2="-49.1753" gradientUnits="userSpaceOnUse">
<stop offset="0.061" stop-color="#26009C"/>
<stop offset="1" stop-color="#D7EDFD" stop-opacity="0"/>
</linearGradient>
<linearGradient id="paint9_linear_7726_45121" x1="1073.55" y1="425.902" x2="1073.55" y2="-59.1695" gradientUnits="userSpaceOnUse">
<stop offset="0.061" stop-color="#26009C"/>
<stop offset="1" stop-color="#D7EDFD" stop-opacity="0"/>
</linearGradient>
<linearGradient id="paint10_linear_7726_45121" x1="1074.43" y1="404.224" x2="1074.43" y2="-69.1636" gradientUnits="userSpaceOnUse">
<stop offset="0.061" stop-color="#26009C"/>
<stop offset="1" stop-color="#D7EDFD" stop-opacity="0"/>
</linearGradient>
<linearGradient id="paint11_linear_7726_45121" x1="1075.32" y1="382.546" x2="1075.32" y2="-79.1558" gradientUnits="userSpaceOnUse">
<stop offset="0.061" stop-color="#26009C"/>
<stop offset="1" stop-color="#D7EDFD" stop-opacity="0"/>
</linearGradient>
<linearGradient id="paint12_linear_7726_45121" x1="1076.2" y1="360.868" x2="1076.2" y2="-89.1461" gradientUnits="userSpaceOnUse">
<stop offset="0.061" stop-color="#26009C"/>
<stop offset="1" stop-color="#D7EDFD" stop-opacity="0"/>
</linearGradient>
<linearGradient id="paint13_linear_7726_45121" x1="1077.09" y1="339.188" x2="1077.09" y2="-99.1363" gradientUnits="userSpaceOnUse">
<stop offset="0.061" stop-color="#26009C"/>
<stop offset="1" stop-color="#D7EDFD" stop-opacity="0"/>
</linearGradient>
<linearGradient id="paint14_linear_7726_45121" x1="1077.98" y1="317.51" x2="1077.98" y2="-109.125" gradientUnits="userSpaceOnUse">
<stop offset="0.061" stop-color="#26009C"/>
<stop offset="1" stop-color="#D7EDFD" stop-opacity="0"/>
</linearGradient>
<linearGradient id="paint15_linear_7726_45121" x1="1078.87" y1="295.831" x2="1078.87" y2="-119.111" gradientUnits="userSpaceOnUse">
<stop offset="0.061" stop-color="#26009C"/>
<stop offset="1" stop-color="#D7EDFD" stop-opacity="0"/>
</linearGradient>
<linearGradient id="paint16_linear_7726_45121" x1="1079.76" y1="274.152" x2="1079.76" y2="-129.097" gradientUnits="userSpaceOnUse">
<stop offset="0.061" stop-color="#26009C"/>
<stop offset="1" stop-color="#D7EDFD" stop-opacity="0"/>
</linearGradient>
<linearGradient id="paint17_linear_7726_45121" x1="1080.65" y1="252.472" x2="1080.65" y2="-139.076" gradientUnits="userSpaceOnUse">
<stop offset="0.061" stop-color="#26009C"/>
<stop offset="1" stop-color="#D7EDFD" stop-opacity="0"/>
</linearGradient>
<linearGradient id="paint18_linear_7726_45121" x1="1081.54" y1="230.793" x2="1081.54" y2="-149.054" gradientUnits="userSpaceOnUse">
<stop offset="0.061" stop-color="#26009C"/>
<stop offset="1" stop-color="#D7EDFD" stop-opacity="0"/>
</linearGradient>
<linearGradient id="paint19_linear_7726_45121" x1="1082.44" y1="209.113" x2="1082.44" y2="-159.027" gradientUnits="userSpaceOnUse">
<stop offset="0.061" stop-color="#26009C"/>
<stop offset="1" stop-color="#D7EDFD" stop-opacity="0"/>
</linearGradient>
<linearGradient id="paint20_linear_7726_45121" x1="1083.31" y1="187.434" x2="1083.31" y2="-169.048" gradientUnits="userSpaceOnUse">
<stop offset="0.061" stop-color="#26009C"/>
<stop offset="1" stop-color="#D7EDFD" stop-opacity="0"/>
</linearGradient>
<linearGradient id="paint21_linear_7726_45121" x1="1084.15" y1="165.753" x2="1084.15" y2="-179.523" gradientUnits="userSpaceOnUse">
<stop offset="0.061" stop-color="#26009C"/>
<stop offset="1" stop-color="#D7EDFD" stop-opacity="0"/>
</linearGradient>
<linearGradient id="paint22_linear_7726_45121" x1="1085" y1="144.074" x2="1085" y2="-190.433" gradientUnits="userSpaceOnUse">
<stop offset="0.061" stop-color="#26009C"/>
<stop offset="1" stop-color="#D7EDFD" stop-opacity="0"/>
</linearGradient>
<linearGradient id="paint23_linear_7726_45121" x1="1085.85" y1="122.393" x2="1085.85" y2="-201.675" gradientUnits="userSpaceOnUse">
<stop offset="0.061" stop-color="#26009C"/>
<stop offset="1" stop-color="#D7EDFD" stop-opacity="0"/>
</linearGradient>
<linearGradient id="paint24_linear_7726_45121" x1="1086.69" y1="100.711" x2="1086.69" y2="-213.275" gradientUnits="userSpaceOnUse">
<stop offset="0.061" stop-color="#26009C"/>
<stop offset="1" stop-color="#D7EDFD" stop-opacity="0"/>
</linearGradient>
<linearGradient id="paint25_linear_7726_45121" x1="1087.54" y1="79.0317" x2="1087.54" y2="-225.133" gradientUnits="userSpaceOnUse">
<stop offset="0.061" stop-color="#26009C"/>
<stop offset="1" stop-color="#D7EDFD" stop-opacity="0"/>
</linearGradient>
<linearGradient id="paint26_linear_7726_45121" x1="1088.39" y1="57.3506" x2="1088.39" y2="-237.191" gradientUnits="userSpaceOnUse">
<stop offset="0.061" stop-color="#26009C"/>
<stop offset="1" stop-color="#D7EDFD" stop-opacity="0"/>
</linearGradient>
<linearGradient id="paint27_linear_7726_45121" x1="1089.25" y1="35.669" x2="1089.25" y2="-249.47" gradientUnits="userSpaceOnUse">
<stop offset="0.061" stop-color="#26009C"/>
<stop offset="1" stop-color="#D7EDFD" stop-opacity="0"/>
</linearGradient>
<clipPath id="clip0_7726_45121">
<rect width="1656" height="1104" fill="white"/>
</clipPath>
</defs>
</svg>
