<svg width="16" height="16" viewBox="0 0 16 16" fill="none" xmlns="http://www.w3.org/2000/svg">
<path d="M2 3.99902H14V11.999H2V3.99902ZM8 5.99902C8.53043 5.99902 9.03914 6.20974 9.41421 6.58481C9.78929 6.95988 10 7.46859 10 7.99902C10 8.52946 9.78929 9.03816 9.41421 9.41324C9.03914 9.78831 8.53043 9.99902 8 9.99902C7.46957 9.99902 6.96086 9.78831 6.58579 9.41324C6.21071 9.03816 6 8.52946 6 7.99902C6 7.46859 6.21071 6.95988 6.58579 6.58481C6.96086 6.20974 7.46957 5.99902 8 5.99902ZM4.66667 5.33236C4.66667 5.68598 4.52619 6.02512 4.27614 6.27517C4.02609 6.52521 3.68696 6.66569 3.33333 6.66569V9.33236C3.68696 9.33236 4.02609 9.47283 4.27614 9.72288C4.52619 9.97293 4.66667 10.3121 4.66667 10.6657H11.3333C11.3333 10.3121 11.4738 9.97293 11.7239 9.72288C11.9739 9.47283 12.313 9.33236 12.6667 9.33236V6.66569C12.313 6.66569 11.9739 6.52521 11.7239 6.27517C11.4738 6.02512 11.3333 5.68598 11.3333 5.33236H4.66667Z" fill="#344054"/>
</svg>
