<svg width="20" height="20" viewBox="0 0 20 20" fill="none" xmlns="http://www.w3.org/2000/svg">
<path d="M9.99999 1.66699C5.41666 1.66699 1.66666 5.41699 1.66666 10.0003C1.66666 14.5837 5.41666 18.3337 9.99999 18.3337C14.5833 18.3337 18.3333 14.5837 18.3333 10.0003C18.3333 5.41699 14.5833 1.66699 9.99999 1.66699ZM9.99999 16.667C6.32499 16.667 3.33332 13.6753 3.33332 10.0003C3.33332 6.32533 6.32499 3.33366 9.99999 3.33366C13.675 3.33366 16.6667 6.32533 16.6667 10.0003C16.6667 13.6753 13.675 16.667 9.99999 16.667ZM13.825 6.31699L8.33332 11.8087L6.17499 9.65866L4.99999 10.8337L8.33332 14.167L15 7.50033L13.825 6.31699Z" fill="white"/>
</svg>
