<svg width="32" height="32" viewBox="0 0 32 32" fill="none" xmlns="http://www.w3.org/2000/svg">
<g clip-path="url(#clip0_7079_41823)">
<path fill-rule="evenodd" clip-rule="evenodd" d="M16.125 0.0247021C16.3813 0.0372021 16.75 0.0997021 16.9375 0.168452C17.125 0.230952 17.4062 0.374702 17.5625 0.487202C17.7188 0.593452 18.3188 1.10595 18.9062 1.6247C19.4937 2.14345 20.0125 2.56845 20.0625 2.5622C20.1125 2.5622 21.0125 2.49345 22.0625 2.40595C23.5 2.29345 24.0625 2.26845 24.3438 2.3122C24.55 2.34345 24.9125 2.46845 25.1562 2.5872C25.45 2.73095 25.7062 2.91845 25.9375 3.16845C26.1313 3.36845 26.3563 3.6872 26.4438 3.8747C26.5375 4.0622 26.7875 4.9497 27.3937 7.46845L29.1187 8.4997C30.2625 9.1872 30.95 9.6372 31.1625 9.84345C31.3375 10.0122 31.5688 10.3247 31.6688 10.531C31.775 10.7372 31.9 11.0872 31.9375 11.3122C31.9875 11.556 32 11.881 31.975 12.1247C31.9438 12.4435 31.7812 12.906 30.5 15.9997L31.1625 17.5809C31.525 18.4435 31.8625 19.3122 31.9125 19.4997C31.9625 19.6872 32 19.9872 32 20.156C32 20.3247 31.9562 20.6372 31.9 20.8435C31.85 21.0497 31.7313 21.356 31.6375 21.5247C31.5438 21.6872 31.3125 21.9747 31.125 22.1497C30.9 22.3622 30.1938 22.8247 27.375 24.4997L27.2437 25.0747C27.175 25.3935 26.9937 26.156 26.8375 26.7622C26.6875 27.3747 26.4875 28.0247 26.3937 28.1997C26.3062 28.381 26.1 28.6685 25.9438 28.8372C25.7875 28.9997 25.5312 29.2122 25.375 29.2997C25.2188 29.3872 24.9313 29.5122 24.7313 29.5747C24.5375 29.6372 24.2 29.6872 23.9813 29.6872C23.7688 29.6872 22.8937 29.631 22.0312 29.5622C21.1688 29.4935 20.3563 29.4372 20.2188 29.4372C19.9875 29.4372 19.8938 29.506 18.7938 30.4685C18.0438 31.131 17.4875 31.5685 17.25 31.6872C17.0438 31.7872 16.6688 31.906 16.4188 31.9497C16.0688 32.006 15.875 32.006 15.5437 31.9497C15.3125 31.906 14.9625 31.7935 14.7625 31.6935C14.55 31.5872 13.9375 31.106 13.2188 30.4747C12.175 29.5622 12.0063 29.4372 11.8125 29.4372C11.6938 29.4372 10.875 29.4935 10 29.5622C9.125 29.631 8.23125 29.6872 8.0125 29.6872C7.7875 29.6872 7.4625 29.631 7.23125 29.556C7.01875 29.4872 6.70625 29.3372 6.5375 29.231C6.36875 29.1185 6.11875 28.906 5.98125 28.7497C5.84375 28.5935 5.65625 28.2997 5.55625 28.0935C5.4625 27.8872 5.2125 26.9997 5 26.1247C4.7875 25.2497 4.58125 24.4997 4.54375 24.4622C4.5 24.4247 3.7125 23.9435 2.78125 23.3934C1.48125 22.6185 1.01875 22.3122 0.775 22.056C0.6 21.8685 0.39375 21.5997 0.325 21.4559C0.25 21.306 0.14375 21.0247 0.09375 20.8309C0.04375 20.631 0 20.331 0 20.156C0 19.9872 0.0375 19.6872 0.0875 19.4997C0.1375 19.3122 0.475 18.4372 1.4875 15.9685L0.81875 14.3435C0.45 13.4497 0.1125 12.5872 0.075 12.4185C0.03125 12.256 0 11.9997 0 11.8435C0 11.6872 0.03125 11.4122 0.06875 11.2372C0.10625 11.056 0.225 10.7372 0.33125 10.531C0.4375 10.3247 0.6625 10.0122 0.8375 9.84345C1.05625 9.63095 1.65625 9.2372 4.28125 7.69345L4.8625 5.89345C5.18125 4.90595 5.5125 3.9372 5.60625 3.7497C5.7 3.5622 5.9125 3.2747 6.075 3.10595C6.25 2.9372 6.5625 2.71845 6.825 2.59345C7.075 2.4747 7.45 2.3497 7.65625 2.31845C7.9375 2.2747 8.54375 2.2997 10.0188 2.4122C11.9125 2.55595 12.0062 2.55595 12.15 2.4497C12.2312 2.39345 12.775 1.91845 13.3625 1.40595C13.9438 0.887202 14.5625 0.399702 14.725 0.318452C14.8938 0.230952 15.175 0.124702 15.3438 0.0809521C15.5188 0.0372021 15.8687 0.0122021 16.125 0.0247021ZM13.9062 5.90595C13.6313 5.9622 13.1125 6.10595 12.75 6.2247C12.3875 6.34345 11.8125 6.58095 11.4688 6.7497C11.125 6.91845 10.6 7.21845 10.3 7.41845C10 7.61845 9.5125 7.99345 9.20625 8.25595C8.90625 8.5122 8.45625 8.9622 8.2125 9.25595C7.9625 9.54345 7.60625 10.0185 7.40625 10.3122C7.2125 10.606 6.9125 11.1247 6.74375 11.4685C6.58125 11.8122 6.34375 12.3872 6.225 12.7497C6.10625 13.1122 5.9625 13.6247 5.9125 13.8935C5.85625 14.156 5.78125 14.6622 5.74375 15.0185C5.7 15.381 5.6875 15.9872 5.70625 16.4372C5.73125 16.8685 5.79375 17.4747 5.85 17.781C5.90625 18.0872 6.01875 18.581 6.10625 18.8747C6.1875 19.1685 6.38125 19.6997 6.5375 20.0622C6.6875 20.4247 6.95625 20.956 7.13125 21.2497C7.30625 21.5435 7.6125 21.9935 7.80625 22.2497C8 22.506 8.39375 22.956 8.6875 23.2497C8.98125 23.5435 9.44375 23.956 9.71875 24.1622C9.99375 24.3747 10.475 24.6935 10.7812 24.881C11.0875 25.0685 11.625 25.3372 11.9688 25.481C12.3125 25.6247 12.85 25.8122 13.1562 25.906C13.4625 25.9935 13.975 26.1122 14.2812 26.1685C14.675 26.2435 15.1875 26.2747 16 26.2747C16.8125 26.2747 17.325 26.2435 17.7188 26.1685C18.025 26.1122 18.525 25.9935 18.8312 25.906C19.1312 25.8185 19.6188 25.6497 19.9188 25.531C20.225 25.406 20.725 25.1685 21.0312 24.9935C21.3375 24.8247 21.85 24.4935 22.1562 24.2622C22.4625 24.031 22.975 23.5935 23.2812 23.281C23.5938 22.9747 24 22.506 24.1938 22.2497C24.3875 21.9935 24.6938 21.5435 24.8687 21.2497C25.0437 20.956 25.3125 20.4247 25.4625 20.0622C25.6187 19.6997 25.8125 19.1685 25.8937 18.8747C25.9812 18.581 26.0938 18.0872 26.15 17.781C26.2062 17.4747 26.2688 16.8685 26.2938 16.4372C26.3125 15.9872 26.3 15.381 26.2563 15.0185C26.2188 14.6622 26.1437 14.156 26.0875 13.8935C26.0375 13.6247 25.8937 13.1122 25.775 12.7497C25.6562 12.3872 25.4188 11.8122 25.25 11.4685C25.0875 11.1247 24.7875 10.606 24.5938 10.3122C24.3937 10.0185 24.0375 9.54345 23.7875 9.25595C23.5438 8.96845 23.1063 8.51845 22.8125 8.26845C22.5187 8.0122 22.0125 7.6247 21.6875 7.40595C21.3625 7.1872 20.825 6.88095 20.5 6.7247C20.175 6.56845 19.6125 6.34345 19.25 6.2247C18.8875 6.10595 18.3813 5.9622 18.125 5.9122C17.8687 5.8622 17.4 5.7872 17.0938 5.7497C16.7875 5.71845 16.25 5.69345 15.9062 5.69345C15.5625 5.6997 15.0813 5.7247 14.8438 5.75595C14.6062 5.78095 14.1812 5.8497 13.9062 5.90595ZM16.25 7.5997C16.8312 7.6122 17.3563 7.6622 17.7188 7.74345C18.025 7.8122 18.5375 7.95595 18.8438 8.0622C19.15 8.1747 19.575 8.3497 19.7812 8.4497C19.9875 8.55595 20.3937 8.7997 20.6875 8.99345C20.9813 9.1872 21.4688 9.58095 21.775 9.8747C22.0812 10.1685 22.4937 10.6185 22.6875 10.8747C22.8813 11.131 23.175 11.5685 23.3312 11.8435C23.4875 12.1185 23.7062 12.556 23.8062 12.8122C23.9062 13.0685 24.0625 13.5497 24.15 13.8747C24.2375 14.1997 24.3438 14.7497 24.3813 15.0935C24.425 15.4435 24.4375 16.0247 24.4188 16.406C24.4 16.7872 24.3375 17.3185 24.2812 17.5935C24.225 17.8685 24.1062 18.3185 24.0187 18.5935C23.9312 18.8685 23.7625 19.306 23.6437 19.5622C23.525 19.8185 23.2437 20.3122 23.0187 20.656C22.7437 21.0685 22.3687 21.5122 21.9125 21.9685C21.5312 22.3497 21.025 22.7872 20.7812 22.9497C20.5375 23.106 20.1313 23.3497 19.875 23.4872C19.6187 23.631 19.1125 23.8435 18.75 23.9622C18.3875 24.0809 17.8563 24.231 17.5625 24.2935C17.175 24.3747 16.75 24.406 16 24.406C15.2375 24.406 14.8313 24.3747 14.4375 24.2872C14.1438 24.2247 13.6812 24.1059 13.4062 24.0184C13.1313 23.931 12.6938 23.7622 12.4375 23.6434C12.1812 23.5247 11.7 23.2497 11.375 23.0372C11.05 22.8185 10.5312 22.406 10.225 22.1185C9.91875 21.831 9.5125 21.381 9.3125 21.1247C9.11875 20.8685 8.85625 20.4872 8.7375 20.281C8.6125 20.0747 8.425 19.7247 8.325 19.4997C8.225 19.2747 8.06875 18.8685 7.98125 18.5935C7.89375 18.3185 7.76875 17.856 7.70625 17.5622C7.625 17.181 7.59375 16.7435 7.59375 15.9997C7.59375 15.256 7.625 14.8185 7.70625 14.4372C7.76875 14.1435 7.9 13.6497 8 13.3435C8.10625 13.0372 8.30625 12.5435 8.45 12.2497C8.6 11.956 8.85625 11.506 9.03125 11.2497C9.2 10.9935 9.65 10.4685 10.0312 10.0872C10.475 9.64345 10.9375 9.2497 11.3438 8.98095C11.6875 8.75595 12.1812 8.4747 12.4375 8.35595C12.6938 8.2372 13.1313 8.06845 13.4062 7.98095C13.6812 7.89345 14.1313 7.7747 14.4062 7.7247C14.6812 7.66845 15.0063 7.6122 15.125 7.5997C15.2437 7.5872 15.75 7.5872 16.25 7.5997ZM17.5812 14.9622L15.0625 17.4685C12.6187 15.031 11.8125 14.281 11.7 14.2247C11.5938 14.1685 11.4125 14.1247 11.3125 14.1247C11.2063 14.1247 11.0125 14.181 10.875 14.2497C10.7083 14.333 10.5833 14.458 10.5 14.6247C10.4312 14.7622 10.375 14.9622 10.375 15.0622C10.375 15.1685 10.4188 15.3435 10.475 15.456C10.5312 15.5622 11.4375 16.5247 12.4875 17.5809C13.5437 18.6434 14.5125 19.5622 14.6375 19.631C14.7688 19.6935 14.9563 19.7497 15.0625 19.7497C15.1625 19.7497 15.3438 19.706 15.45 19.6497C15.5625 19.5935 16.9437 18.2685 18.5187 16.6997C20.1187 15.106 21.4375 13.7372 21.5063 13.6122C21.5688 13.481 21.625 13.2935 21.625 13.1872C21.625 13.0872 21.5688 12.8872 21.5 12.7497C21.4167 12.583 21.2917 12.458 21.125 12.3747C20.9875 12.306 20.7812 12.2497 20.6688 12.2497C20.5625 12.256 20.3813 12.2997 20.2812 12.3497C20.1812 12.406 18.9625 13.581 17.5812 14.9622Z" fill="white"/>
</g>
<defs>
<clipPath id="clip0_7079_41823">
<rect width="32" height="32" fill="white"/>
</clipPath>
</defs>
</svg>
