<?xml version="1.0" encoding="UTF-8"?>
<svg version="1.1" xmlns="http://www.w3.org/2000/svg" width="512" height="512">
<path d="M0 0 C9.32699698 6.32317386 14.06274666 13.24658707 19.07421875 23.26953125 C34.91421875 23.76453125 34.91421875 23.76453125 51.07421875 24.26953125 C51.07421875 34.16953125 51.07421875 44.06953125 51.07421875 54.26953125 C81.10421875 54.26953125 111.13421875 54.26953125 142.07421875 54.26953125 C142.07421875 193.52953125 142.07421875 332.78953125 142.07421875 476.26953125 C77.39421875 476.26953125 12.71421875 476.26953125 -53.92578125 476.26953125 C-53.92578125 486.16953125 -53.92578125 496.06953125 -53.92578125 506.26953125 C-133.78578125 506.26953125 -213.64578125 506.26953125 -295.92578125 506.26953125 C-295.92578125 426.73953125 -295.92578125 347.20953125 -295.92578125 265.26953125 C-260.94578125 265.26953125 -225.96578125 265.26953125 -189.92578125 265.26953125 C-189.92578125 195.63953125 -189.92578125 126.00953125 -189.92578125 54.26953125 C-160.22578125 54.26953125 -130.52578125 54.26953125 -99.92578125 54.26953125 C-99.92578125 44.36953125 -99.92578125 34.46953125 -99.92578125 24.26953125 C-89.03578125 24.26953125 -78.14578125 24.26953125 -66.92578125 24.26953125 C-66.26578125 21.95953125 -65.60578125 19.64953125 -64.92578125 17.26953125 C-58.44021296 6.36443443 -48.22221949 -1.78900782 -36.02856445 -5.27246094 C-23.99052542 -7.89446967 -10.53402176 -6.23040272 0 0 Z M-34.51171875 28.703125 C-37.87288818 32.59858436 -39.05732659 35.66927497 -39.0234375 40.71875 C-39.02093994 41.48276123 -39.01844238 42.24677246 -39.01586914 43.03393555 C-39.00676514 43.99855713 -38.99766113 44.96317871 -38.98828125 45.95703125 C-38.96765625 49.03015625 -38.94703125 52.10328125 -38.92578125 55.26953125 C-48.82578125 55.26953125 -58.72578125 55.26953125 -68.92578125 55.26953125 C-68.92578125 64.83953125 -68.92578125 74.40953125 -68.92578125 84.26953125 C-39.55578125 84.26953125 -10.18578125 84.26953125 20.07421875 84.26953125 C20.07421875 74.69953125 20.07421875 65.12953125 20.07421875 55.26953125 C10.17421875 55.26953125 0.27421875 55.26953125 -9.92578125 55.26953125 C-9.73828125 45.58203125 -9.73828125 45.58203125 -9.65551758 42.5559082 C-9.60937967 37.63205041 -9.66924957 34.2369959 -12.92578125 30.26953125 C-19.56710171 23.77579569 -27.21353486 22.10599818 -34.51171875 28.703125 Z M-158.92578125 85.26953125 C-158.92578125 144.66953125 -158.92578125 204.06953125 -158.92578125 265.26953125 C-124.27578125 265.26953125 -89.62578125 265.26953125 -53.92578125 265.26953125 C-53.92578125 324.66953125 -53.92578125 384.06953125 -53.92578125 445.26953125 C0.52421875 445.26953125 54.97421875 445.26953125 111.07421875 445.26953125 C111.07421875 326.46953125 111.07421875 207.66953125 111.07421875 85.26953125 C91.27421875 85.26953125 71.47421875 85.26953125 51.07421875 85.26953125 C51.07421875 95.16953125 51.07421875 105.06953125 51.07421875 115.26953125 C1.24421875 115.26953125 -48.58578125 115.26953125 -99.92578125 115.26953125 C-99.92578125 105.36953125 -99.92578125 95.46953125 -99.92578125 85.26953125 C-119.39578125 85.26953125 -138.86578125 85.26953125 -158.92578125 85.26953125 Z M-264.92578125 296.26953125 C-264.92578125 355.66953125 -264.92578125 415.06953125 -264.92578125 476.26953125 C-205.52578125 476.26953125 -146.12578125 476.26953125 -84.92578125 476.26953125 C-84.92578125 416.86953125 -84.92578125 357.46953125 -84.92578125 296.26953125 C-99.44578125 296.26953125 -113.96578125 296.26953125 -128.92578125 296.26953125 C-128.92578125 319.69953125 -128.92578125 343.12953125 -128.92578125 367.26953125 C-150.73828125 359.58203125 -150.73828125 359.58203125 -157.55395508 357.1262207 C-159.37108335 356.5010173 -161.18898876 355.8780662 -163.0078125 355.2578125 C-164.38084534 354.74897522 -164.38084534 354.74897522 -165.78161621 354.2298584 C-173.04984615 351.80069637 -177.81986827 352.6836491 -184.92578125 355.26953125 C-186.44263697 355.75328534 -187.96041102 356.23417289 -189.47924805 356.71166992 C-190.94551149 357.20058632 -192.41077906 357.69250023 -193.875 358.1875 C-194.91992615 358.5368158 -194.91992615 358.5368158 -195.98596191 358.89318848 C-198.52952041 359.74446735 -201.07130629 360.60103543 -203.61328125 361.45703125 C-209.32640625 363.37515625 -215.03953125 365.29328125 -220.92578125 367.26953125 C-220.92578125 343.83953125 -220.92578125 320.40953125 -220.92578125 296.26953125 C-235.44578125 296.26953125 -249.96578125 296.26953125 -264.92578125 296.26953125 Z M-189.92578125 296.26953125 C-189.92578125 305.50953125 -189.92578125 314.74953125 -189.92578125 324.26953125 C-183.98578125 322.78453125 -183.98578125 322.78453125 -177.92578125 321.26953125 C-173.4089847 320.14033211 -172.0611198 320.6525834 -167.80078125 322.20703125 C-163.95130182 323.72506428 -163.95130182 323.72506428 -159.92578125 324.26953125 C-159.92578125 315.02953125 -159.92578125 305.78953125 -159.92578125 296.26953125 C-169.82578125 296.26953125 -179.72578125 296.26953125 -189.92578125 296.26953125 Z " fill="#000000" transform="translate(332.92578125,5.73046875)"/>
<path d="M0 0 C5.96163211 0.70087101 9.79681281 6.28501064 13.8125 10.3125 C15.15731445 11.61477539 15.15731445 11.61477539 16.52929688 12.94335938 C17.37169922 13.78318359 18.21410156 14.62300781 19.08203125 15.48828125 C19.85780518 16.25696533 20.6335791 17.02564941 21.43286133 17.81762695 C23 20 23 20 22.91662598 21.79147339 C21.58988241 24.9881409 19.31656773 27.11738776 16.90112305 29.51879883 C16.37095581 30.05743561 15.84078857 30.59607239 15.29455566 31.15103149 C13.54138066 32.92758997 11.77723588 34.69274334 10.01171875 36.45703125 C8.78932025 37.68652866 7.56722243 38.91632508 6.34541321 40.14640808 C3.78403337 42.72123453 1.21678973 45.29004343 -1.35424805 47.85522461 C-4.65343702 51.14850653 -7.9339835 54.45969729 -11.20995808 57.77605152 C-13.72774995 60.31964382 -16.25687212 62.85172713 -18.78941917 65.38062096 C-20.00425401 66.5971531 -21.21509097 67.81769084 -22.42186928 69.04221535 C-24.10727104 70.74966281 -25.80768178 72.44058905 -27.51293945 74.12817383 C-28.01127792 74.63977554 -28.50961639 75.15137726 -29.02305603 75.67848206 C-32.4156253 78.98959453 -32.4156253 78.98959453 -35.08407593 79.03710938 C-37.49540133 77.73183418 -39.1883181 76.20826557 -41.1418457 74.27807617 C-41.94560135 73.49023239 -42.74935699 72.70238861 -43.57746887 71.89067078 C-44.43491196 71.03342911 -45.29235504 70.17618744 -46.17578125 69.29296875 C-47.06033493 68.41602859 -47.94488861 67.53908844 -48.85624695 66.63557434 C-50.72366872 64.77896093 -52.58747374 62.91936543 -54.4465332 61.05444336 C-56.8318568 58.6632102 -59.23496016 56.29076851 -61.64332294 53.9227705 C-63.93636676 51.66174576 -66.21125144 49.38260282 -68.48828125 47.10546875 C-69.35584549 46.25429977 -70.22340973 45.4031308 -71.11726379 44.52616882 C-72.29925606 43.33021843 -72.29925606 43.33021843 -73.50512695 42.11010742 C-74.5562542 41.06206184 -74.5562542 41.06206184 -75.62861633 39.99284363 C-77 38 -77 38 -76.83056641 35.88150024 C-74.7704893 31.21476251 -70.24604897 27.73562098 -66.6875 24.1875 C-65.81931641 23.29095703 -64.95113281 22.39441406 -64.05664062 21.47070312 C-62.7969043 20.20709961 -62.7969043 20.20709961 -61.51171875 18.91796875 C-60.74303467 18.14219482 -59.97435059 17.3664209 -59.18237305 16.56713867 C-57 15 -57 15 -54.98852539 15.00292969 C-52.3856538 16.3080405 -50.70970915 17.95365422 -48.671875 20.03515625 C-47.87265625 20.84404297 -47.0734375 21.65292969 -46.25 22.48632812 C-45.0125 23.7615332 -45.0125 23.7615332 -43.75 25.0625 C-42.48929687 26.34350586 -42.48929687 26.34350586 -41.203125 27.65039062 C-39.12852403 29.76035412 -37.06124168 31.87699708 -35 34 C-30.16616546 29.99177751 -25.68906462 25.77204459 -21.33203125 21.25390625 C-20.09759724 19.99225901 -18.86255385 18.73120776 -17.62695312 17.47070312 C-15.70524093 15.50548979 -13.78771826 13.53679149 -11.88012695 11.55786133 C-10.0212016 9.63265568 -8.14701839 7.72349067 -6.26953125 5.81640625 C-5.69966995 5.21760147 -5.12980865 4.61879669 -4.54267883 4.00184631 C-2.91333008 2.36157227 -2.91333008 2.36157227 0 0 Z " fill="#000000" transform="translate(396,336)"/>
<path d="M0 0 C5.43909855 2.36322105 9.1639623 6.75547305 13.3125 10.875 C14.16134766 11.69097656 15.01019531 12.50695312 15.88476562 13.34765625 C17.08069336 14.53294922 17.08069336 14.53294922 18.30078125 15.7421875 C19.03466064 16.4626123 19.76854004 17.18303711 20.5246582 17.92529297 C22 20 22 20 21.91088867 21.78474426 C20.59320346 24.98931779 18.31865923 27.11530841 15.90112305 29.51879883 C15.37095581 30.05743561 14.84078857 30.59607239 14.29455566 31.15103149 C12.54138066 32.92758997 10.77723588 34.69274334 9.01171875 36.45703125 C7.78932025 37.68652866 6.56722243 38.91632508 5.34541321 40.14640808 C2.78403337 42.72123453 0.21678973 45.29004343 -2.35424805 47.85522461 C-5.65343702 51.14850653 -8.9339835 54.45969729 -12.20995808 57.77605152 C-14.72774995 60.31964382 -17.25687212 62.85172713 -19.78941917 65.38062096 C-21.00425401 66.5971531 -22.21509097 67.81769084 -23.42186928 69.04221535 C-25.10727104 70.74966281 -26.80768178 72.44058905 -28.51293945 74.12817383 C-29.01127792 74.63977554 -29.50961639 75.15137726 -30.02305603 75.67848206 C-33.4156253 78.98959453 -33.4156253 78.98959453 -36.08407593 79.03710938 C-38.49540133 77.73183418 -40.1883181 76.20826557 -42.1418457 74.27807617 C-42.94560135 73.49023239 -43.74935699 72.70238861 -44.57746887 71.89067078 C-45.43491196 71.03342911 -46.29235504 70.17618744 -47.17578125 69.29296875 C-48.06033493 68.41602859 -48.94488861 67.53908844 -49.85624695 66.63557434 C-51.72366872 64.77896093 -53.58747374 62.91936543 -55.4465332 61.05444336 C-57.8318568 58.6632102 -60.23496016 56.29076851 -62.64332294 53.9227705 C-64.93636676 51.66174576 -67.21125144 49.38260282 -69.48828125 47.10546875 C-70.35584549 46.25429977 -71.22340973 45.4031308 -72.11726379 44.52616882 C-73.29925606 43.33021843 -73.29925606 43.33021843 -74.50512695 42.11010742 C-75.5562542 41.06206184 -75.5562542 41.06206184 -76.62861633 39.99284363 C-78 38 -78 38 -77.83453369 35.88050842 C-76.63331222 33.17371885 -74.85630587 31.52141238 -72.74609375 29.453125 C-71.89208984 28.60878906 -71.03808594 27.76445312 -70.15820312 26.89453125 C-69.26037109 26.02183594 -68.36253906 25.14914062 -67.4375 24.25 C-66.53580078 23.36183594 -65.63410156 22.47367187 -64.70507812 21.55859375 C-62.47662902 19.36551685 -60.24148407 17.17973956 -58 15 C-54.53370165 16.48653506 -52.30977964 18.45722351 -49.671875 21.1328125 C-48.87265625 21.93847656 -48.0734375 22.74414062 -47.25 23.57421875 C-46.425 24.41597656 -45.6 25.25773437 -44.75 26.125 C-43.90953125 26.97449219 -43.0690625 27.82398438 -42.203125 28.69921875 C-40.13084317 30.79504923 -38.06337607 32.89540713 -36 35 C-31.09526099 30.88670129 -26.4780472 26.61457539 -21.97265625 22.0703125 C-21.33887558 21.43511688 -20.70509491 20.79992126 -20.05210876 20.14547729 C-18.05318594 18.14101284 -16.05779216 16.13307786 -14.0625 14.125 C-12.69749867 12.75497611 -11.3322664 11.38518226 -9.96679688 10.015625 C-6.64185789 6.67973457 -3.32007647 3.34072964 0 0 Z " fill="#000000" transform="translate(397,245)"/>
<path d="M0 0 C3.76672156 3.18402088 7.49002591 6.36161906 10.96484375 9.8671875 C11.61904297 10.52460938 12.27324219 11.18203125 12.94726562 11.859375 C13.60404297 12.52453125 14.26082031 13.1896875 14.9375 13.875 C15.62134766 14.56335938 16.30519531 15.25171875 17.00976562 15.9609375 C18.67551464 17.63833511 20.3388622 19.31803791 22 21 C20.40752446 24.93467549 17.69337631 27.57577776 14.72412109 30.50292969 C14.18738266 31.03996017 13.65064423 31.57699066 13.09764099 32.1302948 C11.32760717 33.89893859 9.55060143 35.66039824 7.7734375 37.421875 C6.54274656 38.64883466 5.3124973 39.87623749 4.08267212 41.10406494 C0.84843484 44.33067488 -2.39176408 47.55123291 -5.63323975 50.77056885 C-8.94140534 54.05825672 -12.24389946 57.35163068 -15.546875 60.64453125 C-22.02571079 67.10193298 -28.51085869 73.55295568 -35 80 C-43.08406592 73.23352491 -50.48682064 65.80930692 -57.96386719 58.38623047 C-59.66365322 56.70313467 -61.36880398 55.02544064 -63.07910156 53.35302734 C-65.55440596 50.93215125 -68.01316297 48.49554151 -70.46875 46.0546875 C-71.23940796 45.30669891 -72.01006592 44.55871033 -72.80407715 43.78805542 C-73.50230591 43.08697662 -74.20053467 42.38589783 -74.91992188 41.66357422 C-75.54056519 41.05101776 -76.1612085 40.4384613 -76.80065918 39.80734253 C-78 38 -78 38 -77.80860901 35.90841675 C-76.64552048 33.16338471 -74.86971131 31.53455148 -72.74609375 29.453125 C-71.89208984 28.60878906 -71.03808594 27.76445312 -70.15820312 26.89453125 C-69.26037109 26.02183594 -68.36253906 25.14914063 -67.4375 24.25 C-66.53580078 23.36183594 -65.63410156 22.47367188 -64.70507812 21.55859375 C-62.47662902 19.36551685 -60.24148407 17.17973956 -58 15 C-54.53370165 16.48653506 -52.30977964 18.45722351 -49.671875 21.1328125 C-48.87265625 21.93847656 -48.0734375 22.74414062 -47.25 23.57421875 C-46.425 24.41597656 -45.6 25.25773437 -44.75 26.125 C-43.90953125 26.97449219 -43.0690625 27.82398438 -42.203125 28.69921875 C-40.13084317 30.79504923 -38.06337607 32.89540713 -36 35 C-31.09526099 30.88670129 -26.4780472 26.61457539 -21.97265625 22.0703125 C-21.33887558 21.43511688 -20.70509491 20.79992126 -20.05210876 20.14547729 C-18.05318594 18.14101284 -16.05779216 16.13307786 -14.0625 14.125 C-12.69749867 12.75497611 -11.3322664 11.38518226 -9.96679688 10.015625 C-6.64185789 6.67973457 -3.32007647 3.34072964 0 0 Z " fill="#000000" transform="translate(397,154)"/>
<path d="M0 0 C10.23 0 20.46 0 31 0 C31 10.23 31 20.46 31 31 C20.77 31 10.54 31 0 31 C0 20.77 0 10.54 0 0 Z " fill="#000000" transform="translate(188,421)"/>
</svg>
