<svg width="20" height="20" viewBox="0 0 20 20" fill="none" xmlns="http://www.w3.org/2000/svg">
<path d="M15.8333 12.9912L14.6583 14.1662L11.6667 11.1745L8.675 14.1662L7.5 12.9912L10.4917 9.99951L7.5 7.00784L8.675 5.83284L11.6667 8.82451L14.6583 5.83284L15.8333 7.00784L12.8417 9.99951L15.8333 12.9912ZM18.3333 2.49951C18.7754 2.49951 19.1993 2.67511 19.5118 2.98767C19.8244 3.30023 20 3.72415 20 4.16618V15.8328C20 16.2749 19.8244 16.6988 19.5118 17.0114C19.1993 17.3239 18.7754 17.4995 18.3333 17.4995H5.83333C5.25833 17.4995 4.80833 17.1995 4.50833 16.7578L0 9.99951L4.50833 3.23285C4.80833 2.79118 5.25833 2.49951 5.83333 2.49951H18.3333ZM18.3333 4.16618H5.83333L1.9 9.99951L5.83333 15.8328H18.3333V4.16618Z" fill="#25009D"/>
</svg>
