<svg width="19" height="16" viewBox="0 0 19 16" fill="none" xmlns="http://www.w3.org/2000/svg">
<path d="M10.8334 0.5C8.84425 0.5 6.9366 1.29018 5.53007 2.6967C4.12355 4.10322 3.33337 6.01088 3.33337 8H0.833374L4.07504 11.2417L4.13337 11.3583L7.50004 8H5.00004C5.00004 6.4529 5.61462 4.96917 6.70858 3.87521C7.80255 2.78125 9.28628 2.16667 10.8334 2.16667C12.3805 2.16667 13.8642 2.78125 14.9582 3.87521C16.0521 4.96917 16.6667 6.4529 16.6667 8C16.6667 9.5471 16.0521 11.0308 14.9582 12.1248C13.8642 13.2188 12.3805 13.8333 10.8334 13.8333C9.22504 13.8333 7.76671 13.175 6.71671 12.1167L5.53337 13.3C6.89171 14.6667 8.75004 15.5 10.8334 15.5C12.8225 15.5 14.7302 14.7098 16.1367 13.3033C17.5432 11.8968 18.3334 9.98912 18.3334 8C18.3334 6.01088 17.5432 4.10322 16.1367 2.6967C14.7302 1.29018 12.8225 0.5 10.8334 0.5Z" fill="#25009D"/>
</svg>