<svg width="48" height="48" viewBox="0 0 48 48" fill="none" xmlns="http://www.w3.org/2000/svg">
<rect width="48" height="48" rx="24" fill="#D1FADF"/>
<path d="M23 20H25V26H23V20ZM27 13H21V15H27V13ZM24 32C20.13 32 17 28.87 17 25C17 21.13 20.13 18 24 18C27.87 18 31 21.13 31 25C31.7 25 32.36 25.13 33 25.35C33 25.23 33 25.12 33 25C33 22.88 32.26 20.93 31.03 19.39L32.45 17.97C32 17.46 31.55 17 31.04 16.56L29.62 18C28.07 16.74 26.12 16 24 16C19.03 16 15 20.03 15 25C15 29.97 19.03 34 24 34C24.59 34 25.16 33.94 25.71 33.83C25.4 33.25 25.18 32.6 25.08 31.91C24.72 31.96 24.37 32 24 32ZM33.34 27.84L29.75 31.43L28.16 29.84L27 31L29.75 34L34.5 29.25L33.34 27.84Z" fill="#039855"/>
</svg>
