<svg width="40" height="40" viewBox="0 0 40 40" fill="none" xmlns="http://www.w3.org/2000/svg">
<rect width="40" height="40" rx="20" fill="#E4E7EC"/>
<path d="M14 27.5017C12.4184 27.5017 11.1227 26.2779 11.0082 24.7256L11 24.5017L11 15.4982C11 13.9168 12.2238 12.621 13.7761 12.5065L14 12.4982L26 12.4982C27.5815 12.4982 28.8772 13.7221 28.9918 15.2743L29 15.4982L29 24.5017C29 26.0833 27.7762 27.379 26.2239 27.4935L26 27.5017L14 27.5017ZM18.4991 26.0017L26 26.0017C26.8284 26.0017 27.5 25.3301 27.5 24.5017L27.5 15.4982C27.5 14.6698 26.8284 13.9982 26 13.9982L18.4991 13.9982L18.4991 26.0017ZM22.5735 22.8671L22.4697 22.7804L20.2197 20.5304C19.9593 20.27 19.9304 19.8659 20.1329 19.5736L20.2197 19.4697L22.4697 17.2197C22.7626 16.9268 23.2374 16.9268 23.5303 17.2197C23.7907 17.4801 23.8196 17.8842 23.6171 18.1765L23.5303 18.2804L22.5607 19.25L25.2474 19.25C25.6616 19.25 25.9974 19.5858 25.9974 20C25.9974 20.3682 25.7321 20.6744 25.3822 20.7379L25.2474 20.75L22.5607 20.75L23.5303 21.7197C23.8232 22.0126 23.8232 22.4875 23.5303 22.7804C23.27 23.0407 22.8658 23.0696 22.5735 22.8671Z" fill="#475467"/>
</svg>
