<svg width="20" height="20" viewBox="0 0 20 20" fill="none" xmlns="http://www.w3.org/2000/svg">
<path d="M5.41671 16.6654C4.15004 16.6654 3.06948 16.2293 2.17504 15.357C1.2806 14.4793 0.833374 13.4098 0.833374 12.1487C0.833374 11.0654 1.15837 10.0987 1.80837 9.2487C2.46393 8.3987 3.31948 7.85703 4.37504 7.6237C4.72504 6.34592 5.41948 5.31259 6.45837 4.5237C7.50282 3.72925 8.68337 3.33203 10 3.33203C11.6278 3.33203 13.0056 3.8987 14.1334 5.03203C15.2667 6.15981 15.8334 7.53759 15.8334 9.16536C16.7945 9.27648 17.5889 9.69314 18.2167 10.4154C18.85 11.1265 19.1667 11.9598 19.1667 12.9154C19.1667 13.9598 18.8028 14.8459 18.075 15.5737C17.3473 16.3015 16.4612 16.6654 15.4167 16.6654H10.8334C10.3778 16.6654 9.98615 16.5015 9.65837 16.1737C9.3306 15.8515 9.16671 15.4598 9.16671 14.9987V10.707L7.83337 11.9987L6.66671 10.832L10 7.4987L13.3334 10.832L12.1667 11.9987L10.8334 10.707V14.9987H15.4167C16 14.9987 16.4917 14.7959 16.8917 14.3904C17.2973 13.9904 17.5 13.4987 17.5 12.9154C17.5 12.332 17.2973 11.8404 16.8917 11.4404C16.4917 11.0348 16 10.832 15.4167 10.832H14.1667V9.16536C14.1667 8.01536 13.7612 7.03203 12.95 6.21536C12.1389 5.40425 11.1556 4.9987 10 4.9987C8.85004 4.9987 7.86671 5.40425 7.05004 6.21536C6.23893 7.03203 5.83337 8.01536 5.83337 9.16536H5.41671C4.61115 9.16536 3.92504 9.45148 3.35837 10.0237C2.78615 10.5904 2.50004 11.2765 2.50004 12.082C2.50004 12.8876 2.78615 13.582 3.35837 14.1654C3.92504 14.7209 4.61115 14.9987 5.41671 14.9987H7.50004V16.6654" fill="#202124"/>
</svg>
