<svg width="25" height="24" viewBox="0 0 25 24" fill="none" xmlns="http://www.w3.org/2000/svg">
<path d="M12.3999 23C12.1347 23 11.8803 22.8946 11.6928 22.7071C11.5053 22.5196 11.3999 22.2652 11.3999 22V19H7.3999C6.86947 19 6.36076 18.7893 5.98569 18.4142C5.61062 18.0391 5.3999 17.5304 5.3999 17V7C5.3999 6.46957 5.61062 5.96086 5.98569 5.58579C6.36076 5.21071 6.86947 5 7.3999 5H21.3999C21.9303 5 22.439 5.21071 22.8141 5.58579C23.1892 5.96086 23.3999 6.46957 23.3999 7V17C23.3999 17.5304 23.1892 18.0391 22.8141 18.4142C22.439 18.7893 21.9303 19 21.3999 19H17.2999L13.5999 22.71C13.3999 22.89 13.1599 23 12.8999 23H12.3999ZM13.3999 17V20.08L16.4799 17H21.3999V7H7.3999V17H13.3999ZM3.3999 15H1.3999V3C1.3999 2.46957 1.61062 1.96086 1.98569 1.58579C2.36076 1.21071 2.86947 1 3.3999 1H19.3999V3H3.3999V15ZM9.3999 9H19.3999V11H9.3999V9ZM9.3999 13H17.3999V15H9.3999V13Z" fill="#25009D"/>
</svg>
