<svg width="36" height="36" viewBox="0 0 36 36" fill="none" xmlns="http://www.w3.org/2000/svg">
<rect width="36" height="36" rx="18" fill="#667085"/>
<g clip-path="url(#clip0_4949_36222)">
<path d="M17.9997 27.1668C17.7787 27.1668 17.5667 27.079 17.4104 26.9228C17.2541 26.7665 17.1663 26.5545 17.1663 26.3335V23.8335H13.833C13.391 23.8335 12.9671 23.6579 12.6545 23.3453C12.3419 23.0328 12.1663 22.6089 12.1663 22.1668V13.8335C12.1663 13.3915 12.3419 12.9675 12.6545 12.655C12.9671 12.3424 13.391 12.1668 13.833 12.1668H25.4997C25.9417 12.1668 26.3656 12.3424 26.6782 12.655C26.9907 12.9675 27.1663 13.3915 27.1663 13.8335V22.1668C27.1663 22.6089 26.9907 23.0328 26.6782 23.3453C26.3656 23.6579 25.9417 23.8335 25.4997 23.8335H22.083L18.9997 26.9252C18.833 27.0752 18.633 27.1668 18.4163 27.1668H17.9997ZM18.833 22.1668V24.7335L21.3997 22.1668H25.4997V13.8335H13.833V22.1668H18.833ZM10.4997 20.5002H8.83301V10.5002C8.83301 10.0581 9.0086 9.63421 9.32116 9.32165C9.63372 9.00909 10.0576 8.8335 10.4997 8.8335H23.833V10.5002H10.4997V20.5002ZM15.4997 15.5002H23.833V17.1668H15.4997V15.5002ZM15.4997 18.8335H22.1663V20.5002H15.4997V18.8335Z" fill="white"/>
</g>
<defs>
<clipPath id="clip0_4949_36222">
<rect width="20" height="20" fill="white" transform="translate(8 8)"/>
</clipPath>
</defs>
</svg>