<svg width="20" height="20" viewBox="0 0 20 20" fill="none" xmlns="http://www.w3.org/2000/svg">
<g clip-path="url(#clip0_10559_16365)">
<path d="M9.99992 19.1654C9.7789 19.1654 9.56694 19.0776 9.41066 18.9213C9.25438 18.765 9.16658 18.553 9.16658 18.332V15.832H5.83325C5.39122 15.832 4.9673 15.6564 4.65474 15.3439C4.34218 15.0313 4.16658 14.6074 4.16658 14.1654V5.83203C4.16658 5.39 4.34218 4.96608 4.65474 4.65352C4.9673 4.34096 5.39122 4.16536 5.83325 4.16536H17.4999C17.9419 4.16536 18.3659 4.34096 18.6784 4.65352C18.991 4.96608 19.1666 5.39 19.1666 5.83203V14.1654C19.1666 14.6074 18.991 15.0313 18.6784 15.3439C18.3659 15.6564 17.9419 15.832 17.4999 15.832H14.0833L10.9999 18.9237C10.8333 19.0737 10.6333 19.1654 10.4166 19.1654H9.99992ZM10.8333 14.1654V16.732L13.3999 14.1654H17.4999V5.83203H5.83325V14.1654H10.8333ZM2.49992 12.4987H0.833252V2.4987C0.833252 2.05667 1.00885 1.63275 1.32141 1.32019C1.63397 1.00763 2.05789 0.832031 2.49992 0.832031H15.8333V2.4987H2.49992V12.4987ZM7.49992 7.4987H15.8333V9.16536H7.49992V7.4987ZM7.49992 10.832H14.1666V12.4987H7.49992V10.832Z" fill="#202124"/>
</g>
<defs>
<clipPath id="clip0_10559_16365">
<rect width="20" height="20" fill="white"/>
</clipPath>
</defs>
</svg>
