<svg width="20" height="20" viewBox="0 0 20 20" fill="none" xmlns="http://www.w3.org/2000/svg">
<path d="M10 19.1667C9.77903 19.1667 9.56706 19.0789 9.41078 18.9226C9.2545 18.7663 9.16671 18.5544 9.16671 18.3333V15.8333H5.83337C5.39135 15.8333 4.96742 15.6577 4.65486 15.3452C4.3423 15.0326 4.16671 14.6087 4.16671 14.1667V5.83334C4.16671 5.39132 4.3423 4.96739 4.65486 4.65483C4.96742 4.34227 5.39135 4.16668 5.83337 4.16668H17.5C17.9421 4.16668 18.366 4.34227 18.6786 4.65483C18.9911 4.96739 19.1667 5.39132 19.1667 5.83334V14.1667C19.1667 14.6087 18.9911 15.0326 18.6786 15.3452C18.366 15.6577 17.9421 15.8333 17.5 15.8333H14.0834L11 18.925C10.8334 19.075 10.6334 19.1667 10.4167 19.1667H10ZM10.8334 14.1667V16.7333L13.4 14.1667H17.5V5.83334H5.83337V14.1667H10.8334ZM2.50004 12.5H0.833374V2.50001C0.833374 2.05798 1.00897 1.63406 1.32153 1.3215C1.63409 1.00894 2.05801 0.833344 2.50004 0.833344H15.8334V2.50001H2.50004V12.5ZM7.50004 7.50001H15.8334V9.16668H7.50004V7.50001ZM7.50004 10.8333H14.1667V12.5H7.50004V10.8333Z" fill="#202124"/>
</svg>
