<svg width="21" height="20" viewBox="0 0 21 20" fill="none" xmlns="http://www.w3.org/2000/svg">
<path d="M16.3334 17.4999H7.16675V5.83325H16.3334M16.3334 4.16658H7.16675C6.72472 4.16658 6.3008 4.34218 5.98824 4.65474C5.67568 4.9673 5.50008 5.39122 5.50008 5.83325V17.4999C5.50008 17.9419 5.67568 18.3659 5.98824 18.6784C6.3008 18.991 6.72472 19.1666 7.16675 19.1666H16.3334C16.7754 19.1666 17.1994 18.991 17.5119 18.6784C17.8245 18.3659 18.0001 17.9419 18.0001 17.4999V5.83325C18.0001 5.39122 17.8245 4.9673 17.5119 4.65474C17.1994 4.34218 16.7754 4.16658 16.3334 4.16658ZM13.8334 0.833252H3.83341C3.39139 0.833252 2.96746 1.00885 2.6549 1.32141C2.34234 1.63397 2.16675 2.05789 2.16675 2.49992V14.1666H3.83341V2.49992H13.8334V0.833252Z" fill="#5F6369"/>
</svg>
