<svg width="21" height="20" viewBox="0 0 21 20" fill="none" xmlns="http://www.w3.org/2000/svg">
<path d="M12.0083 18.3334H5.49992C4.57492 18.3334 3.83325 17.5917 3.83325 16.6667V3.33341C3.83325 2.41675 4.57492 1.66675 5.49992 1.66675H12.1666L17.1666 6.66675V10.9084C16.8916 10.8667 16.6166 10.8334 16.3333 10.8334C16.0499 10.8334 15.7749 10.8667 15.4999 10.9084V7.50008H11.3333V3.33341H5.49992V16.6667H11.4083C11.5083 17.2667 11.7166 17.8251 12.0083 18.3334ZM19.6666 15.0001H17.1666V12.5001H15.4999V15.0001H12.9999V16.6667H15.4999V19.1667H17.1666V16.6667H19.6666V15.0001Z" fill="#5F6369"/>
</svg>
