<svg width="57" height="56" viewBox="0 0 57 56" fill="none" xmlns="http://www.w3.org/2000/svg">
<g clip-path="url(#clip0_4626_1345)">
<path d="M20.6252 35.625V35.7939L20.4553 35.625H20.6252ZM36.0452 35.625L35.8752 35.7939V35.625H36.0452Z" fill="#A3313A" stroke="#202124"/>
<path d="M34.1677 20.375H32.8787V19.0859L34.1677 20.375Z" fill="#B2B2B2" stroke="#202124"/>
<path d="M21.7217 18.375H31.875V21.375H34.875V37.5928L34.8682 37.6318L34.8477 37.666L34.8145 37.6885C34.8023 37.6936 34.7886 37.6962 34.7754 37.6963H21.7246C21.7115 37.6962 21.6984 37.6934 21.6865 37.6885L21.6543 37.667C21.6358 37.6484 21.6251 37.6229 21.625 37.5967V18.4717C21.625 18.4589 21.628 18.4461 21.6328 18.4346L21.6533 18.4033C21.6714 18.3853 21.6962 18.375 21.7217 18.375Z" fill="#F1F1F1" stroke="#202124"/>
<path d="M36.75 28.875V34.625H19.75V28.875H36.75Z" fill="#C84D52" stroke="#202124"/>
<path d="M25.1262 32.1738V33.25H24.3762V30.1825H25.5762C25.8789 30.1613 26.1778 30.2596 26.4087 30.4563C26.5084 30.5529 26.5858 30.67 26.6357 30.7995C26.6856 30.929 26.7066 31.0678 26.6975 31.2063C26.6994 31.3832 26.6555 31.5576 26.57 31.7125C26.4821 31.8642 26.3517 31.9867 26.195 32.065C26.0044 32.1559 25.7947 32.1997 25.5837 32.1925L25.1262 32.1738ZM25.9512 31.1875C25.9512 30.9175 25.8012 30.7825 25.5012 30.7825H25.1262V31.5813H25.5012C25.8012 31.5813 25.9512 31.45 25.9512 31.1875ZM29.6337 32.5C29.5055 32.7314 29.3126 32.9203 29.0787 33.0438C28.8158 33.1792 28.5231 33.2462 28.2275 33.2388H27.0687V30.1825H28.2275C28.5227 30.1747 28.8152 30.2405 29.0787 30.3738C29.3133 30.4946 29.5065 30.6826 29.6337 30.9138C29.7653 31.1591 29.8312 31.4342 29.825 31.7125C29.8283 31.9869 29.7625 32.2577 29.6337 32.5ZM28.835 32.3463C28.9902 32.1665 29.0755 31.9369 29.0755 31.6994C29.0755 31.4619 28.9902 31.2323 28.835 31.0525C28.6489 30.8904 28.4063 30.8082 28.16 30.8238H27.8112V32.575H28.16C28.4048 32.5937 28.6471 32.5156 28.835 32.3575V32.3463ZM32.2475 30.1825V30.775H30.9875V31.4463H31.9587V32.0088H30.9875V33.25H30.2375V30.1825H32.2475Z" fill="white"/>
<path d="M28.5875 19.949C28.6152 20.2089 28.5896 20.4717 28.5125 20.7215C28.1788 21.8727 27.0613 26.069 26.2175 26.6652C25.0138 27.5202 24.3875 26.549 25.0288 25.859C25.67 25.169 29.54 24.2502 30.7738 24.2502C32.3788 24.2502 32.1725 25.6715 31.2613 25.5852C30.2338 25.4877 27.665 23.7365 27.5113 20.4065C27.4438 19.2215 28.4713 19.0002 28.5875 19.949Z" stroke="#C84D52" stroke-miterlimit="10"/>
</g>
<defs>
<clipPath id="clip0_4626_1345">
<rect width="24" height="24" fill="white" transform="translate(16.25 16)"/>
</clipPath>
</defs>
</svg>
