<svg width="20" height="20" viewBox="0 0 20 20" fill="none" xmlns="http://www.w3.org/2000/svg">
<path d="M12.5 13.334C13.4166 13.334 14.1666 14.084 14.1666 15.0007C14.1666 15.9173 13.4166 16.6673 12.5 16.6673C11.5833 16.6673 10.8333 15.9173 10.8333 15.0007C10.8333 14.084 11.5833 13.334 12.5 13.334ZM12.5 8.33398C13.4166 8.33398 14.1666 9.08398 14.1666 10.0007C14.1666 10.9173 13.4166 11.6673 12.5 11.6673C11.5833 11.6673 10.8333 10.9173 10.8333 10.0007C10.8333 9.08398 11.5833 8.33398 12.5 8.33398ZM12.5 3.33398C13.4166 3.33398 14.1666 4.08398 14.1666 5.00065C14.1666 5.91732 13.4166 6.66732 12.5 6.66732C11.5833 6.66732 10.8333 5.91732 10.8333 5.00065C10.8333 4.08398 11.5833 3.33398 12.5 3.33398ZM7.49998 13.334C8.41665 13.334 9.16665 14.084 9.16665 15.0007C9.16665 15.9173 8.41665 16.6673 7.49998 16.6673C6.58331 16.6673 5.83331 15.9173 5.83331 15.0007C5.83331 14.084 6.58331 13.334 7.49998 13.334ZM7.49998 8.33398C8.41665 8.33398 9.16665 9.08398 9.16665 10.0007C9.16665 10.9173 8.41665 11.6673 7.49998 11.6673C6.58331 11.6673 5.83331 10.9173 5.83331 10.0007C5.83331 9.08398 6.58331 8.33398 7.49998 8.33398ZM7.49998 3.33398C8.41665 3.33398 9.16665 4.08398 9.16665 5.00065C9.16665 5.91732 8.41665 6.66732 7.49998 6.66732C6.58331 6.66732 5.83331 5.91732 5.83331 5.00065C5.83331 4.08398 6.58331 3.33398 7.49998 3.33398Z" fill="#9B98A0"/>
</svg>
