<svg width="80" height="80" viewBox="0 0 80 80" fill="none" xmlns="http://www.w3.org/2000/svg">
<path fill-rule="evenodd" clip-rule="evenodd" d="M40.4688 7.14086C40.8594 7.17211 41.7344 7.34398 42.4219 7.50023C43.1094 7.67211 44.125 8.04711 44.6719 8.31273C45.2188 8.59398 46.0625 9.18773 46.5469 9.62523C47.0312 10.0627 47.6719 10.7659 47.9844 11.1877C48.2969 11.6096 54.3906 22.5627 61.5156 35.5471C68.6406 48.5159 74.5938 59.4221 74.7188 59.7659C74.8594 60.1096 75.0781 60.8596 75.2188 61.4377C75.3594 62.0315 75.4688 62.8127 75.4688 63.2034C75.4688 63.594 75.3594 64.4534 75.2344 65.1096C75.0938 65.8284 74.7031 66.9221 74.2969 67.7659C73.75 68.9065 73.3438 69.469 72.4688 70.3596C71.5469 71.2971 71.0469 71.6565 69.8438 72.2346C68.9531 72.6565 67.8594 73.0471 67.1094 73.1877C65.9844 73.4221 63.0625 73.4377 39.5312 73.4065C13.4375 73.3596 13.1875 73.3596 12.1094 73.0315C11.5156 72.8596 10.4844 72.4377 9.84375 72.094C9.07812 71.7034 8.29688 71.1096 7.57812 70.3909C6.82812 69.6409 6.28125 68.8909 5.82812 68.0471C5.46875 67.3596 5.03125 66.2034 4.85938 65.469C4.67188 64.7346 4.53125 63.8127 4.53125 63.3909C4.53125 62.9846 4.64062 62.1721 4.76562 61.5627C4.89062 60.9534 5.10938 60.1721 5.26563 59.7971C5.40625 59.4377 11.3594 48.5315 18.4844 35.5471C25.6094 22.5627 31.6719 11.6409 31.9531 11.2502C32.2344 10.8596 32.8438 10.1877 33.2969 9.76586C33.7656 9.32836 34.5 8.78148 34.9219 8.54711C35.3594 8.31273 36.0938 7.96898 36.5625 7.79711C37.0312 7.62523 37.9531 7.39086 38.5938 7.28148C39.2344 7.17211 40.0781 7.10961 40.4688 7.14086ZM37.625 14.7971C37.4688 14.9534 31.5156 25.6877 24.375 38.6721C15.5625 54.7034 11.375 62.469 11.3125 62.8909C11.2656 63.2346 11.2969 63.8127 11.3906 64.1721C11.5 64.5784 11.8281 65.1252 12.2187 65.5627C12.7031 66.0784 13.1094 66.3284 13.6719 66.5002C14.3438 66.6877 18.2188 66.719 40 66.719C61.7812 66.719 65.6562 66.6877 66.3281 66.5002C66.8906 66.3284 67.2969 66.0784 67.7656 65.5627C68.1719 65.1252 68.5 64.5784 68.6094 64.1721C68.7031 63.8127 68.7344 63.2346 68.6875 62.8909C68.625 62.469 64.4219 54.6721 55.5938 38.6096C43.4531 16.5315 42.5312 14.9065 41.9062 14.469C41.3438 14.0627 41.0469 13.969 40.1875 13.9377C39.375 13.9065 39 13.969 38.5156 14.2034C38.1719 14.3752 37.7656 14.6409 37.625 14.7971ZM40.1719 26.7502C40.9531 26.7815 41.3281 26.8909 41.7656 27.1877C42.0937 27.4065 42.5469 27.8596 43.2031 28.7971V44.5002L42.7344 45.1877C42.4688 45.5471 41.9375 46.0315 41.5625 46.2502C41.0469 46.5315 40.625 46.6252 40 46.6252C39.4531 46.6252 38.9219 46.5159 38.5156 46.2971C38.1719 46.1252 37.7031 45.7659 37.4531 45.4846C37.2188 45.219 36.9531 44.7346 36.8594 44.4065C36.7656 44.0315 36.7188 41.2502 36.7969 28.7815L37.2656 28.1096C37.5312 27.7502 38.0469 27.2815 38.4375 27.0784C39.0156 26.7659 39.3125 26.7034 40.1719 26.7502ZM40.2656 53.3596C40.6406 53.4065 41.2031 53.5784 41.5156 53.7346C41.8438 53.8909 42.2656 54.2034 42.4531 54.4065C42.6406 54.594 42.9062 55.0315 43.0312 55.344C43.1719 55.6721 43.2812 56.2659 43.2812 56.6721C43.2812 57.094 43.1406 57.7034 42.9844 58.0471C42.8281 58.3909 42.5 58.8596 42.25 59.094C42 59.3284 41.5312 59.6252 41.2031 59.7502C40.8906 59.8909 40.3438 60.0002 40 60.0002C39.6562 60.0002 39.1094 59.8909 38.7812 59.7502C38.4688 59.6252 38 59.3284 37.7656 59.094C37.5156 58.8596 37.1875 58.4065 37.0156 58.0784C36.8438 57.7346 36.7188 57.1721 36.7188 56.719C36.7188 56.2815 36.8281 55.6721 36.9688 55.344C37.0938 55.0315 37.3594 54.594 37.5469 54.4065C37.7344 54.2034 38.0938 53.9221 38.3281 53.7971C38.5625 53.6565 38.9531 53.4846 39.1875 53.4221C39.4219 53.344 39.9063 53.3284 40.2656 53.3596Z" fill="#D92D20"/>
</svg>
