<svg width="80" height="80" viewBox="0 0 80 80" fill="none" xmlns="http://www.w3.org/2000/svg">
<path fill-rule="evenodd" clip-rule="evenodd" d="M26.0156 0H53.9844L54.6875 0.453125C55.0781 0.703125 60.8125 6.34375 67.4531 12.9844C76 21.5469 79.5938 25.25 79.7656 25.6719C79.9688 26.1719 80 27.9688 80 39.8906C80 49.1406 79.9375 53.7188 79.8281 54.1406C79.6875 54.6719 77.9688 56.4531 67.5312 66.9375C60.8438 73.625 55.0781 79.2969 53.9844 80H26.0156L25.3125 79.5469C24.9219 79.2969 19.1875 73.6562 12.5469 67.0156C4 58.4531 0.40625 54.75 0.234375 54.3281C0.03125 53.8281 0 52.0313 0 40.1094C0 30.8594 0.0625 26.2812 0.171875 25.8594C0.3125 25.3281 2.03125 23.5469 12.4688 13.0625C19.1562 6.375 24.9219 0.703125 25.3125 0.453125L26.0156 0ZM6.17188 28.2031L6.25 51.7969L28.2031 73.75H51.7969L73.75 51.7969V28.2031L51.7969 6.25H28.2031L6.17188 28.2031ZM27.4219 24.3906C27.6719 24.375 28.1719 24.4531 28.5156 24.5469C29.0469 24.6875 30 25.5781 40 35.5469L45.4219 30.125C50.2969 25.2812 50.9375 24.6875 51.5625 24.5312C51.9531 24.4219 52.5781 24.3906 52.9688 24.4375C53.3594 24.4844 53.9219 24.7031 54.2188 24.8906C54.5156 25.0938 54.9219 25.5 55.1094 25.7812C55.2969 26.0781 55.5 26.6406 55.5625 27.0312C55.6094 27.4219 55.5781 28.0312 55.4688 28.4375C55.2969 29.0625 54.7188 29.7031 44.4531 40L49.875 45.4219C54.7188 50.2969 55.2969 50.9375 55.4688 51.5625C55.5781 51.9531 55.6094 52.5625 55.5625 52.9688C55.5 53.3594 55.2969 53.9062 55.1094 54.2031C54.9219 54.5 54.5156 54.9062 54.2188 55.0938C53.9219 55.2969 53.3594 55.5 52.9688 55.5625C52.5781 55.6094 51.9531 55.5781 51.5625 55.4688C50.9375 55.2969 50.2969 54.7188 40 44.4531L34.5625 49.8594C29.7031 54.7188 29.0625 55.2969 28.4375 55.4688C28.0469 55.5781 27.4219 55.6094 27.0312 55.5625C26.6406 55.5 26.0781 55.2969 25.7812 55.0938C25.4844 54.9062 25.0781 54.5 24.8906 54.2031C24.7031 53.9062 24.5 53.3594 24.4375 52.9688C24.3906 52.5625 24.4219 51.9531 24.5312 51.5625C24.6875 50.9375 25.2812 50.2969 35.5469 40L30.125 34.5625C25.5781 30 24.6875 29.0312 24.5469 28.5156C24.4531 28.1719 24.375 27.7188 24.375 27.5C24.375 27.2812 24.4531 26.8438 24.5312 26.5156C24.625 26.1875 24.9531 25.6562 25.3125 25.3125C25.6562 24.9688 26.1719 24.625 26.4375 24.5469C26.7188 24.4688 27.1562 24.3906 27.4219 24.3906Z" fill="#D92D20"/>
</svg>
