<svg width="96" height="31" viewBox="0 0 96 31" fill="none" xmlns="http://www.w3.org/2000/svg">
<g clip-path="url(#clip0_4224_1549)">
<path d="M7.99181 30.9189C6.93049 30.9295 5.87082 30.8319 4.82893 30.6275C3.87194 30.4613 2.96379 30.0813 2.17081 29.5152C1.41148 28.8968 0.845999 28.0693 0.542897 27.1329C0.229895 26.2028 0.0531011 25.2316 0.0181163 24.2499C-0.0366531 23.0742 0.0345487 21.896 0.230481 20.7357C0.519098 19.7604 1.00238 18.8552 1.65055 18.0757C2.25674 17.3321 3.00853 16.723 3.85876 16.2867C4.98001 15.7337 6.21493 15.4567 7.46251 15.4782C7.96603 15.4799 8.46888 15.5152 8.96779 15.5838C11.1553 15.8811 12.7503 16.7411 13.7024 18.1396C14.0575 18.6688 14.3195 19.2559 14.477 19.8751C14.6141 20.4078 14.6893 20.9548 14.701 21.5051C14.7187 22.072 14.6715 22.639 14.5603 23.195H3.91298C3.86865 23.7802 3.90734 24.3688 4.02788 24.9429C4.13347 25.4693 4.32546 25.9741 4.59591 26.4366C4.91008 26.9698 5.35176 27.4148 5.88043 27.7307C6.72765 28.1272 7.65966 28.3032 8.59147 28.2425C9.45254 28.2363 10.3119 28.1631 11.1618 28.0235C11.8709 27.9168 12.5704 27.7533 13.2538 27.5345L12.802 30.4684C11.2152 30.7534 9.60736 30.9028 7.99569 30.915L7.99181 30.9189ZM7.77106 18.0014C7.06236 17.986 6.36437 18.1778 5.76101 18.5536C5.29518 18.8592 4.9071 19.2713 4.62818 19.7565C4.31503 20.2949 4.10688 20.8889 4.01497 21.5064H10.9088C10.9224 21.1986 10.9023 20.8903 10.8487 20.5871C10.7546 19.9594 10.486 19.3716 10.0742 18.8919C9.7763 18.5882 9.41804 18.3518 9.02303 18.1983C8.62802 18.0448 8.20526 17.9776 7.78267 18.0014H7.77106Z" fill="white"/>
<path d="M14.7041 30.6615L20.7594 22.948L15.9867 15.8265H20.7594L23.2942 19.8876L26.3926 15.8232H30.8258L25.365 22.9447L30.5547 30.6615H25.8936L22.7507 26.0064L19.2438 30.6615H14.7041Z" fill="white"/>
<path d="M40.0454 28.3726C39.9518 28.4378 39.2979 30.9088 39.2979 30.9088C39.2979 30.9088 34.9544 31.4017 33.0276 30.1069C31.1008 28.8121 30.4863 24.6186 34.3367 23.0238C38.187 21.4291 41.6591 21.6312 41.7346 19.5586C41.8101 17.486 39.0287 17.8778 39.0287 17.8778C37.1013 18.0112 35.2016 18.4152 33.3846 19.0781C33.6118 17.4632 33.8209 16.36 33.8209 16.36C33.8209 16.36 41.5216 14.766 44.1055 16.1644C46.6893 17.5629 45.6817 19.8631 45.6798 23.3805C45.6779 26.8979 45.39 30.6676 45.39 30.6676H41.3066L41.7346 23.0258C40.5815 23.6271 39.3539 24.0693 38.0844 24.3408C36.7605 24.5899 34.8634 25.5672 35.4831 27.8615C36.4939 29.2763 38.6091 28.7188 40.0454 28.3726Z" fill="white"/>
<path d="M77.5011 28.3726C77.4075 28.4378 76.7537 30.9088 76.7537 30.9088C76.7537 30.9088 72.4102 31.4017 70.4834 30.1069C68.5566 28.8121 67.9415 24.6179 71.7925 23.0238C75.6434 21.4298 79.1149 21.6312 79.1904 19.5586C79.2659 17.486 76.4845 17.8778 76.4845 17.8778C74.5571 18.0112 72.6574 18.4152 70.8404 19.0781C71.0676 17.4632 71.2767 16.36 71.2767 16.36C71.2767 16.36 78.9774 14.766 81.5613 16.1644C84.1451 17.5629 83.1375 19.8631 83.1356 23.3805C83.1337 26.8979 82.8458 30.6676 82.8458 30.6676H78.7618L79.1891 23.0258C78.0363 23.6272 76.8088 24.0695 75.5395 24.3408C74.2156 24.5899 72.3185 25.5672 72.9382 27.8615C73.9497 29.2763 76.0649 28.7188 77.5011 28.3726Z" fill="white"/>
<path d="M48.6716 30.6615H52.8305C52.8305 30.6615 52.7982 20.5683 53.6374 10.6636C52.1842 10.7512 50.7271 10.7512 49.2739 10.6636L48.6716 30.6615Z" fill="white"/>
<path d="M67.3745 27.4286L67.0286 30.4817C67.0286 30.4817 61.1811 31.9532 57.8975 29.6759C54.6139 27.3986 55.211 22.349 55.2355 22.2069C55.26 22.0648 56.165 17.9208 59.193 16.3215C62.221 14.7223 67.6295 16.0855 67.6295 16.0855V19.3206C67.6295 19.3206 64.5525 18.1673 62.2816 18.8206C59.5628 19.4849 57.3011 25.5835 61.2224 27.4325C63.5875 28.608 67.3745 27.4286 67.3745 27.4286Z" fill="white"/>
<path d="M89.7846 12.3161C89.7892 12.2696 89.7807 12.2228 89.7602 12.1809C89.7396 12.1391 89.7078 12.1039 89.6685 12.0794C89.5964 12.0511 89.519 12.0393 89.4419 12.0449H89.2076V12.5971H89.52C89.5558 12.5981 89.5915 12.5916 89.6248 12.5782C89.6581 12.5647 89.6883 12.5445 89.7136 12.5189C89.738 12.4912 89.7567 12.4589 89.7687 12.4239C89.7806 12.3888 89.7856 12.3518 89.7833 12.3148L89.7846 12.3161ZM89.8853 12.8729L90.2823 13.6018C90.2876 13.611 90.2905 13.6214 90.2905 13.6321C90.2905 13.6428 90.2876 13.6532 90.2823 13.6624C90.2778 13.6724 90.2703 13.6807 90.261 13.6863C90.2517 13.6919 90.2409 13.6945 90.23 13.6937H89.9331C89.9214 13.6949 89.9096 13.6922 89.8995 13.6861C89.8894 13.68 89.8815 13.6708 89.8769 13.6598L89.5013 12.9498H89.2037V13.6337C89.2043 13.642 89.2033 13.6502 89.2006 13.658C89.198 13.6658 89.1937 13.673 89.1882 13.6791C89.1827 13.6852 89.1761 13.6901 89.1686 13.6935C89.1612 13.6969 89.1531 13.6988 89.145 13.6989H88.8816C88.8734 13.6996 88.8652 13.6986 88.8574 13.696C88.8497 13.6934 88.8425 13.6891 88.8365 13.6835C88.8304 13.678 88.8256 13.6712 88.8222 13.6636C88.8189 13.6561 88.8171 13.6479 88.8171 13.6396V11.756C88.8158 11.7401 88.8209 11.7242 88.8312 11.712C88.8414 11.6998 88.8561 11.6922 88.8719 11.6908H89.449C89.5734 11.6853 89.6979 11.7014 89.8169 11.7384C89.9243 11.7781 90.0153 11.8532 90.0751 11.9516C90.139 12.0575 90.1717 12.1797 90.1694 12.3037C90.1713 12.4179 90.1427 12.5305 90.0867 12.6297C90.0353 12.722 89.9574 12.7966 89.8634 12.8435L89.8815 12.8761L89.8853 12.8729ZM89.498 11.256C89.3077 11.2554 89.1192 11.2942 88.9442 11.3701C88.6865 11.4816 88.4672 11.6677 88.314 11.905C88.1608 12.1422 88.0806 12.4199 88.0834 12.7031C88.0863 12.9864 88.1721 13.2624 88.33 13.4964C88.488 13.7304 88.711 13.912 88.9709 14.0182C89.2309 14.1244 89.5162 14.1505 89.7908 14.0932C90.0654 14.0359 90.3171 13.8977 90.514 13.6962C90.711 13.4946 90.8445 13.2387 90.8977 12.9606C90.9509 12.6825 90.9214 12.3947 90.8129 12.1335C90.7045 11.8723 90.5217 11.6495 90.2877 11.4934C90.0537 11.3373 89.7791 11.2549 89.4987 11.2566L89.498 11.256ZM91.2338 12.6903C91.2327 13.0347 91.1316 13.3712 90.9431 13.6581C90.7546 13.945 90.4869 14.1698 90.1732 14.3046C89.9097 14.417 89.6228 14.4618 89.338 14.4349C89.0532 14.4081 88.7794 14.3105 88.5411 14.1508C88.3027 13.9911 88.1072 13.7744 87.9719 13.5198C87.8367 13.2653 87.7659 12.9808 87.7659 12.692C87.7659 12.4031 87.8367 12.1187 87.9719 11.8641C88.1072 11.6096 88.3027 11.3928 88.5411 11.2331C88.7794 11.0734 89.0532 10.9758 89.338 10.949C89.6228 10.9221 89.9097 10.9669 90.1732 11.0793C90.4869 11.2136 90.7547 11.4379 90.9436 11.7243C91.1324 12.0108 91.234 12.3468 91.2357 12.691L91.2338 12.6903Z" fill="white"/>
<path d="M88.6156 15.9111H85.1365V19.4259H88.6156V15.9111Z" fill="white"/>
<path d="M92.085 19.4258H88.6052V22.9406H92.085V19.4258Z" fill="white"/>
<path d="M96.0001 21.1836H92.5203V24.6984H96.0001V21.1836Z" fill="white"/>
<path d="M88.6156 26.895H85.1365V30.4111H88.6156V26.895Z" fill="white"/>
<path d="M92.085 23.3804H88.6052V26.8952H92.085V23.3804Z" fill="white"/>
<path d="M0 0.616906C0.524714 0.530826 1.05562 0.489058 1.5872 0.492035C2.23078 0.442558 2.86988 0.634026 3.38266 1.02994C3.56821 1.20058 3.71456 1.41014 3.81149 1.64393C3.90841 1.87772 3.95355 2.13008 3.94375 2.38335C3.95614 2.63535 3.9188 2.88732 3.83391 3.12461C3.74901 3.36191 3.61825 3.57978 3.44923 3.76557C3.18729 4.01117 2.87888 4.20074 2.54255 4.32289C2.20622 4.44504 1.84891 4.49725 1.4921 4.47637C1.26873 4.48362 1.0453 4.46427 0.826409 4.41874V7.01221H0V0.616906ZM0.826409 3.73867C1.051 3.7897 1.28101 3.81228 1.51112 3.80591C2.50966 3.80591 3.11639 3.31604 3.11639 2.42369C3.11639 1.56977 2.51822 1.15673 1.60622 1.15673C1.3446 1.14938 1.083 1.17193 0.826409 1.22397V3.73867Z" fill="white"/>
<path d="M8.95504 4.65056C8.95504 6.36801 7.77676 7.11724 6.66411 7.11724C5.41926 7.11724 4.45972 6.19512 4.45972 4.72644C4.45972 3.17228 5.46681 2.25977 6.74209 2.25977C8.06206 2.25881 8.95504 3.22799 8.95504 4.65056ZM5.30515 4.69859C5.30515 5.71676 5.88525 6.48424 6.70215 6.48424C7.50098 6.48424 8.1001 5.72637 8.1001 4.67938C8.1001 3.89269 7.71019 2.89469 6.72117 2.89469C5.73214 2.89469 5.30515 3.81393 5.30515 4.69859Z" fill="white"/>
<path d="M10.2768 2.36426L10.8854 4.72528C11.0186 5.24397 11.1412 5.72424 11.2268 6.20451H11.2554C11.36 5.73385 11.5121 5.23436 11.6643 4.73584L12.4165 2.36426H13.1202L13.8335 4.68781C14.0047 5.24397 14.1378 5.73385 14.2424 6.20451H14.2709C14.3605 5.69564 14.478 5.19219 14.6228 4.69646L15.279 2.36426H16.1054L14.6228 7.01041H13.862L13.1583 4.79251C12.9963 4.29144 12.8598 3.78233 12.7494 3.26717H12.7303C12.6207 3.78727 12.481 4.30044 12.3119 4.80404L11.5711 7.01329H10.8103L9.4209 2.36426H10.2768Z" fill="white"/>
<path d="M17.3149 4.84267C17.2967 5.0574 17.3249 5.27356 17.3975 5.47622C17.4701 5.67888 17.5854 5.8632 17.7354 6.01646C17.8854 6.16971 18.0666 6.28825 18.2664 6.36387C18.4662 6.4395 18.6798 6.4704 18.8926 6.45446C19.3293 6.46824 19.7637 6.38632 20.166 6.21433L20.3087 6.81947C19.8244 7.02326 19.303 7.12145 18.7785 7.10763C17.3615 7.10763 16.5161 6.1663 16.5161 4.76486C16.5161 3.36343 17.334 2.25977 18.6739 2.25977C20.1755 2.25977 20.5759 3.59396 20.5759 4.44885C20.574 4.58057 20.5645 4.71207 20.5474 4.84267H17.3149ZM19.7666 4.23753C19.7761 3.69962 19.5479 2.86491 18.6073 2.86491C17.761 2.86491 17.391 3.65159 17.3235 4.23753H19.7666Z" fill="white"/>
<path d="M21.6127 3.8135C21.6127 3.26696 21.6032 2.79629 21.5747 2.36404H22.306L22.3345 3.27656H22.3726C22.451 2.99228 22.6167 2.74048 22.8459 2.55748C23.0751 2.37449 23.3559 2.26975 23.6479 2.25838C23.728 2.25729 23.808 2.26698 23.8856 2.2872V3.08445C23.7919 3.06386 23.6962 3.0542 23.6003 3.05564C23.3146 3.06725 23.0428 3.18385 22.8362 3.38354C22.6296 3.58323 22.5022 3.85226 22.4781 4.14009C22.4547 4.27007 22.4419 4.4018 22.4401 4.53391V7.0102H21.6127V3.8135Z" fill="white"/>
<path d="M25.0927 4.84216C25.0745 5.05689 25.1027 5.27305 25.1753 5.47571C25.2479 5.67837 25.3632 5.8627 25.5132 6.01595C25.6632 6.16921 25.8444 6.28774 26.0442 6.36337C26.244 6.43899 26.4577 6.4699 26.6704 6.45396C27.1068 6.46782 27.5409 6.38589 27.9429 6.21382L28.0855 6.81896C27.6009 7.02284 27.0792 7.12104 26.5544 7.10713C25.1384 7.10713 24.293 6.16579 24.293 4.76436C24.293 3.36293 25.1118 2.2583 26.4517 2.2583C27.9533 2.2583 28.3537 3.5925 28.3537 4.44738C28.352 4.57915 28.3422 4.71068 28.3242 4.8412L25.0927 4.84216ZM27.5444 4.23702C27.5539 3.69912 27.3257 2.8644 26.3851 2.8644C25.5388 2.8644 25.1688 3.65109 25.1013 4.23702H27.5444Z" fill="white"/>
<path d="M33.363 0.195312V5.81065C33.363 6.22369 33.3725 6.69339 33.4011 7.01133H32.6498L32.6127 6.20544H32.5937C32.4435 6.49112 32.2166 6.72827 31.9391 6.88967C31.6615 7.05107 31.3446 7.13019 31.0246 7.11795C29.9119 7.11795 29.057 6.16702 29.057 4.75694C29.0474 3.21046 29.9975 2.25952 31.1187 2.25952C31.3918 2.24261 31.6644 2.29957 31.9085 2.42451C32.1525 2.54945 32.3592 2.73786 32.5071 2.97032H32.5262V0.195312H33.363ZM32.5271 4.25745C32.5283 4.13784 32.5152 4.01851 32.4881 3.90205C32.4287 3.62383 32.2763 3.37471 32.0566 3.1965C31.8368 3.01828 31.5631 2.92181 31.2813 2.92326C30.4169 2.92326 29.9024 3.69169 29.9024 4.71851C29.9024 5.65889 30.3589 6.43597 31.2613 6.43597C31.5491 6.43493 31.8278 6.33423 32.0509 6.15067C32.274 5.96711 32.428 5.71181 32.4872 5.4274C32.5152 5.30786 32.5283 5.18523 32.5262 5.06239L32.5271 4.25745Z" fill="white"/>
<path d="M36.7314 7.01037C36.7505 6.69339 36.7695 6.22369 36.7695 5.80969V0.195312H37.5959V3.11345H37.6149C37.7735 2.83911 38.0038 2.61419 38.2806 2.46338C38.5574 2.31258 38.87 2.24171 39.184 2.25856C40.3252 2.25856 41.1336 3.21911 41.1222 4.62918C41.1222 6.29045 40.0865 7.11603 39.0604 7.11603C38.748 7.13411 38.4371 7.0615 38.1642 6.90678C37.8914 6.75206 37.6681 6.52169 37.5208 6.2429H37.4922L37.4542 7.01133L36.7314 7.01037ZM37.5959 5.14788C37.5986 5.25135 37.6113 5.35429 37.6339 5.45525C37.7034 5.73763 37.8645 5.98838 38.0915 6.16752C38.3185 6.34666 38.5983 6.44387 38.8864 6.44365C39.7603 6.44365 40.2843 5.72324 40.2843 4.65896C40.2843 3.72723 39.8088 2.92998 38.9149 2.92998C38.6187 2.93564 38.3328 3.04092 38.1025 3.22917C37.8722 3.41741 37.7107 3.67786 37.6434 3.96929C37.6156 4.08256 37.5997 4.19846 37.5959 4.31509V5.14788Z" fill="white"/>
<path d="M42.4174 2.36426L43.4245 5.10949C43.5281 5.41687 43.6432 5.78187 43.7193 6.05947H43.7383C43.8229 5.78187 43.919 5.42647 44.0321 5.09124L44.9451 2.36474H45.8295L44.5742 5.67862C43.976 7.27216 43.5671 8.08766 42.9975 8.58714C42.7082 8.85671 42.3541 9.04513 41.9704 9.13369L41.7612 8.42385C42.029 8.33439 42.2775 8.19422 42.4934 8.01082C42.7971 7.75704 43.0378 7.43499 43.1962 7.07044C43.23 7.00769 43.2525 6.9394 43.2628 6.86873C43.2553 6.79254 43.236 6.718 43.2057 6.6478L41.5054 2.36426H42.4174Z" fill="white"/>
</g>
<defs>
<clipPath id="clip0_4224_1549">
<rect width="96" height="31" fill="white"/>
</clipPath>
</defs>
</svg>
