<svg width="31" height="30" viewBox="0 0 31 30" fill="none" xmlns="http://www.w3.org/2000/svg">
<g clip-path="url(#clip0_9856_32970)">
<path d="M30.125 21.25L23.875 27.5L19.5 23.125L21.375 21.25L23.875 23.75L28.25 19.375L30.125 21.25ZM8.25 2.5C6.8625 2.5 5.75 3.625 5.75 5V25C5.75 26.3875 6.8625 27.5 8.25 27.5H18.0125C17.5625 26.725 17.25 25.875 17.1 25H8.25V5H17V11.25H23.25V16.35C23.6625 16.2875 24.0875 16.25 24.5 16.25C24.925 16.25 25.3375 16.2875 25.75 16.35V10L18.25 2.5M10.75 15V17.5H20.75V15M10.75 20V22.5H17V20H10.75Z" fill="#DD2590"/>
</g>
<defs>
<clipPath id="clip0_9856_32970">
<rect width="30" height="30" fill="white" transform="translate(0.75)"/>
</clipPath>
</defs>
</svg>
