<svg width="70" height="70" viewBox="0 0 70 70" fill="none" xmlns="http://www.w3.org/2000/svg">
<rect x="3" y="2.99951" width="64" height="64" rx="32" fill="#F2F4F7"/>
<rect x="3" y="2.99951" width="64" height="64" rx="32" stroke="#F9FAFB" stroke-width="6"/>
<path d="M34.9999 34.9997L35.5892 34.4104C35.2638 34.085 34.7361 34.085 34.4107 34.4104L34.9999 34.9997ZM34.1666 46.9997C34.1666 47.4599 34.5397 47.833 34.9999 47.833C35.4602 47.833 35.8333 47.4599 35.8333 46.9997H34.1666ZM45.7877 42.788C45.3836 43.0083 45.2346 43.5144 45.4549 43.9185C45.6752 44.3226 46.1814 44.4716 46.5855 44.2513L45.7877 42.788ZM42.9999 30.9997L43.0005 30.1663H42.9999V30.9997ZM41.3199 30.9997L40.5131 31.2082C40.6082 31.576 40.94 31.833 41.3199 31.833V30.9997ZM22.3755 41.2848C22.6803 41.6297 23.2069 41.6622 23.5518 41.3574C23.8966 41.0527 23.9292 40.526 23.6244 40.1812L22.3755 41.2848ZM40.3333 40.333L40.9225 39.7437L35.5892 34.4104L34.9999 34.9997L34.4107 35.5889L39.744 40.9222L40.3333 40.333ZM34.9999 34.9997L34.4107 34.4104L29.0774 39.7437L29.6666 40.333L30.2559 40.9222L35.5892 35.5889L34.9999 34.9997ZM34.9999 34.9997H34.1666V46.9997H34.9999H35.8333V34.9997H34.9999ZM46.1866 43.5197L46.5855 44.2513C48.0485 43.4537 49.2042 42.1916 49.8703 40.6643L49.1064 40.3312L48.3426 39.998C47.8245 41.186 46.9256 42.1676 45.7877 42.788L46.1866 43.5197ZM49.1064 40.3312L49.8703 40.6643C50.5364 39.1369 50.6748 37.4312 50.2638 35.8164L49.4562 36.0219L48.6486 36.2275C48.9683 37.4834 48.8606 38.8101 48.3426 39.998L49.1064 40.3312ZM49.4562 36.0219L50.2638 35.8164C49.8528 34.2015 48.9157 32.7696 47.6005 31.7465L47.0888 32.4042L46.5772 33.062C47.6001 33.8577 48.329 34.9715 48.6486 36.2275L49.4562 36.0219ZM47.0888 32.4042L47.6005 31.7465C46.2853 30.7234 44.6668 30.1674 43.0005 30.1663L42.9999 30.9997L42.9994 31.833C44.2954 31.8338 45.5542 32.2663 46.5772 33.062L47.0888 32.4042ZM42.9999 30.9997V30.1663H41.3199V30.9997V31.833H42.9999V30.9997ZM41.3199 30.9997L42.1268 30.7911C41.6916 29.1081 40.8807 27.5457 39.7548 26.2212L39.1199 26.761L38.485 27.3007C39.4477 28.4332 40.1411 29.7692 40.5131 31.2082L41.3199 30.9997ZM39.1199 26.761L39.7548 26.2212C38.6289 24.8968 37.2175 23.8448 35.6265 23.1444L35.2907 23.9071L34.955 24.6698C36.3153 25.2687 37.5223 26.1682 38.485 27.3007L39.1199 26.761ZM35.2907 23.9071L35.6265 23.1444C34.0356 22.444 32.3065 22.1134 30.5694 22.1774L30.6001 23.0102L30.6308 23.8429C32.1162 23.7882 33.5946 24.0709 34.955 24.6698L35.2907 23.9071ZM30.6001 23.0102L30.5694 22.1774C28.8323 22.2414 27.1323 22.6984 25.5972 23.514L25.9882 24.2499L26.3792 24.9858C27.6918 24.2884 29.1454 23.8977 30.6308 23.8429L30.6001 23.0102ZM25.9882 24.2499L25.5972 23.514C24.0621 24.3295 22.7319 25.4825 21.7065 26.8862L22.3794 27.3778L23.0524 27.8693C23.9291 26.6691 25.0666 25.6832 26.3792 24.9858L25.9882 24.2499ZM22.3794 27.3778L21.7065 26.8862C20.6812 28.2899 19.9874 29.9078 19.6773 31.6182L20.4973 31.7668L21.3172 31.9155C21.5824 30.453 22.1756 29.0696 23.0524 27.8693L22.3794 27.3778ZM20.4973 31.7668L19.6773 31.6182C19.3672 33.3286 19.4489 35.0871 19.9162 36.7614L20.7189 36.5373L21.5215 36.3133C21.1219 34.8816 21.0521 33.378 21.3172 31.9155L20.4973 31.7668ZM20.7189 36.5373L19.9162 36.7614C20.3836 38.4357 21.2244 39.9822 22.3755 41.2848L22.9999 40.733L23.6244 40.1812C22.6401 39.0674 21.9212 37.7449 21.5215 36.3133L20.7189 36.5373Z" fill="#475467"/>
</svg>
