<svg width="20" height="20" viewBox="0 0 20 20" fill="none" xmlns="http://www.w3.org/2000/svg">
<path d="M4.99992 1.66797C4.55789 1.66797 4.13397 1.84356 3.82141 2.15612C3.50885 2.46868 3.33325 2.89261 3.33325 3.33464V16.668C3.33325 17.11 3.50885 17.5339 3.82141 17.8465C4.13397 18.159 4.55789 18.3346 4.99992 18.3346H14.9999C15.4419 18.3346 15.8659 18.159 16.1784 17.8465C16.491 17.5339 16.6666 17.11 16.6666 16.668V6.66797L11.6666 1.66797H4.99992ZM4.99992 3.33464H10.8333V7.5013H14.9999V16.668H4.99992V3.33464ZM6.66659 10.0013V11.668H13.3333V10.0013H6.66659ZM6.66659 13.3346V15.0013H10.8333V13.3346H6.66659Z" fill="white"/>
</svg>
