<svg width="44" height="44" viewBox="0 0 44 44" fill="none" xmlns="http://www.w3.org/2000/svg">
<rect x="2" y="1.99902" width="40" height="40" rx="20" fill="#B2DDFF"/>
<rect x="2" y="1.99902" width="40" height="40" rx="20" stroke="#D1E9FF" stroke-width="4"/>
<g clip-path="url(#clip0_7177_41898)">
<path d="M14.3752 29.624V29.793L14.2053 29.624H14.3752ZM29.7952 29.624L29.6252 29.793V29.624H29.7952Z" fill="#A3313A" stroke="#202124"/>
<path d="M27.9177 14.374H26.6287V13.085L27.9177 14.374Z" fill="#B2B2B2" stroke="#202124"/>
<path d="M15.4717 12.374H25.625V15.374H28.625V31.5918C28.6254 31.6051 28.6229 31.6185 28.6182 31.6309C28.6134 31.6433 28.6069 31.6554 28.5977 31.665C28.5884 31.6746 28.5767 31.6823 28.5645 31.6875C28.5523 31.6927 28.5386 31.6952 28.5254 31.6953H15.4746C15.4483 31.6951 15.4229 31.6846 15.4043 31.666C15.3858 31.6474 15.3751 31.622 15.375 31.5957V12.4707C15.375 12.4452 15.3853 12.4204 15.4033 12.4023C15.4214 12.3843 15.4462 12.374 15.4717 12.374Z" fill="#F1F1F1" stroke="#202124"/>
<path d="M30.5 22.874V28.624H13.5V22.874H30.5Z" fill="#C84D52" stroke="#202124"/>
<path d="M18.8762 26.1728V27.2491H18.1262V24.1816H19.3262C19.6289 24.1603 19.9278 24.2586 20.1587 24.4553C20.2584 24.5519 20.3358 24.669 20.3857 24.7985C20.4356 24.928 20.4566 25.0668 20.4475 25.2053C20.4494 25.3822 20.4055 25.5567 20.32 25.7116C20.2321 25.8632 20.1017 25.9857 19.945 26.0641C19.7544 26.155 19.5447 26.1987 19.3337 26.1916L18.8762 26.1728ZM19.7012 25.1866C19.7012 24.9166 19.5512 24.7816 19.2512 24.7816H18.8762V25.5803H19.2512C19.5512 25.5803 19.7012 25.4491 19.7012 25.1866ZM23.3837 26.4991C23.2555 26.7304 23.0626 26.9193 22.8287 27.0428C22.5658 27.1782 22.2731 27.2452 21.9775 27.2378H20.8187V24.1816H21.9775C22.2727 24.1738 22.5652 24.2395 22.8287 24.3728C23.0633 24.4937 23.2565 24.6817 23.3837 24.9128C23.5153 25.1581 23.5812 25.4333 23.575 25.7116C23.5783 25.986 23.5125 26.2568 23.3837 26.4991ZM22.585 26.3453C22.7402 26.1655 22.8255 25.9359 22.8255 25.6984C22.8255 25.4609 22.7402 25.2313 22.585 25.0516C22.3989 24.8894 22.1563 24.8072 21.91 24.8228H21.5612V26.5741H21.91C22.1548 26.5927 22.3971 26.5146 22.585 26.3566V26.3453ZM25.9975 24.1816V24.7741H24.7375V25.4453H25.7087V26.0078H24.7375V27.2491H23.9875V24.1816H25.9975Z" fill="white"/>
<path d="M22.3375 13.948C22.3652 14.2079 22.3396 14.4707 22.2625 14.7205C21.9288 15.8717 20.8113 20.068 19.9675 20.6642C18.7638 21.5192 18.1375 20.548 18.7788 19.858C19.42 19.168 23.29 18.2492 24.5238 18.2492C26.1288 18.2492 25.9225 19.6705 25.0113 19.5842C23.9838 19.4867 21.415 17.7355 21.2613 14.4055C21.1938 13.2205 22.2213 12.9992 22.3375 13.948Z" stroke="#C84D52" stroke-miterlimit="10"/>
</g>
<defs>
<clipPath id="clip0_7177_41898">
<rect width="24" height="24" fill="white" transform="translate(10 9.99902)"/>
</clipPath>
</defs>
</svg>
