<svg width="14" height="18" viewBox="0 0 14 18" fill="none" xmlns="http://www.w3.org/2000/svg">
<path d="M1.99967 0.666672C1.55765 0.666672 1.13372 0.842266 0.821163 1.15483C0.508602 1.46739 0.333008 1.89131 0.333008 2.33334V15.6667C0.333008 16.1087 0.508602 16.5326 0.821163 16.8452C1.13372 17.1577 1.55765 17.3333 1.99967 17.3333H11.9997C12.4417 17.3333 12.8656 17.1577 13.1782 16.8452C13.4907 16.5326 13.6663 16.1087 13.6663 15.6667V5.66667L8.66634 0.666672H1.99967ZM1.99967 2.33334H7.83301V6.50001H11.9997V15.6667H1.99967V2.33334ZM3.66634 9.00001V10.6667H10.333V9.00001H3.66634ZM3.66634 12.3333V14H7.83301V12.3333H3.66634Z" fill="#25009D"/>
</svg>
