<svg width="25" height="24" viewBox="0 0 25 24" fill="none" xmlns="http://www.w3.org/2000/svg">
<g clip-path="url(#clip0_5413_12382)">
<path d="M24.3335 17L19.3335 22L15.8335 18.5L17.3335 17L19.3335 19L22.8335 15.5L24.3335 17ZM6.8335 2C5.7235 2 4.8335 2.9 4.8335 4V20C4.8335 21.11 5.7235 22 6.8335 22H14.6435C14.2835 21.38 14.0335 20.7 13.9135 20H6.8335V4H13.8335V9H18.8335V13.08C19.1635 13.03 19.5035 13 19.8335 13C20.1735 13 20.5035 13.03 20.8335 13.08V8L14.8335 2M8.8335 12V14H16.8335V12M8.8335 16V18H13.8335V16H8.8335Z" fill="#25009D"/>
</g>
<defs>
<clipPath id="clip0_5413_12382">
<rect width="24" height="24" fill="white" transform="translate(0.833496)"/>
</clipPath>
</defs>
</svg>
