<svg width="120" height="20" viewBox="0 0 120 20" fill="none" xmlns="http://www.w3.org/2000/svg">
<path d="M15.493 6.72946L16.1969 3.67109H11.2209L10.1529 8.36787H13.9516L13.2841 11.2078H9.48539L8.33241 16.2444H10.8447L10.1529 19.1086H0.577148L1.2568 16.2444H3.68411L6.57261 3.67109H3.89043L4.55794 0.819035H20.2627L18.9034 6.72946H15.493Z" fill="white"/>
<path d="M30.0326 2.10549L30.336 0.819035H33.2366L32.0958 5.63718H29.1952L29.2194 5.26095C29.2194 4.79977 29.0253 4.4195 28.6369 4.12013C28.2566 3.82077 27.7711 3.67109 27.1805 3.67109C26.6789 3.67109 26.2581 3.7884 25.9183 4.02304C25.5785 4.25768 25.4086 4.58132 25.4086 4.99395C25.4086 5.45513 25.5461 5.85564 25.8212 6.19545C26.0963 6.53527 26.5899 6.99646 27.3019 7.579C28.5802 8.62273 29.4945 9.59769 30.0447 10.5039C30.603 11.402 30.8822 12.4052 30.8822 13.5137C30.8822 14.6788 30.6192 15.7104 30.0933 16.6085C29.5754 17.4985 28.8715 18.1943 27.9815 18.6959C27.0996 19.1895 26.1287 19.4363 25.0687 19.4363C24.3405 19.4363 23.6811 19.2987 23.0905 19.0236C22.4998 18.7485 21.9496 18.3197 21.4399 17.7372L21.1122 19.1086H18.0781L19.401 13.4166H22.4351C22.3623 13.6836 22.3259 13.9506 22.3259 14.2176C22.3259 14.7597 22.5201 15.2249 22.9084 15.6133C23.3049 16.0017 23.7903 16.1958 24.3648 16.1958C25.0283 16.1958 25.5906 15.9733 26.0518 15.5283C26.5211 15.0833 26.7557 14.5372 26.7557 13.8899C26.7557 13.3721 26.6465 12.9392 26.428 12.5913C26.2177 12.2434 25.5218 11.5152 24.3405 10.4068C23.313 9.34687 22.6455 8.63082 22.338 8.25864C22.0386 7.88646 21.8 7.48596 21.622 7.05714C21.452 6.62023 21.3671 6.11455 21.3671 5.54009C21.3671 4.59345 21.5855 3.752 22.0225 3.01572C22.4594 2.27945 23.0662 1.70904 23.8429 1.30449C24.6278 0.891853 25.4976 0.685534 26.4523 0.685534C27.9977 0.685534 29.1911 1.15885 30.0326 2.10549Z" fill="white"/>
<path d="M50.3249 2.55454L50.7133 0.819035H53.6503L52.2789 6.778H49.354C49.2003 5.799 48.7795 5.05059 48.0918 4.53277C47.4041 4.00686 46.4493 3.7439 45.2276 3.7439C43.8845 3.7439 42.6425 4.09181 41.5016 4.78763C40.3689 5.48345 39.4748 6.41795 38.8195 7.59114C38.1722 8.75623 37.8485 10.0184 37.8485 11.3777C37.8485 12.2758 38.0306 13.0727 38.3947 13.7686C38.7588 14.4644 39.2604 15.0024 39.8996 15.3827C40.5469 15.763 41.2872 15.9531 42.1206 15.9531C44.2728 15.9531 46.2268 14.8932 47.9826 12.7734L50.9196 14.9337C49.795 16.3577 48.4438 17.4499 46.866 18.2105C45.2883 18.971 43.6377 19.3513 41.9143 19.3513C40.2799 19.3513 38.7831 19.0155 37.4238 18.344C36.0645 17.6643 34.9843 16.7137 34.1833 15.4919C33.3904 14.2702 32.9939 12.8826 32.9939 11.3291C32.9939 9.0556 33.5765 7.10164 34.7416 5.46727C35.9148 3.82481 37.4076 2.59095 39.22 1.76567C41.0324 0.932308 42.8852 0.515625 44.7785 0.515625C46.0407 0.515625 47.129 0.673398 48.0433 0.988944C48.9656 1.30449 49.7262 1.82635 50.3249 2.55454Z" fill="white"/>
<path d="M55.7475 12.1666H58.8787C58.7897 12.563 58.7452 12.9311 58.7452 13.271C58.7452 13.9425 58.8989 14.4684 59.2064 14.8487C59.5139 15.2209 59.9346 15.407 60.4686 15.407C61.1968 15.407 61.7753 15.0348 62.2041 14.2904C62.6411 13.5461 62.8595 12.7976 62.8595 12.0452C62.8595 10.7668 62.0868 10.1276 60.5414 10.1276H60.238L60.8448 7.60328C62.285 7.54664 63.2438 7.15827 63.7212 6.43818C64.2067 5.71809 64.4494 4.97777 64.4494 4.21722C64.4494 3.8855 64.328 3.6104 64.0853 3.39195C63.8426 3.1654 63.5392 3.05213 63.1751 3.05213C62.0666 3.05213 61.3384 3.83695 60.9905 5.40659H57.8107C58.5227 2.14595 60.3513 0.515625 63.2964 0.515625C64.7043 0.515625 65.8208 0.883762 66.6461 1.62004C67.4795 2.34822 67.8962 3.33127 67.8962 4.56918C67.8962 5.68573 67.5483 6.6445 66.8524 7.4455C66.1647 8.2465 65.1978 8.7441 63.9518 8.93828V8.98682C65.6186 9.66646 66.4519 10.8922 66.4519 12.6641C66.4519 14.1205 65.8937 15.3665 64.7771 16.4022C63.6686 17.4297 62.3215 17.9435 60.7356 17.9435C59.1579 17.9435 57.9159 17.5389 57.0097 16.7298C56.1035 15.9207 55.6504 14.7961 55.6504 13.3559C55.6504 12.9756 55.6828 12.5792 55.7475 12.1666Z" fill="white"/>
<path d="M81.8168 5.58863H78.8919C78.9728 5.24882 79.0133 4.94136 79.0133 4.66627C79.0133 3.63872 78.5157 3.12495 77.5205 3.12495C76.7923 3.12495 76.1531 3.50118 75.6029 4.25363C75.0608 4.998 74.5551 6.12264 74.0858 7.62755C74.814 7.24727 75.5463 7.05714 76.2826 7.05714C77.4477 7.05714 78.3984 7.48191 79.1346 8.33146C79.879 9.17291 80.2512 10.2611 80.2512 11.5961C80.2512 13.3033 79.6646 14.788 78.4914 16.0502C77.3182 17.3124 75.9427 17.9435 74.365 17.9435C72.941 17.9435 71.8082 17.458 70.9667 16.4871C70.1334 15.5162 69.7167 14.1933 69.7167 12.5185C69.7167 10.0103 70.4287 7.38482 71.8527 4.642C73.2767 1.89108 75.2145 0.515625 77.6661 0.515625C78.8717 0.515625 79.879 0.875671 80.6881 1.59576C81.4972 2.31586 81.9018 3.31913 81.9018 4.60559C81.9018 4.92113 81.8735 5.24882 81.8168 5.58863ZM75.2631 9.60578C74.7938 9.60578 74.3771 9.73928 74.013 10.0063C73.657 10.2733 73.4385 10.516 73.3576 10.7345C73.2767 10.9448 73.1796 11.313 73.0664 11.8389C72.9531 12.3567 72.8964 12.8664 72.8964 13.3681C72.8964 13.9668 73.038 14.4401 73.3212 14.788C73.6044 15.1278 73.9847 15.2977 74.4621 15.2977C75.1013 15.2977 75.6757 14.9256 76.1855 14.1812C76.6952 13.4368 76.9501 12.5832 76.9501 11.6204C76.9501 11.0298 76.7923 10.5484 76.4767 10.1762C76.1612 9.79592 75.7566 9.60578 75.2631 9.60578Z" fill="white"/>
<path d="M87.4603 17.9435C86.1334 17.9435 85.0816 17.4135 84.3048 16.3536C83.5281 15.2856 83.1397 13.8333 83.1397 11.9966C83.1397 10.5403 83.4553 8.84119 84.0864 6.89936C84.7256 4.95754 85.5953 3.40813 86.6957 2.25113C87.8042 1.09413 89.0624 0.515625 90.4702 0.515625C91.789 0.515625 92.8409 1.0294 93.6257 2.05695C94.4186 3.08449 94.8151 4.46804 94.8151 6.20759C94.8151 8.95851 94.1314 11.6042 92.764 14.1448C91.3966 16.6772 89.6287 17.9435 87.4603 17.9435ZM86.3923 13.6108C86.3923 14.8082 86.8252 15.407 87.6909 15.407C88.233 15.407 88.7508 15.0024 89.2444 14.1933C89.746 13.3842 90.2598 11.8146 90.7857 9.48442C91.3198 7.14614 91.5868 5.57245 91.5868 4.76336C91.5868 4.22936 91.4694 3.81268 91.2348 3.51331C91.0082 3.20586 90.6967 3.05213 90.3003 3.05213C89.742 3.05213 89.212 3.47286 88.7104 4.31431C88.2168 5.15577 87.7071 6.76182 87.1812 9.13246C86.6553 11.5031 86.3923 12.9959 86.3923 13.6108Z" fill="white"/>
<path d="M103.211 3.19143C103.211 3.88796 103.045 4.5245 102.712 5.10107C102.379 5.67377 101.927 6.12457 101.354 6.45348C100.785 6.7824 100.16 6.94686 99.4792 6.94686C98.9568 6.94686 98.4944 6.84238 98.0919 6.63342C97.6933 6.42059 97.3799 6.12264 97.1516 5.73955C96.9272 5.35646 96.8149 4.90952 96.8149 4.39874C96.8149 3.70996 96.9717 3.06954 97.2851 2.4775C97.5985 1.88158 98.0435 1.40563 98.6201 1.04963C99.2006 0.693625 99.8487 0.515625 100.565 0.515625C101.072 0.515625 101.526 0.627843 101.929 0.852278C102.335 1.07671 102.65 1.39208 102.875 1.79839C103.099 2.20082 103.211 2.66517 103.211 3.19143ZM99.6011 5.57703C99.9648 5.57703 100.276 5.43966 100.536 5.16492C100.799 4.88631 100.996 4.54772 101.128 4.14915C101.259 3.74672 101.325 3.3675 101.325 3.0115C101.325 2.67872 101.244 2.40785 101.081 2.19889C100.919 1.98606 100.69 1.87965 100.396 1.87965C100.025 1.87965 99.7114 2.02089 99.456 2.30337C99.2044 2.58585 99.0168 2.9283 98.8929 3.33074C98.7691 3.72931 98.7072 4.10659 98.7072 4.46259C98.7072 4.79537 98.7865 5.06431 98.9452 5.2694C99.1038 5.47448 99.3225 5.57703 99.6011 5.57703Z" fill="white"/>
<path d="M109.763 0.515625H105.211V5.11359H109.763V0.515625Z" fill="white"/>
<path d="M114.302 5.11426H109.75V9.71222H114.302V5.11426Z" fill="white"/>
<path d="M119.423 7.41211H114.871V12.0101H119.423V7.41211Z" fill="white"/>
<path d="M109.763 14.8848H105.211V19.4844H109.763V14.8848Z" fill="white"/>
<path d="M114.302 10.2871H109.75V14.8851H114.302V10.2871Z" fill="white"/>
</svg>
