<svg width="14" height="18" viewBox="0 0 14 18" fill="none" xmlns="http://www.w3.org/2000/svg">
<path d="M8.66668 0.666748H2.00001C1.07501 0.666748 0.333344 1.41675 0.333344 2.33341V15.6667C0.333344 16.5917 1.07501 17.3334 2.00001 17.3334H12C12.925 17.3334 13.6667 16.5917 13.6667 15.6667V5.66675L8.66668 0.666748ZM12 15.6667H2.00001V2.33341H7.83334V6.50008H12V15.6667ZM7.83334 9.83342C7.83334 10.7501 7.08334 11.5001 6.16668 11.5001C5.25001 11.5001 4.50001 10.7501 4.50001 9.83342C4.50001 8.91675 5.25001 8.16675 6.16668 8.16675C7.08334 8.16675 7.83334 8.91675 7.83334 9.83342ZM9.50001 14.0001V14.8334H2.83334V14.0001C2.83334 12.8917 5.05834 12.3334 6.16668 12.3334C7.27501 12.3334 9.50001 12.8917 9.50001 14.0001Z" fill="#202124"/>
</svg>
