<svg width="15" height="18" viewBox="0 0 15 18" fill="none" xmlns="http://www.w3.org/2000/svg">
<path d="M9.16683 0.666748H2.50016C1.57516 0.666748 0.833496 1.41675 0.833496 2.33341V15.6667C0.833496 16.5917 1.57516 17.3334 2.50016 17.3334H12.5002C13.4252 17.3334 14.1668 16.5917 14.1668 15.6667V5.66675L9.16683 0.666748ZM12.5002 15.6667H2.50016V2.33341H8.3335V6.50008H12.5002V15.6667ZM8.3335 9.83342C8.3335 10.7501 7.5835 11.5001 6.66683 11.5001C5.75016 11.5001 5.00016 10.7501 5.00016 9.83342C5.00016 8.91675 5.75016 8.16675 6.66683 8.16675C7.5835 8.16675 8.3335 8.91675 8.3335 9.83342ZM10.0002 14.0001V14.8334H3.3335V14.0001C3.3335 12.8917 5.5585 12.3334 6.66683 12.3334C7.77516 12.3334 10.0002 12.8917 10.0002 14.0001Z" fill="white"/>
</svg>