<svg width="689" height="544" viewBox="0 0 689 544" fill="none" xmlns="http://www.w3.org/2000/svg">
<path d="M21.7333 474.368H669.241C681.213 429.253 682.538 381.194 663.942 338.41C640.244 283.948 578.25 248.965 519.397 256.815C491.651 260.519 462.31 272.418 436.993 260.495C425.782 255.22 417.122 245.873 408.339 237.115C385.303 214.08 358.808 193.251 327.677 183.61C296.545 173.969 260.041 177.134 235.018 198.035C199.863 227.376 195.987 281.691 163.678 314.172C159.115 318.759 153.84 322.954 147.584 324.696C138.753 327.149 129.406 324.402 120.476 322.169C101.807 317.484 82.2057 315.128 63.2421 318.416C44.2541 321.703 25.8548 331.099 14.3491 346.554C1.29785 364.12 -1.59697 387.622 1.88663 409.235C5.37022 430.823 12.362 454.595 21.7333 474.368Z" fill="#F7F7F7"/>
<path d="M584.359 458.178H429.78C419.231 458.178 410.694 449.64 410.694 439.091V179.244C410.694 168.72 419.231 160.158 429.78 160.158H584.359C594.908 160.158 603.445 168.72 603.445 179.244V439.091C603.445 449.64 594.908 458.178 584.359 458.178Z" fill="#EFEAFF"/>
<path fill-rule="evenodd" clip-rule="evenodd" d="M589.585 458.741H435.006C424.187 458.741 415.356 449.909 415.356 439.09V179.243C415.356 168.424 424.187 159.617 435.006 159.617H589.585C600.403 159.617 609.21 168.424 609.21 179.243V439.09C609.21 449.909 600.403 458.741 589.585 458.741ZM435.006 160.697C424.776 160.697 416.46 169.038 416.46 179.243V439.09C416.46 449.32 424.776 457.637 435.006 457.637H589.585C599.815 457.637 608.131 449.32 608.131 439.09V179.243C608.131 169.038 599.815 160.697 589.585 160.697H435.006Z" fill="#373660"/>
<path d="M445.309 178.043H427.327C427.082 178.043 426.885 177.847 426.885 177.602V174.535C426.885 174.29 427.082 174.094 427.327 174.094H445.309C445.555 174.094 445.751 174.29 445.751 174.535V177.602C445.751 177.847 445.555 178.043 445.309 178.043Z" fill="#E8E8E8"/>
<path d="M445.309 184.617H427.327C427.082 184.617 426.885 184.421 426.885 184.175V181.084C426.885 180.839 427.082 180.643 427.327 180.643H445.309C445.555 180.643 445.751 180.839 445.751 181.084V184.175C445.751 184.421 445.555 184.617 445.309 184.617Z" fill="#E8E8E8"/>
<path d="M445.309 191.166H427.327C427.082 191.166 426.885 190.969 426.885 190.724V187.633C426.885 187.388 427.082 187.191 427.327 187.191H445.309C445.555 187.191 445.751 187.388 445.751 187.633V190.724C445.751 190.969 445.555 191.166 445.309 191.166Z" fill="#E8E8E8"/>
<path d="M240.489 458.178H85.9102C75.3612 458.178 66.824 449.64 66.824 439.091V179.244C66.824 168.72 75.3612 160.158 85.9102 160.158H240.489C251.038 160.158 259.575 168.72 259.575 179.244V439.091C259.575 449.64 251.038 458.178 240.489 458.178Z" fill="#ECFFEC"/>
<path fill-rule="evenodd" clip-rule="evenodd" d="M245.714 458.741H91.1355C80.3168 458.741 71.4851 449.909 71.4851 439.09V179.243C71.4851 168.424 80.3168 159.617 91.1355 159.617H245.714C256.533 159.617 265.34 168.424 265.34 179.243V439.09C265.34 449.909 256.533 458.741 245.714 458.741ZM91.1355 160.697C80.9055 160.697 72.5891 169.038 72.5891 179.243V439.09C72.5891 449.32 80.9055 457.637 91.1355 457.637H245.714C255.944 457.637 264.261 449.32 264.261 439.09V179.243C264.261 169.038 255.944 160.697 245.714 160.697H91.1355Z" fill="#373660"/>
<path d="M101.439 178.043H83.4567C83.2114 178.043 83.0151 177.847 83.0151 177.602V174.535C83.0151 174.29 83.2114 174.094 83.4567 174.094H101.439C101.684 174.094 101.881 174.29 101.881 174.535V177.602C101.881 177.847 101.684 178.043 101.439 178.043Z" fill="#E8E8E8"/>
<path d="M101.439 184.617H83.4567C83.2114 184.617 83.0151 184.421 83.0151 184.175V181.084C83.0151 180.839 83.2114 180.643 83.4567 180.643H101.439C101.684 180.643 101.881 180.839 101.881 181.084V184.175C101.881 184.421 101.684 184.617 101.439 184.617Z" fill="#E8E8E8"/>
<path d="M101.439 191.166H83.4567C83.2114 191.166 83.0151 190.969 83.0151 190.724V187.633C83.0151 187.388 83.2114 187.191 83.4567 187.191H101.439C101.684 187.191 101.881 187.388 101.881 187.633V190.724C101.881 190.969 101.684 191.166 101.439 191.166Z" fill="#E8E8E8"/>
<path d="M638.183 214.326H566.548C564.512 214.326 562.844 215.994 562.844 218.006V251.37C562.844 253.406 564.512 255.074 566.548 255.074H573.295V269.401C573.295 270.824 575.012 271.536 576.018 270.53L591.473 255.074H638.183C640.195 255.074 641.863 253.406 641.863 251.37V218.006C641.863 215.994 640.195 214.326 638.183 214.326Z" fill="#4DB151"/>
<path d="M602.071 227.377H571.455C570.841 227.377 570.351 226.862 570.351 226.249V223.599C570.351 222.986 570.841 222.471 571.455 222.471H602.071C602.685 222.471 603.2 222.986 603.2 223.599V226.249C603.2 226.862 602.685 227.377 602.071 227.377Z" fill="white"/>
<path d="M634.675 246.928H571.455C570.841 246.928 570.351 246.413 570.351 245.799V243.15C570.351 242.537 570.841 242.021 571.455 242.021H634.675C635.288 242.021 635.803 242.537 635.803 243.15V245.799C635.803 246.413 635.288 246.928 634.675 246.928Z" fill="white"/>
<path d="M618.95 227.377H608.499C607.886 227.377 607.37 226.862 607.37 226.249V223.599C607.37 222.986 607.886 222.471 608.499 222.471H618.95C619.563 222.471 620.078 222.986 620.078 223.599V226.249C620.078 226.862 619.563 227.377 618.95 227.377Z" fill="white"/>
<path d="M634.675 227.377H624.739C624.126 227.377 623.635 226.862 623.635 226.249V223.599C623.635 222.986 624.126 222.471 624.739 222.471H634.675C635.288 222.471 635.803 222.986 635.803 223.599V226.249C635.803 226.862 635.288 227.377 634.675 227.377Z" fill="white"/>
<path d="M634.675 237.142H624.224C623.611 237.142 623.095 236.651 623.095 236.013V233.364C623.095 232.75 623.611 232.26 624.224 232.26H634.675C635.288 232.26 635.803 232.75 635.803 233.364V236.013C635.803 236.651 635.288 237.142 634.675 237.142Z" fill="white"/>
<path d="M591.032 237.142H571.455C570.841 237.142 570.351 236.651 570.351 236.013V233.364C570.351 232.75 570.841 232.26 571.455 232.26H591.032C591.645 232.26 592.16 232.75 592.16 233.364V236.013C592.16 236.651 591.645 237.142 591.032 237.142Z" fill="white"/>
<path d="M618.95 237.142H599.373C598.759 237.142 598.269 236.651 598.269 236.013V233.364C598.269 232.75 598.759 232.26 599.373 232.26H618.95C619.563 232.26 620.078 232.75 620.078 233.364V236.013C620.078 236.651 619.563 237.142 618.95 237.142Z" fill="white"/>
<path d="M440.28 280.808H393.816C392.785 280.808 391.951 279.999 391.951 278.969V224.997C391.951 223.967 392.785 223.133 393.816 223.133H440.28C441.31 223.133 442.12 223.967 442.12 224.997V278.969C442.12 279.999 441.31 280.808 440.28 280.808Z" fill="#4DB151"/>
<path fill-rule="evenodd" clip-rule="evenodd" d="M407.432 240.526H399.949C399.213 240.526 398.6 239.937 398.6 239.201V231.718C398.6 230.982 399.213 230.369 399.949 230.369H407.432C408.168 230.369 408.757 230.982 408.757 231.718V239.201C408.757 239.937 408.168 240.526 407.432 240.526ZM399.949 231.326C399.729 231.326 399.557 231.498 399.557 231.718V239.201C399.557 239.422 399.729 239.593 399.949 239.593H407.432C407.653 239.593 407.824 239.422 407.824 239.201V231.718C407.824 231.498 407.653 231.326 407.432 231.326H399.949Z" fill="white"/>
<path d="M437.092 231.988H414.105V231.031H437.092V231.988Z" fill="white"/>
<path d="M437.092 235.939H414.105V234.982H437.092V235.939Z" fill="white"/>
<path d="M426.96 239.864H414.105V238.932H426.96V239.864Z" fill="white"/>
<path d="M403.678 237.583L401.347 234.884C401.176 234.663 401.2 234.369 401.397 234.197C401.593 234.025 401.912 234.05 402.083 234.246L403.703 236.16L410.228 229.242C410.4 229.07 410.719 229.045 410.891 229.242C411.087 229.413 411.087 229.708 410.915 229.904L403.678 237.583Z" fill="white"/>
<path fill-rule="evenodd" clip-rule="evenodd" d="M407.432 256.963H399.949C399.213 256.963 398.6 256.374 398.6 255.638V248.156C398.6 247.42 399.213 246.807 399.949 246.807H407.432C408.168 246.807 408.757 247.42 408.757 248.156V255.638C408.757 256.374 408.168 256.963 407.432 256.963ZM399.949 247.763C399.729 247.763 399.557 247.935 399.557 248.156V255.638C399.557 255.835 399.729 256.006 399.949 256.006H407.432C407.653 256.006 407.824 255.835 407.824 255.638V248.156C407.824 247.935 407.653 247.763 407.432 247.763H399.949Z" fill="white"/>
<path d="M437.091 248.426H414.105V247.469H437.091V248.426Z" fill="white"/>
<path d="M437.091 252.352H414.104V251.42H437.091V252.352Z" fill="white"/>
<path d="M426.96 256.301H414.105V255.369H426.96V256.301Z" fill="white"/>
<path d="M403.678 254.019L401.347 251.296C401.176 251.099 401.2 250.805 401.397 250.633C401.593 250.462 401.912 250.486 402.083 250.682L403.703 252.596L410.228 245.678C410.4 245.481 410.719 245.482 410.891 245.653C411.087 245.849 411.087 246.144 410.915 246.34L403.678 254.019Z" fill="white"/>
<path fill-rule="evenodd" clip-rule="evenodd" d="M407.432 273.399H399.949C399.213 273.399 398.6 272.81 398.6 272.074V264.567C398.6 263.831 399.213 263.242 399.949 263.242H407.432C408.168 263.242 408.757 263.831 408.757 264.567V272.074C408.757 272.81 408.168 273.399 407.432 273.399ZM399.949 264.199C399.729 264.199 399.557 264.371 399.557 264.567V272.074C399.557 272.27 399.729 272.442 399.949 272.442H407.432C407.653 272.442 407.824 272.27 407.824 272.074V264.567C407.824 264.371 407.653 264.199 407.432 264.199H399.949Z" fill="white"/>
<path d="M437.092 264.863H414.105V263.906H437.092V264.863Z" fill="white"/>
<path d="M437.092 268.788H414.105V267.855H437.092V268.788Z" fill="white"/>
<path d="M426.96 272.736H414.105V271.779H426.96V272.736Z" fill="white"/>
<path d="M403.678 270.43L401.347 267.731C401.176 267.535 401.2 267.241 401.397 267.069C401.593 266.897 401.912 266.922 402.083 267.118L403.703 269.031L410.228 262.113C410.4 261.917 410.719 261.917 410.891 262.089C411.087 262.285 411.087 262.579 410.915 262.776L403.678 270.43Z" fill="white"/>
<path fill-rule="evenodd" clip-rule="evenodd" d="M504.555 403.423V412.941C504.555 413.702 503.917 414.34 503.157 414.34H496.999C496.14 419.001 494.325 423.392 491.651 427.293L495.993 431.635C496.533 432.199 496.533 433.082 495.993 433.622L489.247 440.344C488.707 440.908 487.824 440.908 487.284 440.344L482.918 436.002C479.041 438.7 474.626 440.516 469.964 441.374V447.507C469.964 448.292 469.351 448.906 468.566 448.906H459.048C458.287 448.906 457.649 448.292 457.649 447.507V441.374C452.988 440.516 448.597 438.7 444.696 436.002L440.354 440.344C439.814 440.908 438.931 440.908 438.367 440.344L431.645 433.622C431.105 433.082 431.105 432.199 431.645 431.635L435.987 427.293C433.289 423.392 431.473 419.001 430.614 414.34H424.481C423.696 414.34 423.083 413.702 423.083 412.941V403.423C423.083 402.638 423.696 402.024 424.481 402.024H430.614C431.473 397.363 433.289 392.972 435.987 389.071L431.645 384.729C431.105 384.165 431.105 383.282 431.645 382.742L438.367 376.02C438.931 375.456 439.814 375.456 440.354 376.02L444.696 380.362C448.597 377.664 452.988 375.848 457.649 374.99V368.856C457.649 368.071 458.287 367.434 459.048 367.434H468.566C469.351 367.434 469.964 368.071 469.964 368.856V374.99C474.626 375.848 479.041 377.664 482.918 380.362L487.284 376.02C487.824 375.456 488.707 375.456 489.247 376.02L495.993 382.742C496.533 383.282 496.533 384.165 495.993 384.729L491.651 389.071C494.325 392.972 496.14 397.363 496.999 402.024H503.157C503.917 402.024 504.555 402.638 504.555 403.423ZM486.352 408.182C486.352 395.744 476.245 385.637 463.807 385.637C451.393 385.637 441.262 395.744 441.262 408.182C441.262 420.62 451.393 430.727 463.807 430.727C476.245 430.727 486.352 420.62 486.352 408.182Z" fill="#4DB151"/>
<path d="M475.067 408.182C475.067 414.389 470.038 419.443 463.807 419.443C457.6 419.443 452.547 414.389 452.547 408.182C452.547 401.976 457.6 396.922 463.807 396.922C470.038 396.922 475.067 401.976 475.067 408.182Z" fill="#4DB151"/>
<path fill-rule="evenodd" clip-rule="evenodd" d="M592.381 376.584L574.767 415.934C574.473 416.571 573.712 416.866 573.05 416.571L568.021 414.314L562.059 413.947C559.532 414.732 556.098 415.688 554.65 415.59C553.89 415.517 552.737 414.805 551.535 413.799V457.59H513.068C513.068 458.031 512.7 458.399 512.259 458.399C511.817 458.399 511.449 458.031 511.449 457.59H484.684L482.697 382.594L462.482 376.265C462.482 376.265 465.647 358.675 469.646 338.191C468.689 338.706 467.659 339.245 466.604 339.81C460.544 343.612 447.223 351.781 444.647 352.076C444.083 352.125 442.611 352.321 440.477 352.566C422.912 355.363 361.85 362.429 361.85 362.429L361.654 361.594L347.156 365.078C341.93 366.746 337.269 368.12 335.846 368.169C332.142 368.267 322.77 356.737 322.648 355.437C322.55 354.137 345.929 350.727 347.008 349.083C348.112 347.464 338.348 346.041 339.771 344.422C340.605 343.465 348.235 343.637 354.368 343.931C354.27 342.901 354.196 342.263 354.196 342.263L357.655 342.336L433.019 320.576L486.23 271.757C486.475 271.094 486.622 270.726 486.622 270.726C486.745 270.432 487.064 270.309 487.334 270.408C487.399 270.44 487.448 270.473 487.481 270.506C492.167 265.28 498.52 263.588 502.666 263.023C503.648 262.729 504.874 262.484 506.224 262.484L508.382 251.763C501.047 251.763 497.686 241.386 497.465 237.019L494.767 229.488C493.859 226.936 493.589 224.189 493.982 221.539L493.908 221.514C492.633 221.441 491.259 221.318 489.787 221.122C489.787 221.122 489.91 220.435 490.204 219.282C490.376 218.571 490.572 217.81 490.768 217.418C492.878 211.113 499.207 199.19 516.723 201.398C534.583 203.655 532.277 222.3 532.277 222.324C532.277 223.036 532.252 223.894 532.203 224.9C532.032 230.371 525.997 244.158 525.972 244.207C525.236 248.304 524.819 252.45 524.746 256.596L524.623 262.508H532.326C533.479 262.508 534.608 262.655 535.662 262.95C541.06 263.931 545.917 266.507 549.695 270.26C549.891 270.04 550.235 270.04 550.455 270.26C550.652 270.457 550.652 270.8 550.455 271.021H550.431C554.724 275.51 594.393 317.534 594.393 328.549C594.393 331.738 588.186 350.408 581.955 368.39L587.303 370.794L586.518 372.536L581.342 370.23L591.743 374.891C592.381 375.185 592.676 375.946 592.381 376.584ZM497.465 237.019C497.465 237.003 497.465 236.994 497.465 236.994C497.465 237.011 497.465 237.019 497.465 237.019Z" fill="#DED4FC"/>
<path d="M355.276 345.231C355.276 345.231 334.301 343.612 332.903 345.231C331.48 346.826 341.244 348.249 340.14 349.892C339.06 351.536 315.681 354.922 315.779 356.246C315.902 357.547 325.273 369.077 328.977 368.954C332.682 368.856 358.392 359.779 358.392 359.779L355.276 345.231Z" fill="#FFD1C1"/>
<mask id="mask0_7726_45220" style="mask-type:luminance" maskUnits="userSpaceOnUse" x="315" y="344" width="44" height="25">
<path d="M355.264 345.224C355.264 345.224 334.311 343.612 332.893 345.224C331.477 346.838 341.234 348.259 340.144 349.893C339.053 351.529 315.678 354.932 315.789 356.239C315.897 357.547 325.263 369.075 328.97 368.964C332.677 368.856 358.401 359.769 358.401 359.769L355.264 345.224Z" fill="white"/>
</mask>
<g mask="url(#mask0_7726_45220)">
<path d="M347.328 343.072C347.328 343.072 348.75 354.627 346.444 358.871C344.163 363.115 337.098 368.586 337.098 368.586L362.685 359.632L361.066 343.391L347.328 343.072Z" fill="#FFB2A0"/>
<path d="M327.971 351.977C335.135 343.759 346.297 354.602 349.658 358.895C351.473 361.226 346.297 364.293 341.317 366.55C336.705 368.635 329.738 371.603 325.42 368.954L316.49 359.19C316.49 359.19 321.838 358.994 327.971 351.977Z" fill="#FFB2A0"/>
</g>
<path d="M500.017 263.586C500.017 263.586 482.157 262.555 476.318 278.599C470.48 294.619 455.613 377.072 455.613 377.072L482.869 385.585L500.017 263.586Z" fill="#26009C"/>
<path d="M475.46 368.758L477.815 458.399H544.666V410.806C544.666 406.464 546.187 402.269 549.033 399.006C553.007 394.468 558.085 385.293 556.908 368.758H475.46Z" fill="#373660"/>
<path d="M511.228 204.683C519.716 206.401 524.451 218.52 521.777 231.743L519.422 243.371C518.465 247.983 517.95 252.693 517.876 257.404L517.705 265.99H498.815L501.538 252.571C493.025 250.853 488.29 238.734 490.964 225.511C493.663 212.288 502.715 202.942 511.228 204.683Z" fill="#FFD1C1"/>
<mask id="mask1_7726_45220" style="mask-type:luminance" maskUnits="userSpaceOnUse" x="490" y="204" width="33" height="62">
<path d="M511.216 204.671C519.718 206.391 524.441 218.507 521.767 231.735L519.412 243.371C518.477 247.993 517.962 252.691 517.874 257.406L517.712 265.997H498.809L501.525 252.568C493.025 250.848 488.3 238.732 490.976 225.506C493.653 212.279 502.713 202.951 511.216 204.671Z" fill="white"/>
</mask>
<g mask="url(#mask1_7726_45220)">
<path d="M509.878 218.545C509.878 218.766 511.277 224.237 505.414 226.395C499.526 228.554 489.198 228.751 489.198 228.751C489.198 228.751 489.394 218.619 491.823 217.466C494.251 216.337 509.878 218.545 509.878 218.545Z" fill="#FFB2A0"/>
</g>
<path d="M501.538 252.571C501.538 252.571 507.867 252.89 513.338 245.506C513.338 245.506 509.805 256.644 500.925 255.589L501.538 252.571Z" fill="#FFB2A0"/>
<path d="M508.26 219.109L508.898 223.059C509.266 225.439 510.738 227.475 512.823 228.628L515.84 230.247C515.84 230.247 515.399 226.469 518.392 226.395C521.385 226.297 520.796 234.687 517.533 234.859L519.103 245.016C519.103 245.016 525.163 231.179 525.334 225.709C525.555 219.845 525.334 219.109 525.334 219.109H508.26Z" fill="#373660"/>
<path d="M487.849 219.109L487.457 220.679C486.647 223.869 486.794 227.205 487.898 230.296L490.597 237.803C490.597 237.803 489.296 228.652 493.197 219.109H487.849Z" fill="#373660"/>
<path d="M525.408 223.107C525.408 223.107 509.609 222.714 500.925 222.273L503.329 219.525C503.329 219.525 496.902 223.818 482.943 221.929C482.943 221.929 486.255 199.212 509.855 202.205C527.714 204.462 525.408 223.107 525.408 223.107Z" fill="#373660"/>
<path d="M483.9 218.227C483.9 218.227 488.512 221.759 503.329 219.527C503.329 219.527 498.3 223.207 487.113 222.323L482.943 221.931C482.943 221.931 483.482 219.134 483.9 218.227Z" fill="#4F5285"/>
<path d="M517.533 234.858L511.154 246.781L511.228 240.574C511.228 239.838 510.934 239.151 510.443 238.636L515.84 230.246L515.889 228.848L509.83 238.17C509.731 238.105 509.625 238.047 509.511 237.998C506.444 236.772 500.213 234.441 498.275 234.76C495.674 235.177 490.596 237.802 490.596 237.802C490.817 242.169 494.178 252.57 501.538 252.57C508.873 252.57 511.13 248.057 511.13 248.057L517.655 235.643L517.533 234.858Z" fill="white"/>
<path d="M510.1 239.568C510.1 240.083 509.683 240.476 509.168 240.476C508.677 240.476 508.26 240.083 508.26 239.568C508.26 239.053 508.677 238.66 509.168 238.66C509.683 238.66 510.1 239.053 510.1 239.568Z" fill="#E8E8E8"/>
<path d="M510.517 247.47C510.517 247.985 510.1 248.402 509.585 248.402C509.094 248.402 508.677 247.985 508.677 247.47C508.677 246.955 509.094 246.562 509.585 246.562C510.1 246.562 510.517 246.955 510.517 247.47Z" fill="#E8E8E8"/>
<path d="M493.59 237.902C493.59 237.852 493.59 237.803 493.639 237.779C494.154 237.534 497.171 236.135 498.128 235.988C499.036 235.816 502.029 236.65 502.765 236.847C502.863 236.871 502.912 236.969 502.912 237.067L502.789 238.417C502.789 238.539 502.667 238.637 502.544 238.588C501.685 238.392 498.594 237.705 498.251 237.803C497.858 237.926 494.767 239.005 494.252 239.177C494.203 239.202 494.154 239.177 494.154 239.128L493.59 237.902Z" fill="#E8E8E8"/>
<path d="M500.017 263.318H525.457C532.351 263.318 538.042 268.642 538.508 275.535L544.666 368.759H472.295L485.347 276.075C486.377 268.74 492.633 263.318 500.017 263.318Z" fill="white"/>
<path d="M480.268 271.732L426.15 321.386L350.639 343.195L354.982 363.238C354.982 363.238 435.865 353.891 438.244 352.444C444.255 348.789 471.339 334.413 471.339 334.413L480.268 271.732Z" fill="#26009C"/>
<path d="M505.39 459.184C504.948 459.184 504.58 458.84 504.58 458.399V399.815C504.58 399.374 504.948 399.006 505.39 399.006C505.831 399.006 506.199 399.374 506.199 399.815V458.399C506.199 458.84 505.831 459.184 505.39 459.184Z" fill="#4F5285"/>
<path d="M462.777 338.705L470.161 302.568L438.343 347.364L395.239 358.159C395.239 358.159 434.417 353.252 437.778 352.884C441.139 352.492 462.777 338.705 462.777 338.705Z" fill="#26184F"/>
<path d="M504.555 263.293C504.555 263.293 502.2 270.26 499.06 270.26C495.92 270.26 493.197 264.961 493.197 264.961C493.197 264.961 495.773 263.293 499.354 263.293H504.555Z" fill="#E8E8E8"/>
<path d="M507.769 263.318C507.769 263.318 509.34 270.212 512.112 270.261C514.884 270.286 521.581 263.318 521.581 263.318H507.769Z" fill="#E8E8E8"/>
<path d="M519.815 263.318L523.028 385.318L566.598 368.759L550.259 284.956C547.831 272.395 536.791 263.318 523.985 263.318H519.815Z" fill="#26009C"/>
<path d="M510.002 265.967C509.977 265.108 509.045 263.293 509.045 263.293H503.795C503.795 263.293 502.2 264.716 502.225 266.163C502.225 266.531 502.887 267.267 503.648 267.979L491.946 329.874L500.017 341.846L508.579 330.266L507.818 268.248C508.922 267.39 510.026 266.384 510.002 265.967Z" fill="#373660"/>
<path d="M566.181 417.38L499.453 387.475C498.815 387.18 498.52 386.42 498.815 385.757L516.454 346.432C516.724 345.77 517.509 345.5 518.146 345.77L584.874 375.675C585.512 375.969 585.807 376.754 585.512 377.392L567.898 416.717C567.604 417.38 566.843 417.674 566.181 417.38Z" fill="#4DB151"/>
<path d="M538.14 354.748L521.949 347.487L523.519 343.979L539.711 351.24L538.14 354.748Z" fill="#373660"/>
<path d="M579.649 373.344L538.14 354.749L538.925 352.982L580.434 371.603L579.649 373.344Z" fill="#D8FFDA"/>
<path d="M518.809 392.087L504.065 385.488L519.226 351.707L533.97 358.306L518.809 392.087Z" fill="#D8FFDA"/>
<path d="M510.861 385.241L508.53 384.187L520.87 356.637L523.225 357.667L510.861 385.241Z" fill="#4DB151"/>
<path d="M516.822 387.918L514.492 386.863L524.157 365.299L526.488 366.354L516.822 387.918Z" fill="#4DB151"/>
<path d="M543.194 271.438C543.194 271.438 587.524 317.706 587.524 329.358C587.524 335.761 562.452 404.918 562.452 404.918L544.666 398.908C544.666 398.908 558.723 337.037 557.079 335.492C555.46 333.946 535.319 321.95 535.319 320.772C535.319 319.619 543.194 271.438 543.194 271.438Z" fill="#26009C"/>
<path d="M553.228 359.386C553.228 359.386 558.723 338.46 557.079 335.491C555.436 332.523 536.031 317.484 536.031 317.484C536.031 317.484 538.901 331.836 542.164 335.319C545.451 338.803 553.571 344.151 553.228 359.386Z" fill="#26184F"/>
<path d="M547.782 399.963C547.782 399.963 538.508 408.157 538.852 408.745C539.171 409.31 545.402 416.228 547.782 416.375C550.186 416.547 558.183 413.799 558.183 413.799C558.183 413.799 561.25 404.526 560.808 404.379C560.367 404.207 547.782 399.963 547.782 399.963Z" fill="#FFD1C1"/>
<mask id="mask2_7726_45220" style="mask-type:luminance" maskUnits="userSpaceOnUse" x="538" y="399" width="23" height="18">
<path d="M547.791 399.973C547.791 399.973 538.51 408.159 538.839 408.733C539.168 409.31 545.394 416.218 547.791 416.382C550.188 416.547 558.178 413.789 558.178 413.789C558.178 413.789 561.242 404.518 560.801 404.369C560.357 404.219 547.791 399.973 547.791 399.973Z" fill="white"/>
</mask>
<g mask="url(#mask2_7726_45220)">
<path d="M545.672 399.963C545.672 399.963 555.092 405.875 555.264 411.003C555.46 416.105 554.577 417.258 554.577 417.258L561.152 415.124C561.152 415.124 563.875 400.944 562.452 400.871C561.005 400.773 547.782 396.283 547.782 396.283L545.672 399.963Z" fill="#FFB2A0"/>
</g>
<path d="M536.031 318.025C535.81 318.025 535.589 317.878 535.515 317.633C535.491 317.559 533.258 309.954 533.038 300.484C532.817 291.726 534.338 279.485 542.826 271.046C543.022 270.849 543.366 270.849 543.586 271.046C543.783 271.266 543.783 271.61 543.586 271.831C535.393 279.975 533.896 291.898 534.117 300.46C534.338 309.782 536.521 317.24 536.546 317.314C536.644 317.608 536.472 317.902 536.178 318.001C536.129 318.017 536.08 318.025 536.031 318.025Z" fill="#26184F"/>
<path d="M468.469 309.978C468.436 309.978 468.403 309.978 468.37 309.978C468.076 309.905 467.88 309.635 467.953 309.34C470.701 294.498 479.68 271.757 479.753 271.512C479.876 271.242 480.195 271.119 480.465 271.217C480.735 271.34 480.882 271.634 480.759 271.929C480.686 272.149 471.731 294.793 469.008 309.537C468.959 309.807 468.738 309.978 468.469 309.978Z" fill="#26184F"/>
<path d="M368.449 294.67C368.449 311.646 354.662 325.433 337.685 325.433C320.685 325.433 306.922 311.646 306.922 294.67C306.922 277.669 320.685 263.906 337.685 263.906C354.662 263.906 368.449 277.669 368.449 294.67Z" fill="#373660"/>
<path d="M353.779 286.425L350.418 283.064L333.908 299.575L326.278 291.945L322.942 295.306L333.908 306.272L333.981 306.174L334.006 306.199L353.779 286.425Z" fill="white"/>
<path d="M343.426 224.949H228.541C227.167 224.949 226.063 223.845 226.063 222.471V204.415C226.063 203.041 227.167 201.938 228.541 201.938H343.426C344.775 201.938 345.904 203.041 345.904 204.415V222.471C345.904 223.845 344.775 224.949 343.426 224.949Z" fill="#26009C"/>
<path d="M241.985 207.113L244.021 211.284L248.633 211.946L245.297 215.184L246.082 219.772L241.985 217.613L237.863 219.772L238.649 215.184L235.337 211.946L239.924 211.284L241.985 207.113Z" fill="white"/>
<path d="M264.334 207.113L266.395 211.284L270.982 211.946L267.67 215.184L268.455 219.772L264.334 217.613L260.237 219.772L261.022 215.184L257.686 211.946L262.298 211.284L264.334 207.113Z" fill="white"/>
<path d="M286.707 207.113L288.768 211.284L293.356 211.946L290.019 215.184L290.804 219.772L286.707 217.613L282.586 219.772L283.371 215.184L280.059 211.946L284.647 211.284L286.707 207.113Z" fill="white"/>
<path d="M309.081 207.113L311.117 211.284L315.729 211.946L312.393 215.184L313.178 219.772L309.081 217.613L304.96 219.772L305.745 215.184L302.433 211.946L307.02 211.284L309.081 207.113Z" fill="white"/>
<path d="M331.43 207.113L333.491 211.284L338.078 211.946L334.766 215.184L335.551 219.772L331.43 217.613L327.333 219.772L328.118 215.184L324.782 211.946L329.394 211.284L331.43 207.113Z" fill="white"/>
<path d="M631.216 421.871C631.216 434.064 621.354 443.926 609.161 443.926C596.993 443.926 587.106 434.064 587.106 421.871C587.106 409.678 596.993 399.816 609.161 399.816C621.354 399.816 631.216 409.678 631.216 421.871Z" fill="white"/>
<mask id="mask3_7726_45220" style="mask-type:luminance" maskUnits="userSpaceOnUse" x="587" y="399" width="45" height="45">
<path d="M631.223 421.871C631.223 434.051 621.349 443.928 609.166 443.928C596.986 443.928 587.112 434.051 587.112 421.871C587.112 409.691 596.986 399.816 609.166 399.816C621.349 399.816 631.223 409.691 631.223 421.871Z" fill="white"/>
</mask>
<g mask="url(#mask3_7726_45220)">
<path d="M612.523 429.403C615.736 428.079 617.993 424.914 617.993 421.234C617.993 416.352 614.044 412.402 609.162 412.402C604.28 412.402 600.33 416.352 600.33 421.234C600.33 424.914 602.587 428.079 605.801 429.403C598.711 430.9 593.314 437.033 592.946 444.491H625.402C625.034 437.033 619.637 430.9 612.523 429.403Z" fill="#4DB151"/>
</g>
<path d="M258.52 250.585C258.52 259.735 251.112 267.144 241.986 267.144C232.835 267.144 225.426 259.735 225.426 250.585C225.426 241.434 232.835 234.025 241.986 234.025C251.112 234.025 258.52 241.434 258.52 250.585Z" fill="white"/>
<mask id="mask4_7726_45220" style="mask-type:luminance" maskUnits="userSpaceOnUse" x="225" y="234" width="34" height="34">
<path d="M258.53 250.586C258.53 259.729 251.117 267.141 241.973 267.141C232.83 267.141 225.419 259.729 225.419 250.586C225.419 241.443 232.83 234.029 241.973 234.029C251.117 234.029 258.53 241.443 258.53 250.586Z" fill="white"/>
</mask>
<g mask="url(#mask4_7726_45220)">
<path d="M244.488 256.25C246.916 255.244 248.609 252.865 248.609 250.117C248.609 246.437 245.641 243.469 241.985 243.469C238.305 243.469 235.337 246.437 235.337 250.117C235.337 252.865 237.03 255.244 239.458 256.25C234.11 257.354 230.063 261.966 229.793 267.56H254.153C253.884 261.966 249.836 257.354 244.488 256.25Z" fill="#26009C"/>
</g>
<path d="M315.214 348.344C315.239 346.725 325.076 346.063 323.114 344.051C321.691 342.604 312.491 343.708 307.585 344.395C307.732 343.732 307.83 343.34 307.83 343.34L305.99 342.874L306.972 341.132L239.238 305.781L187.155 264.689C180.581 259.709 172.829 256.618 164.708 255.661C164.708 255.661 163.825 253.355 163.236 252.914V248.498C164.144 248.522 164.978 248.4 165.788 248.203C165.788 248.203 178.545 246.56 178.863 230.54C179.207 229.117 179.477 227.67 179.649 226.198C180.139 226.345 180.654 226.443 181.17 226.468C181.17 226.468 181.488 221.831 181.243 217.489C183.353 218.2 186.248 218.495 189.633 217.121C197.042 214.079 197.042 205.173 197.042 205.173H189.903C191.081 205.026 193.092 204.168 193.092 200.12L183.353 199.605C183.353 199.605 162.476 189.252 148.934 198.918C136.3 207.921 147.683 240.917 147.756 241.113C147.56 244.082 147.192 247.026 146.652 249.97L146.211 252.447C145.352 252.447 144.739 252.447 144.494 252.447C142.752 252.496 142.04 255.342 142.04 255.342C129.431 255.342 118.71 264.566 116.846 277.029L106.419 345.965L103.549 364.928C103.549 364.928 104.408 366.057 106.149 367.75C103.819 384.554 113.436 403.518 113.436 403.518V457.636H178.569C178.569 457.636 188.48 411.761 188.848 400.059C189.118 391.497 188.088 376.36 187.499 368.829C190.516 367.431 192.258 366.498 192.258 366.498L191.301 318.464L225.082 339.071L295.736 361.347L296.864 359.36C296.864 359.36 320.415 367.333 322.255 367.48C326.548 367.848 335.92 360.562 337.195 356.931C338.496 353.3 315.19 349.988 315.214 348.344Z" fill="#CBE2CC"/>
<path d="M195.79 365.051C195.79 365.051 197.851 389.093 197.483 400.82C197.115 412.522 187.204 458.397 187.204 458.397H122.095V404.254C122.095 404.254 110.344 381.096 115.938 363.285L195.79 365.051Z" fill="#373660"/>
<path d="M152.319 459.182C151.878 459.182 151.51 458.839 151.51 458.397V407.296C151.51 406.045 150.995 404.843 150.087 403.984C147.217 401.31 142.089 395.3 140.102 385.34C140.029 384.898 140.298 384.481 140.74 384.408C141.182 384.31 141.599 384.604 141.672 385.021C143.586 394.564 148.443 400.256 151.166 402.807C152.417 403.96 153.129 405.604 153.129 407.296V458.397C153.129 458.839 152.761 459.182 152.319 459.182Z" fill="#4F5285"/>
<path d="M313.154 345.647C313.154 345.647 329.811 342.802 331.774 344.813C333.712 346.8 323.874 347.463 323.874 349.106C323.85 350.75 347.131 354.062 345.855 357.693C344.555 361.323 335.184 368.61 330.915 368.242C326.646 367.874 305.818 358.821 305.818 358.821L313.154 345.647Z" fill="#FFD1C1"/>
<mask id="mask5_7726_45220" style="mask-type:luminance" maskUnits="userSpaceOnUse" x="305" y="344" width="41" height="25">
<path d="M313.146 345.637C313.146 345.637 329.808 342.811 331.763 344.808C333.718 346.807 323.883 347.472 323.864 349.106C323.847 350.742 347.128 354.056 345.847 357.69C344.567 361.323 335.183 368.604 330.91 368.241C326.634 367.878 305.828 358.833 305.828 358.833L313.146 345.637Z" fill="white"/>
</mask>
<g mask="url(#mask5_7726_45220)">
<path d="M316.49 344.104C316.49 344.104 314.65 351.414 315.263 355.168C315.876 358.921 320.096 366.207 320.096 366.207L304.272 359.608L312.245 343.049L316.49 344.104Z" fill="#FFB2A0"/>
</g>
<path d="M171.87 201.568C163.407 201.568 156.537 212.24 156.537 225.414V236.993C156.537 241.605 156.12 246.193 155.311 250.731L152.318 267.07L171.87 266.996V249.259C180.358 249.259 188.503 236.355 188.503 223.181C188.503 210.008 180.358 201.568 171.87 201.568Z" fill="#FFD1C1"/>
<mask id="mask6_7726_45220" style="mask-type:luminance" maskUnits="userSpaceOnUse" x="152" y="201" width="37" height="67">
<path d="M171.88 201.559C163.411 201.559 156.547 212.235 156.547 225.407V236.996C156.547 241.598 156.132 246.193 155.303 250.719L152.318 267.063L171.88 266.996V249.254C180.346 249.254 188.51 236.348 188.51 223.177C188.51 210.005 180.346 201.559 171.88 201.559Z" fill="white"/>
</mask>
<g mask="url(#mask6_7726_45220)">
<path d="M178.641 217.317C178.641 217.317 183.499 226.86 189.804 227.228C189.804 227.228 190.687 214.913 188.503 211.699L178.641 217.317Z" fill="#FFB2A0"/>
</g>
<path d="M156.391 241.875H159.899C162.966 241.875 165.885 240.649 168.044 238.441L174.619 231.743C174.619 231.743 168.265 228.211 171.086 223.77C173.932 219.354 178.053 226.641 178.053 226.641L185.953 215.969C185.953 215.969 190.884 220.9 198.292 217.858C205.701 214.84 205.701 205.911 205.701 205.911H197.679C197.679 205.911 201.751 206.622 201.751 200.882L191.988 200.342C191.988 200.342 171.135 190.014 157.569 199.679C144.91 208.707 156.391 241.875 156.391 241.875Z" fill="#373660"/>
<path d="M171.871 249.26L168.78 244.108C168.78 244.108 174.3 247.003 176.606 246.684C178.912 246.365 182.003 243.127 182.003 243.127C182.003 243.127 177.906 249.432 171.871 249.26Z" fill="#FFB2A0"/>
<path d="M150.675 256.105C150.675 256.105 151.411 253.26 153.128 253.21C154.87 253.161 171.282 253.235 171.871 253.677C172.484 254.118 173.367 256.424 173.367 256.424C173.367 256.424 152.318 256.62 150.675 256.105Z" fill="white"/>
<path d="M247.872 306.544L195.79 265.452C187.817 259.393 178.053 256.105 168.044 256.105H150.675C138.065 256.105 127.369 265.33 125.48 277.792L115.054 346.728L112.184 365.667C112.184 365.667 124.916 382.374 149.301 382.079C173.686 381.76 200.917 367.262 200.917 367.262L199.96 319.227L233.717 339.81L304.395 362.11L315.606 341.895L247.872 306.544Z" fill="#4DB151"/>
<mask id="mask7_7726_45220" style="mask-type:luminance" maskUnits="userSpaceOnUse" x="112" y="256" width="204" height="127">
<path d="M247.879 306.543L195.794 265.454C187.809 259.392 178.06 256.109 168.034 256.109H150.682C138.077 256.109 127.366 265.321 125.48 277.786L115.056 346.722L112.19 365.673C112.19 365.673 124.903 382.378 149.291 382.073C173.676 381.767 200.912 367.256 200.912 367.256L199.948 319.221L233.726 339.819L304.387 362.111L315.606 341.882L247.879 306.543Z" fill="white"/>
</mask>
<g mask="url(#mask7_7726_45220)">
<path d="M186.32 373.763L191.006 297.1C191.006 297.1 231.926 333.383 238.402 337.21C244.879 341.037 305.817 358.823 305.817 358.823V365.054C305.817 365.054 237.225 344.496 233.398 344.104C229.571 343.687 205.701 326.44 205.701 326.44V368.244C205.701 368.244 189.338 372.635 186.32 373.763Z" fill="#37823A"/>
</g>
<path d="M190.466 297.172C190.466 297.123 189.706 291.628 189.902 284.98C190.196 276.001 192.036 269.328 195.373 265.133L196.207 265.771C188.553 275.387 191.497 296.829 191.521 297.025L190.466 297.172Z" fill="#37823A"/>
<path d="M182.518 232.062C182.436 232.078 182.355 232.103 182.273 232.135L179.157 226.149C178.838 225.536 178.25 225.144 177.587 225.045L176.925 224.947L181.169 232.969C181.103 233.067 181.046 233.174 180.997 233.288L178.765 238.955L174.619 231.743L173.024 230.639C173.196 231.375 173.466 232.086 173.858 232.724L178.348 240.035L174.423 248.94C174.423 248.94 187.179 247.321 187.498 231.301L182.518 232.062Z" fill="white"/>
<path d="M183.426 233.633C183.426 234.026 183.107 234.345 182.714 234.345C182.322 234.345 182.003 234.026 182.003 233.633C182.003 233.241 182.322 232.922 182.714 232.922C183.107 232.922 183.426 233.241 183.426 233.633Z" fill="#E8E8E8"/>
<path d="M180.531 240.354C180.531 240.747 180.212 241.065 179.819 241.065C179.427 241.065 179.108 240.747 179.108 240.354C179.108 239.962 179.427 239.643 179.819 239.643C180.212 239.643 180.531 239.962 180.531 240.354Z" fill="#E8E8E8"/>
<path d="M129.192 343.097H16.726C14.9866 343.097 13.5654 341.453 13.5654 339.442V278.896C13.5654 276.884 14.9866 275.24 16.726 275.24H129.192C130.953 275.24 132.374 276.884 132.374 278.896V339.442C132.374 341.453 130.953 343.097 129.192 343.097Z" fill="#B1B2F3"/>
<path d="M71.3472 315.768H18.3171V281.324H71.3472V315.768Z" fill="#C1C2F1"/>
<path d="M18.3171 315.765L33.9928 292.729C35.011 291.257 36.9201 291.208 37.9807 292.631L51.1322 310.073L59.2564 300.089C60.1261 299.009 61.6109 299.009 62.4806 300.089L71.3472 310.908V315.765H18.3171Z" fill="white"/>
<path d="M53.2532 291.603C53.2532 293.59 51.8745 295.185 50.1563 295.185C48.4593 295.185 47.0593 293.59 47.0593 291.603C47.0593 289.616 48.4593 288.021 50.1563 288.021C51.8745 288.021 53.2532 289.616 53.2532 291.603Z" fill="white"/>
<path d="M127.644 289.296H79.4287V283.973H127.644V289.296Z" fill="white"/>
<path d="M127.644 300.483H79.4287V295.184H127.644V300.483Z" fill="white"/>
<path d="M114.407 311.694H79.4287V306.395H114.407V311.694Z" fill="white"/>
<path d="M127.644 326.878H18.3171V321.555H127.644V326.878Z" fill="white"/>
<path d="M99.0926 337.356H18.3171V332.057H99.0926V337.356Z" fill="white"/>
<path d="M313.203 446.991H303.782V429.721H313.203V446.991Z" fill="#E8E8E8"/>
<path d="M330.891 446.991H321.446V415.197H330.891V446.991Z" fill="#E8E8E8"/>
<path d="M348.554 446.991H339.109V402.416H348.554V446.991Z" fill="#4DB151"/>
<path d="M366.218 446.991H356.773V391.475H366.218V446.991Z" fill="#26009C"/>
<path d="M373.184 447.851H296.962V447.017H372.35V391.451H373.184V447.851Z" fill="#373660"/>
<path d="M213.896 387.156H248.069V399.839C248.069 410.069 239.753 418.386 229.523 418.386H213.896V387.156Z" fill="#26009C"/>
<path d="M247.824 402.76C247.824 402.76 241.642 407.323 229.915 407.494C229.915 407.494 233.423 416.375 227.584 418.387C227.584 418.387 236.956 418.927 241.666 414.339C247.333 408.819 247.824 402.76 247.824 402.76Z" fill="#B1B2F3"/>
<path d="M237.692 383.868L227.584 394L225.254 391.669L235.361 381.537L237.692 383.868Z" fill="#373660"/>
<path d="M85.7878 392.897H64.3465V390.91C64.3465 390.101 63.6841 389.463 62.8991 389.463H50.9027C50.1177 389.463 49.4553 390.101 49.4553 390.91V395.056V395.154V413.922C49.4553 415.099 50.4366 416.081 51.6142 416.081H85.7878C86.9653 416.081 87.9466 415.099 87.9466 413.922V395.056C87.9466 393.879 86.9653 392.897 85.7878 392.897Z" fill="#26009C"/>
<path d="M81.5929 392.894H64.3467V390.49H80.6362C81.1514 390.49 81.5929 390.932 81.5929 391.447V392.894Z" fill="#4DB151"/>
<path d="M83.5799 401.533H53.8467C53.724 401.533 53.6504 401.459 53.6504 401.361V398.785C53.6504 398.687 53.724 398.613 53.8467 398.613H83.5799C83.678 398.613 83.7516 398.687 83.7516 398.785V401.361C83.7516 401.459 83.678 401.533 83.5799 401.533Z" fill="#B1B2F3"/>
<path d="M83.5797 406.708H53.8464C53.7237 406.708 53.6501 406.635 53.6501 406.512V403.961C53.6501 403.863 53.7237 403.789 53.8464 403.789H83.5797C83.6778 403.789 83.7514 403.863 83.7514 403.961V406.512C83.7514 406.635 83.6778 406.708 83.5797 406.708Z" fill="#B1B2F3"/>
<path d="M68.1243 411.885H53.7728C53.6992 411.885 53.6501 411.836 53.6501 411.763V409.089C53.6501 409.015 53.6992 408.941 53.7728 408.941H68.1243C68.1979 408.941 68.2469 409.015 68.2469 409.089V411.763C68.2469 411.836 68.1979 411.885 68.1243 411.885Z" fill="#B1B2F3"/>
<path d="M687.15 476.282H8.33873C7.82355 476.282 7.40649 475.865 7.40649 475.325C7.40649 474.81 7.82355 474.393 8.33873 474.393H687.15C687.665 474.393 688.082 474.81 688.082 475.325C688.082 475.865 687.665 476.282 687.15 476.282Z" fill="#373660"/>
<path d="M163.701 27V4.28H167.861V27H163.701ZM172.912 27V9.912H176.624L176.784 14.712L176.304 14.52C176.475 13.3253 176.827 12.3653 177.36 11.64C177.893 10.9147 178.544 10.3813 179.312 10.04C180.08 9.69867 180.923 9.528 181.84 9.528C183.099 9.528 184.155 9.80533 185.008 10.36C185.883 10.9147 186.544 11.6827 186.992 12.664C187.44 13.624 187.664 14.744 187.664 16.024V27H183.568V17.336C183.568 16.376 183.472 15.5653 183.28 14.904C183.088 14.2427 182.768 13.7413 182.32 13.4C181.893 13.0373 181.317 12.856 180.592 12.856C179.504 12.856 178.629 13.24 177.968 14.008C177.328 14.776 177.008 15.8853 177.008 17.336V27H172.912ZM195.771 27L189.531 9.912H193.851L198.203 22.872L202.555 9.912H206.875L200.635 27H195.771ZM209.474 27V9.912H213.57V27H209.474ZM209.41 7.64V3.992H213.666V7.64H209.41ZM223.854 27C222.147 27 220.888 26.6053 220.078 25.816C219.288 25.0267 218.894 23.7893 218.894 22.104V5.912H222.99V21.72C222.99 22.5093 223.16 23.064 223.502 23.384C223.843 23.6827 224.376 23.832 225.102 23.832H227.502V27H223.854ZM216.206 13.08V9.912H227.502V13.08H216.206ZM235.372 27.384C233.58 27.384 232.14 26.9787 231.052 26.168C229.964 25.336 229.42 24.184 229.42 22.712C229.42 21.24 229.879 20.088 230.796 19.256C231.713 18.424 233.111 17.8267 234.988 17.464L240.652 16.344C240.652 15.128 240.375 14.2213 239.82 13.624C239.265 13.0053 238.444 12.696 237.356 12.696C236.375 12.696 235.596 12.9307 235.02 13.4C234.465 13.848 234.081 14.4987 233.868 15.352L229.708 15.16C230.049 13.3467 230.881 11.96 232.204 11C233.527 10.0187 235.244 9.528 237.356 9.528C239.788 9.528 241.623 10.1467 242.86 11.384C244.119 12.6 244.748 14.3493 244.748 16.632V22.84C244.748 23.288 244.823 23.5973 244.972 23.768C245.143 23.9387 245.388 24.024 245.708 24.024H246.252V27C246.124 27.0427 245.911 27.0747 245.612 27.096C245.335 27.1173 245.047 27.128 244.748 27.128C244.044 27.128 243.415 27.0213 242.86 26.808C242.305 26.5733 241.879 26.1787 241.58 25.624C241.281 25.048 241.132 24.2693 241.132 23.288L241.484 23.544C241.313 24.2907 240.94 24.9627 240.364 25.56C239.809 26.136 239.105 26.584 238.252 26.904C237.399 27.224 236.439 27.384 235.372 27.384ZM236.204 24.408C237.121 24.408 237.911 24.2267 238.572 23.864C239.233 23.5013 239.745 23 240.108 22.36C240.471 21.72 240.652 20.9627 240.652 20.088V19.128L236.236 20.024C235.319 20.216 234.657 20.504 234.252 20.888C233.868 21.2507 233.676 21.7307 233.676 22.328C233.676 22.9893 233.889 23.5013 234.316 23.864C234.764 24.2267 235.393 24.408 236.204 24.408ZM254.885 27C253.178 27 251.92 26.6053 251.109 25.816C250.32 25.0267 249.925 23.7893 249.925 22.104V5.912H254.021V21.72C254.021 22.5093 254.192 23.064 254.533 23.384C254.874 23.6827 255.408 23.832 256.133 23.832H258.533V27H254.885ZM247.237 13.08V9.912H258.533V13.08H247.237ZM261.537 27V9.912H265.633V27H261.537ZM261.473 7.64V3.992H265.729V7.64H261.473ZM277.242 27.384C275.557 27.384 274.074 27.0213 272.794 26.296C271.535 25.5493 270.554 24.504 269.85 23.16C269.167 21.816 268.826 20.248 268.826 18.456C268.826 16.6427 269.167 15.0747 269.85 13.752C270.554 12.408 271.535 11.3733 272.794 10.648C274.074 9.90133 275.557 9.528 277.242 9.528C278.927 9.528 280.399 9.90133 281.658 10.648C282.917 11.3733 283.887 12.408 284.57 13.752C285.274 15.0747 285.626 16.6427 285.626 18.456C285.626 20.248 285.274 21.816 284.57 23.16C283.887 24.504 282.917 25.5493 281.658 26.296C280.399 27.0213 278.927 27.384 277.242 27.384ZM277.242 24.056C278.565 24.056 279.578 23.5653 280.282 22.584C281.007 21.6027 281.37 20.2267 281.37 18.456C281.37 16.7067 281.007 15.3413 280.282 14.36C279.578 13.3573 278.565 12.856 277.242 12.856C275.919 12.856 274.895 13.3573 274.17 14.36C273.445 15.3413 273.082 16.7067 273.082 18.456C273.082 20.2267 273.445 21.6027 274.17 22.584C274.895 23.5653 275.919 24.056 277.242 24.056ZM288.787 27V9.912H292.499L292.659 14.712L292.179 14.52C292.35 13.3253 292.702 12.3653 293.235 11.64C293.768 10.9147 294.419 10.3813 295.187 10.04C295.955 9.69867 296.798 9.528 297.715 9.528C298.974 9.528 300.03 9.80533 300.883 10.36C301.758 10.9147 302.419 11.6827 302.867 12.664C303.315 13.624 303.539 14.744 303.539 16.024V27H299.443V17.336C299.443 16.376 299.347 15.5653 299.155 14.904C298.963 14.2427 298.643 13.7413 298.195 13.4C297.768 13.0373 297.192 12.856 296.467 12.856C295.379 12.856 294.504 13.24 293.843 14.008C293.203 14.776 292.883 15.8853 292.883 17.336V27H288.787ZM322.416 27C320.709 27 319.451 26.6053 318.64 25.816C317.851 25.0267 317.456 23.7893 317.456 22.104V5.912H321.552V21.72C321.552 22.5093 321.723 23.064 322.064 23.384C322.405 23.6827 322.939 23.832 323.664 23.832H326.064V27H322.416ZM314.768 13.08V9.912H326.064V13.08H314.768ZM336.211 27.384C334.526 27.384 333.043 27.0213 331.763 26.296C330.504 25.5493 329.523 24.504 328.819 23.16C328.136 21.816 327.795 20.248 327.795 18.456C327.795 16.6427 328.136 15.0747 328.819 13.752C329.523 12.408 330.504 11.3733 331.763 10.648C333.043 9.90133 334.526 9.528 336.211 9.528C337.896 9.528 339.368 9.90133 340.627 10.648C341.886 11.3733 342.856 12.408 343.539 13.752C344.243 15.0747 344.595 16.6427 344.595 18.456C344.595 20.248 344.243 21.816 343.539 23.16C342.856 24.504 341.886 25.5493 340.627 26.296C339.368 27.0213 337.896 27.384 336.211 27.384ZM336.211 24.056C337.534 24.056 338.547 23.5653 339.251 22.584C339.976 21.6027 340.339 20.2267 340.339 18.456C340.339 16.7067 339.976 15.3413 339.251 14.36C338.547 13.3573 337.534 12.856 336.211 12.856C334.888 12.856 333.864 13.3573 333.139 14.36C332.414 15.3413 332.051 16.7067 332.051 18.456C332.051 20.2267 332.414 21.6027 333.139 22.584C333.864 23.5653 334.888 24.056 336.211 24.056ZM355.951 27V4.28H365.455C367.097 4.28 368.516 4.55733 369.711 5.112C370.905 5.66667 371.833 6.456 372.495 7.48C373.156 8.504 373.487 9.70933 373.487 11.096C373.487 12.1413 373.263 13.0693 372.815 13.88C372.367 14.6907 371.759 15.3413 370.991 15.832C370.244 16.3227 369.412 16.6213 368.495 16.728L368.335 16.408C369.807 16.408 370.937 16.7387 371.727 17.4C372.537 18.0613 372.996 19.0747 373.103 20.44L373.679 27H369.455L368.975 21.048C368.911 20.152 368.623 19.4907 368.111 19.064C367.599 18.6373 366.745 18.424 365.551 18.424H360.111V27H355.951ZM360.111 14.776H365.199C366.457 14.776 367.439 14.4773 368.143 13.88C368.847 13.2827 369.199 12.44 369.199 11.352C369.199 10.2427 368.836 9.38933 368.111 8.792C367.407 8.19467 366.372 7.896 365.007 7.896H360.111V14.776ZM384.585 27.384C382.878 27.384 381.396 27.0213 380.137 26.296C378.878 25.5493 377.908 24.504 377.225 23.16C376.542 21.816 376.201 20.248 376.201 18.456C376.201 16.664 376.542 15.1067 377.225 13.784C377.908 12.44 378.868 11.3947 380.105 10.648C381.364 9.90133 382.825 9.528 384.489 9.528C386.11 9.528 387.529 9.89067 388.745 10.616C389.982 11.3413 390.932 12.3867 391.593 13.752C392.254 15.1173 392.585 16.76 392.585 18.68V19.608H380.457C380.542 21.1013 380.948 22.232 381.673 23C382.42 23.7467 383.401 24.12 384.617 24.12C385.534 24.12 386.292 23.9173 386.889 23.512C387.508 23.0853 387.934 22.4987 388.169 21.752L392.361 22.008C391.892 23.672 390.964 24.984 389.577 25.944C388.212 26.904 386.548 27.384 384.585 27.384ZM380.457 16.856H388.361C388.276 15.4693 387.881 14.4453 387.177 13.784C386.473 13.1013 385.577 12.76 384.489 12.76C383.401 12.76 382.494 13.112 381.769 13.816C381.065 14.52 380.628 15.5333 380.457 16.856ZM403.083 32.184C401.59 32.184 400.31 31.9813 399.243 31.576C398.176 31.1707 397.312 30.5947 396.651 29.848C396.011 29.1227 395.563 28.28 395.307 27.32L399.531 27.032C399.744 27.672 400.107 28.1733 400.619 28.536C401.152 28.8987 401.974 29.08 403.083 29.08C404.342 29.08 405.312 28.792 405.995 28.216C406.678 27.6613 407.019 26.7867 407.019 25.592V23.416C406.614 24.248 405.963 24.92 405.067 25.432C404.171 25.9227 403.168 26.168 402.059 26.168C400.651 26.168 399.392 25.8267 398.283 25.144C397.195 24.44 396.342 23.4693 395.723 22.232C395.104 20.9733 394.795 19.5227 394.795 17.88C394.795 16.2373 395.094 14.7973 395.691 13.56C396.31 12.3013 397.163 11.32 398.251 10.616C399.339 9.89067 400.587 9.528 401.995 9.528C403.232 9.528 404.299 9.80533 405.195 10.36C406.091 10.9147 406.742 11.6507 407.147 12.568V9.912H411.147V25.496C411.147 26.9467 410.806 28.1733 410.123 29.176C409.462 30.1787 408.523 30.9253 407.307 31.416C406.112 31.928 404.704 32.184 403.083 32.184ZM403.019 22.968C404.235 22.968 405.206 22.52 405.931 21.624C406.656 20.7067 407.03 19.448 407.051 17.848C407.072 16.7813 406.912 15.8747 406.571 15.128C406.251 14.36 405.782 13.7733 405.163 13.368C404.566 12.9413 403.851 12.728 403.019 12.728C401.76 12.728 400.779 13.1973 400.075 14.136C399.392 15.0533 399.051 16.2907 399.051 17.848C399.051 19.4053 399.403 20.6533 400.107 21.592C400.832 22.5093 401.803 22.968 403.019 22.968ZM415.287 27V9.912H419.383V27H415.287ZM415.223 7.64V3.992H419.479V7.64H415.223ZM430.512 27.384C428.827 27.384 427.408 27.1387 426.256 26.648C425.125 26.1573 424.251 25.4747 423.632 24.6C423.013 23.7253 422.661 22.7333 422.576 21.624L426.768 21.432C426.917 22.328 427.291 23.0213 427.888 23.512C428.485 24.0027 429.371 24.248 430.544 24.248C431.504 24.248 432.251 24.0987 432.784 23.8C433.339 23.48 433.616 22.9893 433.616 22.328C433.616 21.944 433.52 21.624 433.328 21.368C433.136 21.112 432.773 20.888 432.24 20.696C431.707 20.504 430.917 20.312 429.872 20.12C428.123 19.8213 426.747 19.4587 425.744 19.032C424.741 18.584 424.027 18.0293 423.6 17.368C423.195 16.7067 422.992 15.8853 422.992 14.904C422.992 13.304 423.6 12.0133 424.816 11.032C426.053 10.0293 427.856 9.528 430.224 9.528C431.76 9.528 433.051 9.784 434.096 10.296C435.141 10.7867 435.952 11.4693 436.528 12.344C437.125 13.1973 437.499 14.1787 437.648 15.288L433.52 15.48C433.413 14.904 433.221 14.4027 432.944 13.976C432.667 13.5493 432.293 13.2293 431.824 13.016C431.355 12.7813 430.8 12.664 430.16 12.664C429.2 12.664 428.475 12.856 427.984 13.24C427.493 13.624 427.248 14.136 427.248 14.776C427.248 15.224 427.355 15.5973 427.568 15.896C427.803 16.1947 428.176 16.44 428.688 16.632C429.2 16.8027 429.883 16.9627 430.736 17.112C432.528 17.3893 433.936 17.752 434.96 18.2C436.005 18.6267 436.741 19.1813 437.168 19.864C437.616 20.5253 437.84 21.3253 437.84 22.264C437.84 23.352 437.531 24.28 436.912 25.048C436.315 25.816 435.461 26.4027 434.352 26.808C433.264 27.192 431.984 27.384 430.512 27.384ZM447.291 27C445.584 27 444.326 26.6053 443.515 25.816C442.726 25.0267 442.331 23.7893 442.331 22.104V5.912H446.427V21.72C446.427 22.5093 446.598 23.064 446.939 23.384C447.28 23.6827 447.814 23.832 448.539 23.832H450.939V27H447.291ZM439.643 13.08V9.912H450.939V13.08H439.643ZM461.054 27.384C459.347 27.384 457.865 27.0213 456.606 26.296C455.347 25.5493 454.377 24.504 453.694 23.16C453.011 21.816 452.67 20.248 452.67 18.456C452.67 16.664 453.011 15.1067 453.694 13.784C454.377 12.44 455.337 11.3947 456.574 10.648C457.833 9.90133 459.294 9.528 460.958 9.528C462.579 9.528 463.998 9.89067 465.214 10.616C466.451 11.3413 467.401 12.3867 468.062 13.752C468.723 15.1173 469.054 16.76 469.054 18.68V19.608H456.926C457.011 21.1013 457.417 22.232 458.142 23C458.889 23.7467 459.87 24.12 461.086 24.12C462.003 24.12 462.761 23.9173 463.358 23.512C463.977 23.0853 464.403 22.4987 464.638 21.752L468.83 22.008C468.361 23.672 467.433 24.984 466.046 25.944C464.681 26.904 463.017 27.384 461.054 27.384ZM456.926 16.856H464.83C464.745 15.4693 464.35 14.4453 463.646 13.784C462.942 13.1013 462.046 12.76 460.958 12.76C459.87 12.76 458.963 13.112 458.238 13.816C457.534 14.52 457.097 15.5333 456.926 16.856ZM472.256 27V9.912H476.096L476.256 14.648L475.904 14.584C476.16 12.9413 476.64 11.7573 477.344 11.032C478.069 10.2853 479.05 9.912 480.288 9.912H481.856V13.432H480.256C479.381 13.432 478.656 13.56 478.08 13.816C477.504 14.072 477.066 14.4773 476.768 15.032C476.49 15.5653 476.352 16.2693 476.352 17.144V27H472.256ZM500.336 27.384C498.651 27.384 497.168 27.0213 495.888 26.296C494.629 25.5493 493.648 24.504 492.944 23.16C492.261 21.816 491.92 20.248 491.92 18.456C491.92 16.6427 492.261 15.0747 492.944 13.752C493.648 12.408 494.629 11.3733 495.888 10.648C497.168 9.90133 498.651 9.528 500.336 9.528C502.021 9.528 503.493 9.90133 504.752 10.648C506.011 11.3733 506.981 12.408 507.664 13.752C508.368 15.0747 508.72 16.6427 508.72 18.456C508.72 20.248 508.368 21.816 507.664 23.16C506.981 24.504 506.011 25.5493 504.752 26.296C503.493 27.0213 502.021 27.384 500.336 27.384ZM500.336 24.056C501.659 24.056 502.672 23.5653 503.376 22.584C504.101 21.6027 504.464 20.2267 504.464 18.456C504.464 16.7067 504.101 15.3413 503.376 14.36C502.672 13.3573 501.659 12.856 500.336 12.856C499.013 12.856 497.989 13.3573 497.264 14.36C496.539 15.3413 496.176 16.7067 496.176 18.456C496.176 20.2267 496.539 21.6027 497.264 22.584C497.989 23.5653 499.013 24.056 500.336 24.056ZM511.881 27V9.912H515.593L515.753 14.712L515.273 14.52C515.443 13.3253 515.795 12.3653 516.329 11.64C516.862 10.9147 517.513 10.3813 518.281 10.04C519.049 9.69867 519.891 9.528 520.809 9.528C522.067 9.528 523.123 9.80533 523.977 10.36C524.851 10.9147 525.513 11.6827 525.961 12.664C526.409 13.624 526.633 14.744 526.633 16.024V27H522.537V17.336C522.537 16.376 522.441 15.5653 522.249 14.904C522.057 14.2427 521.737 13.7413 521.289 13.4C520.862 13.0373 520.286 12.856 519.561 12.856C518.473 12.856 517.598 13.24 516.937 14.008C516.297 14.776 515.977 15.8853 515.977 17.336V27H511.881Z" fill="#101828"/>
<path d="M286.822 503.979C287.554 503.859 288.295 503.801 289.037 503.806C289.936 503.737 290.828 504.003 291.543 504.552C291.802 504.788 292.007 505.079 292.142 505.403C292.277 505.728 292.34 506.078 292.327 506.429C292.344 506.779 292.292 507.128 292.173 507.457C292.055 507.786 291.872 508.089 291.636 508.346C291.271 508.687 290.84 508.95 290.371 509.119C289.901 509.289 289.403 509.361 288.905 509.332C288.593 509.342 288.281 509.315 287.975 509.252V512.85H286.822V503.979ZM287.975 508.309C288.289 508.38 288.61 508.411 288.931 508.402C290.325 508.402 291.172 507.723 291.172 506.485C291.172 505.3 290.337 504.728 289.064 504.728C288.699 504.717 288.333 504.749 287.975 504.821V508.309Z" fill="#3F3F3F"/>
<path d="M299.321 509.574C299.321 511.956 297.677 512.996 296.124 512.996C294.386 512.996 293.047 511.717 293.047 509.679C293.047 507.524 294.452 506.258 296.232 506.258C298.075 506.256 299.321 507.601 299.321 509.574ZM294.227 509.641C294.227 511.053 295.036 512.118 296.177 512.118C297.292 512.118 298.128 511.066 298.128 509.614C298.128 508.523 297.584 507.139 296.203 507.139C294.823 507.139 294.227 508.414 294.227 509.641Z" fill="#3F3F3F"/>
<path d="M301.167 506.402L302.016 509.677C302.202 510.397 302.373 511.063 302.493 511.729H302.533C302.679 511.076 302.891 510.383 303.103 509.692L304.153 506.402H305.136L306.131 509.625C306.37 510.397 306.556 511.076 306.702 511.729H306.742C306.867 511.023 307.031 510.325 307.233 509.637L308.149 506.402H309.302L307.233 512.847H306.171L305.189 509.771C304.963 509.076 304.772 508.369 304.618 507.655H304.591C304.438 508.376 304.243 509.088 304.007 509.787L302.973 512.851H301.911L299.972 506.402H301.167Z" fill="#3F3F3F"/>
<path d="M310.991 509.841C310.965 510.138 311.005 510.438 311.106 510.719C311.207 511 311.368 511.256 311.578 511.469C311.787 511.681 312.04 511.846 312.319 511.951C312.598 512.056 312.896 512.098 313.193 512.076C313.802 512.095 314.409 511.982 314.97 511.743L315.169 512.583C314.494 512.865 313.766 513.001 313.034 512.982C311.056 512.982 309.876 511.677 309.876 509.733C309.876 507.789 311.017 506.258 312.888 506.258C314.984 506.258 315.542 508.108 315.542 509.294C315.54 509.477 315.527 509.659 315.503 509.841H310.991ZM314.413 509.001C314.426 508.255 314.108 507.097 312.795 507.097C311.613 507.097 311.097 508.188 311.003 509.001H314.413Z" fill="#3F3F3F"/>
<path d="M316.989 508.413C316.989 507.655 316.976 507.002 316.936 506.403H317.957L317.997 507.668H318.05C318.159 507.274 318.391 506.925 318.711 506.671C319.031 506.417 319.423 506.272 319.83 506.256C319.942 506.254 320.054 506.268 320.162 506.296V507.402C320.031 507.373 319.898 507.36 319.764 507.362C319.365 507.378 318.986 507.54 318.697 507.817C318.409 508.094 318.231 508.467 318.197 508.866C318.165 509.046 318.147 509.229 318.144 509.412V512.847H316.989V508.413Z" fill="#3F3F3F"/>
<path d="M321.847 509.84C321.822 510.138 321.861 510.438 321.962 510.719C322.064 511 322.224 511.256 322.434 511.468C322.643 511.681 322.896 511.845 323.175 511.95C323.454 512.055 323.752 512.098 324.049 512.076C324.658 512.095 325.264 511.981 325.825 511.743L326.024 512.582C325.348 512.865 324.62 513.001 323.887 512.982C321.911 512.982 320.731 511.676 320.731 509.732C320.731 507.788 321.874 506.256 323.744 506.256C325.84 506.256 326.399 508.107 326.399 509.292C326.396 509.475 326.383 509.658 326.358 509.839L321.847 509.84ZM325.269 509.001C325.282 508.254 324.964 507.097 323.651 507.097C322.47 507.097 321.953 508.188 321.859 509.001H325.269Z" fill="#3F3F3F"/>
<path d="M333.391 503.395V511.184C333.391 511.756 333.404 512.408 333.444 512.849H332.395L332.344 511.731H332.317C332.107 512.127 331.791 512.456 331.403 512.68C331.016 512.904 330.574 513.014 330.127 512.997C328.574 512.997 327.38 511.678 327.38 509.722C327.367 507.577 328.693 506.258 330.258 506.258C330.64 506.234 331.02 506.313 331.361 506.487C331.701 506.66 331.99 506.921 332.196 507.244H332.223V503.395H333.391ZM332.224 509.029C332.226 508.863 332.208 508.698 332.17 508.536C332.087 508.15 331.874 507.805 331.567 507.557C331.261 507.31 330.879 507.176 330.485 507.178C329.279 507.178 328.561 508.244 328.561 509.669C328.561 510.973 329.198 512.051 330.457 512.051C330.859 512.049 331.248 511.91 331.559 511.655C331.871 511.401 332.086 511.046 332.168 510.652C332.208 510.486 332.226 510.316 332.223 510.146L332.224 509.029Z" fill="#3F3F3F"/>
<path d="M338.093 512.848C338.119 512.408 338.146 511.756 338.146 511.182V503.395H339.299V507.442H339.326C339.547 507.062 339.869 506.75 340.255 506.541C340.641 506.331 341.078 506.233 341.516 506.256C343.109 506.256 344.237 507.589 344.221 509.545C344.221 511.849 342.776 512.994 341.344 512.994C340.908 513.019 340.474 512.919 340.093 512.704C339.712 512.489 339.4 512.17 339.195 511.783H339.155L339.102 512.849L338.093 512.848ZM339.299 510.264C339.303 510.408 339.321 510.551 339.352 510.691C339.449 511.082 339.674 511.43 339.991 511.679C340.308 511.927 340.699 512.062 341.101 512.062C342.321 512.062 343.052 511.062 343.052 509.586C343.052 508.294 342.388 507.188 341.141 507.188C340.727 507.196 340.328 507.342 340.007 507.603C339.685 507.864 339.46 508.225 339.366 508.629C339.327 508.787 339.305 508.947 339.299 509.109V510.264Z" fill="#3F3F3F"/>
<path d="M346.029 506.402L347.435 510.21C347.58 510.637 347.741 511.143 347.847 511.528H347.873C347.991 511.143 348.125 510.65 348.283 510.185L349.558 506.403H350.792L349.04 511C348.205 513.21 347.634 514.341 346.839 515.034C346.435 515.408 345.941 515.669 345.406 515.792L345.114 514.808C345.487 514.684 345.834 514.489 346.136 514.235C346.56 513.883 346.896 513.436 347.117 512.93C347.164 512.843 347.195 512.749 347.21 512.65C347.199 512.545 347.172 512.441 347.13 512.344L344.756 506.402H346.029Z" fill="#3F3F3F"/>
<path d="M297.977 543.89C296.495 543.905 295.016 543.769 293.562 543.486C292.226 543.255 290.958 542.728 289.852 541.943C288.792 541.085 288.002 539.937 287.579 538.638C287.142 537.348 286.896 536.001 286.847 534.639C286.77 533.009 286.87 531.374 287.143 529.765C287.546 528.412 288.221 527.156 289.125 526.075C289.971 525.044 291.021 524.199 292.208 523.594C293.773 522.827 295.496 522.442 297.238 522.472C297.941 522.475 298.643 522.524 299.339 522.619C302.392 523.031 304.619 524.224 305.948 526.164C306.443 526.898 306.809 527.712 307.029 528.571C307.22 529.31 307.325 530.069 307.342 530.832C307.366 531.618 307.3 532.405 307.145 533.176H292.283C292.221 533.988 292.275 534.804 292.444 535.601C292.591 536.331 292.859 537.031 293.237 537.673C293.675 538.412 294.292 539.029 295.03 539.468C296.212 540.018 297.513 540.262 298.814 540.178C300.016 540.169 301.215 540.067 302.401 539.874C303.391 539.726 304.368 539.499 305.322 539.196L304.691 543.265C302.476 543.661 300.232 543.868 297.982 543.885L297.977 543.89ZM297.669 525.972C296.679 525.951 295.705 526.217 294.863 526.738C294.213 527.162 293.671 527.734 293.282 528.407C292.845 529.153 292.554 529.977 292.426 530.834H302.048C302.067 530.407 302.039 529.979 301.964 529.559C301.833 528.688 301.458 527.873 300.883 527.207C300.468 526.786 299.967 526.458 299.416 526.245C298.865 526.032 298.275 525.939 297.685 525.972H297.669Z" fill="#26009C"/>
<path d="M307.346 543.531L315.798 532.832L309.136 522.954H315.798L319.337 528.587L323.661 522.949H329.849L322.227 532.827L329.471 543.531H322.965L318.578 537.074L313.683 543.531H307.346Z" fill="#26009C"/>
<path d="M342.718 540.356C342.587 540.446 341.675 543.874 341.675 543.874C341.675 543.874 335.612 544.558 332.923 542.762C330.233 540.965 329.375 535.149 334.75 532.937C340.124 530.725 344.971 531.005 345.076 528.13C345.181 525.255 341.299 525.799 341.299 525.799C338.609 525.984 335.957 526.544 333.421 527.464C333.738 525.223 334.03 523.693 334.03 523.693C334.03 523.693 344.779 521.482 348.385 523.422C351.992 525.362 350.586 528.552 350.583 533.431C350.58 538.31 350.178 543.539 350.178 543.539H344.479L345.076 532.939C343.467 533.773 341.753 534.387 339.981 534.763C338.133 535.109 335.485 536.465 336.35 539.647C337.761 541.609 340.713 540.836 342.718 540.356Z" fill="#26009C"/>
<path d="M395 540.356C394.869 540.446 393.957 543.874 393.957 543.874C393.957 543.874 387.894 544.558 385.204 542.762C382.515 540.965 381.656 535.148 387.032 532.937C392.407 530.726 397.252 531.005 397.358 528.13C397.463 525.255 393.581 525.799 393.581 525.799C390.89 525.984 388.239 526.544 385.703 527.464C386.02 525.223 386.312 523.693 386.312 523.693C386.312 523.693 397.061 521.482 400.667 523.422C404.274 525.362 402.867 528.552 402.865 533.431C402.862 538.31 402.46 543.539 402.46 543.539H396.76L397.356 532.939C395.747 533.774 394.034 534.387 392.262 534.763C390.414 535.109 387.766 536.465 388.631 539.647C390.043 541.609 392.995 540.836 395 540.356Z" fill="#26009C"/>
<path d="M354.759 543.532H360.564C360.564 543.532 360.519 529.532 361.69 515.793C359.662 515.914 357.628 515.914 355.6 515.793L354.759 543.532Z" fill="#26009C"/>
<path d="M380.865 539.048L380.382 543.283C380.382 543.283 372.22 545.324 367.637 542.165C363.053 539.006 363.887 532.002 363.921 531.805C363.955 531.608 365.219 525.859 369.445 523.641C373.672 521.423 381.221 523.314 381.221 523.314V527.801C381.221 527.801 376.926 526.201 373.756 527.107C369.961 528.029 366.804 536.488 372.278 539.053C375.579 540.684 380.865 539.048 380.865 539.048Z" fill="#26009C"/>
<path d="M412.146 518.085C412.152 518.02 412.14 517.955 412.112 517.897C412.083 517.839 412.039 517.79 411.984 517.756C411.883 517.717 411.775 517.701 411.667 517.708H411.34V518.474H411.776C411.827 518.476 411.876 518.467 411.923 518.448C411.969 518.429 412.011 518.401 412.047 518.366C412.081 518.327 412.107 518.283 412.124 518.234C412.14 518.185 412.147 518.134 412.144 518.083L412.146 518.085ZM412.286 518.857L412.841 519.868C412.848 519.881 412.852 519.895 412.852 519.91C412.852 519.925 412.848 519.939 412.841 519.952C412.834 519.966 412.824 519.977 412.811 519.985C412.798 519.993 412.783 519.996 412.768 519.995H412.353C412.337 519.997 412.32 519.993 412.306 519.985C412.292 519.976 412.281 519.964 412.275 519.948L411.75 518.964H411.335V519.912C411.336 519.924 411.334 519.935 411.331 519.946C411.327 519.957 411.321 519.967 411.313 519.975C411.306 519.984 411.296 519.99 411.286 519.995C411.276 520 411.264 520.002 411.253 520.003H410.885C410.874 520.004 410.863 520.002 410.852 519.999C410.841 519.995 410.831 519.989 410.822 519.981C410.814 519.974 410.807 519.964 410.802 519.954C410.798 519.943 410.795 519.932 410.795 519.92V517.308C410.794 517.286 410.801 517.264 410.815 517.247C410.829 517.23 410.85 517.219 410.872 517.217H411.677C411.851 517.21 412.025 517.232 412.191 517.283C412.341 517.338 412.468 517.443 412.551 517.579C412.641 517.726 412.686 517.895 412.683 518.067C412.686 518.226 412.646 518.382 412.568 518.52C412.496 518.648 412.387 518.751 412.256 518.816L412.281 518.861L412.286 518.857ZM411.746 516.614C411.48 516.613 411.217 516.667 410.973 516.772C410.613 516.927 410.307 517.185 410.093 517.514C409.879 517.843 409.767 518.229 409.771 518.621C409.775 519.014 409.895 519.397 410.116 519.722C410.336 520.046 410.647 520.298 411.01 520.446C411.373 520.593 411.771 520.629 412.154 520.55C412.538 520.47 412.889 520.278 413.164 519.999C413.439 519.719 413.625 519.364 413.7 518.979C413.774 518.593 413.733 518.194 413.581 517.831C413.43 517.469 413.175 517.16 412.848 516.943C412.521 516.727 412.138 516.613 411.747 516.615L411.746 516.614ZM414.169 518.604C414.167 519.081 414.026 519.548 413.763 519.946C413.5 520.344 413.126 520.656 412.688 520.843C412.32 520.999 411.92 521.061 411.522 521.024C411.125 520.986 410.743 520.851 410.41 520.629C410.077 520.408 409.804 520.107 409.616 519.754C409.427 519.401 409.328 519.007 409.328 518.606C409.328 518.205 409.427 517.811 409.616 517.458C409.804 517.105 410.077 516.804 410.41 516.582C410.743 516.361 411.125 516.225 411.522 516.188C411.92 516.151 412.32 516.213 412.688 516.369C413.126 516.555 413.5 516.866 413.764 517.264C414.027 517.661 414.169 518.127 414.171 518.605L414.169 518.604Z" fill="#26009C"/>
<path d="M410.514 523.072H405.658V527.948H410.514V523.072Z" fill="#1F009E"/>
<path d="M415.357 527.947H410.5V532.823H415.357V527.947Z" fill="#1F009E"/>
<path d="M420.821 530.385H415.964V535.26H420.821V530.385Z" fill="url(#paint0_linear_7726_45220)"/>
<path d="M410.514 538.309H405.658V543.186H410.514V538.309Z" fill="#4DB151"/>
<path d="M415.357 533.432H410.5V538.307H415.357V533.432Z" fill="#4DB151"/>
<path d="M246.304 70.7029C243.844 66.7769 244.967 61.5202 248.813 58.9617C252.659 56.4031 257.77 57.5117 260.23 61.4377L277.901 89.6406C280.361 93.5666 279.237 98.8233 275.391 101.382C271.546 103.94 266.434 102.832 263.974 98.9058L246.304 70.7029Z" fill="#1D10A2"/>
<path d="M278.927 58.5332C270.26 63.6652 272.847 70.9332 279.691 82.2308C281.276 84.8476 285.019 84.9263 286.68 82.3579C293.797 71.3576 296.322 63.6574 287.667 58.5332C285.171 57.2659 281.425 57.2659 278.927 58.5332Z" fill="#4DB151"/>
<path d="M336.752 72.4189C336.752 75.1755 336.111 77.6951 334.828 79.9779C333.588 82.2176 331.685 84.0266 329.12 85.4049C326.597 86.7401 323.497 87.4077 319.82 87.4077H313.599V102.784H301.028V57.2363H319.82C323.454 57.2363 326.533 57.8824 329.056 59.1745C331.621 60.4667 333.545 62.2541 334.828 64.5369C336.111 66.8197 336.752 69.447 336.752 72.4189ZM318.601 77.329C322.15 77.329 323.925 75.6923 323.925 72.4189C323.925 69.1024 322.15 67.4442 318.601 67.4442H313.599V77.329H318.601Z" fill="#1D10A2"/>
<path d="M354.373 72.9358C355.784 70.8684 357.495 69.2316 359.504 68.0257C361.514 66.8197 363.673 66.2167 365.982 66.2167V79.7195H362.455C359.718 79.7195 357.687 80.2579 356.362 81.3346C355.036 82.4114 354.373 84.285 354.373 86.9554V102.784H341.803V66.5397H354.373V72.9358Z" fill="#1D10A2"/>
<path d="M387.229 103.236C383.637 103.236 380.409 102.483 377.544 100.975C374.722 99.4676 372.499 97.314 370.874 94.5144C369.249 91.7148 368.437 88.4199 368.437 84.6296C368.437 80.8824 369.249 77.609 370.874 74.8094C372.541 72.0097 374.786 69.8562 377.608 68.3487C380.473 66.8412 383.701 66.0875 387.293 66.0875C390.885 66.0875 394.091 66.8412 396.914 68.3487C399.778 69.8562 402.023 72.0097 403.648 74.8094C405.316 77.609 406.149 80.8824 406.149 84.6296C406.149 88.3768 405.316 91.6717 403.648 94.5144C402.023 97.314 399.778 99.4676 396.914 100.975C394.049 102.483 390.82 103.236 387.229 103.236ZM387.229 92.2532C388.982 92.2532 390.436 91.6071 391.59 90.315C392.787 88.9798 393.386 87.0846 393.386 84.6296C393.386 82.1745 392.787 80.3009 391.59 79.0088C390.436 77.7167 389.003 77.0706 387.293 77.0706C385.583 77.0706 384.15 77.7167 382.996 79.0088C381.841 80.3009 381.264 82.1745 381.264 84.6296C381.264 87.1277 381.82 89.0228 382.932 90.315C384.043 91.6071 385.476 92.2532 387.229 92.2532Z" fill="#1D10A2"/>
<path d="M409.211 84.6296C409.211 80.8824 409.981 77.609 411.52 74.8094C413.06 72.0097 415.198 69.8562 417.934 68.3487C420.713 66.8412 423.877 66.0875 427.426 66.0875C432.001 66.0875 435.85 67.3581 438.971 69.8993C442.092 72.3974 444.102 75.9077 445 80.4301H431.659C430.89 78.0612 429.393 76.8768 427.17 76.8768C425.588 76.8768 424.326 77.5444 423.386 78.8796C422.488 80.1717 422.039 82.0884 422.039 84.6296C422.039 87.1708 422.488 89.109 423.386 90.4442C424.326 91.7794 425.588 92.447 427.17 92.447C429.436 92.447 430.933 91.2625 431.659 88.8936H445C444.102 93.373 442.092 96.8833 438.971 99.4245C435.85 101.966 432.001 103.236 427.426 103.236C423.877 103.236 420.713 102.483 417.934 100.975C415.198 99.4676 413.06 97.314 411.52 94.5144C409.981 91.7148 409.211 88.4199 409.211 84.6296Z" fill="#1D10A2"/>
<path d="M273.31 115.236V112.476L270.84 108.136H272.52L274.07 110.996L275.61 108.136H277.29L274.83 112.476V115.236H273.31ZM279.606 115.356C279.059 115.356 278.582 115.243 278.176 115.016C277.769 114.783 277.452 114.456 277.226 114.036C276.999 113.616 276.886 113.123 276.886 112.556C276.886 111.99 276.999 111.5 277.226 111.086C277.452 110.666 277.769 110.34 278.176 110.106C278.582 109.873 279.059 109.756 279.606 109.756C280.152 109.756 280.629 109.873 281.036 110.106C281.442 110.34 281.759 110.666 281.986 111.086C282.212 111.5 282.326 111.99 282.326 112.556C282.326 113.123 282.212 113.616 281.986 114.036C281.759 114.456 281.442 114.783 281.036 115.016C280.629 115.243 280.152 115.356 279.606 115.356ZM279.606 114.206C279.979 114.206 280.269 114.063 280.476 113.776C280.682 113.483 280.786 113.076 280.786 112.556C280.786 112.036 280.682 111.633 280.476 111.346C280.269 111.053 279.979 110.906 279.606 110.906C279.232 110.906 278.942 111.053 278.736 111.346C278.529 111.633 278.426 112.036 278.426 112.556C278.426 113.076 278.529 113.483 278.736 113.776C278.942 114.063 279.232 114.206 279.606 114.206ZM285.02 115.356C284.466 115.356 284.033 115.18 283.72 114.826C283.413 114.466 283.26 113.966 283.26 113.326V109.876H284.76V112.976C284.76 113.39 284.823 113.693 284.95 113.886C285.076 114.073 285.276 114.166 285.55 114.166C285.856 114.166 286.093 114.063 286.26 113.856C286.433 113.643 286.52 113.326 286.52 112.906V109.876H288.02V115.236H286.65L286.61 113.696L286.8 113.736C286.72 114.27 286.53 114.673 286.23 114.946C285.93 115.22 285.526 115.356 285.02 115.356ZM289.334 115.236V109.876H290.754L290.804 111.436L290.694 111.406C290.78 110.866 290.934 110.476 291.154 110.236C291.374 109.996 291.677 109.876 292.064 109.876H292.554V111.116H292.064C291.784 111.116 291.554 111.153 291.374 111.226C291.194 111.3 291.057 111.416 290.964 111.576C290.877 111.736 290.834 111.953 290.834 112.226V115.236H289.334ZM295.937 115.236V108.136H298.777C299.631 108.136 300.297 108.343 300.777 108.756C301.264 109.17 301.507 109.736 301.507 110.456C301.507 110.93 301.397 111.343 301.177 111.696C300.964 112.043 300.651 112.313 300.237 112.506C299.831 112.693 299.344 112.786 298.777 112.786H297.457V115.236H295.937ZM297.457 111.506H298.687C299.087 111.506 299.397 111.42 299.617 111.246C299.837 111.066 299.947 110.803 299.947 110.456C299.947 110.116 299.837 109.86 299.617 109.686C299.404 109.506 299.094 109.416 298.687 109.416H297.457V111.506ZM303.941 115.356C303.388 115.356 302.935 115.23 302.581 114.976C302.235 114.716 302.061 114.356 302.061 113.896C302.061 113.423 302.208 113.06 302.501 112.806C302.801 112.546 303.241 112.356 303.821 112.236L305.551 111.896C305.551 111.55 305.471 111.29 305.311 111.116C305.158 110.936 304.935 110.846 304.641 110.846C304.355 110.846 304.131 110.913 303.971 111.046C303.811 111.173 303.708 111.363 303.661 111.616L302.151 111.546C302.251 110.96 302.515 110.516 302.941 110.216C303.375 109.91 303.941 109.756 304.641 109.756C305.441 109.756 306.041 109.946 306.441 110.326C306.848 110.706 307.051 111.263 307.051 111.996V113.826C307.051 113.98 307.075 114.083 307.121 114.136C307.175 114.183 307.251 114.206 307.351 114.206H307.501V115.236C307.455 115.25 307.378 115.263 307.271 115.276C307.171 115.29 307.071 115.296 306.971 115.296C306.758 115.296 306.558 115.26 306.371 115.186C306.191 115.113 306.045 114.99 305.931 114.816C305.818 114.636 305.761 114.383 305.761 114.056L305.891 114.156C305.825 114.396 305.705 114.606 305.531 114.786C305.365 114.966 305.145 115.106 304.871 115.206C304.605 115.306 304.295 115.356 303.941 115.356ZM304.301 114.326C304.548 114.326 304.765 114.28 304.951 114.186C305.138 114.086 305.285 113.943 305.391 113.756C305.498 113.57 305.551 113.35 305.551 113.096V112.836L304.331 113.096C304.091 113.143 303.908 113.223 303.781 113.336C303.661 113.443 303.601 113.583 303.601 113.756C303.601 113.936 303.661 114.076 303.781 114.176C303.901 114.276 304.075 114.326 304.301 114.326ZM308.289 115.236V109.876H309.709L309.759 111.436L309.649 111.406C309.736 110.866 309.889 110.476 310.109 110.236C310.329 109.996 310.632 109.876 311.019 109.876H311.509V111.116H311.019C310.739 111.116 310.509 111.153 310.329 111.226C310.149 111.3 310.012 111.416 309.919 111.576C309.832 111.736 309.789 111.953 309.789 112.226V115.236H308.289ZM314.435 115.236C313.881 115.236 313.475 115.11 313.215 114.856C312.955 114.596 312.825 114.186 312.825 113.626V108.616H314.325V113.446C314.325 113.706 314.378 113.883 314.485 113.976C314.598 114.07 314.765 114.116 314.985 114.116H315.735V115.236H314.435ZM311.965 110.996V109.876H315.735V110.996H311.965ZM316.717 115.236V109.876H318.067L318.127 111.446L317.937 111.396C317.99 110.996 318.097 110.676 318.257 110.436C318.423 110.196 318.63 110.023 318.877 109.916C319.123 109.81 319.393 109.756 319.687 109.756C320.073 109.756 320.4 109.84 320.667 110.006C320.94 110.173 321.147 110.41 321.287 110.716C321.433 111.016 321.507 111.373 321.507 111.786V115.236H320.007V112.286C320.007 112 319.983 111.756 319.937 111.556C319.89 111.356 319.807 111.206 319.687 111.106C319.567 111 319.4 110.946 319.187 110.946C318.873 110.946 318.633 111.063 318.467 111.296C318.3 111.523 318.217 111.853 318.217 112.286V115.236H316.717ZM325.113 115.356C324.566 115.356 324.09 115.243 323.683 115.016C323.283 114.783 322.97 114.456 322.743 114.036C322.523 113.616 322.413 113.123 322.413 112.556C322.413 111.99 322.523 111.5 322.743 111.086C322.97 110.666 323.283 110.34 323.683 110.106C324.083 109.873 324.556 109.756 325.103 109.756C325.636 109.756 326.1 109.873 326.493 110.106C326.886 110.34 327.19 110.673 327.403 111.106C327.623 111.54 327.733 112.056 327.733 112.656V112.956H323.963C323.983 113.383 324.096 113.7 324.303 113.906C324.516 114.113 324.796 114.216 325.143 114.216C325.396 114.216 325.606 114.163 325.773 114.056C325.946 113.95 326.07 113.786 326.143 113.566L327.653 113.656C327.513 114.19 327.216 114.606 326.763 114.906C326.31 115.206 325.76 115.356 325.113 115.356ZM323.963 112.036H326.193C326.173 111.643 326.063 111.35 325.863 111.156C325.67 110.963 325.416 110.866 325.103 110.866C324.79 110.866 324.53 110.97 324.323 111.176C324.123 111.376 324.003 111.663 323.963 112.036ZM328.66 115.236V109.876H330.08L330.13 111.436L330.02 111.406C330.107 110.866 330.26 110.476 330.48 110.236C330.7 109.996 331.003 109.876 331.39 109.876H331.88V111.116H331.39C331.11 111.116 330.88 111.153 330.7 111.226C330.52 111.3 330.383 111.416 330.29 111.576C330.203 111.736 330.16 111.953 330.16 112.226V115.236H328.66ZM335.183 115.236V109.876H336.683V115.236H335.183ZM335.153 109.216V108.016H336.703V109.216H335.153ZM338.064 115.236V109.876H339.414L339.474 111.446L339.284 111.396C339.338 110.996 339.444 110.676 339.604 110.436C339.771 110.196 339.978 110.023 340.224 109.916C340.471 109.81 340.741 109.756 341.034 109.756C341.421 109.756 341.748 109.84 342.014 110.006C342.288 110.173 342.494 110.41 342.634 110.716C342.781 111.016 342.854 111.373 342.854 111.786V115.236H341.354V112.286C341.354 112 341.331 111.756 341.284 111.556C341.238 111.356 341.154 111.206 341.034 111.106C340.914 111 340.748 110.946 340.534 110.946C340.221 110.946 339.981 111.063 339.814 111.296C339.648 111.523 339.564 111.853 339.564 112.286V115.236H338.064ZM346.533 115.236V108.136H349.373C350.226 108.136 350.893 108.343 351.373 108.756C351.86 109.17 352.103 109.736 352.103 110.456C352.103 110.93 351.993 111.343 351.773 111.696C351.56 112.043 351.246 112.313 350.833 112.506C350.426 112.693 349.94 112.786 349.373 112.786H348.053V115.236H346.533ZM348.053 111.506H349.283C349.683 111.506 349.993 111.42 350.213 111.246C350.433 111.066 350.543 110.803 350.543 110.456C350.543 110.116 350.433 109.86 350.213 109.686C350 109.506 349.69 109.416 349.283 109.416H348.053V111.506ZM353.113 115.236V109.876H354.533L354.583 111.436L354.473 111.406C354.56 110.866 354.713 110.476 354.933 110.236C355.153 109.996 355.456 109.876 355.843 109.876H356.333V111.116H355.843C355.563 111.116 355.333 111.153 355.153 111.226C354.973 111.3 354.836 111.416 354.743 111.576C354.656 111.736 354.613 111.953 354.613 112.226V115.236H353.113ZM359.391 115.356C358.844 115.356 358.367 115.243 357.961 115.016C357.554 114.783 357.237 114.456 357.011 114.036C356.784 113.616 356.671 113.123 356.671 112.556C356.671 111.99 356.784 111.5 357.011 111.086C357.237 110.666 357.554 110.34 357.961 110.106C358.367 109.873 358.844 109.756 359.391 109.756C359.937 109.756 360.414 109.873 360.821 110.106C361.227 110.34 361.544 110.666 361.771 111.086C361.997 111.5 362.111 111.99 362.111 112.556C362.111 113.123 361.997 113.616 361.771 114.036C361.544 114.456 361.227 114.783 360.821 115.016C360.414 115.243 359.937 115.356 359.391 115.356ZM359.391 114.206C359.764 114.206 360.054 114.063 360.261 113.776C360.467 113.483 360.571 113.076 360.571 112.556C360.571 112.036 360.467 111.633 360.261 111.346C360.054 111.053 359.764 110.906 359.391 110.906C359.017 110.906 358.727 111.053 358.521 111.346C358.314 111.633 358.211 112.036 358.211 112.556C358.211 113.076 358.314 113.483 358.521 113.776C358.727 114.063 359.017 114.206 359.391 114.206ZM365.475 115.356C364.928 115.356 364.451 115.243 364.045 115.016C363.638 114.783 363.321 114.456 363.095 114.036C362.868 113.616 362.755 113.123 362.755 112.556C362.755 111.99 362.868 111.5 363.095 111.086C363.321 110.666 363.638 110.34 364.045 110.106C364.451 109.873 364.928 109.756 365.475 109.756C365.948 109.756 366.371 109.84 366.745 110.006C367.125 110.173 367.431 110.413 367.665 110.726C367.898 111.04 368.041 111.416 368.095 111.856L366.545 111.926C366.498 111.593 366.378 111.343 366.185 111.176C365.998 111.003 365.761 110.916 365.475 110.916C365.101 110.916 364.811 111.06 364.605 111.346C364.398 111.633 364.295 112.036 364.295 112.556C364.295 113.076 364.398 113.483 364.605 113.776C364.811 114.063 365.101 114.206 365.475 114.206C365.761 114.206 366.001 114.12 366.195 113.946C366.388 113.766 366.505 113.496 366.545 113.136L368.095 113.196C368.048 113.636 367.908 114.02 367.675 114.346C367.448 114.666 367.145 114.916 366.765 115.096C366.391 115.27 365.961 115.356 365.475 115.356ZM370.684 115.356C370.13 115.356 369.697 115.18 369.384 114.826C369.077 114.466 368.924 113.966 368.924 113.326V109.876H370.424V112.976C370.424 113.39 370.487 113.693 370.614 113.886C370.74 114.073 370.94 114.166 371.214 114.166C371.52 114.166 371.757 114.063 371.924 113.856C372.097 113.643 372.184 113.326 372.184 112.906V109.876H373.684V115.236H372.314L372.274 113.696L372.464 113.736C372.384 114.27 372.194 114.673 371.894 114.946C371.594 115.22 371.19 115.356 370.684 115.356ZM374.998 115.236V109.876H376.418L376.468 111.436L376.358 111.406C376.445 110.866 376.598 110.476 376.818 110.236C377.038 109.996 377.341 109.876 377.728 109.876H378.218V111.116H377.728C377.448 111.116 377.218 111.153 377.038 111.226C376.858 111.3 376.721 111.416 376.628 111.576C376.541 111.736 376.498 111.953 376.498 112.226V115.236H374.998ZM381.256 115.356C380.709 115.356 380.232 115.243 379.826 115.016C379.426 114.783 379.112 114.456 378.886 114.036C378.666 113.616 378.556 113.123 378.556 112.556C378.556 111.99 378.666 111.5 378.886 111.086C379.112 110.666 379.426 110.34 379.826 110.106C380.226 109.873 380.699 109.756 381.246 109.756C381.779 109.756 382.242 109.873 382.636 110.106C383.029 110.34 383.332 110.673 383.546 111.106C383.766 111.54 383.876 112.056 383.876 112.656V112.956H380.106C380.126 113.383 380.239 113.7 380.446 113.906C380.659 114.113 380.939 114.216 381.286 114.216C381.539 114.216 381.749 114.163 381.916 114.056C382.089 113.95 382.212 113.786 382.286 113.566L383.796 113.656C383.656 114.19 383.359 114.606 382.906 114.906C382.452 115.206 381.902 115.356 381.256 115.356ZM380.106 112.036H382.336C382.316 111.643 382.206 111.35 382.006 111.156C381.812 110.963 381.559 110.866 381.246 110.866C380.932 110.866 380.672 110.97 380.466 111.176C380.266 111.376 380.146 111.663 380.106 112.036ZM384.803 115.236V109.876H386.153L386.203 111.166L386.063 111.106C386.136 110.82 386.246 110.576 386.393 110.376C386.546 110.176 386.729 110.023 386.943 109.916C387.156 109.81 387.389 109.756 387.643 109.756C388.089 109.756 388.449 109.886 388.723 110.146C389.003 110.406 389.183 110.756 389.263 111.196L389.073 111.206C389.133 110.893 389.236 110.63 389.383 110.416C389.536 110.196 389.723 110.033 389.943 109.926C390.163 109.813 390.409 109.756 390.683 109.756C391.056 109.756 391.376 109.833 391.643 109.986C391.909 110.14 392.116 110.37 392.263 110.676C392.409 110.976 392.483 111.346 392.483 111.786V115.236H390.983V112.206C390.983 111.786 390.919 111.473 390.793 111.266C390.666 111.053 390.459 110.946 390.173 110.946C389.993 110.946 389.839 110.996 389.713 111.096C389.586 111.196 389.486 111.343 389.413 111.536C389.346 111.723 389.313 111.953 389.313 112.226V115.236H387.963V112.226C387.963 111.813 387.903 111.496 387.783 111.276C387.663 111.056 387.456 110.946 387.163 110.946C386.983 110.946 386.826 110.996 386.693 111.096C386.566 111.196 386.469 111.343 386.403 111.536C386.336 111.73 386.303 111.96 386.303 112.226V115.236H384.803ZM396.09 115.356C395.543 115.356 395.066 115.243 394.66 115.016C394.26 114.783 393.946 114.456 393.72 114.036C393.5 113.616 393.39 113.123 393.39 112.556C393.39 111.99 393.5 111.5 393.72 111.086C393.946 110.666 394.26 110.34 394.66 110.106C395.06 109.873 395.533 109.756 396.08 109.756C396.613 109.756 397.076 109.873 397.47 110.106C397.863 110.34 398.166 110.673 398.38 111.106C398.6 111.54 398.71 112.056 398.71 112.656V112.956H394.94C394.96 113.383 395.073 113.7 395.28 113.906C395.493 114.113 395.773 114.216 396.12 114.216C396.373 114.216 396.583 114.163 396.75 114.056C396.923 113.95 397.046 113.786 397.12 113.566L398.63 113.656C398.49 114.19 398.193 114.606 397.74 114.906C397.286 115.206 396.736 115.356 396.09 115.356ZM394.94 112.036H397.17C397.15 111.643 397.04 111.35 396.84 111.156C396.646 110.963 396.393 110.866 396.08 110.866C395.766 110.866 395.506 110.97 395.3 111.176C395.1 111.376 394.98 111.663 394.94 112.036ZM399.637 115.236V109.876H400.987L401.047 111.446L400.857 111.396C400.91 110.996 401.017 110.676 401.177 110.436C401.343 110.196 401.55 110.023 401.797 109.916C402.043 109.81 402.313 109.756 402.607 109.756C402.993 109.756 403.32 109.84 403.587 110.006C403.86 110.173 404.067 110.41 404.207 110.716C404.353 111.016 404.427 111.373 404.427 111.786V115.236H402.927V112.286C402.927 112 402.903 111.756 402.857 111.556C402.81 111.356 402.727 111.206 402.607 111.106C402.487 111 402.32 110.946 402.107 110.946C401.793 110.946 401.553 111.063 401.387 111.296C401.22 111.523 401.137 111.853 401.137 112.286V115.236H399.637ZM407.618 115.236C407.065 115.236 406.658 115.11 406.398 114.856C406.138 114.596 406.008 114.186 406.008 113.626V108.616H407.508V113.446C407.508 113.706 407.562 113.883 407.668 113.976C407.782 114.07 407.948 114.116 408.168 114.116H408.918V115.236H407.618ZM405.148 110.996V109.876H408.918V110.996H405.148ZM412.207 115.236V108.136H417.147V109.416H413.727V111.046H417.027V112.306H413.727V113.956H417.227V115.236H412.207ZM417.845 115.236L419.755 112.516L417.895 109.876H419.485L420.635 111.596L421.745 109.876H423.375L421.525 112.526L423.425 115.236H421.835L420.655 113.416L419.465 115.236H417.845ZM426.344 115.356C425.797 115.356 425.321 115.243 424.914 115.016C424.507 114.783 424.191 114.456 423.964 114.036C423.737 113.616 423.624 113.123 423.624 112.556C423.624 111.99 423.737 111.5 423.964 111.086C424.191 110.666 424.507 110.34 424.914 110.106C425.321 109.873 425.797 109.756 426.344 109.756C426.817 109.756 427.241 109.84 427.614 110.006C427.994 110.173 428.301 110.413 428.534 110.726C428.767 111.04 428.911 111.416 428.964 111.856L427.414 111.926C427.367 111.593 427.247 111.343 427.054 111.176C426.867 111.003 426.631 110.916 426.344 110.916C425.971 110.916 425.681 111.06 425.474 111.346C425.267 111.633 425.164 112.036 425.164 112.556C425.164 113.076 425.267 113.483 425.474 113.776C425.681 114.063 425.971 114.206 426.344 114.206C426.631 114.206 426.871 114.12 427.064 113.946C427.257 113.766 427.374 113.496 427.414 113.136L428.964 113.196C428.917 113.636 428.777 114.02 428.544 114.346C428.317 114.666 428.014 114.916 427.634 115.096C427.261 115.27 426.831 115.356 426.344 115.356ZM432.203 115.356C431.656 115.356 431.179 115.243 430.773 115.016C430.373 114.783 430.059 114.456 429.833 114.036C429.613 113.616 429.503 113.123 429.503 112.556C429.503 111.99 429.613 111.5 429.833 111.086C430.059 110.666 430.373 110.34 430.773 110.106C431.173 109.873 431.646 109.756 432.193 109.756C432.726 109.756 433.189 109.873 433.583 110.106C433.976 110.34 434.279 110.673 434.493 111.106C434.713 111.54 434.823 112.056 434.823 112.656V112.956H431.053C431.073 113.383 431.186 113.7 431.393 113.906C431.606 114.113 431.886 114.216 432.233 114.216C432.486 114.216 432.696 114.163 432.863 114.056C433.036 113.95 433.159 113.786 433.233 113.566L434.743 113.656C434.603 114.19 434.306 114.606 433.853 114.906C433.399 115.206 432.849 115.356 432.203 115.356ZM431.053 112.036H433.283C433.263 111.643 433.153 111.35 432.953 111.156C432.759 110.963 432.506 110.866 432.193 110.866C431.879 110.866 431.619 110.97 431.413 111.176C431.213 111.376 431.093 111.663 431.053 112.036ZM437.199 115.236C436.759 115.236 436.415 115.126 436.169 114.906C435.922 114.686 435.799 114.33 435.799 113.836V108.136H437.299V113.676C437.299 113.836 437.335 113.95 437.409 114.016C437.482 114.083 437.589 114.116 437.729 114.116H438.089V115.236H437.199ZM440.236 115.236C439.796 115.236 439.452 115.126 439.206 114.906C438.959 114.686 438.836 114.33 438.836 113.836V108.136H440.336V113.676C440.336 113.836 440.372 113.95 440.446 114.016C440.519 114.083 440.626 114.116 440.766 114.116H441.126V115.236H440.236ZM444.283 115.356C443.736 115.356 443.26 115.243 442.853 115.016C442.453 114.783 442.14 114.456 441.913 114.036C441.693 113.616 441.583 113.123 441.583 112.556C441.583 111.99 441.693 111.5 441.913 111.086C442.14 110.666 442.453 110.34 442.853 110.106C443.253 109.873 443.726 109.756 444.273 109.756C444.806 109.756 445.27 109.873 445.663 110.106C446.056 110.34 446.36 110.673 446.573 111.106C446.793 111.54 446.903 112.056 446.903 112.656V112.956H443.133C443.153 113.383 443.266 113.7 443.473 113.906C443.686 114.113 443.966 114.216 444.313 114.216C444.566 114.216 444.776 114.163 444.943 114.056C445.116 113.95 445.24 113.786 445.313 113.566L446.823 113.656C446.683 114.19 446.386 114.606 445.933 114.906C445.48 115.206 444.93 115.356 444.283 115.356ZM443.133 112.036H445.363C445.343 111.643 445.233 111.35 445.033 111.156C444.84 110.963 444.586 110.866 444.273 110.866C443.96 110.866 443.7 110.97 443.493 111.176C443.293 111.376 443.173 111.663 443.133 112.036ZM447.83 115.236V109.876H449.18L449.24 111.446L449.05 111.396C449.103 110.996 449.21 110.676 449.37 110.436C449.537 110.196 449.743 110.023 449.99 109.916C450.237 109.81 450.507 109.756 450.8 109.756C451.187 109.756 451.513 109.84 451.78 110.006C452.053 110.173 452.26 110.41 452.4 110.716C452.547 111.016 452.62 111.373 452.62 111.786V115.236H451.12V112.286C451.12 112 451.097 111.756 451.05 111.556C451.003 111.356 450.92 111.206 450.8 111.106C450.68 111 450.513 110.946 450.3 110.946C449.987 110.946 449.747 111.063 449.58 111.296C449.413 111.523 449.33 111.853 449.33 112.286V115.236H447.83ZM456.246 115.356C455.7 115.356 455.223 115.243 454.816 115.016C454.41 114.783 454.093 114.456 453.866 114.036C453.64 113.616 453.526 113.123 453.526 112.556C453.526 111.99 453.64 111.5 453.866 111.086C454.093 110.666 454.41 110.34 454.816 110.106C455.223 109.873 455.7 109.756 456.246 109.756C456.72 109.756 457.143 109.84 457.516 110.006C457.896 110.173 458.203 110.413 458.436 110.726C458.67 111.04 458.813 111.416 458.866 111.856L457.316 111.926C457.27 111.593 457.15 111.343 456.956 111.176C456.77 111.003 456.533 110.916 456.246 110.916C455.873 110.916 455.583 111.06 455.376 111.346C455.17 111.633 455.066 112.036 455.066 112.556C455.066 113.076 455.17 113.483 455.376 113.776C455.583 114.063 455.873 114.206 456.246 114.206C456.533 114.206 456.773 114.12 456.966 113.946C457.16 113.766 457.276 113.496 457.316 113.136L458.866 113.196C458.82 113.636 458.68 114.02 458.446 114.346C458.22 114.666 457.916 114.916 457.536 115.096C457.163 115.27 456.733 115.356 456.246 115.356ZM462.105 115.356C461.558 115.356 461.082 115.243 460.675 115.016C460.275 114.783 459.962 114.456 459.735 114.036C459.515 113.616 459.405 113.123 459.405 112.556C459.405 111.99 459.515 111.5 459.735 111.086C459.962 110.666 460.275 110.34 460.675 110.106C461.075 109.873 461.548 109.756 462.095 109.756C462.628 109.756 463.092 109.873 463.485 110.106C463.878 110.34 464.182 110.673 464.395 111.106C464.615 111.54 464.725 112.056 464.725 112.656V112.956H460.955C460.975 113.383 461.088 113.7 461.295 113.906C461.508 114.113 461.788 114.216 462.135 114.216C462.388 114.216 462.598 114.163 462.765 114.056C462.938 113.95 463.062 113.786 463.135 113.566L464.645 113.656C464.505 114.19 464.208 114.606 463.755 114.906C463.302 115.206 462.752 115.356 462.105 115.356ZM460.955 112.036H463.185C463.165 111.643 463.055 111.35 462.855 111.156C462.662 110.963 462.408 110.866 462.095 110.866C461.782 110.866 461.522 110.97 461.315 111.176C461.115 111.376 460.995 111.663 460.955 112.036Z" fill="#4DB151"/>
<defs>
<linearGradient id="paint0_linear_7726_45220" x1="417.821" y1="530.001" x2="417.821" y2="535.501" gradientUnits="userSpaceOnUse">
<stop stop-color="#171891"/>
<stop offset="1" stop-color="#4FA94E"/>
</linearGradient>
</defs>
</svg>
