<svg width="48" height="48" viewBox="0 0 48 48" fill="none" xmlns="http://www.w3.org/2000/svg">
<rect width="48" height="48" rx="24" fill="#E0EAFF"/>
<path d="M24 17C23.0717 17 22.1815 17.3687 21.5251 18.0251C20.8687 18.6815 20.5 19.5717 20.5 20.5C20.5 21.4283 20.8687 22.3185 21.5251 22.9749C22.1815 23.6313 23.0717 24 24 24C24.9283 24 25.8185 23.6313 26.4749 22.9749C27.1313 22.3185 27.5 21.4283 27.5 20.5C27.5 19.5717 27.1313 18.6815 26.4749 18.0251C25.8185 17.3687 24.9283 17 24 17ZM24 19C24.3978 19 24.7794 19.158 25.0607 19.4393C25.342 19.7206 25.5 20.1022 25.5 20.5C25.5 20.8978 25.342 21.2794 25.0607 21.5607C24.7794 21.842 24.3978 22 24 22C23.6022 22 23.2206 21.842 22.9393 21.5607C22.658 21.2794 22.5 20.8978 22.5 20.5C22.5 20.1022 22.658 19.7206 22.9393 19.4393C23.2206 19.158 23.6022 19 24 19ZM17.5 20C16.837 20 16.2011 20.2634 15.7322 20.7322C15.2634 21.2011 15 21.837 15 22.5C15 23.44 15.53 24.25 16.29 24.68C16.65 24.88 17.06 25 17.5 25C17.94 25 18.35 24.88 18.71 24.68C19.08 24.47 19.39 24.17 19.62 23.81C18.89 22.86 18.5 21.7 18.5 20.5C18.5 20.41 18.5 20.31 18.5 20.22C18.2 20.08 17.86 20 17.5 20ZM30.5 20C30.14 20 29.8 20.08 29.5 20.22C29.5 20.31 29.5 20.41 29.5 20.5C29.5 21.7 29.11 22.86 28.38 23.81C28.5 24 28.63 24.15 28.78 24.3C28.94 24.45 29.1 24.58 29.29 24.68C29.65 24.88 30.06 25 30.5 25C30.94 25 31.35 24.88 31.71 24.68C32.47 24.25 33 23.44 33 22.5C33 21.837 32.7366 21.2011 32.2678 20.7322C31.7989 20.2634 31.163 20 30.5 20ZM24 26C21.66 26 17 27.17 17 29.5V31H31V29.5C31 27.17 26.34 26 24 26ZM16.71 26.55C14.78 26.78 12 27.76 12 29.5V31H15V29.07C15 28.06 15.69 27.22 16.71 26.55ZM31.29 26.55C32.31 27.22 33 28.06 33 29.07V31H36V29.5C36 27.76 33.22 26.78 31.29 26.55ZM24 28C25.53 28 27.24 28.5 28.23 29H19.77C20.76 28.5 22.47 28 24 28Z" fill="#444CE7"/>
</svg>
