<svg width="19" height="16" viewBox="0 0 19 16" fill="none" xmlns="http://www.w3.org/2000/svg">
<path d="M11.2497 4.66667H9.99967V8.83333L13.5663 10.95L14.1663 9.94167L11.2497 8.20833V4.66667ZM10.833 0.5C8.84388 0.5 6.93623 1.29018 5.52971 2.6967C4.12318 4.10322 3.33301 6.01088 3.33301 8H0.833008L4.13301 11.3583L7.49967 8H4.99967C4.99967 6.4529 5.61426 4.96917 6.70822 3.87521C7.80218 2.78125 9.28591 2.16667 10.833 2.16667C12.3801 2.16667 13.8638 2.78125 14.9578 3.87521C16.0518 4.96917 16.6663 6.4529 16.6663 8C16.6663 9.5471 16.0518 11.0308 14.9578 12.1248C13.8638 13.2188 12.3801 13.8333 10.833 13.8333C9.22467 13.8333 7.76634 13.175 6.71634 12.1167L5.53301 13.3C6.89134 14.6667 8.74967 15.5 10.833 15.5C12.8221 15.5 14.7298 14.7098 16.1363 13.3033C17.5428 11.8968 18.333 9.98912 18.333 8C18.333 6.01088 17.5428 4.10322 16.1363 2.6967C14.7298 1.29018 12.8221 0.5 10.833 0.5Z" fill="white"/>
</svg>