<svg width="14" height="18" viewBox="0 0 14 18" fill="none" xmlns="http://www.w3.org/2000/svg">
<path d="M8.91665 0.666016H2.24998C1.32498 0.666016 0.583313 1.41602 0.583313 2.33268V15.666C0.583313 16.591 1.32498 17.3327 2.24998 17.3327H12.25C13.175 17.3327 13.9166 16.591 13.9166 15.666V5.66602L8.91665 0.666016ZM12.25 15.666H2.24998V2.33268H8.08331V6.49935H12.25V15.666ZM8.08331 9.83268C8.08331 10.7493 7.33331 11.4993 6.41665 11.4993C5.49998 11.4993 4.74998 10.7493 4.74998 9.83268C4.74998 8.91602 5.49998 8.16602 6.41665 8.16602C7.33331 8.16602 8.08331 8.91602 8.08331 9.83268ZM9.74998 13.9993V14.8327H3.08331V13.9993C3.08331 12.891 5.30831 12.3327 6.41665 12.3327C7.52498 12.3327 9.74998 12.891 9.74998 13.9993Z" fill="white"/>
</svg>