<svg width="19" height="16" viewBox="0 0 19 16" fill="none" xmlns="http://www.w3.org/2000/svg">
<path d="M11.25 4.66667H10V8.83333L13.5667 10.95L14.1667 9.94167L11.25 8.20833V4.66667ZM10.8333 0.5C8.84421 0.5 6.93655 1.29018 5.53003 2.6967C4.12351 4.10322 3.33333 6.01088 3.33333 8H0.833333L4.13333 11.3583L7.5 8H5C5 6.4529 5.61458 4.96917 6.70854 3.87521C7.80251 2.78125 9.28624 2.16667 10.8333 2.16667C12.3804 2.16667 13.8642 2.78125 14.9581 3.87521C16.0521 4.96917 16.6667 6.4529 16.6667 8C16.6667 9.5471 16.0521 11.0308 14.9581 12.1248C13.8642 13.2188 12.3804 13.8333 10.8333 13.8333C9.225 13.8333 7.76667 13.175 6.71667 12.1167L5.53333 13.3C6.89167 14.6667 8.75 15.5 10.8333 15.5C12.8225 15.5 14.7301 14.7098 16.1366 13.3033C17.5432 11.8968 18.3333 9.98912 18.3333 8C18.3333 6.01088 17.5432 4.10322 16.1366 2.6967C14.7301 1.29018 12.8225 0.5 10.8333 0.5Z" fill="#202124"/>
</svg>
