<svg width="14" height="18" viewBox="0 0 14 18" fill="none" xmlns="http://www.w3.org/2000/svg">
<path d="M8.91658 0.666016H2.24992C1.32492 0.666016 0.583252 1.41602 0.583252 2.33268V15.666C0.583252 16.591 1.32492 17.3327 2.24992 17.3327H12.2499C13.1749 17.3327 13.9166 16.591 13.9166 15.666V5.66602L8.91658 0.666016ZM12.2499 15.666H2.24992V2.33268H8.08325V6.49935H12.2499V15.666ZM8.08325 9.83268C8.08325 10.7493 7.33325 11.4993 6.41658 11.4993C5.49992 11.4993 4.74992 10.7493 4.74992 9.83268C4.74992 8.91602 5.49992 8.16602 6.41658 8.16602C7.33325 8.16602 8.08325 8.91602 8.08325 9.83268ZM9.74992 13.9993V14.8327H3.08325V13.9993C3.08325 12.891 5.30825 12.3327 6.41658 12.3327C7.52492 12.3327 9.74992 12.891 9.74992 13.9993Z" fill="#202124"/>
</svg>
