<svg width="132" height="60" viewBox="0 0 132 60" fill="none" xmlns="http://www.w3.org/2000/svg">
<g filter="url(#filter0_diii_11782_67473)">
<rect x="10" y="9" width="112" height="40" rx="20" fill="url(#paint0_linear_11782_67473)" shape-rendering="crispEdges"/>
<rect x="10.5" y="9.5" width="111" height="39" rx="19.5" stroke="url(#paint1_linear_11782_67473)" shape-rendering="crispEdges"/>
<rect x="23" y="13" width="86" height="18" rx="9" fill="url(#paint2_linear_11782_67473)" fill-opacity="0.5"/>
<path d="M48 20.6666C46.9057 20.6666 45.822 20.8822 44.811 21.301C43.7999 21.7198 42.8813 22.3336 42.1074 23.1074C40.5446 24.6702 39.6667 26.7898 39.6667 29C39.6667 31.2101 40.5446 33.3297 42.1074 34.8925C42.8813 35.6663 43.7999 36.2802 44.811 36.699C45.822 37.1177 46.9057 37.3333 48 37.3333C50.2101 37.3333 52.3298 36.4553 53.8926 34.8925C55.4554 33.3297 56.3333 31.2101 56.3333 29C56.3333 27.9056 56.1178 26.822 55.699 25.8109C55.2802 24.7999 54.6664 23.8812 53.8926 23.1074C53.1187 22.3336 52.2001 21.7198 51.189 21.301C50.178 20.8822 49.0944 20.6666 48 20.6666ZM48 22.3333C51.675 22.3333 54.6667 25.325 54.6667 29C54.6667 32.675 51.675 35.6666 48 35.6666C44.325 35.6666 41.3333 32.675 41.3333 29C41.3333 25.325 44.325 22.3333 48 22.3333ZM45.5 26.5V31.5H50.5V26.5" fill="#25009D"/>
<path d="M63.12 34V24.06H64.94V28.806L64.1 28.204H69.952L69.126 28.806V24.06H70.946V34H69.126V29.198L69.952 29.786H64.1L64.94 29.198V34H63.12ZM76.1538 34.168C75.4164 34.168 74.7678 34.0093 74.2078 33.692C73.6571 33.3653 73.2278 32.908 72.9198 32.32C72.6211 31.732 72.4718 31.046 72.4718 30.262C72.4718 29.4687 72.6211 28.7827 72.9198 28.204C73.2278 27.616 73.6571 27.1633 74.2078 26.846C74.7678 26.5193 75.4164 26.356 76.1538 26.356C76.8911 26.356 77.5351 26.5193 78.0858 26.846C78.6364 27.1633 79.0611 27.616 79.3598 28.204C79.6678 28.7827 79.8218 29.4687 79.8218 30.262C79.8218 31.046 79.6678 31.732 79.3598 32.32C79.0611 32.908 78.6364 33.3653 78.0858 33.692C77.5351 34.0093 76.8911 34.168 76.1538 34.168ZM76.1538 32.712C76.7324 32.712 77.1758 32.4973 77.4838 32.068C77.8011 31.6387 77.9598 31.0367 77.9598 30.262C77.9598 29.4967 77.8011 28.8993 77.4838 28.47C77.1758 28.0313 76.7324 27.812 76.1538 27.812C75.5751 27.812 75.1271 28.0313 74.8098 28.47C74.4924 28.8993 74.3338 29.4967 74.3338 30.262C74.3338 31.0367 74.4924 31.6387 74.8098 32.068C75.1271 32.4973 75.5751 32.712 76.1538 32.712ZM83.065 34C82.5236 34 82.0896 33.86 81.763 33.58C81.4363 33.3 81.273 32.852 81.273 32.236V24.06H83.065V32.054C83.065 32.2407 83.1116 32.3807 83.205 32.474C83.3076 32.5673 83.4476 32.614 83.625 32.614H84.171V34H83.065ZM87.9798 34.168C87.3452 34.168 86.7945 34.0093 86.3278 33.692C85.8705 33.3747 85.5158 32.922 85.2638 32.334C85.0118 31.746 84.8858 31.0553 84.8858 30.262C84.8858 29.4687 85.0118 28.778 85.2638 28.19C85.5158 27.602 85.8752 27.1493 86.3418 26.832C86.8085 26.5147 87.3545 26.356 87.9798 26.356C88.5025 26.356 88.9598 26.4633 89.3518 26.678C89.7532 26.8927 90.0565 27.196 90.2618 27.588V24.06H92.0538V34H90.3458L90.3038 32.894C90.0985 33.2953 89.7905 33.608 89.3798 33.832C88.9692 34.056 88.5025 34.168 87.9798 34.168ZM88.5258 32.712C88.8992 32.712 89.2118 32.6187 89.4638 32.432C89.7252 32.2453 89.9212 31.97 90.0518 31.606C90.1918 31.2327 90.2618 30.7847 90.2618 30.262C90.2618 29.73 90.1918 29.282 90.0518 28.918C89.9212 28.554 89.7252 28.2787 89.4638 28.092C89.2118 27.9053 88.8992 27.812 88.5258 27.812C87.9845 27.812 87.5505 28.0313 87.2238 28.47C86.9065 28.8993 86.7478 29.4967 86.7478 30.262C86.7478 31.0087 86.9065 31.606 87.2238 32.054C87.5505 32.4927 87.9845 32.712 88.5258 32.712Z" fill="#25009D"/>
</g>
<defs>
<filter id="filter0_diii_11782_67473" x="0" y="0" width="132" height="60" filterUnits="userSpaceOnUse" color-interpolation-filters="sRGB">
<feFlood flood-opacity="0" result="BackgroundImageFix"/>
<feColorMatrix in="SourceAlpha" type="matrix" values="0 0 0 0 0 0 0 0 0 0 0 0 0 0 0 0 0 0 127 0" result="hardAlpha"/>
<feOffset dy="1"/>
<feGaussianBlur stdDeviation="5"/>
<feComposite in2="hardAlpha" operator="out"/>
<feColorMatrix type="matrix" values="0 0 0 0 0 0 0 0 0 0 0 0 0 0 0 0 0 0 0.15 0"/>
<feBlend mode="normal" in2="BackgroundImageFix" result="effect1_dropShadow_11782_67473"/>
<feBlend mode="normal" in="SourceGraphic" in2="effect1_dropShadow_11782_67473" result="shape"/>
<feColorMatrix in="SourceAlpha" type="matrix" values="0 0 0 0 0 0 0 0 0 0 0 0 0 0 0 0 0 0 127 0" result="hardAlpha"/>
<feOffset dy="-4"/>
<feGaussianBlur stdDeviation="8"/>
<feComposite in2="hardAlpha" operator="arithmetic" k2="-1" k3="1"/>
<feColorMatrix type="matrix" values="0 0 0 0 0.956863 0 0 0 0 0.956863 0 0 0 0 0.956863 0 0 0 0.3 0"/>
<feBlend mode="normal" in2="shape" result="effect2_innerShadow_11782_67473"/>
<feColorMatrix in="SourceAlpha" type="matrix" values="0 0 0 0 0 0 0 0 0 0 0 0 0 0 0 0 0 0 127 0" result="hardAlpha"/>
<feOffset dy="-2"/>
<feGaussianBlur stdDeviation="3"/>
<feComposite in2="hardAlpha" operator="arithmetic" k2="-1" k3="1"/>
<feColorMatrix type="matrix" values="0 0 0 0 0.564746 0 0 0 0 0.564746 0 0 0 0 0.564746 0 0 0 0.75 0"/>
<feBlend mode="normal" in2="effect2_innerShadow_11782_67473" result="effect3_innerShadow_11782_67473"/>
<feColorMatrix in="SourceAlpha" type="matrix" values="0 0 0 0 0 0 0 0 0 0 0 0 0 0 0 0 0 0 127 0" result="hardAlpha"/>
<feOffset dy="-3"/>
<feComposite in2="hardAlpha" operator="arithmetic" k2="-1" k3="1"/>
<feColorMatrix type="matrix" values="0 0 0 0 0.956863 0 0 0 0 0.956863 0 0 0 0 0.956863 0 0 0 0.18 0"/>
<feBlend mode="normal" in2="effect3_innerShadow_11782_67473" result="effect4_innerShadow_11782_67473"/>
</filter>
<linearGradient id="paint0_linear_11782_67473" x1="66" y1="9" x2="66" y2="49" gradientUnits="userSpaceOnUse">
<stop stop-color="#A9ABAE"/>
<stop offset="1" stop-color="#BCC0CB"/>
</linearGradient>
<linearGradient id="paint1_linear_11782_67473" x1="66" y1="9" x2="66" y2="49" gradientUnits="userSpaceOnUse">
<stop stop-color="#F4F4F4"/>
<stop offset="1" stop-color="#F4F4F4"/>
</linearGradient>
<linearGradient id="paint2_linear_11782_67473" x1="66" y1="13" x2="66" y2="27.8232" gradientUnits="userSpaceOnUse">
<stop offset="0.0001" stop-color="white" stop-opacity="0.74"/>
<stop offset="1" stop-color="white" stop-opacity="0"/>
</linearGradient>
</defs>
</svg>
