<svg width="18" height="18" viewBox="0 0 18 18" fill="none" xmlns="http://www.w3.org/2000/svg">
<path d="M9.00001 0.666626C7.90566 0.666626 6.82202 0.882174 5.81098 1.30096C4.79993 1.71975 3.88127 2.33358 3.10745 3.1074C1.54465 4.67021 0.666672 6.78982 0.666672 8.99996C0.666672 11.2101 1.54465 13.3297 3.10745 14.8925C3.88127 15.6663 4.79993 16.2802 5.81098 16.699C6.82202 17.1177 7.90566 17.3333 9.00001 17.3333C11.2101 17.3333 13.3298 16.4553 14.8926 14.8925C16.4554 13.3297 17.3333 11.2101 17.3333 8.99996C17.3333 7.90561 17.1178 6.82198 16.699 5.81093C16.2802 4.79988 15.6664 3.88122 14.8926 3.1074C14.1187 2.33358 13.2001 1.71975 12.189 1.30096C11.178 0.882174 10.0944 0.666626 9.00001 0.666626ZM9.00001 2.33329C12.675 2.33329 15.6667 5.32496 15.6667 8.99996C15.6667 12.675 12.675 15.6666 9.00001 15.6666C5.32501 15.6666 2.33334 12.675 2.33334 8.99996C2.33334 5.32496 5.32501 2.33329 9.00001 2.33329ZM6.50001 6.49996V11.5H11.5V6.49996" fill="#202124"/>
</svg>
