<svg width="16" height="16" viewBox="0 0 16 16" fill="none" xmlns="http://www.w3.org/2000/svg">
<path d="M2.16667 10.5H0.5V13.8333C0.5 14.2754 0.675595 14.6993 0.988155 15.0118C1.30072 15.3244 1.72464 15.5 2.16667 15.5H5.5V13.8333H2.16667M2.16667 2.16667H5.5V0.5H2.16667C1.72464 0.5 1.30072 0.675595 0.988155 0.988155C0.675595 1.30072 0.5 1.72464 0.5 2.16667V5.5H2.16667M13.8333 0.5H10.5V2.16667H13.8333V5.5H15.5V2.16667C15.5 1.72464 15.3244 1.30072 15.0118 0.988155C14.6993 0.675595 14.2754 0.5 13.8333 0.5ZM13.8333 13.8333H10.5V15.5H13.8333C14.2754 15.5 14.6993 15.3244 15.0118 15.0118C15.3244 14.6993 15.5 14.2754 15.5 13.8333V10.5H13.8333M8 4.66667C7.11594 4.66667 6.2681 5.01786 5.64298 5.64298C5.01786 6.2681 4.66667 7.11594 4.66667 8C4.66667 8.88406 5.01786 9.7319 5.64298 10.357C6.2681 10.9821 7.11594 11.3333 8 11.3333C8.88406 11.3333 9.7319 10.9821 10.357 10.357C10.9821 9.7319 11.3333 8.88406 11.3333 8C11.3333 7.11594 10.9821 6.2681 10.357 5.64298C9.7319 5.01786 8.88406 4.66667 8 4.66667ZM8 9.66667C7.55797 9.66667 7.13405 9.49107 6.82149 9.17851C6.50893 8.86595 6.33333 8.44203 6.33333 8C6.33333 7.55797 6.50893 7.13405 6.82149 6.82149C7.13405 6.50893 7.55797 6.33333 8 6.33333C8.44203 6.33333 8.86595 6.50893 9.17851 6.82149C9.49107 7.13405 9.66667 7.55797 9.66667 8C9.66667 8.44203 9.49107 8.86595 9.17851 9.17851C8.86595 9.49107 8.44203 9.66667 8 9.66667Z" fill="#25009D"/>
</svg>
