<svg width="16" height="14" viewBox="0 0 16 14" fill="none" xmlns="http://www.w3.org/2000/svg">
<path d="M2.16667 0.333496H13.8333C14.2754 0.333496 14.6993 0.509091 15.0118 0.821651C15.3244 1.13421 15.5 1.55814 15.5 2.00016V12.0002C15.5 12.4422 15.3244 12.8661 15.0118 13.1787C14.6993 13.4912 14.2754 13.6668 13.8333 13.6668H2.16667C1.72464 13.6668 1.30072 13.4912 0.988155 13.1787C0.675595 12.8661 0.5 12.4422 0.5 12.0002V2.00016C0.5 1.55814 0.675595 1.13421 0.988155 0.821651C1.30072 0.509091 1.72464 0.333496 2.16667 0.333496ZM2.16667 3.66683V7.00016H7.16667V3.66683H2.16667ZM8.83333 3.66683V7.00016H13.8333V3.66683H8.83333ZM2.16667 8.66683V12.0002H7.16667V8.66683H2.16667ZM8.83333 8.66683V12.0002H13.8333V8.66683H8.83333Z" fill="#fff"/>
</svg>