<svg width="36" height="36" viewBox="0 0 36 36" fill="none" xmlns="http://www.w3.org/2000/svg">
<rect width="36" height="36" rx="18" fill="#667085"/>
<path d="M20.0003 13.0002H24.667V21.3335H18.8337L18.5003 19.6668H13.8337V25.5002H12.167V11.3335H19.667L20.0003 13.0002ZM19.667 19.6668H21.3337V18.0002H23.0003V16.3335H21.3337V14.6668H19.667V16.3335L18.8337 14.6668V13.0002H17.167V14.6668H15.5003V13.0002H13.8337V14.6668H15.5003V16.3335H13.8337V18.0002H15.5003V16.3335H17.167V18.0002H18.8337V16.3335L19.667 18.0002V19.6668ZM17.167 16.3335V14.6668H18.8337V16.3335H17.167ZM19.667 16.3335H21.3337V18.0002H19.667V16.3335Z" fill="white"/>
</svg>