<svg width="17" height="18" viewBox="0 0 17 18" fill="none" xmlns="http://www.w3.org/2000/svg">
<path d="M10.9167 8C13 8 14.6667 9.66667 14.6667 11.75C14.6667 12.4833 14.4583 13.175 14.0917 13.75L16.6583 16.3333L15.5 17.4917L12.9 14.9333C12.325 15.2917 11.6417 15.5 10.9167 15.5C8.83333 15.5 7.16667 13.8333 7.16667 11.75C7.16667 9.66667 8.83333 8 10.9167 8ZM10.9167 9.66667C10.3641 9.66667 9.83423 9.88616 9.44353 10.2769C9.05283 10.6676 8.83333 11.1975 8.83333 11.75C8.83333 12.3025 9.05283 12.8324 9.44353 13.2231C9.83423 13.6138 10.3641 13.8333 10.9167 13.8333C11.4692 13.8333 11.9991 13.6138 12.3898 13.2231C12.7805 12.8324 13 12.3025 13 11.75C13 11.1975 12.7805 10.6676 12.3898 10.2769C11.9991 9.88616 11.4692 9.66667 10.9167 9.66667ZM2.16667 0.5H13.8333C14.7583 0.5 15.5 1.24167 15.5 2.16667V8.85833C15.0833 8.19167 14.5083 7.61667 13.8333 7.16667V2.16667H2.16667V13.8333H5.91667C6.175 14.4583 6.55 15.0167 7.00833 15.5H2.16667C1.24167 15.5 0.5 14.7583 0.5 13.8333V2.16667C0.5 1.24167 1.24167 0.5 2.16667 0.5ZM3.83333 3.83333H12.1667V5.5H3.83333V3.83333ZM3.83333 7.16667H8.025C7.35833 7.58333 6.78333 8.15833 6.33333 8.83333H3.83333V7.16667ZM3.83333 10.5H5.64167C5.55 10.9167 5.5 11.3333 5.5 11.75V12.1667H3.83333V10.5Z" fill="#202124"/>
</svg>
