<svg width="26" height="26" viewBox="0 0 26 26" fill="none" xmlns="http://www.w3.org/2000/svg">
<path d="M15.1699 17.8625V13.25H17.0449V16.775L20.0949 18.5375L19.1574 20.1625L15.1699 17.8625ZM10.0074 22.95L7.66992 24.5L3.91992 22L0.169922 24.5V0.75H22.6699V10.875C24.2199 12.45 25.1699 14.6125 25.1699 17C25.1699 21.8375 21.2574 25.75 16.4199 25.75C13.8824 25.75 11.5949 24.675 10.0074 22.95ZM8.58242 20.8875C7.99492 19.7125 7.66992 18.4 7.66992 17C7.66992 12.1625 11.5824 8.25 16.4199 8.25C17.7574 8.25 19.0324 8.55 20.1699 9.0875V3.25H2.66992V19.825L3.91992 19L7.66992 21.5L8.58242 20.8875ZM16.4199 23.25C19.8699 23.25 22.6699 20.45 22.6699 17C22.6699 13.55 19.8699 10.75 16.4199 10.75C12.9699 10.75 10.1699 13.55 10.1699 17C10.1699 20.45 12.9699 23.25 16.4199 23.25Z" fill="#175CD3"/>
</svg>
