<svg width="61" height="60" viewBox="0 0 61 60" fill="none" xmlns="http://www.w3.org/2000/svg">
<rect x="0.669922" width="60" height="60" rx="8" fill="#B2DDFF"/>
<path d="M34.1699 35.8625V31.25H36.0449V34.775L39.0949 36.5375L38.1574 38.1625L34.1699 35.8625ZM29.0074 40.95L26.6699 42.5L22.9199 40L19.1699 42.5V18.75H41.6699V28.875C43.2199 30.45 44.1699 32.6125 44.1699 35C44.1699 39.8375 40.2574 43.75 35.4199 43.75C32.8824 43.75 30.5949 42.675 29.0074 40.95ZM27.5824 38.8875C26.9949 37.7125 26.6699 36.4 26.6699 35C26.6699 30.1625 30.5824 26.25 35.4199 26.25C36.7574 26.25 38.0324 26.55 39.1699 27.0875V21.25H21.6699V37.825L22.9199 37L26.6699 39.5L27.5824 38.8875ZM35.4199 41.25C38.8699 41.25 41.6699 38.45 41.6699 35C41.6699 31.55 38.8699 28.75 35.4199 28.75C31.9699 28.75 29.1699 31.55 29.1699 35C29.1699 38.45 31.9699 41.25 35.4199 41.25Z" fill="#175CD3"/>
</svg>
