<svg width="15" height="14" viewBox="0 0 15 14" fill="none" xmlns="http://www.w3.org/2000/svg">
<path d="M7.5 0.333252C3.83334 0.333252 0.833336 3.33325 0.833336 6.99992C0.833336 10.6666 3.83334 13.6666 7.5 13.6666C11.1667 13.6666 14.1667 10.6666 14.1667 6.99992C14.1667 3.33325 11.1667 0.333252 7.5 0.333252ZM7.5 12.3333C4.56 12.3333 2.16667 9.93992 2.16667 6.99992C2.16667 4.05992 4.56 1.66659 7.5 1.66659C10.44 1.66659 12.8333 4.05992 12.8333 6.99992C12.8333 9.93992 10.44 12.3333 7.5 12.3333ZM10.56 4.05325L6.16667 8.44659L4.44 6.72659L3.5 7.66659L6.16667 10.3333L11.5 4.99992L10.56 4.05325Z" fill="#039855"/>
</svg>
