<svg width="31" height="30" viewBox="0 0 31 30" fill="none" xmlns="http://www.w3.org/2000/svg">
<path d="M19.5 20.8625V16.25H21.375V19.775L24.425 21.5375L23.4875 23.1625L19.5 20.8625ZM14.3375 25.95L12 27.5L8.25 25L4.5 27.5V3.75H27V13.875C28.55 15.45 29.5 17.6125 29.5 20C29.5 24.8375 25.5875 28.75 20.75 28.75C18.2125 28.75 15.925 27.675 14.3375 25.95ZM12.9125 23.8875C12.325 22.7125 12 21.4 12 20C12 15.1625 15.9125 11.25 20.75 11.25C22.0875 11.25 23.3625 11.55 24.5 12.0875V6.25H7V22.825L8.25 22L12 24.5L12.9125 23.8875ZM20.75 26.25C24.2 26.25 27 23.45 27 20C27 16.55 24.2 13.75 20.75 13.75C17.3 13.75 14.5 16.55 14.5 20C14.5 23.45 17.3 26.25 20.75 26.25Z" fill="#DC6803"/>
</svg>
