<svg width="20" height="20" viewBox="0 0 20 20" fill="none" xmlns="http://www.w3.org/2000/svg">
<path d="M18.3333 15.0013V18.3346H15V15.8346H12.5V13.3346H9.99996L8.11663 11.4513C7.65829 11.593 7.17496 11.668 6.66663 11.668C5.34054 11.668 4.06877 11.1412 3.13109 10.2035C2.19341 9.26582 1.66663 7.99405 1.66663 6.66797C1.66663 5.34189 2.19341 4.07012 3.13109 3.13243C4.06877 2.19475 5.34054 1.66797 6.66663 1.66797C7.99271 1.66797 9.26448 2.19475 10.2022 3.13243C11.1398 4.07012 11.6666 5.34189 11.6666 6.66797C11.6666 7.1763 11.5916 7.65964 11.45 8.11797L18.3333 15.0013ZM5.83329 4.16797C5.39127 4.16797 4.96734 4.34356 4.65478 4.65612C4.34222 4.96868 4.16663 5.39261 4.16663 5.83464C4.16663 6.27666 4.34222 6.70059 4.65478 7.01315C4.96734 7.32571 5.39127 7.5013 5.83329 7.5013C6.27532 7.5013 6.69924 7.32571 7.0118 7.01315C7.32436 6.70059 7.49996 6.27666 7.49996 5.83464C7.49996 5.39261 7.32436 4.96868 7.0118 4.65612C6.69924 4.34356 6.27532 4.16797 5.83329 4.16797Z" fill="#039855"/>
</svg>
