<svg width="19" height="18" viewBox="0 0 19 18" fill="none" xmlns="http://www.w3.org/2000/svg">
<path d="M8.6001 12H14.6001V14H8.6001V12ZM6.6001 4H4.6001V6H6.6001V4ZM8.6001 10H14.6001V8H8.6001V10ZM8.6001 6H14.6001V4H8.6001V6ZM6.6001 8H4.6001V10H6.6001V8ZM18.6001 2V16C18.6001 17.1 17.7001 18 16.6001 18H2.6001C1.5001 18 0.600098 17.1 0.600098 16V2C0.600098 0.9 1.5001 0 2.6001 0H16.6001C17.7001 0 18.6001 0.9 18.6001 2ZM16.6001 2H2.6001V16H16.6001V2ZM6.6001 12H4.6001V14H6.6001V12Z" fill="white"/>
</svg>
