<svg width="40" height="40" viewBox="0 0 40 40" fill="none" xmlns="http://www.w3.org/2000/svg">
<rect width="40" height="40" rx="8" fill="#F5E5E3"/>
<path d="M23 24.69V21H24.5V23.82L26.94 25.23L26.19 26.53L23 24.69ZM18.87 28.76L17 30L14 28L11 30V11H29V19.1C30.24 20.36 31 22.09 31 24C31 27.87 27.87 31 24 31C21.97 31 20.14 30.14 18.87 28.76ZM17.73 27.11C17.26 26.17 17 25.12 17 24C17 20.13 20.13 17 24 17C25.07 17 26.09 17.24 27 17.67V13H13V26.26L14 25.6L17 27.6L17.73 27.11ZM24 29C26.76 29 29 26.76 29 24C29 21.24 26.76 19 24 19C21.24 19 19 21.24 19 24C19 26.76 21.24 29 24 29Z" fill="#DF7556"/>
</svg>
