<svg width="61" height="60" viewBox="0 0 61 60" fill="none" xmlns="http://www.w3.org/2000/svg">
<rect x="0.330078" width="60" height="60" rx="8" fill="#A6F4C5"/>
<g clip-path="url(#clip0_5008_43256)">
<path d="M39.4551 19.375L37.5801 17.5L35.7051 19.375L33.8301 17.5L31.9551 19.375L30.0801 17.5L28.2051 19.375L26.3301 17.5L24.4551 19.375L22.5801 17.5L20.7051 19.375L18.8301 17.5V42.5L20.7051 40.625L22.5801 42.5L24.4551 40.625L26.3301 42.5L28.2051 40.625L30.0801 42.5V38.8625H21.3301V21.1375H38.8301V31.575L41.3301 32.825V17.5L39.4551 19.375ZM32.5801 43.75V38.75L37.5801 37.5L32.5801 36.25V31.25L45.0801 37.5L32.5801 43.75ZM30.0801 28.75V31.25H22.5801V28.75H30.0801ZM22.5801 36.25V33.75H30.0801V36.25H22.5801ZM37.5801 23.75V26.25H22.5801V23.75H37.5801Z" fill="#027A48"/>
</g>
<defs>
<clipPath id="clip0_5008_43256">
<rect width="30" height="30" fill="white" transform="translate(15.0801 15)"/>
</clipPath>
</defs>
</svg>
