<svg width="16" height="16" viewBox="0 0 16 16" fill="none" xmlns="http://www.w3.org/2000/svg">
<path d="M7.99992 4.33203C8.44195 4.33203 8.86587 4.50763 9.17843 4.82019C9.49099 5.13275 9.66659 5.55667 9.66659 5.9987C9.66659 6.21757 9.62348 6.43429 9.53972 6.6365C9.45596 6.83871 9.33319 7.02245 9.17843 7.17721C9.02367 7.33197 8.83993 7.45474 8.63772 7.5385C8.43552 7.62226 8.21879 7.66536 7.99992 7.66536C7.55789 7.66536 7.13397 7.48977 6.82141 7.17721C6.50885 6.86465 6.33325 6.44073 6.33325 5.9987C6.33325 5.55667 6.50885 5.13275 6.82141 4.82019C7.13397 4.50763 7.55789 4.33203 7.99992 4.33203ZM7.99992 1.33203C9.2376 1.33203 10.4246 1.8237 11.2998 2.69887C12.1749 3.57404 12.6666 4.76102 12.6666 5.9987C12.6666 9.4987 7.99992 14.6654 7.99992 14.6654C7.99992 14.6654 3.33325 9.4987 3.33325 5.9987C3.33325 4.76102 3.82492 3.57404 4.70009 2.69887C5.57526 1.8237 6.76224 1.33203 7.99992 1.33203ZM7.99992 2.66536C7.11586 2.66536 6.26802 3.01655 5.6429 3.64168C5.01777 4.2668 4.66659 5.11464 4.66659 5.9987C4.66659 6.66536 4.66659 7.9987 7.99992 12.472C11.3333 7.9987 11.3333 6.66536 11.3333 5.9987C11.3333 5.11464 10.9821 4.2668 10.3569 3.64168C9.73182 3.01655 8.88397 2.66536 7.99992 2.66536Z" fill="#344054"/>
</svg>
