<svg width="15" height="18" viewBox="0 0 15 18" fill="none" xmlns="http://www.w3.org/2000/svg">
<path d="M15 12.75C15 13.0666 14.825 13.3416 14.5583 13.4833L7.975 17.1833C7.84167 17.2833 7.675 17.3333 7.5 17.3333C7.325 17.3333 7.15833 17.2833 7.025 17.1833L0.441667 13.4833C0.175 13.3416 0 13.0666 0 12.75V5.24996C0 4.93329 0.175 4.65829 0.441667 4.51663L7.025 0.816626C7.15833 0.716626 7.325 0.666626 7.5 0.666626C7.675 0.666626 7.84167 0.716626 7.975 0.816626L14.5583 4.51663C14.825 4.65829 15 4.93329 15 5.24996V12.75ZM7.5 2.45829L5.925 3.34996L10.8333 6.17496L12.4667 5.24996L7.5 2.45829ZM2.53333 5.24996L7.5 8.04163L9.13333 7.12496L4.23333 4.29163L2.53333 5.24996ZM1.66667 12.2583L6.66667 15.075V9.48329L1.66667 6.67496V12.2583ZM13.3333 12.2583V6.67496L8.33333 9.48329V15.075L13.3333 12.2583Z" fill="white"/>
</svg>