<svg width="16" height="18" viewBox="0 0 16 18" fill="none" xmlns="http://www.w3.org/2000/svg">
<path d="M15.5 12.7501C15.5 13.0667 15.325 13.3417 15.0583 13.4834L8.475 17.1834C8.34167 17.2834 8.175 17.3334 8 17.3334C7.825 17.3334 7.65833 17.2834 7.525 17.1834L0.941667 13.4834C0.675 13.3417 0.5 13.0667 0.5 12.7501V5.25008C0.5 4.93341 0.675 4.65841 0.941667 4.51675L7.525 0.816748C7.65833 0.716748 7.825 0.666748 8 0.666748C8.175 0.666748 8.34167 0.716748 8.475 0.816748L15.0583 4.51675C15.325 4.65841 15.5 4.93341 15.5 5.25008V12.7501ZM8 2.45841L6.425 3.35008L11.3333 6.17508L12.9667 5.25008L8 2.45841ZM3.03333 5.25008L8 8.04175L9.63333 7.12508L4.73333 4.29175L3.03333 5.25008ZM2.16667 12.2584L7.16667 15.0751V9.48341L2.16667 6.67508V12.2584ZM13.8333 12.2584V6.67508L8.83333 9.48341V15.0751L13.8333 12.2584Z" fill="#202124"/>
</svg>