<svg width="25" height="14" viewBox="0 0 25 14" fill="none" xmlns="http://www.w3.org/2000/svg">
<path d="M12.2002 0C11.2719 0 10.3817 0.368749 9.72532 1.02513C9.06894 1.6815 8.7002 2.57174 8.7002 3.5C8.7002 4.42826 9.06894 5.3185 9.72532 5.97487C10.3817 6.63125 11.2719 7 12.2002 7C13.1285 7 14.0187 6.63125 14.6751 5.97487C15.3314 5.3185 15.7002 4.42826 15.7002 3.5C15.7002 2.57174 15.3314 1.6815 14.6751 1.02513C14.0187 0.368749 13.1285 0 12.2002 0ZM12.2002 2C12.598 2 12.9796 2.15804 13.2609 2.43934C13.5422 2.72064 13.7002 3.10218 13.7002 3.5C13.7002 3.89782 13.5422 4.27936 13.2609 4.56066C12.9796 4.84196 12.598 5 12.2002 5C11.8024 5 11.4208 4.84196 11.1395 4.56066C10.8582 4.27936 10.7002 3.89782 10.7002 3.5C10.7002 3.10218 10.8582 2.72064 11.1395 2.43934C11.4208 2.15804 11.8024 2 12.2002 2ZM5.7002 3C5.03715 3 4.40127 3.26339 3.93243 3.73223C3.46359 4.20107 3.2002 4.83696 3.2002 5.5C3.2002 6.44 3.7302 7.25 4.4902 7.68C4.8502 7.88 5.2602 8 5.7002 8C6.1402 8 6.5502 7.88 6.9102 7.68C7.2802 7.47 7.5902 7.17 7.8202 6.81C7.0902 5.86 6.7002 4.7 6.7002 3.5C6.7002 3.41 6.7002 3.31 6.7002 3.22C6.4002 3.08 6.0602 3 5.7002 3ZM18.7002 3C18.3402 3 18.0002 3.08 17.7002 3.22C17.7002 3.31 17.7002 3.41 17.7002 3.5C17.7002 4.7 17.3102 5.86 16.5802 6.81C16.7002 7 16.8302 7.15 16.9802 7.3C17.1402 7.45 17.3002 7.58 17.4902 7.68C17.8502 7.88 18.2602 8 18.7002 8C19.1402 8 19.5502 7.88 19.9102 7.68C20.6702 7.25 21.2002 6.44 21.2002 5.5C21.2002 4.83696 20.9368 4.20107 20.468 3.73223C19.9991 3.26339 19.3632 3 18.7002 3ZM12.2002 9C9.8602 9 5.2002 10.17 5.2002 12.5V14H19.2002V12.5C19.2002 10.17 14.5402 9 12.2002 9ZM4.9102 9.55C2.9802 9.78 0.200195 10.76 0.200195 12.5V14H3.2002V12.07C3.2002 11.06 3.8902 10.22 4.9102 9.55ZM19.4902 9.55C20.5102 10.22 21.2002 11.06 21.2002 12.07V14H24.2002V12.5C24.2002 10.76 21.4202 9.78 19.4902 9.55ZM12.2002 11C13.7302 11 15.4402 11.5 16.4302 12H7.9702C8.9602 11.5 10.6702 11 12.2002 11Z" fill="#444CE7"/>
</svg>
