<svg width="16" height="17" viewBox="0 0 16 17" fill="none" xmlns="http://www.w3.org/2000/svg">
<path d="M11.9167 3.83236V5.49902H10.25V3.83236H11.9167ZM8.58333 3.83236V5.49902H3.58333V3.83236H8.58333ZM8.58333 7.16569H3.58333V8.83236H8.58333V7.16569ZM10.25 7.16569V8.83236H11.9167V7.16569H10.25ZM15.25 16.3324L12.75 14.6657L10.25 16.3324L7.75 14.6657L5.25 16.3324L2.75 14.6657L0.25 16.3324V0.499023H15.25V16.3324ZM13.5833 13.2157V2.16569H1.91667V13.2157L2.75 12.6657L5.25 14.3324L7.75 12.6657L10.25 14.3324L12.75 12.6657L13.5833 13.2157Z" fill="#202124"/>
</svg>
