<svg width="40" height="40" viewBox="0 0 40 40" fill="none" xmlns="http://www.w3.org/2000/svg">
<rect width="40" height="40" rx="20" fill="#E4E7EC"/>
<path d="M26 12.4983C27.5816 12.4983 28.8773 13.7221 28.9918 15.2744L29 15.4983V24.5018C29 26.0832 27.7762 27.379 26.2239 27.4935L26 27.5018H14C12.4185 27.5018 11.1228 26.2779 11.0082 24.7257L11 24.5018L11 15.4983C11 13.9167 12.2238 12.621 13.7761 12.5065L14 12.4983L26 12.4983ZM21.5009 13.9983L14 13.9983C13.1716 13.9983 12.5 14.6699 12.5 15.4983L12.5 24.5018C12.5 25.3302 13.1716 26.0018 14 26.0018H21.5009V13.9983ZM17.4265 17.1329L17.5303 17.2196L19.7803 19.4696C20.0407 19.73 20.0696 20.1341 19.8671 20.4264L19.7803 20.5303L17.5303 22.7803C17.2374 23.0732 16.7626 23.0732 16.4697 22.7803C16.2093 22.5199 16.1804 22.1158 16.3829 21.8235L16.4697 21.7196L17.4393 20.75H14.7526C14.3384 20.75 14.0026 20.4142 14.0026 20C14.0026 19.6318 14.2679 19.3256 14.6178 19.2621L14.7526 19.25H17.4393L16.4697 18.2803C16.1768 17.9874 16.1768 17.5125 16.4697 17.2196C16.73 16.9593 17.1342 16.9304 17.4265 17.1329Z" fill="#475467"/>
</svg>
