<svg width="162" height="42" viewBox="0 0 162 42" fill="none" xmlns="http://www.w3.org/2000/svg">
<path d="M5.23676 0C5.23676 0 0 2.75618 0 7.36831H16.1211C16.1211 7.36831 13.6156 0 5.23676 0Z" fill="#150059"/>
<path d="M43.8746 41.46C28.8213 41.46 26.7229 31.5197 19.6207 14.2203C13.9468 0.404009 5.8467 0.00877157 5.1669 0.000170095H5.12109C5.12109 0.000170095 5.13665 -0.000212619 5.1669 0.000170095H43.8746V41.46Z" fill="#25009D"/>
<path d="M43.8746 41.46C28.8213 41.46 26.7229 31.5197 19.6207 14.2203C13.9468 0.404009 5.8467 0.00877157 5.1669 0.000170095H5.12109C5.12109 0.000170095 5.13665 -0.000212619 5.1669 0.000170095H43.8746V41.46Z" fill="url(#paint0_linear_11884_11996)" style="mix-blend-mode:screen"/>
<rect width="73" height="41.46" transform="translate(43.8745)" fill="#25009D"/>
<rect width="73" height="41.46" transform="translate(43.8745)" fill="url(#paint1_linear_11884_11996)" style="mix-blend-mode:screen"/>
<path d="M50.4627 26.986C49.3427 26.986 48.3774 26.7513 47.5667 26.282C46.756 25.802 46.132 25.1193 45.6947 24.234C45.268 23.3486 45.0547 22.2926 45.0547 21.066C45.0547 19.8393 45.268 18.7833 45.6947 17.898C46.132 17.002 46.756 16.314 47.5667 15.834C48.3774 15.354 49.3427 15.114 50.4627 15.114C51.604 15.114 52.5747 15.354 53.3747 15.834C54.1854 16.314 54.804 17.002 55.2307 17.898C55.668 18.7833 55.8867 19.8393 55.8867 21.066C55.8867 22.2926 55.668 23.3486 55.2307 24.234C54.804 25.1193 54.1854 25.802 53.3747 26.282C52.5747 26.7513 51.604 26.986 50.4627 26.986ZM50.4627 25.178C51.156 25.178 51.7427 25.018 52.2227 24.698C52.7134 24.3673 53.0867 23.898 53.3427 23.29C53.6094 22.6713 53.7427 21.93 53.7427 21.066C53.7427 20.202 53.6094 19.4606 53.3427 18.842C53.0867 18.2233 52.7134 17.7486 52.2227 17.418C51.7427 17.0873 51.156 16.922 50.4627 16.922C49.7907 16.922 49.2094 17.0873 48.7187 17.418C48.228 17.7486 47.8494 18.2233 47.5827 18.842C47.3267 19.4606 47.1987 20.202 47.1987 21.066C47.1987 21.93 47.3267 22.6713 47.5827 23.29C47.8494 23.898 48.228 24.3673 48.7187 24.698C49.2094 25.018 49.7907 25.178 50.4627 25.178ZM59.7289 26.73L56.6089 18.186H58.7689L60.9449 24.666L63.1209 18.186H65.2809L62.1609 26.73H59.7289ZM69.9796 26.922C69.1262 26.922 68.3849 26.7406 67.7556 26.378C67.1262 26.0046 66.6409 25.482 66.2996 24.81C65.9582 24.138 65.7876 23.354 65.7876 22.458C65.7876 21.562 65.9582 20.7833 66.2996 20.122C66.6409 19.45 67.1209 18.9273 67.7396 18.554C68.3689 18.1806 69.0996 17.994 69.9316 17.994C70.7422 17.994 71.4516 18.1753 72.0596 18.538C72.6782 18.9006 73.1529 19.4233 73.4836 20.106C73.8142 20.7886 73.9796 21.61 73.9796 22.57V23.034H67.9156C67.9582 23.7806 68.1609 24.346 68.5236 24.73C68.8969 25.1033 69.3876 25.29 69.9956 25.29C70.4542 25.29 70.8329 25.1886 71.1316 24.986C71.4409 24.7726 71.6542 24.4793 71.7716 24.106L73.8676 24.234C73.6329 25.066 73.1689 25.722 72.4756 26.202C71.7929 26.682 70.9609 26.922 69.9796 26.922ZM67.9156 21.658H71.8676C71.8249 20.9646 71.6276 20.4526 71.2756 20.122C70.9236 19.7806 70.4756 19.61 69.9316 19.61C69.3876 19.61 68.9342 19.786 68.5716 20.138C68.2196 20.49 68.0009 20.9966 67.9156 21.658ZM75.5804 26.73V18.186H77.5004L77.5804 20.554L77.4044 20.522C77.5324 19.7006 77.7724 19.1086 78.1244 18.746C78.4871 18.3726 78.9778 18.186 79.5964 18.186H80.3804V19.946H79.5804C79.1431 19.946 78.7804 20.01 78.4924 20.138C78.2044 20.266 77.9858 20.4686 77.8364 20.746C77.6978 21.0126 77.6284 21.3646 77.6284 21.802V26.73H75.5804ZM84.0883 26.73L80.9683 18.186H83.1283L85.3043 24.666L87.4803 18.186H89.6403L86.5203 26.73H84.0883ZM90.9398 26.73V18.186H92.9878V26.73H90.9398ZM90.9078 17.05V15.226H93.0358V17.05H90.9078ZM98.7764 26.922C97.9231 26.922 97.1818 26.7406 96.5524 26.378C95.9231 26.0046 95.4378 25.482 95.0964 24.81C94.7551 24.138 94.5844 23.354 94.5844 22.458C94.5844 21.562 94.7551 20.7833 95.0964 20.122C95.4378 19.45 95.9178 18.9273 96.5364 18.554C97.1658 18.1806 97.8964 17.994 98.7284 17.994C99.5391 17.994 100.248 18.1753 100.856 18.538C101.475 18.9006 101.95 19.4233 102.28 20.106C102.611 20.7886 102.776 21.61 102.776 22.57V23.034H96.7124C96.7551 23.7806 96.9578 24.346 97.3204 24.73C97.6938 25.1033 98.1844 25.29 98.7924 25.29C99.2511 25.29 99.6298 25.1886 99.9284 24.986C100.238 24.7726 100.451 24.4793 100.568 24.106L102.664 24.234C102.43 25.066 101.966 25.722 101.272 26.202C100.59 26.682 99.7578 26.922 98.7764 26.922ZM96.7124 21.658H100.664C100.622 20.9646 100.424 20.4526 100.072 20.122C99.7204 19.7806 99.2724 19.61 98.7284 19.61C98.1844 19.61 97.7311 19.786 97.3684 20.138C97.0164 20.49 96.7978 20.9966 96.7124 21.658ZM105.872 26.73L103.296 18.186H105.392L107.056 24.41L108.768 18.186H110.56L112.288 24.41L113.952 18.186H116.048L113.472 26.73H111.36L109.664 21.002L107.984 26.73H105.872Z" fill="white"/>
<path d="M116.874 41.46C131.928 41.46 134.026 31.5197 141.128 14.2203C146.802 0.404009 154.902 0.00877157 155.582 0.000170095H155.628C155.628 0.000170095 155.612 -0.000212619 155.582 0.000170095H116.874V41.46Z" fill="#25009D"/>
<path d="M116.874 41.46C131.928 41.46 134.026 31.5197 141.128 14.2203C146.802 0.404009 154.902 0.00877157 155.582 0.000170095H155.628C155.628 0.000170095 155.612 -0.000212619 155.582 0.000170095H116.874V41.46Z" fill="url(#paint2_linear_11884_11996)" style="mix-blend-mode:screen"/>
<path d="M156.256 0C156.256 0 161.828 2.83721 161.828 7.44934H144.628C144.628 7.44934 147.872 0 156.256 0Z" fill="#150059"/>
<defs>
<linearGradient id="paint0_linear_11884_11996" x1="15.0066" y1="0.000170094" x2="15.0066" y2="22.1693" gradientUnits="userSpaceOnUse">
<stop/>
<stop offset="0.325" stop-color="#175EE6"/>
<stop offset="1"/>
</linearGradient>
<linearGradient id="paint1_linear_11884_11996" x1="18.6214" y1="0.000170094" x2="18.6214" y2="22.1693" gradientUnits="userSpaceOnUse">
<stop/>
<stop offset="0.325" stop-color="#175EE6"/>
<stop offset="1"/>
</linearGradient>
<linearGradient id="paint2_linear_11884_11996" x1="145.742" y1="0.000170094" x2="145.742" y2="22.1693" gradientUnits="userSpaceOnUse">
<stop/>
<stop offset="0.325" stop-color="#175EE6"/>
<stop offset="1"/>
</linearGradient>
</defs>
</svg>
