<?xml version="1.0" encoding="UTF-8"?>
<svg version="1.1" xmlns="http://www.w3.org/2000/svg" width="512" height="512">
<path d="M0 0 C109.56 0 219.12 0 332 0 C332 19.8 332 39.6 332 60 C351.8 60 371.6 60 392 60 C392 126.99 392 193.98 392 263 C396.95 263.33 401.9 263.66 407 264 C410.56365241 264.61293808 413.94916053 265.25377909 417.4375 266.125 C418.3229248 266.34164307 419.20834961 266.55828613 420.12060547 266.78149414 C428.5397274 268.95184765 436.23287445 272.13373595 444 276 C444.99257813 276.48339844 445.98515625 276.96679688 447.0078125 277.46484375 C475.75873579 292.24986271 496.13426032 318.4173222 506.75 348.4375 C507.52978408 350.94927974 508.28060585 353.47026232 509 356 C509.48146484 357.670625 509.48146484 357.670625 509.97265625 359.375 C514.64701757 379.2029885 514.09150481 403.57253408 508 423 C507.79101074 423.67836914 507.58202148 424.35673828 507.36669922 425.05566406 C502.17684985 441.34440479 493.94182031 455.92452473 483 469 C482.3709375 469.76957031 481.741875 470.53914063 481.09375 471.33203125 C477.11993844 476.05544818 472.8077308 480.13541256 468 484 C467.26644287 484.60134766 467.26644287 484.60134766 466.51806641 485.21484375 C444.15456542 503.34777568 417.18949274 512.36895219 388.53533936 512.24050903 C387.11017539 512.24138307 385.68501174 512.24313769 384.25984979 512.24568737 C380.37618019 512.25012597 376.49262244 512.24220568 372.60896707 512.23213124 C368.40872997 512.22344832 364.20849856 512.22642031 360.008255 512.22793579 C352.74183421 512.22898159 345.4754495 512.22273694 338.20903778 512.21146011 C327.7031899 512.19516664 317.19735936 512.18999318 306.69150022 512.18748413 C289.64409574 512.18311305 272.59671046 512.16981992 255.54931641 512.15087891 C238.9949554 512.13250489 222.44059962 512.11835584 205.88623047 512.10986328 C204.35415027 512.10907511 204.35415027 512.10907511 202.79111895 512.10827102 C197.66683016 512.10566083 192.54254132 512.10313344 187.41825247 512.10064721 C144.94548767 512.07993301 102.47274634 512.04417087 60 512 C60 492.2 60 472.4 60 452 C40.2 452 20.4 452 0 452 C0 302.84 0 153.68 0 0 Z M30 30 C30 159.03 30 288.06 30 421 C39.9 421 49.8 421 60 421 C60 301.87 60 182.74 60 60 C139.53 60 219.06 60 301 60 C301 50.1 301 40.2 301 30 C211.57 30 122.14 30 30 30 Z M91 91 C91 220.03 91 349.06 91 482 C161.62 482 232.24 482 305 482 C301.6080297 478.04270131 298.31396995 474.25441109 294.75 470.5 C287.25093269 462.21422851 281.52508576 452.66890009 276 443 C227.49 443 178.98 443 129 443 C129 412.64 129 382.28 129 351 C175.2 351 221.4 351 269 351 C270.98 345.72 272.96 340.44 275 335 C276.36274345 332.15128629 277.66438924 329.50818867 279.25 326.8125 C279.62205566 326.16450439 279.99411133 325.51650879 280.37744141 324.84887695 C284.67184211 317.56300136 289.69792792 310.16117452 295.7890625 304.26953125 C297.23007031 303.05120485 297.23007031 303.05120485 297 301 C297.88751953 300.61328125 297.88751953 300.61328125 298.79296875 300.21875 C301.18505896 298.89780815 302.50042658 297.53285478 304.3125 295.5 C319.51784212 279.98549195 341.00545392 272.66484869 361 266 C361 208.25 361 150.5 361 91 C271.9 91 182.8 91 91 91 Z M315 328 C305.78271271 339.12888075 299.46427183 353.05174765 296 367 C295.77570313 367.85207031 295.55140625 368.70414062 295.3203125 369.58203125 C290.33325489 391.81884293 295.27372654 416.22795181 306.6875 435.6875 C321.23338888 457.98935619 341.44335304 473.13252233 367.375 479.75 C393.24814474 485.17251536 417.7250139 479.75006456 440 466 C443.58887273 463.5640044 446.81151134 460.93662485 450 458 C450.90105469 457.19046875 451.80210937 456.3809375 452.73046875 455.546875 C459.92432557 448.75984318 465.0672036 441.51756139 470 433 C470.49242187 432.15824219 470.98484375 431.31648437 471.4921875 430.44921875 C482.50853802 410.09291888 484.7748294 383.63764826 478.3347168 361.52856445 C474.34207437 349.19933868 468.18477218 338.03998721 460 328 C459.31292969 327.14921875 458.62585938 326.2984375 457.91796875 325.421875 C452.34818954 318.87863889 446.07136675 313.84813652 439 309 C438.19949219 308.44441406 437.39898437 307.88882812 436.57421875 307.31640625 C396.6340107 281.47274221 345.5789663 294.26482906 315 328 Z M160 382 C160 391.9 160 401.8 160 412 C194.65 412 229.3 412 265 412 C264.01 397.15 264.01 397.15 263 382 C229.01 382 195.02 382 160 382 Z " fill="#000000" transform="translate(0,0)"/>
<path d="M0 0 C10.23 0 20.46 0 31 0 C30.9071875 5.506875 30.9071875 5.506875 30.8125 11.125 C30.74675039 18.92665916 30.74675039 18.92665916 34.19921875 25.546875 C36.99179303 26.93354342 36.99179303 26.93354342 40.01171875 27.91796875 C48.01188811 30.8147621 53.09828393 38.85951313 56.78125 46.1640625 C59.85231499 53.3101945 61 59.18153346 61 67 C50.77 67 40.54 67 30 67 C29.01 64.36 28.02 61.72 27 59 C24.0697067 55.45280285 21.52571714 53.05249236 17 52 C11.17164816 52.18502704 7.49799378 53.02502875 3 57 C0.31148413 61.50976856 -0.50139254 64.99967313 0.43359375 70.078125 C1.39634168 73.34482831 2.7501994 75.454173 5 78 C10.01112687 80.55202011 14.1580012 81.44363308 19.8125 81.9375 C33.65676918 83.42269066 43.50023209 89.13296348 52.43359375 99.828125 C60.63309486 111.19700934 62.19304217 123.38833473 61 137 C58.62684491 149.689985 51.07506955 159.27459332 41 167 C37.69885665 169.25599372 35.11337106 171 31 171 C31 178.92 31 186.84 31 195 C20.77 195 10.54 195 0 195 C0 187.41 0 179.82 0 172 C-2.31 171.34 -4.62 170.68 -7 170 C-18.38833815 163.53763287 -25.43894455 154.65874418 -30.08984375 142.56640625 C-31.30077001 137.82144628 -31.55664295 132.87692752 -32 128 C-21.77 128 -11.54 128 -1 128 C0.32 130.97 1.64 133.94 3 137 C5.79522582 140.38815251 7.82368917 141.77150609 12.26953125 142.23828125 C18.05034894 142.40699943 21.51856577 142.04422113 26 138 C29.14749511 134.32792237 29.52726515 130.96669945 29.34765625 126.28125 C28.74812327 122.34723581 27.4245717 120.19022593 25 117 C20.60512601 114.33509088 16.89407301 113.5390648 11.8125 113.0625 C-2.66818941 111.4183421 -13.47649087 105.76652632 -22.98828125 94.7109375 C-30.31670629 84.83535114 -33.03429099 73.13239746 -32 61 C-29.97826163 48.0370893 -24.29001732 37.25761887 -14 29 C-4.73966942 23 -4.73966942 23 0 23 C0 15.41 0 7.82 0 0 Z " fill="#000000" transform="translate(155,122)"/>
<path d="M0 0 C1.40234375 1.29296875 1.40234375 1.29296875 2.9375 3.1875 C6.32429462 7.23851512 9.84582869 11.13151801 13.4375 15 C13.98204834 15.5880542 14.52659668 16.1761084 15.08764648 16.78198242 C16.3908042 18.18887822 17.69526284 19.59456884 19 21 C17.6374818 24.08374875 16.12774154 26.07468284 13.65625 28.35546875 C12.99206055 28.97325195 12.32787109 29.59103516 11.64355469 30.22753906 C10.93618164 30.87432617 10.22880859 31.52111328 9.5 32.1875 C8.41187012 33.19441895 8.41187012 33.19441895 7.30175781 34.22167969 C2.70694151 38.46446552 -1.92104783 42.67030024 -6.5859375 46.8359375 C-9.36721707 49.32918812 -12.12341129 51.84911034 -14.875 54.375 C-15.37660645 54.83535645 -15.87821289 55.29571289 -16.39501953 55.77001953 C-17.93034525 57.17965181 -19.46524959 58.58974138 -21 60 C-27.41856623 65.89792208 -33.84580795 71.783493 -40.34765625 77.58984375 C-42.37929858 79.43597529 -44.38127107 81.30104677 -46.37109375 83.19140625 C-46.95189697 83.73933838 -47.5327002 84.28727051 -48.13110352 84.85180664 C-49.27145563 85.92957749 -50.40632114 87.01319104 -51.53491211 88.10327148 C-56.35985904 92.64829556 -56.35985904 92.64829556 -60 93 C-61.3125 91.54166667 -62.625 90.08333333 -63.9375 88.625 C-64.76378906 87.7071875 -65.59007812 86.789375 -66.44140625 85.84375 C-68.03372274 84.07396923 -69.62504898 82.30329637 -71.21484375 80.53125 C-75.28484841 75.99757392 -79.37869169 71.48707532 -83.5 67 C-87.68591196 62.44103549 -91.86343052 57.87537439 -95.98046875 53.25390625 C-97.2767777 51.80715526 -98.59062857 50.37582661 -99.92578125 48.96484375 C-104.00115764 44.55219483 -104.00115764 44.55219483 -103.99609375 42.13671875 C-102.51245569 38.95416966 -100.0391736 36.95234275 -97.4375 34.6875 C-96.89899414 34.20692139 -96.36048828 33.72634277 -95.80566406 33.23120117 C-94.21129397 31.81200263 -92.60703832 30.40482146 -91 29 C-90.15050781 28.24976563 -89.30101562 27.49953125 -88.42578125 26.7265625 C-86.62465774 25.14209119 -84.81718862 23.56598901 -83 22 C-79.88163667 23.37352928 -77.88134572 24.91838973 -75.57421875 27.4140625 C-74.62579102 28.43306641 -74.62579102 28.43306641 -73.65820312 29.47265625 C-73.00787109 30.18292969 -72.35753906 30.89320313 -71.6875 31.625 C-70.7294043 32.65560547 -70.7294043 32.65560547 -69.75195312 33.70703125 C-65.41208671 38.39426286 -61.1824802 43.17213031 -57 48 C-52.35269689 45.21161813 -48.82653585 41.93389743 -45.05078125 38.05859375 C-43.1970686 36.19781933 -41.30194683 34.46301843 -39.3125 32.75 C-35.72046379 29.65705297 -32.22720814 26.4704878 -28.75 23.25 C-28.19658936 22.73775879 -27.64317871 22.22551758 -27.07299805 21.69775391 C-25.94338235 20.65184366 -24.81390712 19.60578169 -23.68457031 18.55957031 C-19.14101559 14.35316052 -14.58122094 10.16535608 -10 6 C-8.91138672 5.00033203 -8.91138672 5.00033203 -7.80078125 3.98046875 C-3.35421546 0 -3.35421546 0 0 0 Z " fill="#000000" transform="translate(429,342)"/>
<path d="M0 0 C26.4 0 52.8 0 80 0 C80 10.23 80 20.46 80 31 C53.6 31 27.2 31 0 31 C0 20.77 0 10.54 0 0 Z " fill="#000000" transform="translate(250,180)"/>
<path d="M0 0 C26.4 0 52.8 0 80 0 C80 10.23 80 20.46 80 31 C53.6 31 27.2 31 0 31 C0 20.77 0 10.54 0 0 Z " fill="#000000" transform="translate(250,120)"/>
<path d="M0 0 C26.4 0 52.8 0 80 0 C80 9.9 80 19.8 80 30 C53.6 30 27.2 30 0 30 C0 20.1 0 10.2 0 0 Z " fill="#000000" transform="translate(250,241)"/>
</svg>
