<svg width="27" height="27" viewBox="0 0 27 27" fill="none" xmlns="http://www.w3.org/2000/svg">
<path d="M20.7949 2.375L18.9199 0.5L17.0449 2.375L15.1699 0.5L13.2949 2.375L11.4199 0.5L9.54492 2.375L7.66992 0.5L5.79492 2.375L3.91992 0.5L2.04492 2.375L0.169922 0.5V25.5L2.04492 23.625L3.91992 25.5L5.79492 23.625L7.66992 25.5L9.54492 23.625L11.4199 25.5V21.8625H2.66992V4.1375H20.1699V14.575L22.6699 15.825V0.5L20.7949 2.375ZM13.9199 26.75V21.75L18.9199 20.5L13.9199 19.25V14.25L26.4199 20.5L13.9199 26.75ZM11.4199 11.75V14.25H3.91992V11.75H11.4199ZM3.91992 19.25V16.75H11.4199V19.25H3.91992ZM18.9199 6.75V9.25H3.91992V6.75H18.9199Z" fill="#027A48"/>
</svg>
