<svg width="61" height="60" viewBox="0 0 61 60" fill="none" xmlns="http://www.w3.org/2000/svg">
<rect x="0.669922" width="60" height="60" rx="8" fill="#A6F4C5"/>
<g clip-path="url(#clip0_6086_16800)">
<path d="M39.7949 19.375L37.9199 17.5L36.0449 19.375L34.1699 17.5L32.2949 19.375L30.4199 17.5L28.5449 19.375L26.6699 17.5L24.7949 19.375L22.9199 17.5L21.0449 19.375L19.1699 17.5V42.5L21.0449 40.625L22.9199 42.5L24.7949 40.625L26.6699 42.5L28.5449 40.625L30.4199 42.5V38.8625H21.6699V21.1375H39.1699V31.575L41.6699 32.825V17.5L39.7949 19.375ZM32.9199 43.75V38.75L37.9199 37.5L32.9199 36.25V31.25L45.4199 37.5L32.9199 43.75ZM30.4199 28.75V31.25H22.9199V28.75H30.4199ZM22.9199 36.25V33.75H30.4199V36.25H22.9199ZM37.9199 23.75V26.25H22.9199V23.75H37.9199Z" fill="#027A48"/>
</g>
<defs>
<clipPath id="clip0_6086_16800">
<rect width="30" height="30" fill="white" transform="translate(15.4199 15)"/>
</clipPath>
</defs>
</svg>
