<svg width="24" height="24" viewBox="0 0 24 24" fill="none" xmlns="http://www.w3.org/2000/svg">
<g clip-path="url(#clip0_6754_31937)">
<path d="M4.37512 19.625V19.7939L4.2052 19.625H4.37512ZM19.795 19.625L19.6251 19.7939V19.625H19.795Z" fill="#A3313A" stroke="#202124"/>
<path d="M17.9178 4.375H16.6288V3.08594L17.9178 4.375Z" fill="#B2B2B2" stroke="#202124"/>
<path d="M5.47168 2.375H15.625V5.375H18.625V21.5928C18.6254 21.6061 18.6229 21.6194 18.6182 21.6318C18.6134 21.6443 18.6069 21.6564 18.5977 21.666C18.5884 21.6756 18.5767 21.6832 18.5645 21.6885C18.5523 21.6936 18.5386 21.6962 18.5254 21.6963H5.47461C5.44831 21.6961 5.42289 21.6856 5.4043 21.667C5.38578 21.6484 5.37511 21.6229 5.375 21.5967V2.47168C5.375 2.44615 5.38527 2.42137 5.40332 2.40332C5.42137 2.38527 5.44615 2.375 5.47168 2.375Z" fill="#F1F1F1" stroke="#202124"/>
<path d="M20.5 12.875V18.625H3.5V12.875H20.5Z" fill="#C84D52" stroke="#202124"/>
<path d="M8.87622 16.1738V17.25H8.12622V14.1825H9.32622C9.62886 14.1613 9.92776 14.2596 10.1587 14.4563C10.2584 14.5529 10.3358 14.67 10.3857 14.7995C10.4356 14.929 10.4566 15.0678 10.4475 15.2063C10.4494 15.3832 10.4055 15.5576 10.32 15.7125C10.2321 15.8642 10.1017 15.9867 9.94497 16.065C9.7544 16.1559 9.54475 16.1997 9.33372 16.1925L8.87622 16.1738ZM9.70122 15.1875C9.70122 14.9175 9.55122 14.7825 9.25122 14.7825H8.87622V15.5813H9.25122C9.55122 15.5813 9.70122 15.45 9.70122 15.1875ZM13.3837 16.5C13.2555 16.7314 13.0626 16.9203 12.8287 17.0438C12.5658 17.1792 12.2731 17.2462 11.9775 17.2388H10.8187V14.1825H11.9775C12.2727 14.1747 12.5652 14.2405 12.8287 14.3738C13.0633 14.4946 13.2565 14.6826 13.3837 14.9138C13.5153 15.1591 13.5812 15.4342 13.575 15.7125C13.5783 15.9869 13.5125 16.2577 13.3837 16.5ZM12.585 16.3463C12.7402 16.1665 12.8255 15.9369 12.8255 15.6994C12.8255 15.4619 12.7402 15.2323 12.585 15.0525C12.3989 14.8904 12.1563 14.8082 11.91 14.8238H11.5612V16.575H11.91C12.1548 16.5937 12.3971 16.5156 12.585 16.3575V16.3463ZM15.9975 14.1825V14.775H14.7375V15.4463H15.7087V16.0088H14.7375V17.25H13.9875V14.1825H15.9975Z" fill="white"/>
<path d="M12.3375 3.94897C12.3652 4.20889 12.3396 4.47172 12.2625 4.72147C11.9288 5.87272 10.8113 10.069 9.96753 10.6652C8.76378 11.5202 8.13753 10.549 8.77878 9.85897C9.42003 9.16897 13.29 8.25022 14.5238 8.25022C16.1288 8.25022 15.9225 9.67147 15.0113 9.58522C13.9838 9.48772 11.415 7.73647 11.2613 4.40647C11.1938 3.22147 12.2213 3.00022 12.3375 3.94897Z" stroke="#C84D52" stroke-miterlimit="10"/>
</g>
<defs>
<clipPath id="clip0_6754_31937">
<rect width="24" height="24" fill="white"/>
</clipPath>
</defs>
</svg>
