<svg width="20" height="20" viewBox="0 0 20 20" fill="none" xmlns="http://www.w3.org/2000/svg">
<g clip-path="url(#clip0_10174_59254)">
<mask id="path-1-inside-1_10174_59254" fill="white">
<path d="M4.06245 17.5L2.49683 15.9375H4.06245V17.5ZM15.9375 17.5L17.5031 15.9375H15.9375V17.5Z"/>
</mask>
<path d="M4.06245 17.5L2.49683 15.9375H4.06245V17.5ZM15.9375 17.5L17.5031 15.9375H15.9375V17.5Z" fill="#A3313A"/>
<path d="M4.06245 17.5L3.35605 18.2078L5.06245 19.9108V17.5H4.06245ZM2.49683 15.9375V14.9375H0.0791976L1.79043 16.6453L2.49683 15.9375ZM4.06245 15.9375H5.06245V14.9375H4.06245V15.9375ZM15.9375 17.5H14.9375V19.9108L16.6439 18.2078L15.9375 17.5ZM17.5031 15.9375L18.2095 16.6453L19.9207 14.9375H17.5031V15.9375ZM15.9375 15.9375V14.9375H14.9375V15.9375H15.9375ZM4.06245 17.5L4.76885 16.7922L3.20323 15.2297L2.49683 15.9375L1.79043 16.6453L3.35605 18.2078L4.06245 17.5ZM2.49683 15.9375V16.9375H4.06245V15.9375V14.9375H2.49683V15.9375ZM4.06245 15.9375H3.06245V17.5H4.06245H5.06245V15.9375H4.06245ZM15.9375 17.5L16.6439 18.2078L18.2095 16.6453L17.5031 15.9375L16.7967 15.2297L15.2311 16.7922L15.9375 17.5ZM17.5031 15.9375V14.9375H15.9375V15.9375V16.9375H17.5031V15.9375ZM15.9375 15.9375H14.9375V17.5H15.9375H16.9375V15.9375H15.9375Z" fill="#202124" mask="url(#path-1-inside-1_10174_59254)"/>
<path d="M14.7307 3.56348H13.9407V2.77344L14.7307 3.56348Z" fill="#B2B2B2" stroke="#202124"/>
<path d="M12.9375 2.0625V4.5625H15.4375V17.9971H4.5625V2.0625H12.9375Z" fill="#F1F1F1" stroke="#202124"/>
<path d="M17 10.8125V15.4375H3V10.8125H17Z" fill="#C84D52" stroke="#202124"/>
<path d="M7.39685 13.4782V14.375H6.77185V11.8188H7.77185C8.02405 11.8011 8.27313 11.883 8.4656 12.0469C8.54866 12.1274 8.61321 12.225 8.65476 12.3329C8.69631 12.4408 8.71387 12.5565 8.70623 12.6719C8.70786 12.8193 8.67126 12.9647 8.59998 13.0938C8.52677 13.2201 8.41812 13.3223 8.28748 13.3875C8.12866 13.4633 7.95396 13.4997 7.7781 13.4938L7.39685 13.4782ZM8.08435 12.6563C8.08435 12.4313 7.95935 12.3188 7.70935 12.3188H7.39685V12.9844H7.70935C7.95935 12.9844 8.08435 12.875 8.08435 12.6563ZM11.1531 13.75C11.0462 13.9428 10.8855 14.1003 10.6906 14.2032C10.4715 14.316 10.2276 14.3719 9.98123 14.3657H9.0156V11.8188H9.98123C10.2272 11.8123 10.471 11.867 10.6906 11.9782C10.8861 12.0789 11.0471 12.2355 11.1531 12.4282C11.2628 12.6326 11.3177 12.8619 11.3125 13.0938C11.3153 13.3224 11.2605 13.5481 11.1531 13.75ZM10.4875 13.6219C10.6168 13.4721 10.6879 13.2808 10.6879 13.0828C10.6879 12.8849 10.6168 12.6936 10.4875 12.5438C10.3324 12.4087 10.1303 12.3402 9.92498 12.3532H9.63435V13.8125H9.92498C10.129 13.8281 10.3309 13.763 10.4875 13.6313V13.6219ZM13.3312 11.8188V12.3125H12.2812V12.8719H13.0906V13.3407H12.2812V14.375H11.6562V11.8188H13.3312Z" fill="white"/>
<path d="M10.2812 3.28983C10.3043 3.50643 10.283 3.72545 10.2187 3.93358C9.94061 4.89295 9.00936 8.38983 8.30623 8.8867C7.30311 9.5992 6.78123 8.78983 7.31561 8.21483C7.84998 7.63983 11.075 6.8742 12.1031 6.8742C13.4406 6.8742 13.2687 8.05858 12.5094 7.9867C11.6531 7.90545 9.51248 6.44608 9.38436 3.67108C9.32811 2.68358 10.1844 2.4992 10.2812 3.28983Z" stroke="#C84D52" stroke-miterlimit="10"/>
</g>
<defs>
<clipPath id="clip0_10174_59254">
<rect width="20" height="20" fill="white"/>
</clipPath>
</defs>
</svg>
