<svg width="28" height="27" viewBox="0 0 28 27" fill="none" xmlns="http://www.w3.org/2000/svg">
<path d="M21.4648 2.375L19.5898 0.5L17.7148 2.375L15.8398 0.5L13.9648 2.375L12.0898 0.5L10.2148 2.375L8.33984 0.5L6.46484 2.375L4.58984 0.5L2.71484 2.375L0.839844 0.5V25.5L2.71484 23.625L4.58984 25.5L6.46484 23.625L8.33984 25.5L10.2148 23.625L12.0898 25.5V21.8625H3.33984V4.1375H20.8398V14.575L23.3398 15.825V0.5L21.4648 2.375ZM14.5898 26.75V21.75L19.5898 20.5L14.5898 19.25V14.25L27.0898 20.5L14.5898 26.75ZM12.0898 11.75V14.25H4.58984V11.75H12.0898ZM4.58984 19.25V16.75H12.0898V19.25H4.58984ZM19.5898 6.75V9.25H4.58984V6.75H19.5898Z" fill="#DD2590"/>
</svg>
