<svg width="20" height="21" viewBox="0 0 20 21" fill="none" xmlns="http://www.w3.org/2000/svg">
<path d="M16.5002 1.5L15.0002 0L13.5002 1.5L12.0002 0L10.5002 1.5L9.00024 0L7.50024 1.5L6.00024 0L4.50024 1.5L3.00024 0L1.50024 1.5L0.000244141 0V20L1.50024 18.5L3.00024 20L4.50024 18.5L6.00024 20L7.58024 18.42C7.72024 18.61 7.88024 18.78 8.05024 18.95C9.36024 20.26 11.1402 21 13.0002 21C16.8602 21 20.0002 17.87 20.0002 14C20.0002 12.17 19.2802 10.41 18.0002 9.1V0L16.5002 1.5ZM16.0002 7.68C15.0702 7.24 14.0502 7 13.0002 7C9.14024 7 6.00024 10.13 6.00024 14C6.00024 15.05 6.24024 16.07 6.68024 17H2.00024V3H16.0002V7.68ZM17.8502 14C17.8502 14.64 17.7302 15.27 17.5002 15.86C17.2402 16.44 16.8802 17 16.4302 17.43C16.0002 17.88 15.4402 18.24 14.8602 18.5C14.2702 18.73 13.6402 18.85 13.0002 18.85C10.3202 18.85 8.15024 16.68 8.15024 14C8.15024 12.71 8.66024 11.5 9.57024 10.57C10.5002 9.66 11.7102 9.15 13.0002 9.15C15.6702 9.15 17.8502 11.32 17.8502 14ZM12.0002 14.69V11H13.5002V13.82L15.9402 15.23L15.1902 16.53L12.0002 14.69Z" fill="#DC6803"/>
</svg>
