<svg width="61" height="60" viewBox="0 0 61 60" fill="none" xmlns="http://www.w3.org/2000/svg">
<rect x="0.339844" width="60" height="60" rx="8" fill="#FCCEEE"/>
<g clip-path="url(#clip0_6086_16821)">
<path d="M39.4648 19.375L37.5898 17.5L35.7148 19.375L33.8398 17.5L31.9648 19.375L30.0898 17.5L28.2148 19.375L26.3398 17.5L24.4648 19.375L22.5898 17.5L20.7148 19.375L18.8398 17.5V42.5L20.7148 40.625L22.5898 42.5L24.4648 40.625L26.3398 42.5L28.2148 40.625L30.0898 42.5V38.8625H21.3398V21.1375H38.8398V31.575L41.3398 32.825V17.5L39.4648 19.375ZM32.5898 43.75V38.75L37.5898 37.5L32.5898 36.25V31.25L45.0898 37.5L32.5898 43.75ZM30.0898 28.75V31.25H22.5898V28.75H30.0898ZM22.5898 36.25V33.75H30.0898V36.25H22.5898ZM37.5898 23.75V26.25H22.5898V23.75H37.5898Z" fill="#DD2590"/>
</g>
<defs>
<clipPath id="clip0_6086_16821">
<rect width="30" height="30" fill="white" transform="translate(15.0898 15)"/>
</clipPath>
</defs>
</svg>
