<svg width="26" height="26" viewBox="0 0 26 26" fill="none" xmlns="http://www.w3.org/2000/svg">
<path d="M18.3398 8.25H5.83984V5.75H18.3398V8.25ZM15.8398 13.25V17.8625L19.8273 20.1625L20.7648 18.5375L17.7148 16.775V13.25H15.8398ZM8.33984 24.5L10.6773 22.95C12.2648 24.675 14.5523 25.75 17.0898 25.75C21.9273 25.75 25.8398 21.8375 25.8398 17C25.8398 14.6125 24.8898 12.45 23.3398 10.875V0.75H0.839844V24.5L4.58984 22L8.33984 24.5ZM8.33984 21.5L4.58984 19L3.33984 19.825V3.25H20.8398V9.0875C19.7023 8.55 18.4273 8.25 17.0898 8.25C14.7023 8.25 12.5398 9.2 10.9648 10.75H5.83984V13.25H9.17734C8.63984 14.3875 8.33984 15.6625 8.33984 17C8.33984 18.4 8.66484 19.7125 9.25234 20.8875L8.33984 21.5ZM17.0898 23.25C13.6398 23.25 10.8398 20.45 10.8398 17C10.8398 13.55 13.6398 10.75 17.0898 10.75C20.5398 10.75 23.3398 13.55 23.3398 17C23.3398 20.45 20.5398 23.25 17.0898 23.25Z" fill="#DD2590"/>
</svg>
