<svg width="61" height="60" viewBox="0 0 61 60" fill="none" xmlns="http://www.w3.org/2000/svg">
<rect x="0.339844" width="60" height="60" rx="8" fill="#FEDF89"/>
<g clip-path="url(#clip0_6086_16811)">
<path d="M35.0898 32.5H36.9648V36.025L40.0148 37.7875L39.0773 39.4125L35.0898 37.1125V32.5ZM36.3398 30C34.6822 30 33.0925 30.6585 31.9204 31.8306C30.7483 33.0027 30.0898 34.5924 30.0898 36.25C30.0898 37.9076 30.7483 39.4973 31.9204 40.6694C33.0925 41.8415 34.6822 42.5 36.3398 42.5C37.9974 42.5 39.5872 41.8415 40.7593 40.6694C41.9314 39.4973 42.5898 37.9076 42.5898 36.25C42.5898 34.5924 41.9314 33.0027 40.7593 31.8306C39.5872 30.6585 37.9974 30 36.3398 30ZM36.3398 27.5C38.6605 27.5 40.8861 28.4219 42.527 30.0628C44.168 31.7038 45.0898 33.9294 45.0898 36.25C45.0898 38.5706 44.168 40.7962 42.527 42.4372C40.8861 44.0781 38.6605 45 36.3398 45C32.8523 45 29.8398 42.95 28.4273 40H16.3398V36.25C16.3398 32.925 23.0023 31.25 26.3398 31.25C27.0898 31.25 28.0148 31.3375 28.9898 31.5C30.5398 29.1 33.2523 27.5 36.3398 27.5ZM27.5898 36.25C27.5898 35.375 27.7148 34.525 27.9523 33.75C27.4273 33.6625 26.8773 33.625 26.3398 33.625C22.6273 33.625 18.7148 35.45 18.7148 36.25V37.625H27.7023C27.6273 37.175 27.5898 36.7125 27.5898 36.25ZM26.3398 20C27.6659 20 28.9377 20.5268 29.8754 21.4645C30.8131 22.4021 31.3398 23.6739 31.3398 25C31.3398 26.3261 30.8131 27.5979 29.8754 28.5355C28.9377 29.4732 27.6659 30 26.3398 30C25.0138 30 23.742 29.4732 22.8043 28.5355C21.8666 27.5979 21.3398 26.3261 21.3398 25C21.3398 23.6739 21.8666 22.4021 22.8043 21.4645C23.742 20.5268 25.0138 20 26.3398 20ZM26.3398 22.375C25.6437 22.375 24.976 22.6516 24.4837 23.1438C23.9914 23.6361 23.7148 24.3038 23.7148 25C23.7148 25.6962 23.9914 26.3639 24.4837 26.8562C24.976 27.3484 25.6437 27.625 26.3398 27.625C27.036 27.625 27.7037 27.3484 28.196 26.8562C28.6883 26.3639 28.9648 25.6962 28.9648 25C28.9648 24.3038 28.6883 23.6361 28.196 23.1438C27.7037 22.6516 27.036 22.375 26.3398 22.375Z" fill="#DC6803"/>
</g>
<defs>
<clipPath id="clip0_6086_16811">
<rect width="30" height="30" fill="white" transform="translate(15.0898 15)"/>
</clipPath>
</defs>
</svg>
