<svg width="30" height="25" viewBox="0 0 30 25" fill="none" xmlns="http://www.w3.org/2000/svg">
<path d="M19.0898 12.5H20.9648V16.025L24.0148 17.7875L23.0773 19.4125L19.0898 17.1125V12.5ZM20.3398 10C18.6822 10 17.0925 10.6585 15.9204 11.8306C14.7483 13.0027 14.0898 14.5924 14.0898 16.25C14.0898 17.9076 14.7483 19.4973 15.9204 20.6694C17.0925 21.8415 18.6822 22.5 20.3398 22.5C21.9974 22.5 23.5872 21.8415 24.7593 20.6694C25.9314 19.4973 26.5898 17.9076 26.5898 16.25C26.5898 14.5924 25.9314 13.0027 24.7593 11.8306C23.5872 10.6585 21.9974 10 20.3398 10ZM20.3398 7.5C22.6605 7.5 24.8861 8.42187 26.527 10.0628C28.168 11.7038 29.0898 13.9294 29.0898 16.25C29.0898 18.5706 28.168 20.7962 26.527 22.4372C24.8861 24.0781 22.6605 25 20.3398 25C16.8523 25 13.8398 22.95 12.4273 20H0.339844V16.25C0.339844 12.925 7.00234 11.25 10.3398 11.25C11.0898 11.25 12.0148 11.3375 12.9898 11.5C14.5398 9.1 17.2523 7.5 20.3398 7.5ZM11.5898 16.25C11.5898 15.375 11.7148 14.525 11.9523 13.75C11.4273 13.6625 10.8773 13.625 10.3398 13.625C6.62734 13.625 2.71484 15.45 2.71484 16.25V17.625H11.7023C11.6273 17.175 11.5898 16.7125 11.5898 16.25ZM10.3398 0C11.6659 0 12.9377 0.526784 13.8754 1.46447C14.8131 2.40215 15.3398 3.67392 15.3398 5C15.3398 6.32608 14.8131 7.59785 13.8754 8.53553C12.9377 9.47322 11.6659 10 10.3398 10C9.01376 10 7.74199 9.47322 6.80431 8.53553C5.86663 7.59785 5.33984 6.32608 5.33984 5C5.33984 3.67392 5.86663 2.40215 6.80431 1.46447C7.74199 0.526784 9.01376 0 10.3398 0ZM10.3398 2.375C9.64365 2.375 8.97597 2.65156 8.48369 3.14384C7.99141 3.63613 7.71484 4.30381 7.71484 5C7.71484 5.69619 7.99141 6.36387 8.48369 6.85616C8.97597 7.34844 9.64365 7.625 10.3398 7.625C11.036 7.625 11.7037 7.34844 12.196 6.85616C12.6883 6.36387 12.9648 5.69619 12.9648 5C12.9648 4.30381 12.6883 3.63613 12.196 3.14384C11.7037 2.65156 11.036 2.375 10.3398 2.375Z" fill="#DC6803"/>
</svg>
