<svg width="18" height="18" viewBox="0 0 18 18" fill="none" xmlns="http://www.w3.org/2000/svg">
<path d="M9.00008 15.668C5.32508 15.668 2.33341 12.6763 2.33341 9.0013C2.33341 5.3263 5.32508 2.33464 9.00008 2.33464C12.6751 2.33464 15.6667 5.3263 15.6667 9.0013C15.6667 12.6763 12.6751 15.668 9.00008 15.668ZM9.00008 0.667969C7.90573 0.667969 6.8221 0.883517 5.81105 1.30231C4.80001 1.7211 3.88135 2.33492 3.10752 3.10875C1.54472 4.67155 0.666748 6.79116 0.666748 9.0013C0.666748 11.2114 1.54472 13.3311 3.10752 14.8939C3.88135 15.6677 4.80001 16.2815 5.81105 16.7003C6.8221 17.1191 7.90573 17.3346 9.00008 17.3346C11.2102 17.3346 13.3298 16.4567 14.8926 14.8939C16.4554 13.3311 17.3334 11.2114 17.3334 9.0013C17.3334 7.90695 17.1179 6.82332 16.6991 5.81227C16.2803 4.80123 15.6665 3.88257 14.8926 3.10875C14.1188 2.33492 13.2002 1.7211 12.1891 1.30231C11.1781 0.883517 10.0944 0.667969 9.00008 0.667969ZM9.83342 4.83464H8.16675V8.16797H4.83342V9.83464H8.16675V13.168H9.83342V9.83464H13.1667V8.16797H9.83342V4.83464Z" fill="white"/>
</svg>
