<svg width="17" height="16" viewBox="0 0 17 16" fill="none" xmlns="http://www.w3.org/2000/svg">
<path d="M12.6667 5.3335V7.3335H11.3333V5.3335H9.33333V4.00016H11.3333H12.6667M14 2.66683V10.6668H6V2.66683H14ZM14 1.3335H6C5.26667 1.3335 4.66667 1.9335 4.66667 2.66683V10.6668C4.66667 11.4068 5.26667 12.0002 6 12.0002H14C14.74 12.0002 15.3333 11.4068 15.3333 10.6668V2.66683C15.3333 1.9335 14.74 1.3335 14 1.3335ZM3.33333 4.00016H2V13.3335C2 14.0735 2.6 14.6668 3.33333 14.6668H12.6667V13.3335H3.33333V4.00016Z" fill="#202124"/>
</svg>
