<svg width="16" height="17" viewBox="0 0 16 17" fill="none" xmlns="http://www.w3.org/2000/svg">
<path d="M12.1667 3.83333V5.5H10.5V3.83333H12.1667ZM8.83333 3.83333V5.5H3.83333V3.83333H8.83333ZM8.83333 7.16667H3.83333V8.83333H8.83333V7.16667ZM10.5 7.16667V8.83333H12.1667V7.16667H10.5ZM15.5 16.3333L13 14.6667L10.5 16.3333L8 14.6667L5.5 16.3333L3 14.6667L0.5 16.3333V0.5H15.5V16.3333ZM13.8333 13.2167V2.16667H2.16667V13.2167L3 12.6667L5.5 14.3333L8 12.6667L10.5 14.3333L13 12.6667L13.8333 13.2167Z" fill="white"/>
</svg>