<svg width="15" height="17" viewBox="0 0 15 17" fill="none" xmlns="http://www.w3.org/2000/svg">
<path d="M11.6667 3.83333V5.5H10V3.83333H11.6667ZM8.33333 3.83333V5.5H3.33333V3.83333H8.33333ZM8.33333 7.16667H3.33333V8.83333H8.33333V7.16667ZM10 7.16667V8.83333H11.6667V7.16667H10ZM15 16.3333L12.5 14.6667L10 16.3333L7.5 14.6667L5 16.3333L2.5 14.6667L0 16.3333V0.5H15V16.3333ZM13.3333 13.2167V2.16667H1.66667V13.2167L2.5 12.6667L5 14.3333L7.5 12.6667L10 14.3333L12.5 12.6667L13.3333 13.2167Z" fill="#202124"/>
</svg>
