<svg width="40" height="41" viewBox="0 0 40 41" fill="none" xmlns="http://www.w3.org/2000/svg">
<rect y="0.666992" width="40" height="40" rx="8" fill="#D1FADF"/>
<path d="M27 21.667C27.7 21.667 28.37 21.787 29 22.007V11.667H11V30.667L14 28.667L17 30.667L20 28.667L21.3 29.527C21.1 28.947 21 28.317 21 27.667C21 27.427 21 27.167 21.04 26.957L20 26.267L17 28.267L14 26.267L13 26.927V13.667H27V21.667ZM23.5 27.667L26.25 30.667L31 25.897L29.84 24.487L26.25 28.077L24.66 26.487L23.5 27.667Z" fill="#039855"/>
</svg>
