<svg width="17" height="15" viewBox="0 0 17 15" fill="none" xmlns="http://www.w3.org/2000/svg">
<path d="M15.5833 7.41671L16.75 8.59171L11.3083 14.0834L8.41667 11.1667L9.58333 9.99171L11.3083 11.725L15.5833 7.41671ZM7.16667 0.333374C8.05072 0.333374 8.89857 0.684563 9.52369 1.30968C10.1488 1.93481 10.5 2.78265 10.5 3.66671C10.5 4.55076 10.1488 5.39861 9.52369 6.02373C8.89857 6.64885 8.05072 7.00004 7.16667 7.00004C6.28261 7.00004 5.43476 6.64885 4.80964 6.02373C4.18452 5.39861 3.83333 4.55076 3.83333 3.66671C3.83333 2.78265 4.18452 1.93481 4.80964 1.30968C5.43476 0.684563 6.28261 0.333374 7.16667 0.333374ZM7.16667 2.00004C6.72464 2.00004 6.30072 2.17564 5.98816 2.4882C5.67559 2.80076 5.5 3.22468 5.5 3.66671C5.5 4.10874 5.67559 4.53266 5.98816 4.84522C6.30072 5.15778 6.72464 5.33337 7.16667 5.33337C7.60869 5.33337 8.03262 5.15778 8.34518 4.84522C8.65774 4.53266 8.83333 4.10874 8.83333 3.66671C8.83333 3.22468 8.65774 2.80076 8.34518 2.4882C8.03262 2.17564 7.60869 2.00004 7.16667 2.00004ZM7.16667 7.83337C7.73333 7.83337 8.41667 7.90837 9.175 8.05004L7.78333 9.44171L7.16667 9.41671C4.69167 9.41671 2.08333 10.6334 2.08333 11.1667V12.0834H7.25L8.83333 13.6667H0.5V11.1667C0.5 8.95004 4.94167 7.83337 7.16667 7.83337Z" fill="white"/>
</svg>
