<svg width="18" height="19" viewBox="0 0 18 19" fill="none" xmlns="http://www.w3.org/2000/svg">
<path d="M14.25 1.91667L13 0.666668L11.75 1.91667L10.5 0.666668L9.25 1.91667L8 0.666668L6.75 1.91667L5.5 0.666668L4.25 1.91667L3 0.666668L1.75 1.91667L0.5 0.666668V17.3333L1.75 16.0833L3 17.3333L4.25 16.0833L5.5 17.3333L6.75 16.0833L8 17.3333V14.9083H2.16667V3.09167H13.8333V10.05L15.5 10.8833V0.666668L14.25 1.91667ZM9.66667 18.1667V14.8333L13 14L9.66667 13.1667V9.83333L18 14L9.66667 18.1667ZM8 8.16667V9.83333H3V8.16667H8ZM3 13.1667V11.5H8V13.1667H3ZM13 4.83333V6.5H3V4.83333H13Z" fill="white"/>
</svg>
