<svg width="18" height="20" viewBox="0 0 18 20" fill="none" xmlns="http://www.w3.org/2000/svg">
<path d="M12.3333 0H5.66667C4.75001 0 4.00001 0.75 4.00001 1.66667V15C4.00001 15.9167 4.75001 16.6667 5.66667 16.6667H15.6667C16.5833 16.6667 17.3333 15.9167 17.3333 15V5L12.3333 0ZM15.6667 15H5.66667V1.66667H11.5V5.83333H15.6667V15ZM2.33334 3.33333V18.3333H15.6667V20H2.33334C1.41667 20 0.666672 19.25 0.666672 18.3333V3.33333H2.33334ZM7.33334 8.33333V10H14V8.33333H7.33334ZM7.33334 11.6667V13.3333H11.5V11.6667H7.33334Z" fill="black"/>
</svg>
