<svg width="18" height="20" viewBox="0 0 18 20" fill="none" xmlns="http://www.w3.org/2000/svg">
<path d="M12.3332 0H5.6665C4.74984 0 3.99984 0.75 3.99984 1.66667V15C3.99984 15.9167 4.74984 16.6667 5.6665 16.6667H15.6665C16.5832 16.6667 17.3332 15.9167 17.3332 15V5L12.3332 0ZM15.6665 15H5.6665V1.66667H11.4998V5.83333H15.6665V15ZM2.33317 3.33333V18.3333H15.6665V20H2.33317C1.4165 20 0.666504 19.25 0.666504 18.3333V3.33333H2.33317ZM7.33317 8.33333V10H13.9998V8.33333H7.33317ZM7.33317 11.6667V13.3333H11.4998V11.6667H7.33317Z" fill="white"/>
</svg>