<svg width="32" height="32" viewBox="0 0 32 32" fill="none" xmlns="http://www.w3.org/2000/svg">
<g clip-path="url(#clip0_7079_41326)">
<path fill-rule="evenodd" clip-rule="evenodd" d="M16.5624 0.0126829C17.0249 0.00643288 17.7124 0.0314329 18.0937 0.0626829C18.4749 0.100183 19.0499 0.168933 19.3749 0.225183C19.6999 0.281433 20.3374 0.418933 20.7812 0.531433C21.2249 0.643933 21.8749 0.837683 22.2187 0.968933C22.5624 1.09393 23.2374 1.38768 23.7187 1.62518C24.1999 1.85643 24.9187 2.26268 25.3124 2.52518C25.7062 2.78768 26.0374 2.99393 26.0437 2.98143C26.0562 2.97518 26.0062 2.80018 25.9374 2.59393C25.8687 2.38768 25.8124 2.15018 25.8124 2.06268C25.8124 1.97518 25.8624 1.80643 25.9249 1.68768C25.9937 1.56893 26.1374 1.40643 26.2562 1.32518C26.3999 1.23143 26.5562 1.18768 26.7499 1.18768C26.9187 1.18768 27.1124 1.23768 27.2374 1.31268C27.3437 1.38143 27.4749 1.50018 27.5249 1.57518C27.5749 1.65643 27.9312 2.56268 28.3124 3.59393C28.9187 5.22518 29.0062 5.50643 28.9749 5.75018C28.9562 5.90643 28.8937 6.10018 28.8249 6.18768C28.7624 6.27518 28.6124 6.40018 28.4937 6.46268C28.2874 6.58143 28.1999 6.58143 26.1437 6.52518C24.1249 6.47518 23.9999 6.46268 23.8312 6.33768C23.7374 6.26893 23.5937 6.11268 23.5124 5.99393C23.4249 5.86268 23.3749 5.68768 23.3749 5.55018C23.3749 5.41893 23.4124 5.23768 23.4624 5.14393C23.5124 5.04393 23.6249 4.90018 23.7187 4.81268C23.8624 4.67518 23.9562 4.65018 25.0312 4.59393L24.3437 4.13768C23.9624 3.88768 23.3624 3.53143 22.9999 3.35018C22.6374 3.16268 22.0812 2.91268 21.7687 2.78768C21.4499 2.66268 20.8874 2.47518 20.5187 2.37518C20.1437 2.26893 19.5374 2.12518 19.1562 2.05643C18.6499 1.95643 18.1187 1.91268 17.1249 1.89393C15.9812 1.86268 15.6499 1.88143 14.8749 1.98768C14.3749 2.06268 13.6437 2.20643 13.2499 2.30643C12.8562 2.40643 12.2062 2.61268 11.8124 2.75643C11.4187 2.90643 10.7249 3.20643 10.2812 3.43143C9.8312 3.66268 9.18745 4.03143 8.8437 4.26268C8.49995 4.49393 7.9812 4.87518 7.68745 5.10643C7.3937 5.33768 6.89995 5.78143 6.58745 6.09393C6.27495 6.40643 5.79995 6.93768 5.52495 7.28143C5.2562 7.62518 4.87495 8.14393 4.6937 8.43768C4.5062 8.73143 4.2312 9.19393 4.08745 9.46893C3.93745 9.74393 3.6937 10.2752 3.53745 10.6564C3.38745 11.0377 3.18745 11.6002 3.0937 11.9064C3.0062 12.2127 2.86245 12.8064 2.7812 13.2189C2.69995 13.6314 2.59995 14.3877 2.5562 14.9064C2.49995 15.6252 2.49995 16.0752 2.5562 16.8439C2.59995 17.3939 2.69995 18.2127 2.7812 18.6564C2.86245 19.1002 3.0312 19.7939 3.14995 20.1877C3.2687 20.5814 3.5062 21.2439 3.6812 21.6564C3.8562 22.0689 4.1687 22.7002 4.37495 23.0627C4.5812 23.4252 4.9687 24.0127 5.23745 24.3752C5.5062 24.7377 6.0062 25.3252 6.3437 25.6814C6.68745 26.0377 7.22495 26.5314 7.5312 26.7814C7.8437 27.0314 8.37495 27.4252 8.7187 27.6564C9.06245 27.8877 9.7687 28.2814 10.2812 28.5377C10.7999 28.7877 11.5437 29.1064 11.9374 29.2377C12.3312 29.3752 12.9499 29.5564 13.3124 29.6502C13.6749 29.7377 14.2499 29.8564 14.5937 29.9064C14.9374 29.9627 15.7124 30.0189 16.3124 30.0439C16.9937 30.0689 17.6874 30.0502 18.1562 30.0064C18.5687 29.9627 19.2562 29.8627 19.6874 29.7752C20.1187 29.6877 20.8499 29.4877 21.3124 29.3377C21.7749 29.1814 22.4624 28.9064 22.8437 28.7252C23.2249 28.5439 23.7874 28.2377 24.0937 28.0502C24.3999 27.8564 24.9249 27.4939 25.2499 27.2439C25.5749 26.9939 26.0812 26.5564 26.3687 26.2814C26.6562 26.0064 27.1124 25.5127 27.3874 25.1877C27.6624 24.8627 28.0937 24.2877 28.3437 23.9064C28.5999 23.5252 29.0124 22.8252 29.2624 22.3502C29.5124 21.8689 29.7874 21.4252 29.8749 21.3627C29.9624 21.2939 30.1749 21.2252 30.3437 21.2127C30.5812 21.1877 30.7124 21.2127 30.8749 21.3002C30.9999 21.3689 31.1562 21.5377 31.2374 21.6939C31.3499 21.9064 31.3749 22.0252 31.3437 22.2189C31.3187 22.3564 31.1249 22.8189 30.9062 23.2502C30.6874 23.6814 30.3062 24.3377 30.0562 24.7189C29.8124 25.1002 29.4062 25.6627 29.1562 25.9689C28.9124 26.2752 28.4999 26.7564 28.2437 27.0252C27.9874 27.3002 27.4999 27.7627 27.1562 28.0564C26.8124 28.3564 26.2937 28.7689 25.9999 28.9752C25.7062 29.1877 25.1749 29.5377 24.8124 29.7502C24.4499 29.9689 23.8312 30.3002 23.4374 30.4877C23.0437 30.6752 22.2687 30.9752 21.7187 31.1564C21.1687 31.3439 20.3687 31.5627 19.9374 31.6502C19.5062 31.7377 18.8999 31.8439 18.5937 31.8877C18.2499 31.9377 17.4687 31.9689 16.5937 31.9627C15.6499 31.9564 14.9187 31.9252 14.4687 31.8564C14.0874 31.8064 13.4437 31.6877 13.0312 31.5939C12.6187 31.5002 11.8999 31.3002 11.4374 31.1439C10.9749 30.9877 10.2312 30.6877 9.7812 30.4752C9.3312 30.2627 8.69995 29.9252 8.37495 29.7252C8.04995 29.5252 7.4562 29.1189 7.06245 28.8189C6.6687 28.5252 6.03745 27.9877 5.66245 27.6252C5.28745 27.2627 4.7562 26.7002 4.48745 26.3752C4.21245 26.0502 3.7312 25.4002 3.42495 24.9377C3.11245 24.4752 2.6437 23.6439 2.37495 23.0939C2.1062 22.5439 1.7812 21.8127 1.6562 21.4689C1.5312 21.1252 1.3312 20.5064 1.2187 20.0939C1.1062 19.6814 0.956199 19.0064 0.887449 18.5939C0.812449 18.1814 0.724949 17.4627 0.681199 17.0002C0.637449 16.4939 0.624949 15.8064 0.649949 15.2814C0.674949 14.8002 0.724949 14.1814 0.756199 13.9064C0.787449 13.6314 0.887449 13.0689 0.968699 12.6564C1.0562 12.2439 1.21245 11.6252 1.3187 11.2814C1.42495 10.9377 1.62495 10.3752 1.76245 10.0314C1.89995 9.68768 2.18745 9.06893 2.39995 8.65643C2.61245 8.24393 2.97495 7.62518 3.2062 7.28143C3.4312 6.93768 3.8312 6.38768 4.0937 6.06268C4.34995 5.73768 4.93745 5.09393 5.3937 4.63768C5.8437 4.18143 6.49995 3.58768 6.8437 3.31268C7.18745 3.04393 7.72495 2.66268 8.0312 2.46893C8.33745 2.27518 8.9187 1.95018 9.31245 1.75018C9.7062 1.55643 10.2874 1.29393 10.5937 1.16893C10.8999 1.04393 11.4812 0.843933 11.8749 0.718933C12.2687 0.600183 12.9312 0.431433 13.3437 0.350183C13.7562 0.262683 14.3624 0.162683 14.6874 0.131433C15.0124 0.0939329 15.3812 0.0501829 15.4999 0.0439329C15.6187 0.0314329 16.0999 0.0126829 16.5624 0.0126829ZM16.4062 5.06893C16.8874 5.06268 17.5187 5.09393 17.8124 5.12518C18.1062 5.16268 18.6249 5.25018 18.9687 5.31893C19.3124 5.39393 19.8874 5.54393 20.2499 5.66268C20.6124 5.78143 21.1999 6.01893 21.5624 6.19393C21.9249 6.36893 22.4562 6.66893 22.7499 6.85643C23.0437 7.05018 23.4937 7.38143 23.7499 7.59393C24.0062 7.80643 24.4062 8.18768 24.6437 8.43143C24.8749 8.67518 25.2124 9.08143 25.3937 9.32518C25.5749 9.57518 25.8312 9.95018 25.9499 10.1564C26.0749 10.3627 26.3187 10.8252 26.4874 11.1877C26.6562 11.5502 26.8812 12.1127 26.9874 12.4377C27.0937 12.7627 27.2374 13.3127 27.3062 13.6564C27.3812 14.0002 27.4687 14.6627 27.5124 15.1252C27.5687 15.7814 27.5687 16.1627 27.5124 16.8439C27.4687 17.3252 27.3812 18.0002 27.3062 18.3439C27.2374 18.6877 27.0812 19.2627 26.9624 19.6252C26.8437 19.9877 26.5937 20.5877 26.4124 20.9689C26.2249 21.3502 25.9062 21.9127 25.6999 22.2189C25.4937 22.5252 25.1187 23.0189 24.8687 23.3064C24.6124 23.5939 24.1937 24.0127 23.9374 24.2314C23.6812 24.4564 23.2124 24.8064 22.9062 25.0127C22.5999 25.2189 22.0999 25.5127 21.7999 25.6627C21.4937 25.8127 21.0312 26.0252 20.7687 26.1314C20.4999 26.2377 19.9124 26.4189 19.4687 26.5314C19.0249 26.6439 18.3124 26.7814 17.8937 26.8377C17.4687 26.8939 16.8437 26.9377 16.4999 26.9377C16.1562 26.9377 15.5562 26.8939 15.1749 26.8377C14.7874 26.7814 14.1999 26.6689 13.8749 26.5814C13.5499 26.5002 13.0437 26.3377 12.7499 26.2252C12.4562 26.1127 11.9937 25.9064 11.7187 25.7689C11.4437 25.6314 10.9249 25.3189 10.5624 25.0752C10.1999 24.8377 9.6687 24.4314 9.3812 24.1814C9.08745 23.9252 8.6562 23.4939 8.4187 23.2189C8.1812 22.9439 7.7812 22.4127 7.52495 22.0314C7.27495 21.6502 6.9312 21.0502 6.76245 20.6877C6.58745 20.3252 6.3687 19.7752 6.26245 19.4689C6.16245 19.1627 6.0187 18.6377 5.94995 18.3127C5.8812 17.9877 5.7937 17.4439 5.7562 17.1064C5.7187 16.7752 5.68745 16.2752 5.68745 16.0002C5.68745 15.7252 5.7187 15.2252 5.7562 14.8877C5.78745 14.5564 5.87495 14.0127 5.9437 13.6877C6.01245 13.3627 6.14995 12.8377 6.24995 12.5314C6.3562 12.2252 6.63745 11.5752 6.87495 11.0939C7.11245 10.6127 7.4937 9.96268 7.7187 9.65643C7.93745 9.35018 8.33745 8.85643 8.6062 8.56893C8.87495 8.27518 9.3062 7.86268 9.56245 7.63768C9.8187 7.41893 10.2562 7.09393 10.5312 6.90643C10.8062 6.71893 11.2999 6.43143 11.6249 6.26268C11.9499 6.08768 12.4874 5.85018 12.8124 5.73143C13.1374 5.60643 13.6437 5.45018 13.9374 5.37518C14.2312 5.30018 14.7062 5.20018 14.9999 5.15643C15.2937 5.11268 15.9249 5.06893 16.4062 5.06893ZM15.1499 7.04393C14.8749 7.08143 14.3999 7.19393 14.0937 7.28143C13.7874 7.36893 13.2749 7.55643 12.9687 7.69393C12.6624 7.82518 12.1374 8.10643 11.8124 8.31893C11.4874 8.52518 11.1562 8.76268 11.0749 8.83143L10.9374 8.96893C11.2187 9.25643 11.3374 9.41893 11.3687 9.51268C11.4062 9.61268 11.4374 9.76268 11.4374 9.85643C11.4374 9.95643 11.3749 10.1439 11.2937 10.2752C11.2187 10.4064 11.0562 10.5689 10.9374 10.6314C10.8187 10.7002 10.6124 10.7502 10.4874 10.7502C10.3562 10.7502 10.1874 10.7189 10.1124 10.6814C10.0312 10.6439 9.8937 10.5377 9.79995 10.4439C9.6437 10.3002 9.6187 10.2939 9.52495 10.3752C9.4687 10.4252 9.27495 10.6939 9.0937 10.9689C8.91245 11.2439 8.64995 11.6939 8.51245 11.9689C8.37495 12.2439 8.17495 12.7252 8.0687 13.0314C7.9562 13.3377 7.81245 13.8689 7.74995 14.2002C7.6812 14.5377 7.62495 14.8689 7.62495 14.9377C7.62495 15.0439 7.6687 15.0627 7.8937 15.0627C8.03745 15.0627 8.24995 15.1127 8.3687 15.1752C8.48745 15.2314 8.63745 15.3502 8.69995 15.4377C8.76245 15.5252 8.8312 15.7064 8.8562 15.8439C8.8812 16.0189 8.8562 16.1814 8.7687 16.3752C8.67495 16.5939 8.58745 16.6877 8.3687 16.7939C8.2187 16.8752 7.98745 16.9377 7.86245 16.9377H7.62495C7.6812 17.4439 7.7812 17.9002 7.87495 18.2814C7.97495 18.6627 8.14995 19.1939 8.26245 19.4689C8.3812 19.7439 8.57495 20.1502 8.69995 20.3752C8.82495 20.6002 9.0687 20.9877 9.2437 21.2314C9.4187 21.4814 9.5812 21.6877 9.61245 21.6877C9.63745 21.6877 9.7437 21.6064 9.8437 21.5002C9.94995 21.3939 10.1312 21.2814 10.2499 21.2502C10.3874 21.2127 10.5624 21.2127 10.7187 21.2502C10.8562 21.2814 11.0499 21.3877 11.1437 21.4814C11.2374 21.5814 11.3499 21.7564 11.3874 21.8752C11.4249 21.9939 11.4374 22.1939 11.4124 22.3127C11.3937 22.4314 11.2812 22.6502 11.1562 22.7939L10.9374 23.0627C11.6874 23.5877 12.1749 23.8814 12.4999 24.0564C12.8249 24.2252 13.3499 24.4502 13.6562 24.5627C13.9624 24.6689 14.4937 24.8127 14.8312 24.8752C15.1624 24.9439 15.4874 25.0002 15.5499 25.0002C15.6312 25.0002 15.6749 24.9127 15.7312 24.6127C15.7874 24.3002 15.8499 24.1752 16.0124 24.0252C16.1312 23.9127 16.3249 23.8127 16.4687 23.7877C16.6624 23.7502 16.7874 23.7689 17.0187 23.8689C17.1999 23.9502 17.3624 24.0752 17.4374 24.2002C17.5187 24.3314 17.5624 24.5189 17.5624 24.7002C17.5624 24.9752 17.5749 25.0002 17.7187 25.0002C17.8062 25.0002 18.1499 24.9439 18.4874 24.8752C18.8187 24.8127 19.3499 24.6689 19.6562 24.5627C19.9624 24.4502 20.4874 24.2252 20.8124 24.0564C21.1374 23.8814 21.6249 23.5877 21.8937 23.4002L22.3749 23.0627C22.0374 22.6752 21.9187 22.4689 21.8999 22.3564C21.8812 22.2502 21.8874 22.0564 21.9124 21.9377C21.9374 21.8189 22.0437 21.6252 22.1499 21.5127C22.2562 21.3939 22.4437 21.2814 22.5624 21.2502C22.6937 21.2127 22.8812 21.2189 23.0312 21.2502C23.1687 21.2877 23.3749 21.4002 23.4874 21.5127L23.6937 21.7189C23.8812 21.4752 24.0624 21.2252 24.2124 21.0002C24.3624 20.7752 24.6124 20.3377 24.7687 20.0314C24.9249 19.7252 25.1437 19.2002 25.2499 18.8752C25.3624 18.5502 25.5062 18.0064 25.5687 17.6689C25.6312 17.3377 25.6874 17.0377 25.6874 17.0002C25.6874 16.9627 25.5812 16.9377 25.4562 16.9377C25.3249 16.9377 25.0937 16.8752 24.9437 16.8002C24.7687 16.7127 24.6187 16.5752 24.5499 16.4377C24.4624 16.2752 24.4374 16.1377 24.4624 15.9064C24.4749 15.7314 24.5437 15.5252 24.6062 15.4377C24.6749 15.3502 24.8249 15.2314 24.9437 15.1752C25.0624 15.1127 25.2749 15.0627 25.4249 15.0627C25.5687 15.0627 25.6874 15.0439 25.6874 15.0127C25.6874 14.9877 25.6437 14.7252 25.5937 14.4189C25.5437 14.1189 25.4124 13.6002 25.3062 13.2627C25.1999 12.9314 24.9999 12.4189 24.8624 12.1252C24.7312 11.8314 24.4374 11.3189 24.2124 10.9814C23.9937 10.6502 23.7874 10.3627 23.7499 10.3439C23.7124 10.3252 23.6124 10.3814 23.5187 10.4627C23.4187 10.5439 23.2812 10.6439 23.2062 10.6814C23.1249 10.7189 22.9437 10.7502 22.7999 10.7502C22.6249 10.7502 22.4562 10.7064 22.3124 10.6127C22.1937 10.5314 22.0437 10.3689 21.9874 10.2502C21.9249 10.1314 21.8749 9.93768 21.8749 9.82518C21.8749 9.71893 21.9062 9.56268 21.9437 9.48143C21.9812 9.40643 22.0937 9.25018 22.1937 9.13768L22.3749 8.93768C21.8687 8.55643 21.4812 8.30018 21.1874 8.13143C20.8937 7.95643 20.3749 7.70018 20.0312 7.56268C19.6874 7.43143 19.1124 7.25018 18.7499 7.16268C18.3874 7.07518 17.9812 7.00018 17.8437 6.98768L17.5937 6.96893C17.5374 7.50018 17.4749 7.72518 17.4249 7.81268C17.3687 7.90018 17.2249 8.01893 17.0999 8.07518C16.9749 8.13768 16.7562 8.18768 16.6124 8.18768C16.4562 8.18768 16.2624 8.13768 16.1437 8.06268C16.0312 7.99393 15.8937 7.85643 15.8437 7.75018C15.7937 7.64393 15.7249 7.42518 15.6937 7.26268L15.6374 6.96268L15.1499 7.04393ZM16.6624 10.9439C16.7999 10.9439 16.9999 10.9939 17.1124 11.0627C17.2249 11.1314 17.3687 11.2814 17.4374 11.3939C17.5562 11.5877 17.5624 11.7064 17.5624 15.5939L18.7562 16.7814C19.4187 17.4377 19.9937 18.0627 20.0437 18.1752C20.0874 18.2877 20.1312 18.4564 20.1312 18.5502C20.1312 18.6439 20.0749 18.8189 20.0124 18.9377C19.9499 19.0627 19.7999 19.2252 19.6812 19.3002C19.5437 19.3939 19.3812 19.4439 19.2062 19.4439C19.0624 19.4439 18.8624 19.4002 18.7687 19.3502C18.6749 19.3002 17.9749 18.6314 17.2124 17.8689C15.9937 16.6377 15.8187 16.4377 15.7562 16.1877C15.7062 15.9939 15.6874 15.2502 15.7249 11.5939L15.8749 11.3689C15.9562 11.2439 16.1124 11.1002 16.2187 11.0439C16.3249 10.9877 16.5249 10.9439 16.6624 10.9439Z" fill="#202124"/>
</g>
<defs>
<clipPath id="clip0_7079_41326">
<rect width="32" height="32" fill="white"/>
</clipPath>
</defs>
</svg>
