<svg width="132" height="60" viewBox="0 0 132 60" fill="none" xmlns="http://www.w3.org/2000/svg">
<g filter="url(#filter0_diii_11769_67160)">
<rect x="10" y="9" width="112" height="40" rx="20" fill="url(#paint0_linear_11769_67160)" shape-rendering="crispEdges"/>
<rect x="10.5" y="9.5" width="111" height="39" rx="19.5" stroke="url(#paint1_linear_11769_67160)" shape-rendering="crispEdges"/>
<rect x="23" y="13" width="86" height="18" rx="9" fill="url(#paint2_linear_11769_67160)" fill-opacity="0.5"/>
<path d="M41.1667 22.3334C39.3333 22.3334 37.8333 23.8334 37.8333 25.6667C37.8333 27.5 39.3333 29 41.1667 29C43 29 44.5 27.5 44.5 25.6667C44.5 23.8334 43 22.3334 41.1667 22.3334ZM41.1667 24C42.0833 24 42.8333 24.75 42.8333 25.6667C42.8333 26.5834 42.0833 27.3334 41.1667 27.3334C40.25 27.3334 39.5 26.5834 39.5 25.6667C39.5 24.75 40.25 24 41.1667 24ZM41.1667 29.8334C38.9167 29.8334 34.5 30.9167 34.5 33.1667V35.6667H42.4167C42.1667 35.1667 42.0833 34.6667 42 34.0834H36.0833V33.1667C36.0833 32.6667 38.6667 31.4167 41.1667 31.4167C41.5833 31.4167 42 31.5 42.4167 31.5C42.6667 31 42.9167 30.5 43.3333 30.0834C42.5 29.9167 41.75 29.8334 41.1667 29.8334Z" fill="white"/>
<path d="M49.7868 30.0422V33.3755H46.4534L47.9284 31.9005C47.5534 31.5255 47.0284 31.2922 46.4534 31.2922C45.3034 31.2922 44.3701 32.2255 44.3701 33.3755C44.3701 34.5255 45.3034 35.4589 46.4534 35.4589C47.1368 35.4589 47.7368 35.1339 48.1201 34.6255H49.5451C49.0534 35.8505 47.8534 36.7089 46.4534 36.7089C44.6118 36.7089 43.1201 35.2172 43.1201 33.3755C43.1201 31.5339 44.6118 30.0422 46.4534 30.0422C47.3784 30.0422 48.2118 30.4172 48.8118 31.0172L49.7868 30.0422Z" fill="white"/>
<path d="M57.12 34V24.06H61.278C61.9967 24.06 62.6173 24.1813 63.14 24.424C63.6627 24.6667 64.0687 25.012 64.358 25.46C64.6473 25.908 64.792 26.4353 64.792 27.042C64.792 27.4993 64.694 27.9053 64.498 28.26C64.302 28.6147 64.036 28.8993 63.7 29.114C63.3733 29.3287 63.0093 29.4593 62.608 29.506L62.538 29.366C63.182 29.366 63.6767 29.5107 64.022 29.8C64.3767 30.0893 64.5773 30.5327 64.624 31.13L64.876 34H63.028L62.818 31.396C62.79 31.004 62.664 30.7147 62.44 30.528C62.216 30.3413 61.8427 30.248 61.32 30.248H58.94V34H57.12ZM58.94 28.652H61.166C61.7167 28.652 62.146 28.5213 62.454 28.26C62.762 27.9987 62.916 27.63 62.916 27.154C62.916 26.6687 62.7573 26.2953 62.44 26.034C62.132 25.7727 61.6793 25.642 61.082 25.642H58.94V28.652ZM69.6476 34.168C68.9009 34.168 68.2523 34.0093 67.7016 33.692C67.1509 33.3653 66.7263 32.908 66.4276 32.32C66.1289 31.732 65.9796 31.046 65.9796 30.262C65.9796 29.478 66.1289 28.7967 66.4276 28.218C66.7263 27.63 67.1463 27.1727 67.6876 26.846C68.2383 26.5193 68.8776 26.356 69.6056 26.356C70.3149 26.356 70.9356 26.5147 71.4676 26.832C72.0089 27.1493 72.4243 27.6067 72.7136 28.204C73.0029 28.8013 73.1476 29.52 73.1476 30.36V30.766H67.8416C67.8789 31.4193 68.0563 31.914 68.3736 32.25C68.7003 32.5767 69.1296 32.74 69.6616 32.74C70.0629 32.74 70.3943 32.6513 70.6556 32.474C70.9263 32.2873 71.1129 32.0307 71.2156 31.704L73.0496 31.816C72.8443 32.544 72.4383 33.118 71.8316 33.538C71.2343 33.958 70.5063 34.168 69.6476 34.168ZM67.8416 29.562H71.2996C71.2623 28.9553 71.0896 28.5073 70.7816 28.218C70.4736 27.9193 70.0816 27.77 69.6056 27.77C69.1296 27.77 68.7329 27.924 68.4156 28.232C68.1076 28.54 67.9163 28.9833 67.8416 29.562ZM73.3076 36.1V34.714H74.0496C74.3109 34.714 74.5116 34.6533 74.6516 34.532C74.8009 34.42 74.8756 34.2053 74.8756 33.888V26.524H76.6676V33.944C76.6676 34.7093 76.4949 35.26 76.1496 35.596C75.8043 35.932 75.2116 36.1 74.3716 36.1H73.3076ZM74.8476 25.53V23.934H76.7096V25.53H74.8476ZM81.7335 34.168C80.9869 34.168 80.3382 34.0093 79.7875 33.692C79.2369 33.3653 78.8122 32.908 78.5135 32.32C78.2149 31.732 78.0655 31.046 78.0655 30.262C78.0655 29.478 78.2149 28.7967 78.5135 28.218C78.8122 27.63 79.2322 27.1727 79.7735 26.846C80.3242 26.5193 80.9635 26.356 81.6915 26.356C82.4009 26.356 83.0215 26.5147 83.5535 26.832C84.0949 27.1493 84.5102 27.6067 84.7995 28.204C85.0889 28.8013 85.2335 29.52 85.2335 30.36V30.766H79.9275C79.9649 31.4193 80.1422 31.914 80.4595 32.25C80.7862 32.5767 81.2155 32.74 81.7475 32.74C82.1489 32.74 82.4802 32.6513 82.7415 32.474C83.0122 32.2873 83.1989 32.0307 83.3015 31.704L85.1355 31.816C84.9302 32.544 84.5242 33.118 83.9175 33.538C83.3202 33.958 82.5922 34.168 81.7335 34.168ZM79.9275 29.562H83.3855C83.3482 28.9553 83.1755 28.5073 82.8675 28.218C82.5595 27.9193 82.1675 27.77 81.6915 27.77C81.2155 27.77 80.8189 27.924 80.5015 28.232C80.1935 28.54 80.0022 28.9833 79.9275 29.562ZM89.8823 34.168C89.1356 34.168 88.487 34.0093 87.9363 33.692C87.3856 33.3653 86.9563 32.908 86.6483 32.32C86.3496 31.732 86.2003 31.046 86.2003 30.262C86.2003 29.478 86.3496 28.7967 86.6483 28.218C86.9563 27.63 87.3856 27.1727 87.9363 26.846C88.487 26.5193 89.1356 26.356 89.8823 26.356C90.517 26.356 91.0816 26.468 91.5763 26.692C92.071 26.916 92.4723 27.238 92.7803 27.658C93.0976 28.0687 93.2936 28.5727 93.3683 29.17L91.5203 29.268C91.4456 28.792 91.259 28.4327 90.9603 28.19C90.671 27.938 90.3116 27.812 89.8823 27.812C89.3036 27.812 88.8556 28.0313 88.5383 28.47C88.221 28.8993 88.0623 29.4967 88.0623 30.262C88.0623 31.0367 88.221 31.6387 88.5383 32.068C88.8556 32.4973 89.3036 32.712 89.8823 32.712C90.321 32.712 90.685 32.586 90.9743 32.334C91.273 32.082 91.455 31.69 91.5203 31.158L93.3683 31.242C93.2936 31.8393 93.1023 32.3573 92.7943 32.796C92.4863 33.2347 92.085 33.5753 91.5903 33.818C91.0956 34.0513 90.5263 34.168 89.8823 34.168ZM97.3549 34C96.6082 34 96.0576 33.8273 95.7029 33.482C95.3576 33.1367 95.1849 32.5953 95.1849 31.858V24.774H96.9769V31.69C96.9769 32.0353 97.0516 32.278 97.2009 32.418C97.3502 32.5487 97.5836 32.614 97.9009 32.614H98.9509V34H97.3549ZM94.0089 27.91V26.524H98.9509V27.91H94.0089Z" fill="white"/>
</g>
<defs>
<filter id="filter0_diii_11769_67160" x="0" y="0" width="132" height="60" filterUnits="userSpaceOnUse" color-interpolation-filters="sRGB">
<feFlood flood-opacity="0" result="BackgroundImageFix"/>
<feColorMatrix in="SourceAlpha" type="matrix" values="0 0 0 0 0 0 0 0 0 0 0 0 0 0 0 0 0 0 127 0" result="hardAlpha"/>
<feOffset dy="1"/>
<feGaussianBlur stdDeviation="5"/>
<feComposite in2="hardAlpha" operator="out"/>
<feColorMatrix type="matrix" values="0 0 0 0 0 0 0 0 0 0 0 0 0 0 0 0 0 0 0.15 0"/>
<feBlend mode="normal" in2="BackgroundImageFix" result="effect1_dropShadow_11769_67160"/>
<feBlend mode="normal" in="SourceGraphic" in2="effect1_dropShadow_11769_67160" result="shape"/>
<feColorMatrix in="SourceAlpha" type="matrix" values="0 0 0 0 0 0 0 0 0 0 0 0 0 0 0 0 0 0 127 0" result="hardAlpha"/>
<feOffset dy="-4"/>
<feGaussianBlur stdDeviation="8"/>
<feComposite in2="hardAlpha" operator="arithmetic" k2="-1" k3="1"/>
<feColorMatrix type="matrix" values="0 0 0 0 0.956863 0 0 0 0 0.956863 0 0 0 0 0.956863 0 0 0 0.3 0"/>
<feBlend mode="normal" in2="shape" result="effect2_innerShadow_11769_67160"/>
<feColorMatrix in="SourceAlpha" type="matrix" values="0 0 0 0 0 0 0 0 0 0 0 0 0 0 0 0 0 0 127 0" result="hardAlpha"/>
<feOffset dy="-2"/>
<feGaussianBlur stdDeviation="3"/>
<feComposite in2="hardAlpha" operator="arithmetic" k2="-1" k3="1"/>
<feColorMatrix type="matrix" values="0 0 0 0 0.564746 0 0 0 0 0.564746 0 0 0 0 0.564746 0 0 0 0.75 0"/>
<feBlend mode="normal" in2="effect2_innerShadow_11769_67160" result="effect3_innerShadow_11769_67160"/>
<feColorMatrix in="SourceAlpha" type="matrix" values="0 0 0 0 0 0 0 0 0 0 0 0 0 0 0 0 0 0 127 0" result="hardAlpha"/>
<feOffset dy="-3"/>
<feComposite in2="hardAlpha" operator="arithmetic" k2="-1" k3="1"/>
<feColorMatrix type="matrix" values="0 0 0 0 0.956863 0 0 0 0 0.956863 0 0 0 0 0.956863 0 0 0 0.18 0"/>
<feBlend mode="normal" in2="effect3_innerShadow_11769_67160" result="effect4_innerShadow_11769_67160"/>
</filter>
<linearGradient id="paint0_linear_11769_67160" x1="66" y1="9" x2="66" y2="49" gradientUnits="userSpaceOnUse">
<stop stop-color="#D92D20"/>
<stop offset="1" stop-color="#D41F12"/>
</linearGradient>
<linearGradient id="paint1_linear_11769_67160" x1="66" y1="9" x2="66" y2="49" gradientUnits="userSpaceOnUse">
<stop stop-color="#F4F4F4"/>
<stop offset="1" stop-color="#F4F4F4"/>
</linearGradient>
<linearGradient id="paint2_linear_11769_67160" x1="66" y1="13" x2="66" y2="27.8232" gradientUnits="userSpaceOnUse">
<stop offset="0.0001" stop-color="white" stop-opacity="0.74"/>
<stop offset="1" stop-color="white" stop-opacity="0"/>
</linearGradient>
</defs>
</svg>
