<svg width="16" height="15" viewBox="0 0 16 15" fill="none" xmlns="http://www.w3.org/2000/svg">
<path d="M7.16667 0.333374C5.33333 0.333374 3.83333 1.83337 3.83333 3.66671C3.83333 5.50004 5.33333 7.00004 7.16667 7.00004C9 7.00004 10.5 5.50004 10.5 3.66671C10.5 1.83337 9 0.333374 7.16667 0.333374ZM7.16667 2.00004C8.08333 2.00004 8.83333 2.75004 8.83333 3.66671C8.83333 4.58337 8.08333 5.33337 7.16667 5.33337C6.25 5.33337 5.5 4.58337 5.5 3.66671C5.5 2.75004 6.25 2.00004 7.16667 2.00004ZM7.16667 7.83337C4.91667 7.83337 0.5 8.91671 0.5 11.1667V13.6667H8.41667C8.16667 13.1667 8.08333 12.6667 8 12.0834H2.08333V11.1667C2.08333 10.6667 4.66667 9.41671 7.16667 9.41671C7.58333 9.41671 8 9.50004 8.41667 9.50004C8.66667 9.00004 8.91667 8.50004 9.33333 8.08337C8.5 7.91671 7.75 7.83337 7.16667 7.83337Z" fill="#D92D20"/>
<path d="M15.7868 8.0422V11.3755H12.4534L13.9284 9.90053C13.5534 9.52553 13.0284 9.2922 12.4534 9.2922C11.3034 9.2922 10.3701 10.2255 10.3701 11.3755C10.3701 12.5255 11.3034 13.4589 12.4534 13.4589C13.1368 13.4589 13.7368 13.1339 14.1201 12.6255H15.5451C15.0534 13.8505 13.8534 14.7089 12.4534 14.7089C10.6118 14.7089 9.12011 13.2172 9.12011 11.3755C9.12011 9.53387 10.6118 8.0422 12.4534 8.0422C13.3784 8.0422 14.2118 8.4172 14.8118 9.0172L15.7868 8.0422Z" fill="#D92D20"/>
</svg>
