<svg width="21" height="20" viewBox="0 0 21 20" fill="none" xmlns="http://www.w3.org/2000/svg">
<path d="M11.3333 2.5C9.34413 2.5 7.43647 3.29018 6.02995 4.6967C4.62343 6.10322 3.83325 8.01088 3.83325 10H1.33325L4.57492 13.2417L4.63325 13.3583L7.99992 10H5.49992C5.49992 8.4529 6.1145 6.96917 7.20846 5.87521C8.30242 4.78125 9.78616 4.16667 11.3333 4.16667C12.8803 4.16667 14.3641 4.78125 15.458 5.87521C16.552 6.96917 17.1666 8.4529 17.1666 10C17.1666 11.5471 16.552 13.0308 15.458 14.1248C14.3641 15.2188 12.8803 15.8333 11.3333 15.8333C9.72492 15.8333 8.26659 15.175 7.21659 14.1167L6.03325 15.3C7.39158 16.6667 9.24992 17.5 11.3333 17.5C13.3224 17.5 15.23 16.7098 16.6366 15.3033C18.0431 13.8968 18.8333 11.9891 18.8333 10C18.8333 8.01088 18.0431 6.10322 16.6366 4.6967C15.23 3.29018 13.3224 2.5 11.3333 2.5Z" fill="#202124"/>
</svg>
