<svg width="20" height="20" viewBox="0 0 20 20" fill="none" xmlns="http://www.w3.org/2000/svg">
<path d="M10.8333 2.5C8.84413 2.5 6.93647 3.29018 5.52995 4.6967C4.12343 6.10322 3.33325 8.01088 3.33325 10H0.833252L4.07492 13.2417L4.13325 13.3583L7.49992 10H4.99992C4.99992 8.4529 5.6145 6.96917 6.70846 5.87521C7.80242 4.78125 9.28616 4.16667 10.8333 4.16667C12.3803 4.16667 13.8641 4.78125 14.958 5.87521C16.052 6.96917 16.6666 8.4529 16.6666 10C16.6666 11.5471 16.052 13.0308 14.958 14.1248C13.8641 15.2188 12.3803 15.8333 10.8333 15.8333C9.22492 15.8333 7.76659 15.175 6.71659 14.1167L5.53325 15.3C6.89158 16.6667 8.74992 17.5 10.8333 17.5C12.8224 17.5 14.73 16.7098 16.1366 15.3033C17.5431 13.8968 18.3333 11.9891 18.3333 10C18.3333 8.01088 17.5431 6.10322 16.1366 4.6967C14.73 3.29018 12.8224 2.5 10.8333 2.5Z" fill="#202124"/>
</svg>
