<svg width="36" height="36" viewBox="0 0 36 36" fill="none" xmlns="http://www.w3.org/2000/svg">
<rect width="36" height="36" rx="18" fill="#667085"/>
<path d="M25.5833 18.4168L26.75 19.5918L21.3083 25.0835L18.4167 22.1668L19.5833 20.9918L21.3083 22.7252L25.5833 18.4168ZM17.1667 11.3335C18.0507 11.3335 18.8986 11.6847 19.5237 12.3098C20.1488 12.9349 20.5 13.7828 20.5 14.6668C20.5 15.5509 20.1488 16.3987 19.5237 17.0239C18.8986 17.649 18.0507 18.0002 17.1667 18.0002C16.2826 18.0002 15.4348 17.649 14.8096 17.0239C14.1845 16.3987 13.8333 15.5509 13.8333 14.6668C13.8333 13.7828 14.1845 12.9349 14.8096 12.3098C15.4348 11.6847 16.2826 11.3335 17.1667 11.3335ZM17.1667 13.0002C16.7246 13.0002 16.3007 13.1758 15.9882 13.4883C15.6756 13.8009 15.5 14.2248 15.5 14.6668C15.5 15.1089 15.6756 15.5328 15.9882 15.8453C16.3007 16.1579 16.7246 16.3335 17.1667 16.3335C17.6087 16.3335 18.0326 16.1579 18.3452 15.8453C18.6577 15.5328 18.8333 15.1089 18.8333 14.6668C18.8333 14.2248 18.6577 13.8009 18.3452 13.4883C18.0326 13.1758 17.6087 13.0002 17.1667 13.0002ZM17.1667 18.8335C17.7333 18.8335 18.4167 18.9085 19.175 19.0502L17.7833 20.4418L17.1667 20.4168C14.6917 20.4168 12.0833 21.6335 12.0833 22.1668V23.0835H17.25L18.8333 24.6668H10.5V22.1668C10.5 19.9502 14.9417 18.8335 17.1667 18.8335Z" fill="white"/>
</svg>