<svg width="78" height="77" viewBox="0 0 78 77" fill="none" xmlns="http://www.w3.org/2000/svg">
<g clip-path="url(#clip0_5854_30773)">
<path fill-rule="evenodd" clip-rule="evenodd" d="M70.6114 0.781982C72.5309 0.781982 74.6637 0.8271 75.334 0.902295C76.111 0.97749 76.6899 1.12788 76.9184 1.30835C77.1165 1.45874 77.4211 1.77456 77.604 2.00015C77.8934 2.39116 77.9239 2.66186 77.9696 4.85757C78 6.19604 77.9543 8.30151 77.8477 9.54976C77.7563 10.798 77.5735 12.5876 77.4516 13.5351C77.3297 14.4826 77.025 16.2421 76.7661 17.4453C76.5223 18.6484 76.1262 20.3328 75.8672 21.205C75.6235 22.0773 75.2122 23.4308 74.9532 24.2128C74.6942 24.9949 74.1305 26.4837 73.7192 27.5214C73.3079 28.5591 72.4395 30.4841 71.7692 31.8076C71.1141 33.131 70.0172 35.1312 69.3165 36.2441C68.6309 37.357 67.5797 38.9511 66.9856 39.7783C66.3915 40.6054 65.3403 41.9589 64.67 42.7861C63.9997 43.6132 62.6743 45.1171 60.0235 47.9746L60.3891 48.7716C60.5872 49.1927 60.8918 49.9898 61.0594 50.5312C61.227 51.0726 61.4555 52.1253 61.5469 52.8623C61.6688 53.6894 61.6993 54.7121 61.6231 55.4941C61.5622 56.2009 61.3946 57.2386 61.2422 57.8251C61.1051 58.4117 60.77 59.3441 60.5262 59.9306C60.2825 60.5171 59.7493 61.4947 59.3379 62.1113C58.7895 62.9384 56.9461 64.8785 52.2692 69.5255C48.7805 72.9695 45.7032 75.9021 45.429 76.0224C45.17 76.1427 44.6977 76.248 44.4082 76.248C44.1188 76.248 43.6922 76.1578 43.4485 76.0375C43.22 75.9171 42.3516 75.1351 41.5137 74.2779C40.6758 73.4207 39.5333 72.0371 38.9696 71.2099C38.4059 70.3828 37.7204 69.1947 37.4309 68.5781C37.1415 67.9615 36.7301 66.9087 36.5168 66.247C36.3036 65.5853 36.0293 64.4724 35.8922 63.7656C35.7551 63.0587 35.6485 62.1865 35.6485 61.8105C35.6485 61.4345 35.5875 61.0435 35.5266 60.9382C35.4352 60.7728 34.9477 60.8029 32.8606 61.1187C31.459 61.3292 30.0118 61.5097 29.6309 61.5097C29.25 61.5097 28.7625 61.4195 28.5188 61.2992C28.2903 61.1789 25.2129 58.2162 21.6938 54.7121C18.1594 51.208 15.1887 48.2001 15.0973 48.0046C15.0059 47.8242 14.9297 47.4181 14.9297 47.1023C14.9297 46.8015 15.0973 45.4781 15.3106 44.1697C15.5239 42.8763 15.6915 41.6882 15.6915 41.5378C15.6915 41.3273 15.4477 41.2521 14.1375 41.0867C13.2692 40.9664 11.9438 40.7257 11.1973 40.5302C10.4356 40.3347 9.30825 39.9587 8.68364 39.7181C8.05903 39.4625 6.99263 38.9361 6.32231 38.5601C5.652 38.1691 4.55513 37.4322 3.88481 36.9208C3.2145 36.3945 2.10239 35.4169 1.43208 34.7251C0.548486 33.8228 0.167627 33.3115 0.0762207 32.9355C0.0152832 32.6498 0.0152832 32.1685 0.0762207 31.8828C0.152393 31.4466 1.18833 30.3488 6.44419 25.1453C9.90239 21.7164 13.1016 18.6334 13.5586 18.2724C14.0157 17.9265 14.9145 17.355 15.5391 17.0242C16.1637 16.6933 17.2606 16.2421 17.9766 16.0166C19.043 15.6707 19.6372 15.5955 21.4043 15.5353C22.7145 15.4902 23.8875 15.5203 24.4512 15.6255C24.954 15.7308 25.7004 15.9113 26.127 16.0316C26.5383 16.1669 27.4219 16.5128 29.2348 17.3701L30.4231 16.2572C31.0782 15.6406 32.434 14.4826 33.4395 13.7005C34.445 12.9035 35.9227 11.8056 36.7149 11.2642C37.5071 10.7228 39.061 9.74526 40.1426 9.09858C41.2243 8.4519 43.2809 7.35405 44.7129 6.6773C46.145 6.00054 48.3235 5.05308 49.5879 4.58687C50.8372 4.10562 52.9395 3.42886 54.2344 3.05288C55.5293 2.69194 57.7536 2.16558 59.1856 1.87983C60.6176 1.59409 62.7047 1.26323 63.8321 1.14292C64.9594 1.00757 66.1629 0.887256 66.4981 0.857178C66.8333 0.8271 68.6918 0.797021 70.6114 0.781982ZM64.2129 5.65464C63.1313 5.77495 61.3336 6.06069 60.252 6.2562C59.1704 6.46675 58.2258 6.69233 58.1649 6.73745C58.104 6.79761 61.0594 9.82046 64.7461 13.4599C69.3012 17.9716 71.4645 20.0019 71.5102 19.8515C71.5559 19.7312 71.7692 18.9191 71.9672 18.0468C72.1805 17.1746 72.4852 15.6556 72.6528 14.663C72.8204 13.6705 73.0336 12.1816 73.125 11.3544C73.2165 10.5273 73.3383 8.81284 73.3993 7.54956L73.5059 5.26362C68.7832 5.30874 67.1379 5.33882 66.8028 5.3689C66.4676 5.39897 65.2946 5.51929 64.2129 5.65464ZM50.8067 8.96323C49.6336 9.4144 47.7141 10.2566 46.5411 10.8281C45.368 11.3845 43.5856 12.347 42.5801 12.9335C41.5747 13.5351 40.0969 14.4675 39.3047 15.0089C38.5125 15.5654 37.2024 16.5279 36.4102 17.1595C35.618 17.7761 34.2469 18.9341 33.3633 19.7162C32.4797 20.5132 31.0477 21.9269 30.1793 22.8744C29.311 23.8218 28.1379 25.1453 27.5895 25.8371C27.0411 26.5289 26.1575 27.6718 25.6395 28.3937C25.1215 29.1156 24.2989 30.3488 23.7961 31.1308C23.3086 31.9128 22.6688 32.9806 22.3793 33.507L21.8614 34.4394L42.4278 54.7271C44.6672 53.539 45.9469 52.8171 46.6934 52.366C47.4399 51.9148 48.75 51.0876 49.5879 50.5162C50.4258 49.9597 51.8579 48.907 52.7872 48.1851C53.7165 47.4482 55.4075 45.9443 56.5805 44.8314C57.7383 43.7035 59.2465 42.1394 59.9473 41.3574C60.6329 40.5753 61.745 39.2218 62.4 38.3496C63.0704 37.4773 64.152 35.9283 64.8071 34.8906C65.4774 33.8529 66.5133 32.0632 67.1227 30.9052C67.7321 29.7472 68.5852 28.0027 68.9965 27.0251C69.4231 26.0626 69.7735 25.1453 69.7735 24.9949C69.7735 24.8595 66.0715 21.0847 61.3641 16.4376L52.9395 8.13608L50.8067 8.96323ZM18.129 20.7689C17.7481 20.9343 17.0321 21.3705 16.5293 21.7314C16.0266 22.0923 13.3454 24.6189 10.5879 27.356L5.5606 32.3189C6.26138 33.0408 6.99263 33.5972 7.61724 34.0334C8.24185 34.4544 9.35396 35.056 10.0852 35.3718C10.8317 35.6876 11.9895 36.0787 12.675 36.2441C13.3758 36.3945 14.5032 36.59 15.1887 36.6501L16.4379 36.7705C16.5598 36.1839 16.6665 35.5824 16.7579 35.041C16.8645 34.3341 17.1844 33.5521 17.87 32.2587C18.4032 31.2662 19.302 29.7021 19.8809 28.7998C20.4598 27.8824 21.4501 26.3935 22.1051 25.4912C22.7602 24.5738 23.8875 23.1451 24.6036 22.2878L25.8985 20.7539C25.2434 20.4982 24.6797 20.3328 24.2227 20.2125C23.7657 20.0921 22.745 20.0019 21.9375 20.0019C21.1454 20.0169 20.1094 20.1222 19.6524 20.2425C19.1954 20.3628 18.5098 20.6035 18.129 20.7689ZM20.0942 43.2373L19.5762 46.3203L30.3165 56.9228C34.9782 56.246 36.4559 56.0205 36.593 55.9904C36.7454 55.9603 36.8672 55.8851 36.8672 55.825C36.8672 55.7648 33.2415 52.1253 28.8083 47.749C24.375 43.3576 20.734 39.8535 20.6883 39.9587C20.6579 40.064 20.3836 41.5378 20.0942 43.2373ZM51.4922 54.6669C50.1973 55.5091 48.4454 56.607 47.6075 57.0732C46.7696 57.5544 45.3375 58.3064 44.4082 58.7576C43.2352 59.3441 42.3821 59.6449 41.5899 59.7953C40.9653 59.9005 40.3559 59.9908 40.2493 60.0058C40.1122 60.0058 40.0969 60.3066 40.1579 61.239C40.2188 61.9308 40.4168 63.0888 40.5997 63.8408C40.7825 64.5777 41.1633 65.7056 41.4223 66.3222C41.6965 66.9388 42.2907 67.9916 42.7477 68.6533C43.1895 69.315 43.7532 70.0669 43.9817 70.3376L44.4082 70.8339C55.1942 60.1412 55.5903 59.705 56.1082 58.6523C56.3977 58.0357 56.7633 56.9529 56.9157 56.246C57.0833 55.4189 57.1442 54.6068 57.0833 53.9902C57.0375 53.4488 56.9157 52.5916 56.7938 52.0652C56.6719 51.5539 56.5043 51.1328 56.4282 51.1478C56.352 51.1478 55.7426 51.599 55.0723 52.1253C54.402 52.6667 52.7872 53.8097 51.4922 54.6669ZM10.5879 51.2832C10.8469 51.2832 11.2887 51.4035 11.5782 51.5388C11.8676 51.6892 12.2637 52.0501 12.4618 52.3359C12.6903 52.6818 12.7969 53.0728 12.7969 53.4939C12.7969 53.8548 12.7208 54.291 12.6293 54.4714C12.5379 54.6669 10.6946 56.5619 8.54653 58.6974C6.39849 60.833 4.46372 62.6828 4.21997 62.8031C3.99146 62.9083 3.56489 63.0136 3.27544 63.0136C2.98599 63.0136 2.46802 62.8783 2.13286 62.7128C1.7063 62.5023 1.43208 62.2166 1.2188 61.7654C1.05122 61.4195 0.914111 60.9833 0.914111 60.7878C0.914111 60.6074 0.990283 60.2615 1.06646 60.0359C1.15786 59.8103 3.03169 57.8402 5.22544 55.6595C7.41919 53.4789 9.41489 51.614 9.67388 51.4937C9.93286 51.3884 10.329 51.2832 10.5879 51.2832ZM17.0625 57.75C17.352 57.75 17.8395 57.8703 18.129 58.0056C18.4184 58.156 18.8145 58.5169 19.0126 58.8027C19.2411 59.1486 19.3477 59.5396 19.3477 59.9607C19.3477 60.3216 19.2563 60.7878 19.1344 61.0134C19.0125 61.239 17.1387 63.1791 14.9754 65.2996C12.8122 67.4201 10.8622 69.2398 10.6184 69.315C10.3899 69.4052 10.009 69.4804 9.75005 69.4804C9.49106 69.4804 9.0188 69.3451 8.68364 69.1796C8.25708 68.9691 7.98286 68.6833 7.76958 68.2322C7.602 67.8863 7.46489 67.4501 7.46489 67.2546C7.46489 67.0742 7.54106 66.7283 7.61724 66.5027C7.70864 66.2771 9.552 64.3521 11.7 62.2015C13.8481 60.066 15.8133 58.1861 16.0723 58.0357C16.3313 57.8703 16.7731 57.75 17.0625 57.75ZM23.6133 64.2167C23.9028 64.2167 24.3903 64.3371 24.6797 64.4724C24.9692 64.6228 25.3653 64.9837 25.5633 65.2695C25.7918 65.6154 25.8985 66.0064 25.8985 66.4275C25.8985 66.7884 25.8071 67.2546 25.6852 67.4802C25.5633 67.7058 23.6895 69.6459 21.5262 71.7664C19.3629 73.8869 17.4129 75.7066 17.1692 75.7818C16.9407 75.872 16.5293 75.9472 16.2551 75.9472C15.9961 75.9472 15.4934 75.7818 15.1583 75.6013C14.7317 75.3607 14.4727 75.075 14.2747 74.5937C14.0614 74.0974 14.0004 73.7515 14.0918 73.3154C14.1833 72.774 14.625 72.2777 18.1747 68.7435C20.3684 66.5628 22.3641 64.6529 22.6231 64.5025C22.8821 64.3371 23.3239 64.2167 23.6133 64.2167ZM46.8457 21.8216C47.3485 21.8216 48.2321 21.9119 48.8262 22.0322C49.4204 22.1525 50.4563 22.5285 51.1418 22.8593C51.9493 23.2353 52.711 23.7466 53.2137 24.2429C53.6707 24.6791 54.3106 25.446 54.6305 25.9423C54.9657 26.4386 55.4075 27.356 55.6055 27.9726C55.9254 28.9351 55.9864 29.3712 55.9711 30.9052C55.9711 32.4242 55.9102 32.8603 55.5903 33.6875C55.3922 34.2289 54.9809 35.056 54.6915 35.5373C54.402 36.0335 53.7012 36.8457 53.1528 37.3419C52.6043 37.8533 51.7055 38.4849 51.1723 38.7556C50.6391 39.0263 49.786 39.3421 49.2832 39.4775C48.7805 39.6128 47.7446 39.7181 46.9981 39.7181C46.2211 39.7181 45.2309 39.6128 44.7129 39.4775C44.2102 39.3421 43.3571 39.0263 42.8086 38.7707C42.1079 38.4248 41.468 37.9435 40.5997 37.0863C39.7313 36.214 39.2286 35.5673 38.8782 34.8455C38.6192 34.289 38.284 33.4167 38.1622 32.8904C38.0403 32.3791 37.9336 31.4166 37.9336 30.7548C37.9336 30.0931 38.0403 29.1457 38.1622 28.6494C38.284 28.1531 38.6344 27.2658 38.9239 26.6943C39.2133 26.1078 39.7465 25.2957 40.1122 24.8896C40.4778 24.4685 41.2547 23.8218 41.8336 23.4458C42.4125 23.0699 43.1895 22.6337 43.5704 22.4834C43.9512 22.333 44.6368 22.1224 45.0938 22.0171C45.5508 21.9269 46.343 21.8367 46.8457 21.8216ZM43.8598 27.6568C43.2809 28.2433 42.9305 28.7246 42.7629 29.2509C42.6106 29.657 42.504 30.424 42.504 30.9353C42.504 31.7023 42.5954 32.0482 43.0067 32.8152C43.3418 33.4619 43.7227 33.9281 44.2559 34.3041C44.6825 34.6199 45.2614 34.9357 45.5508 35.0259C45.8403 35.1162 46.5258 35.1914 47.0743 35.1914C47.8665 35.1914 48.2473 35.1011 48.9786 34.7552C49.4813 34.5146 50.0907 34.0935 50.3344 33.8078C50.5782 33.5371 50.9133 33.0408 51.0809 32.7099C51.2485 32.364 51.4161 31.6722 51.4618 31.1308C51.5075 30.4691 51.4618 29.9126 51.2942 29.4013C51.1571 28.9802 50.761 28.3185 50.3954 27.9125C50.0297 27.5064 49.4051 27.0101 48.9786 26.7996C48.4606 26.5439 47.8969 26.4085 47.2266 26.3634C46.5665 26.3334 45.9825 26.4035 45.4747 26.574C44.9567 26.7544 44.4387 27.1003 43.8598 27.6568Z" fill="#039855"/>
</g>
<defs>
<clipPath id="clip0_5854_30773">
<rect width="78" height="77" fill="white"/>
</clipPath>
</defs>
</svg>
