<svg width="20" height="20" viewBox="0 0 20 20" fill="none" xmlns="http://www.w3.org/2000/svg">
<path d="M14.1667 2.49951H4.16667C3.24167 2.49951 2.5 3.24951 2.5 4.16618V15.8328C2.5 16.7495 3.24167 17.4995 4.16667 17.4995H15.8333C16.75 17.4995 17.5 16.7495 17.5 15.8328V5.83284L14.1667 2.49951ZM15.8333 15.8328H4.16667V4.16618H13.475L15.8333 6.52451V15.8328ZM10 9.99951C8.61667 9.99951 7.5 11.1162 7.5 12.4995C7.5 13.8828 8.61667 14.9995 10 14.9995C11.3833 14.9995 12.5 13.8828 12.5 12.4995C12.5 11.1162 11.3833 9.99951 10 9.99951ZM5 4.99951H12.5V8.33284H5V4.99951Z" fill="white"/>
</svg>
