<svg width="16" height="14" viewBox="0 0 16 14" fill="none" xmlns="http://www.w3.org/2000/svg">
<path d="M2.66667 3.00065H4V11.0007H2.66667V3.00065ZM4.66667 3.00065H5.33333V11.0007H4.66667V3.00065ZM6 3.00065H8V11.0007H6V3.00065ZM8.66667 3.00065H9.33333V11.0007H8.66667V3.00065ZM10.6667 3.00065H12V11.0007H10.6667V3.00065ZM12.6667 3.00065H13.3333V11.0007H12.6667V3.00065ZM1.33333 1.66732V4.33398H0V1.66732C0 1.3137 0.140476 0.974557 0.390524 0.724509C0.640573 0.47446 0.979711 0.333984 1.33333 0.333984H4V1.66732H1.33333ZM14.6667 0.333984C15.0203 0.333984 15.3594 0.47446 15.6095 0.724509C15.8595 0.974557 16 1.3137 16 1.66732V4.33398H14.6667V1.66732H12V0.333984H14.6667ZM1.33333 9.66732V12.334H4V13.6673H1.33333C0.979711 13.6673 0.640573 13.5268 0.390524 13.2768C0.140476 13.0267 0 12.6876 0 12.334V9.66732H1.33333ZM14.6667 12.334V9.66732H16V12.334C16 12.6876 15.8595 13.0267 15.6095 13.2768C15.3594 13.5268 15.0203 13.6673 14.6667 13.6673H12V12.334H14.6667Z" fill="#667085"/>
</svg>
