<svg width="14" height="14" viewBox="0 0 14 14" fill="none" xmlns="http://www.w3.org/2000/svg">
<path d="M6.99992 0.333984C6.12444 0.333984 5.25753 0.506423 4.4487 0.841454C3.63986 1.17649 2.90493 1.66755 2.28587 2.28661C1.03563 3.53685 0.333252 5.23254 0.333252 7.00065C0.333252 8.76876 1.03563 10.4645 2.28587 11.7147C2.90493 12.3338 3.63986 12.8248 4.4487 13.1598C5.25753 13.4949 6.12444 13.6673 6.99992 13.6673C8.76803 13.6673 10.4637 12.9649 11.714 11.7147C12.9642 10.4645 13.6666 8.76876 13.6666 7.00065C13.6666 6.12517 13.4941 5.25827 13.1591 4.44943C12.8241 3.64059 12.333 2.90566 11.714 2.28661C11.0949 1.66755 10.36 1.17649 9.55114 0.841454C8.7423 0.506423 7.8754 0.333984 6.99992 0.333984ZM3.71325 11.1873C3.99992 10.5873 5.74659 10.0007 6.99992 10.0007C8.25325 10.0007 9.99992 10.5873 10.2866 11.1873C9.37992 11.9073 8.23992 12.334 6.99992 12.334C5.75992 12.334 4.61992 11.9073 3.71325 11.1873ZM11.2399 10.2207C10.2866 9.06065 7.97325 8.66732 6.99992 8.66732C6.02659 8.66732 3.71325 9.06065 2.75992 10.2207C2.07992 9.33398 1.66659 8.21398 1.66659 7.00065C1.66659 4.06065 4.05992 1.66732 6.99992 1.66732C9.93992 1.66732 12.3333 4.06065 12.3333 7.00065C12.3333 8.21398 11.9199 9.33398 11.2399 10.2207ZM6.99992 3.00065C5.70659 3.00065 4.66659 4.04065 4.66659 5.33398C4.66659 6.62732 5.70659 7.66732 6.99992 7.66732C8.29325 7.66732 9.33325 6.62732 9.33325 5.33398C9.33325 4.04065 8.29325 3.00065 6.99992 3.00065ZM6.99992 6.33398C6.7347 6.33398 6.48035 6.22863 6.29281 6.04109C6.10528 5.85356 5.99992 5.5992 5.99992 5.33398C5.99992 5.06877 6.10528 4.81441 6.29281 4.62688C6.48035 4.43934 6.7347 4.33398 6.99992 4.33398C7.26514 4.33398 7.51949 4.43934 7.70703 4.62688C7.89456 4.81441 7.99992 5.06877 7.99992 5.33398C7.99992 5.5992 7.89456 5.85356 7.70703 6.04109C7.51949 6.22863 7.26514 6.33398 6.99992 6.33398Z" fill="#667085"/>
</svg>
