<svg width="292" height="165" viewBox="0 0 292 165" fill="none" xmlns="http://www.w3.org/2000/svg">
<path d="M22.6005 35.7975C30.3135 35.7975 36.5662 29.5139 36.5662 21.7627C36.5662 14.0116 30.3135 7.72803 22.6005 7.72803C14.8874 7.72803 8.63477 14.0116 8.63477 21.7627C8.63477 29.5139 14.8874 35.7975 22.6005 35.7975Z" fill="#25009D"/>
<path d="M134.967 165C209.415 165 269.767 162.541 269.767 159.508C269.767 156.475 209.415 154.016 134.967 154.016C60.5183 154.016 0.166016 156.475 0.166016 159.508C0.166016 162.541 60.5183 165 134.967 165Z" fill="#E6E6E6"/>
<path d="M34.4731 90.6822C53.4204 90.6822 68.7802 75.2465 68.7802 56.2056C68.7802 37.1647 53.4204 21.729 34.4731 21.729C15.5258 21.729 0.166016 37.1647 0.166016 56.2056C0.166016 75.2465 15.5258 90.6822 34.4731 90.6822Z" fill="#4DB151"/>
<path d="M37.7808 160.051H30.7539L33.9572 51.0137L37.7808 160.051Z" fill="#3F3D56"/>
<path d="M34.5764 71.6786L42.12 61.1904L34.4732 74.2747L33.6465 72.8209L34.5764 71.6786Z" fill="#3F3D56"/>
<path d="M33.7503 82.2709L26.207 71.7827L33.8539 84.867L34.6806 83.4132L33.7503 82.2709Z" fill="#3F3D56"/>
<path d="M139.536 160.147C174.833 160.147 203.446 131.393 203.446 95.9219C203.446 60.4514 174.833 31.6968 139.536 31.6968C104.24 31.6968 75.627 60.4514 75.627 95.9219C75.627 131.393 104.24 160.147 139.536 160.147Z" fill="#3F3D56"/>
<path d="M139.537 154.831C171.911 154.831 198.156 128.456 198.156 95.9222C198.156 63.3879 171.911 37.0137 139.537 37.0137C107.163 37.0137 80.918 63.3879 80.918 95.9222C80.918 128.456 107.163 154.831 139.537 154.831Z" fill="white"/>
<path d="M139.324 104.003C143.648 104.003 147.154 100.48 147.154 96.1348C147.154 91.789 143.648 88.2661 139.324 88.2661C135 88.2661 131.494 91.789 131.494 96.1348C131.494 100.48 135 104.003 139.324 104.003Z" fill="#3F3D56"/>
<path d="M141.019 39.9912H137.633V46.3712H141.019V39.9912Z" fill="#3F3D56"/>
<path d="M141.019 145.898H137.633V152.278H141.019V145.898Z" fill="#3F3D56"/>
<path d="M89.8066 97.8363V94.4336H83.458V97.8363H89.8066Z" fill="#3F3D56"/>
<path d="M195.193 97.8363V94.4336H188.845V97.8363H195.193Z" fill="#3F3D56"/>
<path d="M137.068 99.5505L139.962 92.9014L176.22 113.081L137.068 99.5505Z" fill="#3F3D56"/>
<path d="M147.79 16.1724H131.283V35.3123H147.79V16.1724Z" fill="#3F3D56"/>
<path d="M139.536 21.4893C150.055 21.4893 158.582 19.1089 158.582 16.1726C158.582 13.2363 150.055 10.856 139.536 10.856C129.017 10.856 120.49 13.2363 120.49 16.1726C120.49 19.1089 129.017 21.4893 139.536 21.4893Z" fill="#3F3D56"/>
<path d="M289.801 12.8603C289.619 9.63507 288.304 6.5794 286.089 4.23815C283.874 1.89689 280.904 0.422223 277.708 0.0770744C274.511 -0.268075 271.297 0.538729 268.638 2.35363C265.979 4.16854 264.047 6.87358 263.188 9.98646C263.024 9.98053 262.859 9.9739 262.694 9.9739C259.763 9.97444 256.912 10.9285 254.566 12.6933C252.22 14.4581 250.505 16.9388 249.679 19.7643C247.737 18.9069 245.567 18.7208 243.509 19.2354C241.451 19.7499 239.621 20.9359 238.305 22.6076H280.615C281.85 22.6111 283.072 22.3643 284.209 21.8819C285.347 21.3995 286.375 20.6915 287.234 19.8002C288.092 18.9089 288.763 17.8526 289.206 16.6947C289.648 15.5368 289.854 14.3011 289.81 13.0614C289.808 12.9945 289.804 12.9275 289.801 12.8603Z" fill="#E6E6E6"/>
<path d="M266.398 160.165H259.371L262.574 51.1279L266.398 160.165Z" fill="#3F3D56"/>
<path d="M263.194 71.7934L270.737 61.3052L263.09 74.3895L262.264 72.9357L263.194 71.7934Z" fill="#3F3D56"/>
<path d="M262.368 82.3857L254.824 71.8975L262.471 84.9818L263.298 83.528L262.368 82.3857Z" fill="#3F3D56"/>
<path d="M254.428 41.548C256.44 41.548 258.072 39.9089 258.072 37.8868C258.072 35.8648 256.44 34.2256 254.428 34.2256C252.416 34.2256 250.785 35.8648 250.785 37.8868C250.785 39.9089 252.416 41.548 254.428 41.548Z" fill="#25009D"/>
<path d="M265.43 32.3036C267.105 32.3036 268.464 30.9387 268.464 29.2551C268.464 27.5714 267.105 26.2065 265.43 26.2065C263.755 26.2065 262.396 27.5714 262.396 29.2551C262.396 30.9387 263.755 32.3036 265.43 32.3036Z" fill="#25009D"/>
<path d="M280.235 49.4807C282.247 49.4807 283.878 47.8415 283.878 45.8194C283.878 43.7974 282.247 42.1582 280.235 42.1582C278.223 42.1582 276.592 43.7974 276.592 45.8194C276.592 47.8415 278.223 49.4807 280.235 49.4807Z" fill="#4DB151"/>
<path d="M252.608 66.2614C254.62 66.2614 256.251 64.6222 256.251 62.6002C256.251 60.5782 254.62 58.939 252.608 58.939C250.596 58.939 248.965 60.5782 248.965 62.6002C248.965 64.6222 250.596 66.2614 252.608 66.2614Z" fill="#4DB151"/>
<path d="M280.235 87.3137C282.247 87.3137 283.878 85.6745 283.878 83.6524C283.878 81.6304 282.247 79.9912 280.235 79.9912C278.223 79.9912 276.592 81.6304 276.592 83.6524C276.592 85.6745 278.223 87.3137 280.235 87.3137Z" fill="#4DB151"/>
<path d="M274.461 154.249C274.462 154.21 274.467 154.171 274.467 154.131C274.468 153.517 274.315 152.914 274.023 152.375C273.731 151.836 273.308 151.38 272.794 151.049C272.281 150.718 271.692 150.521 271.083 150.479C270.474 150.436 269.864 150.548 269.31 150.804C268.789 150.2 268.086 149.785 267.308 149.621C266.53 149.457 265.72 149.555 265.002 149.898C264.285 150.241 263.699 150.811 263.334 151.521C262.97 152.231 262.847 153.042 262.985 153.829C262.967 153.828 262.949 153.826 262.93 153.826C262.35 153.825 261.778 153.963 261.262 154.229C260.746 154.495 260.301 154.881 259.963 155.355C259.625 155.828 259.405 156.376 259.32 156.953C259.236 157.53 259.289 158.118 259.477 158.67C259.664 159.221 259.98 159.72 260.398 160.124C260.815 160.529 261.323 160.827 261.879 160.994C262.434 161.161 263.022 161.193 263.592 161.086C264.162 160.979 264.699 160.737 265.157 160.38C265.446 160.946 265.877 161.427 266.408 161.775C266.938 162.122 267.55 162.325 268.182 162.362C268.814 162.4 269.445 162.271 270.012 161.988C270.58 161.706 271.064 161.28 271.418 160.752C271.851 161.069 272.349 161.285 272.876 161.387C273.402 161.488 273.944 161.471 274.464 161.337C274.983 161.203 275.466 160.956 275.88 160.612C276.293 160.269 276.625 159.838 276.853 159.351C277.082 158.863 277.2 158.331 277.2 157.792C277.199 157.253 277.081 156.721 276.852 156.234C276.624 155.747 276.291 155.316 275.878 154.973C275.464 154.63 274.981 154.383 274.461 154.249Z" fill="#E6E6E6"/>
<path d="M283.575 70.533C284.413 70.533 285.093 69.85 285.093 69.0074C285.093 68.1649 284.413 67.4819 283.575 67.4819C282.736 67.4819 282.057 68.1649 282.057 69.0074C282.057 69.85 282.736 70.533 283.575 70.533Z" fill="#E6E6E6"/>
<path d="M273.86 33.9207C274.698 33.9207 275.378 33.2377 275.378 32.3951C275.378 31.5526 274.698 30.8696 273.86 30.8696C273.021 30.8696 272.342 31.5526 272.342 32.3951C272.342 33.2377 273.021 33.9207 273.86 33.9207Z" fill="#E6E6E6"/>
<path d="M268.698 71.7532C269.536 71.7532 270.216 71.0702 270.216 70.2277C270.216 69.3851 269.536 68.7021 268.698 68.7021C267.859 68.7021 267.18 69.3851 267.18 70.2277C267.18 71.0702 267.859 71.7532 268.698 71.7532Z" fill="#E6E6E6"/>
<path d="M269.913 70.2278C270.751 70.2278 271.431 69.5448 271.431 68.7023C271.431 67.8598 270.751 67.1768 269.913 67.1768C269.074 67.1768 268.395 67.8598 268.395 68.7023C268.395 69.5448 269.074 70.2278 269.913 70.2278Z" fill="#E6E6E6"/>
<path d="M270.825 68.7024C271.663 68.7024 272.343 68.0194 272.343 67.1769C272.343 66.3344 271.663 65.6514 270.825 65.6514C269.986 65.6514 269.307 66.3344 269.307 67.1769C269.307 68.0194 269.986 68.7024 270.825 68.7024Z" fill="#E6E6E6"/>
<path d="M267.18 81.5168C268.018 81.5168 268.698 80.8338 268.698 79.9913C268.698 79.1488 268.018 78.4658 267.18 78.4658C266.342 78.4658 265.662 79.1488 265.662 79.9913C265.662 80.8338 266.342 81.5168 267.18 81.5168Z" fill="#E6E6E6"/>
<path d="M289.647 98.6023C290.485 98.6023 291.165 97.9193 291.165 97.0768C291.165 96.2343 290.485 95.5513 289.647 95.5513C288.809 95.5513 288.129 96.2343 288.129 97.0768C288.129 97.9193 288.809 98.6023 289.647 98.6023Z" fill="#25009D"/>
<path d="M257.163 99.5178C258.001 99.5178 258.681 98.8348 258.681 97.9923C258.681 97.1498 258.001 96.4668 257.163 96.4668C256.324 96.4668 255.645 97.1498 255.645 97.9923C255.645 98.8348 256.324 99.5178 257.163 99.5178Z" fill="#25009D"/>
<path d="M258.983 52.532C259.821 52.532 260.501 51.849 260.501 51.0065C260.501 50.164 259.821 49.481 258.983 49.481C258.144 49.481 257.465 50.164 257.465 51.0065C257.465 51.849 258.144 52.532 258.983 52.532Z" fill="#E6E6E6"/>
<path d="M265.965 79.991C266.804 79.991 267.483 79.308 267.483 78.4655C267.483 77.6229 266.804 76.9399 265.965 76.9399C265.127 76.9399 264.447 77.6229 264.447 78.4655C264.447 79.308 265.127 79.991 265.965 79.991Z" fill="#E6E6E6"/>
<path d="M264.448 77.5505C265.286 77.5505 265.966 76.8675 265.966 76.025C265.966 75.1825 265.286 74.4995 264.448 74.4995C263.609 74.4995 262.93 75.1825 262.93 76.025C262.93 76.8675 263.609 77.5505 264.448 77.5505Z" fill="#E6E6E6"/>
<path d="M205.567 100.663L204.387 102.324C204.387 102.324 198.957 108.73 198.72 105.645C198.484 102.561 202.734 100.426 202.734 100.426L205.095 99.002L205.567 100.663Z" fill="#FFB8B8"/>
<path d="M239.174 106.267L240.163 108.05C240.163 108.05 243.6 115.723 240.725 114.618C237.85 113.512 237.748 108.738 237.748 108.738L237.479 105.985L239.174 106.267Z" fill="#FFB8B8"/>
<path d="M233.859 74.6514C237.829 74.6514 241.048 71.417 241.048 67.427C241.048 63.4371 237.829 60.2026 233.859 60.2026C229.889 60.2026 226.67 63.4371 226.67 67.427C226.67 71.417 229.889 74.6514 233.859 74.6514Z" fill="#2F2E41"/>
<path d="M233.189 126.762L234.134 132.93V134.829H239.564V132.456C239.564 132.456 239.8 128.185 238.856 126.999C237.911 125.813 233.189 126.762 233.189 126.762Z" fill="#FFB8B8"/>
<path d="M223.51 126.762L224.454 132.93V134.829H229.884V132.456C229.884 132.456 230.12 128.185 229.176 126.999C228.232 125.813 223.51 126.762 223.51 126.762Z" fill="#FFB8B8"/>
<path d="M227.164 77.2104C227.164 77.2104 225.076 78.3167 226.502 80.8331C227.929 83.3495 236.299 109.383 236.299 109.383L241.127 108.006L236.869 91.5413L234.431 81.1931L227.164 77.2104Z" fill="#4DB151"/>
<path d="M233.073 74.9202C236.072 74.9202 238.503 72.4771 238.503 69.4633C238.503 66.4495 236.072 64.0063 233.073 64.0063C230.074 64.0063 227.643 66.4495 227.643 69.4633C227.643 72.4771 230.074 74.9202 233.073 74.9202Z" fill="#FFB8B8"/>
<path d="M235.551 70.2939L234.843 81.4451L229.885 77.8862C229.885 77.8862 231.537 71.243 231.065 70.7684L235.551 70.2939Z" fill="#FFB8B8"/>
<path d="M235.551 80.4961L230.21 76.5214C230.21 76.5214 227.76 75.5137 227.052 76.6999C226.343 77.8862 222.802 95.4434 224.691 98.765C224.691 98.765 234.843 100.9 236.968 99.7141L237.912 93.5453C237.912 93.5453 239.092 89.7492 237.204 87.3766L235.551 80.4961Z" fill="#4DB151"/>
<path d="M228.467 76.9367C228.467 76.9367 226.578 75.5132 224.926 77.8858C223.273 80.2583 203.441 99.0018 203.441 99.0018L206.747 102.798L219.732 91.884L227.995 85.2408L228.467 76.9367Z" fill="#4DB151"/>
<path d="M237.085 99.5953C237.085 99.5953 225.399 97.3413 224.218 99.0021L223.982 101.612C223.982 101.612 221.385 106.594 222.802 114.661C224.218 122.728 223.274 127.71 223.274 127.71C223.274 127.71 229.648 126.999 234.37 127.71C239.092 128.422 239.8 127.71 239.8 127.71L237.085 99.5953Z" fill="#2F2E41"/>
<path d="M240.036 133.879L233.189 134.117L235.55 151.911C235.55 151.911 233.662 159.503 235.786 159.978C237.264 160.277 238.765 160.436 240.272 160.452C240.272 160.452 242.397 162.588 244.758 162.35C246.326 162.149 247.845 161.667 249.244 160.927C249.244 160.927 249.716 159.503 248.063 159.029C246.411 158.554 241.925 157.131 240.98 152.148L240.036 133.879Z" fill="#2F2E41"/>
<path d="M230.356 133.879L223.51 134.117L225.871 151.911C225.871 151.911 223.982 159.503 226.107 159.978C227.584 160.277 229.086 160.436 230.593 160.452C230.593 160.452 232.717 162.588 235.078 162.35C236.646 162.149 238.165 161.667 239.564 160.927C239.564 160.927 240.036 159.503 238.384 159.029C236.731 158.554 232.245 157.131 231.301 152.148L230.356 133.879Z" fill="#2F2E41"/>
<path d="M236.373 62.8133C238.016 62.8133 239.348 61.4749 239.348 59.8239C239.348 58.1729 238.016 56.8345 236.373 56.8345C234.73 56.8345 233.398 58.1729 233.398 59.8239C233.398 61.4749 234.73 62.8133 236.373 62.8133Z" fill="#2F2E41"/>
<path d="M240.341 58.2043C240.341 57.4653 240.068 56.7526 239.576 56.2036C239.084 55.6545 238.407 55.308 237.676 55.231C237.779 55.2203 237.882 55.2149 237.986 55.2148C238.775 55.2148 239.531 55.5298 240.089 56.0904C240.647 56.651 240.96 57.4114 240.96 58.2042C240.96 58.9971 240.647 59.7575 240.089 60.3181C239.531 60.8787 238.775 61.1937 237.986 61.1937C237.882 61.1936 237.779 61.1882 237.676 61.1775C238.407 61.1005 239.084 60.754 239.576 60.205C240.068 59.6559 240.341 58.9432 240.341 58.2043Z" fill="#2F2E41"/>
<path d="M233.022 68.8851C235.76 68.8851 237.98 67.5467 237.98 65.8957C237.98 64.2447 235.76 62.9062 233.022 62.9062C230.284 62.9062 228.064 64.2447 228.064 65.8957C228.064 67.5467 230.284 68.8851 233.022 68.8851Z" fill="#2F2E41"/>
</svg>
