<svg width="1192" height="1013" viewBox="0 0 1192 1013" fill="none" xmlns="http://www.w3.org/2000/svg">
<rect width="1192" height="1013" transform="translate(0 -0.000976562)" fill="#F2F4F7"/>
<path d="M823.087 533.386C847.223 576.589 812.298 661.354 590.798 602.444C479.741 572.907 396.786 639.445 379.692 593.001C339.873 484.819 502.486 359.678 592.912 447.046C675.566 526.904 779.159 454.755 823.087 533.386Z" stroke="#E4E4E4" stroke-width="4" stroke-miterlimit="10" stroke-dasharray="32.09 32.09"/>
<path d="M821.815 628.484H370.184C384.318 524.028 480.021 443.23 596 443.23C711.971 443.23 807.681 524.028 821.815 628.484Z" fill="#F6F5F5"/>
<path d="M762.945 627.566H593.073C585.164 627.566 578.752 621.152 578.752 613.241V369.503C578.752 361.592 585.164 355.179 593.073 355.179H762.945C770.854 355.179 777.265 361.592 777.265 369.503V613.242C777.265 621.152 770.854 627.566 762.945 627.566Z" fill="#A9BAE6"/>
<path d="M760.084 366.157H596.693V603.569H760.084V366.157Z" fill="#F6F5F5"/>
<path d="M760.084 366.158C760.135 458.736 763.123 570.39 752.727 595.111C706.936 599.573 653.319 601.006 596.691 601.272L618.216 366.874L760.084 366.158Z" fill="#E4E4E4"/>
<path d="M745.409 587.63C674.036 599.055 626.334 599.658 587.646 596.784C592.66 543.399 594.669 454.713 596.691 366.169L682.696 366.36L760.534 371.499C761.669 463.399 761.793 548.288 745.409 587.63Z" fill="white"/>
<path d="M720.184 390.06L634.232 388.039L633.925 401.135L719.876 403.156L720.184 390.06Z" fill="#708CD5"/>
<path d="M736.755 422.105L659.227 420.282L659.086 426.276L736.614 428.099L736.755 422.105Z" fill="#708CD5"/>
<path d="M711.616 434.591L658.919 433.352L658.779 439.346L711.476 440.585L711.616 434.591Z" fill="#D3DFFF"/>
<path d="M634.798 420.06L616.444 419.629L616.012 437.988L634.366 438.419L634.798 420.06Z" fill="white" stroke="#708CD5" stroke-width="6" stroke-miterlimit="10"/>
<path d="M619.439 424.471C620.005 426.641 621.052 435.731 625.603 433.189C626.652 432.603 627.541 431.054 628.326 430.162C629.737 428.56 631.148 426.957 632.559 425.354C635.381 422.149 638.204 418.944 641.026 415.739C641.749 414.917 638.556 412.857 637.647 413.888C635.139 416.737 632.63 419.586 630.121 422.435C628.867 423.86 627.613 425.284 626.358 426.709C625.488 427.698 623.475 430.886 622.183 431.169C622.886 431.396 623.588 431.623 624.29 431.85C624.787 432.257 623.865 429.369 623.844 429.291C623.494 427.95 623.144 426.61 622.794 425.269C622.504 424.162 619.01 422.83 619.439 424.471Z" fill="#4DB151"/>
<path d="M722.285 455.16L658.442 453.659L658.301 459.653L722.144 461.155L722.285 455.16Z" fill="#708CD5"/>
<path d="M735.663 468.552L658.135 466.729L657.994 472.724L735.522 474.547L735.663 468.552Z" fill="#D3DFFF"/>
<path d="M634.013 453.437L615.659 453.006L615.228 471.365L633.581 471.796L634.013 453.437Z" fill="white" stroke="#708CD5" stroke-width="6" stroke-miterlimit="10"/>
<path d="M618.64 458.367C619.207 460.537 620.254 469.627 624.804 467.085C625.854 466.499 626.742 464.949 627.527 464.058C628.938 462.455 630.349 460.853 631.761 459.25C634.583 456.045 637.405 452.84 640.228 449.634C640.951 448.813 637.757 446.753 636.849 447.784C634.34 450.633 631.832 453.482 629.323 456.331C628.069 457.756 626.814 459.18 625.56 460.605C624.689 461.593 622.677 464.782 621.385 465.065C622.087 465.291 622.79 465.518 623.492 465.745C623.988 466.153 623.066 463.265 623.046 463.186C622.695 461.846 622.345 460.505 621.996 459.165C621.706 458.057 618.212 456.726 618.64 458.367Z" fill="#4DB151"/>
<path d="M735.186 488.86L657.658 487.037L657.517 493.031L735.045 494.854L735.186 488.86Z" fill="#708CD5"/>
<path d="M692.022 500.923L657.351 500.107L657.21 506.102L691.881 506.917L692.022 500.923Z" fill="#D3DFFF"/>
<path d="M633.229 486.816L614.875 486.385L614.444 504.744L632.797 505.175L633.229 486.816Z" fill="white" stroke="#708CD5" stroke-width="6" stroke-miterlimit="10"/>
<path d="M618.104 491.984C618.671 494.154 619.717 503.244 624.268 500.702C625.317 500.116 626.206 498.566 626.991 497.675C628.402 496.072 629.813 494.47 631.225 492.867C634.047 489.662 636.869 486.457 639.691 483.251C640.415 482.43 637.221 480.37 636.313 481.401C633.804 484.25 631.296 487.099 628.787 489.948C627.533 491.373 626.278 492.797 625.024 494.222C624.153 495.21 622.141 498.399 620.849 498.682C621.551 498.909 622.254 499.136 622.956 499.362C623.452 499.77 622.53 496.882 622.51 496.804C622.16 495.463 621.809 494.122 621.46 492.782C621.17 491.675 617.676 490.343 618.104 491.984Z" fill="#4DB151"/>
<path d="M734.401 522.237L656.873 520.414L656.732 526.408L734.26 528.231L734.401 522.237Z" fill="#708CD5"/>
<path d="M717.81 534.923L656.566 533.483L656.425 539.478L717.669 540.918L717.81 534.923Z" fill="#D3DFFF"/>
<path d="M632.444 520.193L614.09 519.762L613.659 538.121L632.013 538.552L632.444 520.193Z" fill="white" stroke="#708CD5" stroke-width="6" stroke-miterlimit="10"/>
<path d="M617.324 525.143C617.891 527.313 618.938 536.403 623.488 533.861C624.538 533.275 625.426 531.726 626.211 530.834C627.622 529.232 629.034 527.629 630.445 526.026C633.267 522.821 636.089 519.616 638.912 516.411C639.635 515.589 636.441 513.529 635.533 514.56C633.024 517.409 630.516 520.258 628.007 523.107C626.753 524.532 625.498 525.956 624.244 527.381C623.373 528.37 621.361 531.558 620.069 531.841C620.771 532.068 621.474 532.295 622.176 532.522C622.672 532.929 621.75 530.041 621.73 529.963C621.38 528.622 621.03 527.282 620.68 525.941C620.39 524.834 616.896 523.502 617.324 525.143Z" fill="#4DB151"/>
<path d="M686.827 554.262L656.095 553.539L655.954 559.533L686.686 560.256L686.827 554.262Z" fill="#708CD5"/>
<path d="M733.318 568.45L655.788 566.625L655.647 572.619C685.642 573.323 723.834 574.729 731.627 573.533C732.81 572.188 733.448 570.535 733.318 568.45Z" fill="#D3DFFF"/>
<path d="M631.923 553.324L613.569 552.893L613.137 571.251L631.491 571.683L631.923 553.324Z" fill="white" stroke="#708CD5" stroke-width="6" stroke-miterlimit="10"/>
<path d="M616.551 558.011C617.118 560.181 618.164 569.271 622.715 566.729C623.764 566.143 624.653 564.594 625.438 563.702C626.849 562.1 628.26 560.497 629.671 558.894C632.494 555.689 635.316 552.484 638.138 549.279C638.861 548.457 635.668 546.397 634.76 547.428C632.251 550.277 629.742 553.126 627.234 555.975C625.979 557.4 624.725 558.824 623.471 560.249C622.6 561.238 620.587 564.426 619.296 564.709C619.998 564.936 620.7 565.163 621.403 565.39C621.899 565.797 620.977 562.909 620.956 562.831C620.606 561.49 620.256 560.15 619.906 558.809C619.617 557.702 616.123 556.37 616.551 558.011Z" fill="#4DB151"/>
<path d="M714.808 356.829V375.153H641.208V356.829C641.208 353.907 642.395 351.263 644.306 349.343C644.545 349.104 644.792 348.881 645.054 348.673C646.88 347.154 649.231 346.244 651.789 346.244C653.708 346.244 655.55 345.805 657.2 345.011C657.916 344.664 658.594 344.255 659.234 343.785C661.338 342.228 662.949 340.015 663.75 337.379C664.567 334.689 666.24 332.438 668.405 330.873C670.486 329.377 673.021 328.514 675.711 328.514H680.304C682.994 328.514 685.53 329.377 687.61 330.873C689.776 332.438 691.448 334.689 692.265 337.379C693.067 340.015 694.677 342.228 696.781 343.785C697.421 344.255 698.099 344.664 698.816 345.011C700.465 345.805 702.307 346.244 704.226 346.244C706.785 346.244 709.135 347.154 710.962 348.673C713.312 350.607 714.808 353.545 714.808 356.829Z" fill="#4DB151"/>
<path d="M720.78 366.156V379.778H635.235V366.156H641.208V375.153H714.807V366.156H720.78Z" fill="#E4E4E4"/>
<path d="M678.009 345.704C681.614 345.704 684.537 342.925 684.537 339.497C684.537 336.07 681.614 333.291 678.009 333.291C674.403 333.291 671.48 336.07 671.48 339.497C671.48 342.925 674.403 345.704 678.009 345.704Z" fill="white"/>
<path d="M536.959 425.285C534.349 424.791 531.909 420.428 531.061 418.755C530.852 418.344 530.788 417.88 530.873 417.427L531.912 411.919C531.912 411.919 534.309 412.327 534.124 415.52C534.104 415.852 534.172 416.182 534.291 416.493L535.208 418.894L537.922 416.793L536.434 412.591C536.434 412.591 534.443 413.138 533.414 412.81C531.303 412.136 534.071 410.49 534.946 410.315C535.821 410.14 537.747 409.439 538.622 410.928C539.497 412.416 540.022 413.291 540.022 413.291C540.022 413.291 540.985 409.965 540.329 402.523C540.299 402.188 541.138 402.196 541.373 402.435C542.078 403.153 543.201 405.337 543.261 411.978C543.261 411.978 543.378 404.239 544.705 403.442C545.799 402.786 546.351 406.574 545.581 412.998C545.581 412.998 547.009 407.436 548.031 407.426C549.755 407.409 548.053 422.281 543.718 426.714L536.959 425.285Z" fill="#F9B384"/>
<path d="M545.143 423.009C545.066 423.749 544.982 424.466 544.889 425.16V425.167C544.581 427.634 544.196 429.839 543.749 431.728C543.725 431.82 543.71 431.905 543.687 431.99C542.369 437.394 542.13 440.038 537.629 439.329L532.998 434.056L532.951 434.002L532.612 433.616L533.553 430.841L533.676 430.479L534.369 428.459L534.454 428.197L535.641 424.72L536.119 423.309L545.143 423.009Z" fill="#F9B384"/>
<path d="M459.095 615.013L457.916 618.699C449.832 621.355 445.117 624.399 444.814 627.949H468.192L470.066 615.608C465.331 616.764 461.537 615.96 459.095 615.013Z" fill="#1F3C88"/>
<path d="M462.026 605.851L459.095 615.013C461.537 615.96 465.331 616.764 470.066 615.609L471.274 607.649L462.026 605.851Z" fill="#F9B384"/>
<path d="M501.993 614.605L502.679 605.272L491.697 605.851L491.097 614.454C495.747 615.936 499.59 615.356 501.993 614.605Z" fill="#F9B384"/>
<path d="M515.203 627.95C514.901 624.4 510.771 619.534 501.716 618.378L501.993 614.605C499.59 615.356 495.747 615.937 491.097 614.454L490.156 627.95H515.203Z" fill="#1F3C88"/>
<path d="M493.092 427.681L479.844 427.774V407.73H492.691L492.699 408.956L492.761 415.308L492.853 425.507L493.092 427.681Z" fill="#F9B384"/>
<path d="M492.761 416.272C490.379 418.777 484.168 415.948 481.547 413.189L492.699 409.92L492.761 416.272Z" fill="#E28B6D"/>
<path d="M495.836 403.105C495.828 404.585 495.736 406.134 495.489 407.615C494.842 411.654 493.131 415.146 489.185 415.254C479.86 415.524 477.201 410.189 475.444 405.826C473.687 401.455 476.538 390.948 476.538 390.948L488.607 389.753L495.235 395.188C495.235 395.188 495.874 398.88 495.836 403.105Z" fill="#F9B384"/>
<path d="M475.82 403.327C475.82 403.327 478.48 403.205 478.935 396.336C483.692 397.928 487.168 396.476 489.923 393.307C492.273 396.412 498.852 397.385 501.074 391.028C502.68 386.434 498.248 379.593 491.794 383.736C485.468 380.54 475.874 380.759 473.113 388.6C473.113 388.6 463.515 393.027 473.678 402.773C473.882 402.969 475.82 403.327 475.82 403.327Z" fill="#102048"/>
<path d="M512.507 499.718L505.184 610.476H487.972L492.275 503L494.908 501.78L512.507 499.718Z" fill="#102048"/>
<path d="M467.678 484.563L455.604 610.475H474.357L492.211 505.891L512.506 499.724L513.405 477.368L468.192 476.34L467.678 484.563Z" fill="#1F3C88"/>
<path opacity="0.6" d="M470.37 484.837C480.613 488.516 504.645 484.312 509.635 479.189L506.089 472.096L466.562 477.35L470.37 484.837Z" fill="#102048"/>
<path d="M508.714 477.481C508.382 477.619 508.043 477.766 507.697 477.897C503.866 479.454 499.504 480.819 494.857 481.721C492.083 482.268 489.193 482.638 486.249 482.777C481.81 483 477.247 482.707 472.731 481.682L478.472 428.136L479.174 421.606C479.174 421.606 486.688 430.857 494.973 420.643L508.714 477.481Z" fill="white"/>
<path opacity="0.3" d="M486.249 482.777C481.81 483 477.247 482.708 472.731 481.682L478.472 428.136L480.522 425.172C485.586 437.491 490.772 464.769 486.249 482.777Z" fill="#1F3C88"/>
<path d="M479.848 419.486C485.557 443.731 487.906 468.679 479.495 496.383C473.258 498.756 466.467 498.729 459.201 496.64L460.999 446.275L418.676 475.376L416.107 459.509C432.376 443.948 460.506 420.44 479.848 419.486Z" fill="#708CD5"/>
<path opacity="0.3" d="M507.697 477.897C503.866 479.454 499.504 480.819 494.857 481.721C492.306 467.089 491.744 443.053 493.817 432.206L507.697 477.897Z" fill="#1F3C88"/>
<path opacity="0.6" d="M543.749 431.728C543.726 431.82 543.71 431.905 543.687 431.99C542.369 437.394 542.13 440.038 537.63 439.329L532.998 434.056L532.952 434.002L533.553 430.841L533.676 430.479L534.37 428.459L534.454 428.197L543.749 431.728Z" fill="#E28B6D"/>
<path d="M542.947 436.639C542.947 436.639 531.58 460.729 524.837 461.307C518.299 461.868 515.203 455.526 515.203 455.526L519.827 490.732C514.394 493.276 508.467 494.517 501.585 493.299C495.474 473.449 493.164 447.782 492.709 419.197C497.657 419.506 507.456 419.928 510.964 422.184C517.258 426.232 525.029 440.686 525.029 440.686L534.085 428.352L542.947 436.639Z" fill="#708CD5"/>
<path d="M404.368 402.696C404.368 402.696 405.056 391.171 406.229 391.715C407.401 392.259 409.753 402.28 409.753 402.28L407.239 406.339L404.368 402.696Z" fill="#6F3428"/>
<path d="M438.963 610.797L439.304 614.59C439.905 621.285 434.966 627.201 428.273 627.803L427.298 627.89C420.605 628.492 414.69 623.551 414.089 616.856L413.748 613.063L438.963 610.797Z" fill="#EE6F57"/>
<path d="M422.471 427.139L397.256 429.405L413.755 613.065L438.97 610.799L422.471 427.139Z" fill="#FBC343"/>
<path opacity="0.3" d="M414.008 424.186L405.053 424.991L419.515 585.976L428.47 585.171L414.008 424.186Z" stroke="#6F3428" stroke-width="8" stroke-miterlimit="10"/>
<path d="M438.96 610.799L413.751 613.065L413.088 605.665L412.626 600.523L411.2 584.72L436.417 582.453L437.835 598.256L438.297 603.398L438.96 610.799Z" fill="#102048"/>
<path d="M437.831 598.264L412.622 600.53L413.084 605.672L438.293 603.406L437.831 598.264Z" fill="#FBC343"/>
<path d="M397.249 429.405L404.253 401.327C404.253 401.327 406.671 402.399 409.603 400.588L422.466 427.139L397.249 429.405Z" fill="#EE6F57"/>
<path d="M477.215 402.165C477.102 401.75 475.22 401.181 474.806 401.067C474.165 400.889 473.466 400.802 472.84 401.085C470.565 402.113 470.869 405.373 472.048 407.086C472.716 408.056 473.694 408.803 474.831 409.129C475.244 409.247 479.159 409.294 478.987 408.665C478.986 408.662 477.219 402.179 477.215 402.165Z" fill="#F9B384"/>
<path d="M405.574 467.667C404.983 465.81 403.037 464.768 401.195 465.404C398.327 466.395 395.829 468.076 395.441 470.935C395.089 473.539 396.391 481.856 402.206 482.924L401.731 478.651C401.731 478.651 405.292 477.82 406.004 476.277C406.502 475.196 406.535 470.684 405.574 467.667Z" fill="#F9B384"/>
<path d="M513.426 439.062C513.732 440.883 513.992 442.708 514.242 444.535C514.5 446.361 514.705 448.192 514.94 450.021L515.537 455.519C515.712 457.354 515.882 459.19 515.995 461.033L515.696 461.068C515.381 459.249 515.123 457.423 514.869 455.597L514.182 450.11C513.988 448.276 513.765 446.447 513.596 444.61C513.417 442.775 513.249 440.939 513.127 439.098L513.426 439.062Z" fill="#1F3C88"/>
<path d="M461.599 438.766C461.595 440.81 461.545 442.852 461.485 444.893C461.433 446.935 461.328 448.974 461.252 451.015L460.918 457.132C460.781 459.17 460.641 461.207 460.443 463.242L460.142 463.228C460.137 461.183 460.189 459.142 460.245 457.1L460.489 450.979C460.606 448.94 460.693 446.9 460.834 444.863C460.967 442.825 461.109 440.787 461.298 438.752L461.599 438.766Z" fill="#1F3C88"/>
<path d="M486.568 401.974C486.73 402.701 486.431 403.387 485.899 403.506C485.367 403.625 484.804 403.133 484.641 402.406C484.478 401.679 484.777 400.993 485.309 400.873C485.841 400.754 486.405 401.247 486.568 401.974Z" fill="#102048"/>
<path d="M494.249 401.075C494.218 401.819 493.75 402.404 493.206 402.381C492.661 402.358 492.245 401.736 492.276 400.991C492.308 400.247 492.775 399.662 493.32 399.685C493.865 399.708 494.281 400.33 494.249 401.075Z" fill="#102048"/>
<path d="M489.966 401.686C490.23 402.322 490.188 403.009 490.359 403.532C490.446 403.796 490.566 404.028 490.732 404.172C490.886 404.313 491.137 404.405 491.455 404.528C491.782 404.655 492.13 404.881 492.368 405.216C492.62 405.543 492.69 406.108 492.462 406.478C492.257 406.848 491.962 407.051 491.708 407.24C491.444 407.418 491.19 407.608 490.915 407.774L490.717 407.547C490.919 407.298 491.142 407.071 491.354 406.833C491.573 406.608 491.774 406.388 491.852 406.184C492.015 405.828 491.666 405.438 491.16 405.236C490.899 405.117 490.524 405.013 490.22 404.703C489.928 404.404 489.784 404.031 489.726 403.683C489.598 402.969 489.744 402.358 489.675 401.764L489.966 401.686Z" fill="#E28B6D"/>
<path d="M482.891 400.022C483.004 399.565 483.283 399.132 483.677 398.82C484.065 398.498 484.572 398.323 485.074 398.297C486.086 398.236 487.088 398.812 487.504 399.663L487.268 399.85C486.599 399.325 485.862 399.036 485.111 399.064C484.358 399.084 483.675 399.471 483.164 400.15L482.891 400.022Z" fill="#102048"/>
<path d="M490.845 399.078C490.958 398.721 491.159 398.383 491.45 398.104C491.734 397.819 492.131 397.63 492.543 397.563C493.371 397.426 494.261 397.847 494.587 398.583L494.346 398.763C493.804 398.399 493.214 398.245 492.657 398.322C492.378 398.359 492.113 398.464 491.852 398.616C491.595 398.776 491.361 398.996 491.104 399.231L490.845 399.078Z" fill="#102048"/>
<path d="M486.582 409.151C487.927 411.258 489.72 411.487 491.105 409.27L486.582 409.151Z" fill="white"/>
<path opacity="0.4" d="M495.871 402.591C495.864 404.071 495.735 406.134 495.489 407.615C494.556 407.314 493.878 406.443 493.878 405.402C493.878 404.238 494.769 402.768 495.871 402.591Z" fill="#FC8879"/>
<path opacity="0.4" d="M483.297 409.266C484.669 409.266 485.782 408.153 485.782 406.78C485.782 405.407 484.669 404.294 483.297 404.294C481.924 404.294 480.812 405.407 480.812 406.78C480.812 408.153 481.924 409.266 483.297 409.266Z" fill="#FC8879"/>
<path d="M475.586 404.642C475.095 404.308 474.644 403.943 474.196 403.727C473.974 403.617 473.767 403.552 473.583 403.567C473.397 403.581 473.183 403.69 472.942 403.861L472.689 403.698C472.794 403.39 473.015 403.044 473.421 402.91C473.825 402.77 474.234 402.883 474.536 403.039C475.15 403.374 475.57 403.869 475.825 404.459L475.586 404.642Z" fill="#E28B6D"/>
<path opacity="0.6" d="M406.004 476.277L402.427 487.149L401.688 478.653C403.911 478.169 405.125 477.279 406.004 476.277Z" fill="#6F3428"/>
<path d="M346.892 628.021H845.108" stroke="#102048" stroke-width="8" stroke-miterlimit="10"/>
<path d="M391.832 681.484V674.644L385.856 664.444H388.832L393.128 672.052L397.448 664.444H400.424L394.424 674.644V681.484H391.832ZM405.618 681.772C404.403 681.772 403.339 681.5 402.427 680.956C401.515 680.412 400.811 679.636 400.315 678.628C399.819 677.62 399.571 676.444 399.571 675.1C399.571 673.74 399.819 672.564 400.315 671.572C400.811 670.58 401.515 669.812 402.427 669.268C403.339 668.708 404.403 668.428 405.618 668.428C406.835 668.428 407.899 668.708 408.811 669.268C409.723 669.812 410.427 670.58 410.923 671.572C411.419 672.564 411.667 673.74 411.667 675.1C411.667 676.444 411.419 677.62 410.923 678.628C410.427 679.636 409.723 680.412 408.811 680.956C407.899 681.5 406.835 681.772 405.618 681.772ZM405.618 679.564C406.707 679.564 407.547 679.172 408.139 678.388C408.731 677.588 409.027 676.492 409.027 675.1C409.027 673.708 408.731 672.62 408.139 671.836C407.547 671.036 406.707 670.636 405.618 670.636C404.547 670.636 403.707 671.036 403.099 671.836C402.507 672.62 402.211 673.708 402.211 675.1C402.211 676.492 402.507 677.588 403.099 678.388C403.707 679.172 404.547 679.564 405.618 679.564ZM418.438 681.772C417.158 681.772 416.134 681.348 415.366 680.5C414.614 679.636 414.238 678.444 414.238 676.924V668.716H416.782V676.276C416.782 677.428 416.982 678.276 417.382 678.82C417.782 679.364 418.39 679.636 419.206 679.636C420.134 679.636 420.854 679.34 421.366 678.748C421.894 678.14 422.158 677.292 422.158 676.204V668.716H424.702V681.484H422.326L422.278 678.148L422.638 678.292C422.414 679.412 421.942 680.276 421.222 680.884C420.502 681.476 419.574 681.772 418.438 681.772ZM439.056 681.772C437.856 681.772 436.84 681.588 436.008 681.22C435.192 680.852 434.56 680.348 434.112 679.708C433.664 679.052 433.408 678.3 433.344 677.452L435.96 677.332C436.088 678.036 436.392 678.596 436.872 679.012C437.352 679.428 438.08 679.636 439.056 679.636C439.856 679.636 440.488 679.508 440.952 679.252C441.416 678.996 441.648 678.588 441.648 678.028C441.648 677.724 441.568 677.468 441.408 677.26C441.264 677.036 440.976 676.852 440.544 676.708C440.112 676.548 439.472 676.396 438.624 676.252C437.36 676.012 436.368 675.732 435.648 675.412C434.928 675.092 434.416 674.684 434.112 674.188C433.808 673.692 433.656 673.092 433.656 672.388C433.656 671.22 434.088 670.268 434.952 669.532C435.832 668.796 437.096 668.428 438.744 668.428C439.848 668.428 440.776 668.62 441.528 669.004C442.28 669.372 442.864 669.876 443.28 670.516C443.712 671.14 443.984 671.844 444.096 672.628L441.48 672.772C441.4 672.324 441.24 671.94 441 671.62C440.776 671.284 440.472 671.028 440.088 670.852C439.704 670.66 439.248 670.564 438.72 670.564C437.904 670.564 437.296 670.724 436.896 671.044C436.496 671.364 436.296 671.78 436.296 672.292C436.296 672.676 436.384 672.988 436.56 673.228C436.752 673.468 437.056 673.668 437.472 673.828C437.888 673.972 438.44 674.1 439.128 674.212C440.456 674.436 441.496 674.716 442.248 675.052C443 675.372 443.528 675.772 443.832 676.252C444.136 676.732 444.288 677.316 444.288 678.004C444.288 678.804 444.064 679.484 443.616 680.044C443.168 680.604 442.552 681.036 441.768 681.34C440.984 681.628 440.08 681.772 439.056 681.772ZM452.118 681.772C450.871 681.772 449.791 681.5 448.879 680.956C447.983 680.412 447.287 679.636 446.791 678.628C446.311 677.62 446.071 676.444 446.071 675.1C446.071 673.756 446.311 672.588 446.791 671.596C447.287 670.588 447.983 669.812 448.879 669.268C449.775 668.708 450.831 668.428 452.047 668.428C453.199 668.428 454.215 668.7 455.095 669.244C455.975 669.772 456.655 670.54 457.135 671.548C457.631 672.556 457.879 673.772 457.879 675.196V675.844H448.711C448.775 677.092 449.103 678.028 449.695 678.652C450.303 679.276 451.119 679.588 452.143 679.588C452.895 679.588 453.519 679.412 454.015 679.06C454.511 678.708 454.855 678.236 455.047 677.644L457.687 677.812C457.351 678.996 456.687 679.956 455.695 680.692C454.719 681.412 453.527 681.772 452.118 681.772ZM448.711 673.924H455.191C455.111 672.788 454.783 671.948 454.207 671.404C453.647 670.86 452.927 670.588 452.047 670.588C451.135 670.588 450.383 670.876 449.791 671.452C449.215 672.012 448.855 672.836 448.711 673.924ZM463.357 681.484C462.525 681.484 461.853 681.268 461.341 680.836C460.829 680.404 460.573 679.716 460.573 678.772V664.444H463.117V678.532C463.117 678.82 463.189 679.036 463.333 679.18C463.493 679.324 463.717 679.396 464.005 679.396H465.013V681.484H463.357ZM472.439 681.772C471.191 681.772 470.111 681.5 469.199 680.956C468.303 680.412 467.607 679.636 467.111 678.628C466.631 677.62 466.391 676.444 466.391 675.1C466.391 673.756 466.631 672.588 467.111 671.596C467.607 670.588 468.303 669.812 469.199 669.268C470.095 668.708 471.151 668.428 472.367 668.428C473.519 668.428 474.535 668.7 475.415 669.244C476.295 669.772 476.975 670.54 477.455 671.548C477.951 672.556 478.199 673.772 478.199 675.196V675.844H469.031C469.095 677.092 469.423 678.028 470.015 678.652C470.623 679.276 471.439 679.588 472.463 679.588C473.215 679.588 473.839 679.412 474.335 679.06C474.831 678.708 475.175 678.236 475.367 677.644L478.007 677.812C477.671 678.996 477.007 679.956 476.015 680.692C475.039 681.412 473.847 681.772 472.439 681.772ZM469.031 673.924H475.511C475.431 672.788 475.103 671.948 474.527 671.404C473.967 670.86 473.247 670.588 472.367 670.588C471.455 670.588 470.703 670.876 470.111 671.452C469.535 672.012 469.175 672.836 469.031 673.924ZM486.033 681.772C484.817 681.772 483.753 681.5 482.841 680.956C481.929 680.412 481.225 679.636 480.729 678.628C480.233 677.62 479.985 676.444 479.985 675.1C479.985 673.756 480.233 672.588 480.729 671.596C481.225 670.588 481.929 669.812 482.841 669.268C483.753 668.708 484.817 668.428 486.033 668.428C487.073 668.428 487.993 668.612 488.793 668.98C489.609 669.332 490.265 669.852 490.761 670.54C491.273 671.228 491.601 672.068 491.745 673.06L489.081 673.204C488.953 672.372 488.617 671.74 488.073 671.308C487.529 670.86 486.849 670.636 486.033 670.636C484.961 670.636 484.121 671.036 483.513 671.836C482.921 672.62 482.625 673.708 482.625 675.1C482.625 676.492 482.921 677.588 483.513 678.388C484.121 679.172 484.961 679.564 486.033 679.564C486.849 679.564 487.529 679.34 488.073 678.892C488.617 678.428 488.953 677.732 489.081 676.804L491.745 676.948C491.601 677.924 491.273 678.772 490.761 679.492C490.265 680.212 489.609 680.772 488.793 681.172C487.993 681.572 487.073 681.772 486.033 681.772ZM498.493 681.484C497.277 681.484 496.381 681.204 495.805 680.644C495.229 680.084 494.941 679.212 494.941 678.028V665.716H497.485V677.836C497.485 678.428 497.613 678.836 497.869 679.06C498.125 679.284 498.517 679.396 499.045 679.396H500.869V681.484H498.493ZM492.997 670.804V668.716H500.869V670.804H492.997ZM508.345 681.772C507.097 681.772 506.017 681.5 505.105 680.956C504.209 680.412 503.513 679.636 503.017 678.628C502.537 677.62 502.297 676.444 502.297 675.1C502.297 673.756 502.537 672.588 503.017 671.596C503.513 670.588 504.209 669.812 505.105 669.268C506.001 668.708 507.057 668.428 508.273 668.428C509.425 668.428 510.441 668.7 511.321 669.244C512.201 669.772 512.881 670.54 513.361 671.548C513.857 672.556 514.105 673.772 514.105 675.196V675.844H504.937C505.001 677.092 505.329 678.028 505.921 678.652C506.529 679.276 507.345 679.588 508.369 679.588C509.121 679.588 509.745 679.412 510.241 679.06C510.737 678.708 511.081 678.236 511.273 677.644L513.913 677.812C513.577 678.996 512.913 679.956 511.921 680.692C510.945 681.412 509.753 681.772 508.345 681.772ZM504.937 673.924H511.417C511.337 672.788 511.009 671.948 510.433 671.404C509.873 670.86 509.153 670.588 508.273 670.588C507.361 670.588 506.609 670.876 506.017 671.452C505.441 672.012 505.081 672.836 504.937 673.924ZM521.219 681.772C520.131 681.772 519.179 681.5 518.363 680.956C517.563 680.412 516.947 679.644 516.515 678.652C516.099 677.644 515.891 676.46 515.891 675.1C515.891 673.74 516.107 672.564 516.539 671.572C516.971 670.564 517.587 669.788 518.387 669.244C519.187 668.7 520.131 668.428 521.219 668.428C522.099 668.428 522.883 668.612 523.571 668.98C524.259 669.348 524.779 669.86 525.131 670.516V664.444H527.675V681.484H525.299L525.227 679.564C524.875 680.252 524.339 680.796 523.619 681.196C522.915 681.58 522.115 681.772 521.219 681.772ZM521.891 679.564C522.579 679.564 523.163 679.388 523.643 679.036C524.123 678.684 524.491 678.172 524.747 677.5C525.003 676.828 525.131 676.028 525.131 675.1C525.131 674.14 525.003 673.332 524.747 672.676C524.491 672.004 524.123 671.5 523.643 671.164C523.163 670.812 522.579 670.636 521.891 670.636C520.867 670.636 520.051 671.036 519.443 671.836C518.835 672.62 518.531 673.708 518.531 675.1C518.531 676.476 518.835 677.564 519.443 678.364C520.051 679.164 520.867 679.564 521.891 679.564ZM537.12 681.484V668.716H539.448L539.52 671.884L539.232 671.788C539.376 671.084 539.624 670.484 539.976 669.988C540.344 669.492 540.792 669.108 541.32 668.836C541.848 668.564 542.424 668.428 543.048 668.428C544.136 668.428 545.024 668.74 545.712 669.364C546.4 669.972 546.832 670.812 547.008 671.884H546.6C546.744 671.132 546.984 670.508 547.32 670.012C547.672 669.5 548.12 669.108 548.664 668.836C549.208 668.564 549.824 668.428 550.512 668.428C551.408 668.428 552.168 668.62 552.792 669.004C553.432 669.372 553.912 669.916 554.232 670.636C554.568 671.356 554.736 672.236 554.736 673.276V681.484H552.192V673.9C552.192 672.796 551.992 671.964 551.592 671.404C551.192 670.844 550.584 670.564 549.768 670.564C549.24 670.564 548.776 670.7 548.376 670.972C547.976 671.244 547.664 671.636 547.44 672.148C547.232 672.66 547.128 673.276 547.128 673.996V681.484H544.704V673.996C544.704 672.908 544.52 672.068 544.152 671.476C543.8 670.868 543.192 670.564 542.328 670.564C541.784 670.564 541.312 670.7 540.912 670.972C540.528 671.244 540.224 671.644 540 672.172C539.776 672.684 539.664 673.292 539.664 673.996V681.484H537.12ZM562.227 681.772C560.947 681.772 559.923 681.348 559.155 680.5C558.403 679.636 558.027 678.444 558.027 676.924V668.716H560.571V676.276C560.571 677.428 560.771 678.276 561.171 678.82C561.571 679.364 562.179 679.636 562.995 679.636C563.923 679.636 564.643 679.34 565.155 678.748C565.683 678.14 565.947 677.292 565.947 676.204V668.716H568.491V681.484H566.115L566.067 678.148L566.427 678.292C566.203 679.412 565.731 680.276 565.011 680.884C564.291 681.476 563.363 681.772 562.227 681.772ZM574.873 681.484C574.041 681.484 573.369 681.268 572.857 680.836C572.345 680.404 572.089 679.716 572.089 678.772V664.444H574.633V678.532C574.633 678.82 574.705 679.036 574.849 679.18C575.009 679.324 575.233 679.396 575.521 679.396H576.529V681.484H574.873ZM583.032 681.484C581.816 681.484 580.92 681.204 580.344 680.644C579.768 680.084 579.48 679.212 579.48 678.028V665.716H582.024V677.836C582.024 678.428 582.152 678.836 582.408 679.06C582.664 679.284 583.056 679.396 583.584 679.396H585.408V681.484H583.032ZM577.536 670.804V668.716H585.408V670.804H577.536ZM587.839 681.484V668.716H590.383V681.484H587.839ZM587.791 666.868V664.324H590.431V666.868H587.791ZM594.191 685.084V668.716H596.591L596.663 671.452L596.375 671.308C596.695 670.364 597.223 669.652 597.959 669.172C598.695 668.676 599.543 668.428 600.503 668.428C601.751 668.428 602.775 668.74 603.575 669.364C604.391 669.972 604.991 670.78 605.375 671.788C605.775 672.796 605.975 673.9 605.975 675.1C605.975 676.3 605.775 677.404 605.375 678.412C604.991 679.42 604.391 680.236 603.575 680.86C602.775 681.468 601.751 681.772 600.503 681.772C599.863 681.772 599.263 681.66 598.703 681.436C598.143 681.212 597.663 680.9 597.263 680.5C596.879 680.084 596.607 679.596 596.447 679.036L596.735 678.748V685.084H594.191ZM600.047 679.564C601.071 679.564 601.871 679.172 602.447 678.388C603.039 677.604 603.335 676.508 603.335 675.1C603.335 673.692 603.039 672.596 602.447 671.812C601.871 671.028 601.071 670.636 600.047 670.636C599.375 670.636 598.791 670.804 598.295 671.14C597.799 671.46 597.415 671.956 597.143 672.628C596.871 673.3 596.735 674.124 596.735 675.1C596.735 676.076 596.863 676.9 597.119 677.572C597.391 678.244 597.775 678.748 598.271 679.084C598.783 679.404 599.375 679.564 600.047 679.564ZM611.459 681.484C610.627 681.484 609.955 681.268 609.443 680.836C608.931 680.404 608.675 679.716 608.675 678.772V664.444H611.219V678.532C611.219 678.82 611.291 679.036 611.435 679.18C611.595 679.324 611.819 679.396 612.107 679.396H613.115V681.484H611.459ZM620.54 681.772C619.292 681.772 618.212 681.5 617.3 680.956C616.404 680.412 615.708 679.636 615.212 678.628C614.732 677.62 614.492 676.444 614.492 675.1C614.492 673.756 614.732 672.588 615.212 671.596C615.708 670.588 616.404 669.812 617.3 669.268C618.196 668.708 619.252 668.428 620.468 668.428C621.62 668.428 622.636 668.7 623.516 669.244C624.396 669.772 625.076 670.54 625.556 671.548C626.052 672.556 626.3 673.772 626.3 675.196V675.844H617.132C617.196 677.092 617.524 678.028 618.116 678.652C618.724 679.276 619.54 679.588 620.564 679.588C621.316 679.588 621.94 679.412 622.436 679.06C622.932 678.708 623.276 678.236 623.468 677.644L626.108 677.812C625.772 678.996 625.108 679.956 624.116 680.692C623.14 681.412 621.948 681.772 620.54 681.772ZM617.132 673.924H623.612C623.532 672.788 623.204 671.948 622.628 671.404C622.068 670.86 621.348 670.588 620.468 670.588C619.556 670.588 618.804 670.876 618.212 671.452C617.636 672.012 617.276 672.836 617.132 673.924ZM634.948 681.484V668.716H637.492V681.484H634.948ZM634.9 666.868V664.324H637.54V666.868H634.9ZM645.118 681.484C643.902 681.484 643.006 681.204 642.43 680.644C641.854 680.084 641.566 679.212 641.566 678.028V665.716H644.11V677.836C644.11 678.428 644.238 678.836 644.494 679.06C644.75 679.284 645.142 679.396 645.67 679.396H647.494V681.484H645.118ZM639.622 670.804V668.716H647.494V670.804H639.622ZM654.97 681.772C653.722 681.772 652.642 681.5 651.73 680.956C650.834 680.412 650.138 679.636 649.642 678.628C649.162 677.62 648.922 676.444 648.922 675.1C648.922 673.756 649.162 672.588 649.642 671.596C650.138 670.588 650.834 669.812 651.73 669.268C652.626 668.708 653.682 668.428 654.898 668.428C656.05 668.428 657.066 668.7 657.946 669.244C658.826 669.772 659.506 670.54 659.986 671.548C660.482 672.556 660.73 673.772 660.73 675.196V675.844H651.562C651.626 677.092 651.954 678.028 652.546 678.652C653.154 679.276 653.97 679.588 654.994 679.588C655.746 679.588 656.37 679.412 656.866 679.06C657.362 678.708 657.706 678.236 657.898 677.644L660.538 677.812C660.202 678.996 659.538 679.956 658.546 680.692C657.57 681.412 656.378 681.772 654.97 681.772ZM651.562 673.924H658.042C657.962 672.788 657.634 671.948 657.058 671.404C656.498 670.86 655.778 670.588 654.898 670.588C653.986 670.588 653.234 670.876 652.642 671.452C652.066 672.012 651.706 672.836 651.562 673.924ZM663.308 681.484V668.716H665.636L665.708 671.884L665.42 671.788C665.564 671.084 665.812 670.484 666.164 669.988C666.532 669.492 666.98 669.108 667.508 668.836C668.036 668.564 668.612 668.428 669.236 668.428C670.324 668.428 671.212 668.74 671.9 669.364C672.588 669.972 673.02 670.812 673.196 671.884H672.788C672.932 671.132 673.172 670.508 673.508 670.012C673.86 669.5 674.308 669.108 674.852 668.836C675.396 668.564 676.012 668.428 676.7 668.428C677.596 668.428 678.356 668.62 678.98 669.004C679.62 669.372 680.1 669.916 680.42 670.636C680.756 671.356 680.924 672.236 680.924 673.276V681.484H678.38V673.9C678.38 672.796 678.18 671.964 677.78 671.404C677.38 670.844 676.772 670.564 675.956 670.564C675.428 670.564 674.964 670.7 674.564 670.972C674.164 671.244 673.852 671.636 673.628 672.148C673.42 672.66 673.316 673.276 673.316 673.996V681.484H670.892V673.996C670.892 672.908 670.708 672.068 670.34 671.476C669.988 670.868 669.38 670.564 668.516 670.564C667.972 670.564 667.5 670.7 667.1 670.972C666.716 671.244 666.412 671.644 666.188 672.172C665.964 672.684 665.852 673.292 665.852 673.996V681.484H663.308ZM689.181 681.772C687.981 681.772 686.965 681.588 686.133 681.22C685.317 680.852 684.685 680.348 684.237 679.708C683.789 679.052 683.533 678.3 683.469 677.452L686.085 677.332C686.213 678.036 686.517 678.596 686.997 679.012C687.477 679.428 688.205 679.636 689.181 679.636C689.981 679.636 690.613 679.508 691.077 679.252C691.541 678.996 691.773 678.588 691.773 678.028C691.773 677.724 691.693 677.468 691.533 677.26C691.389 677.036 691.101 676.852 690.669 676.708C690.237 676.548 689.597 676.396 688.749 676.252C687.485 676.012 686.493 675.732 685.773 675.412C685.053 675.092 684.541 674.684 684.237 674.188C683.933 673.692 683.781 673.092 683.781 672.388C683.781 671.22 684.213 670.268 685.077 669.532C685.957 668.796 687.221 668.428 688.869 668.428C689.973 668.428 690.901 668.62 691.653 669.004C692.405 669.372 692.989 669.876 693.405 670.516C693.837 671.14 694.109 671.844 694.221 672.628L691.605 672.772C691.525 672.324 691.365 671.94 691.125 671.62C690.901 671.284 690.597 671.028 690.213 670.852C689.829 670.66 689.373 670.564 688.845 670.564C688.029 670.564 687.421 670.724 687.021 671.044C686.621 671.364 686.421 671.78 686.421 672.292C686.421 672.676 686.509 672.988 686.685 673.228C686.877 673.468 687.181 673.668 687.597 673.828C688.013 673.972 688.565 674.1 689.253 674.212C690.581 674.436 691.621 674.716 692.373 675.052C693.125 675.372 693.653 675.772 693.957 676.252C694.261 676.732 694.413 677.316 694.413 678.004C694.413 678.804 694.189 679.484 693.741 680.044C693.293 680.604 692.677 681.036 691.893 681.34C691.109 681.628 690.205 681.772 689.181 681.772ZM703.058 681.484V668.716H705.602V681.484H703.058ZM703.01 666.868V664.324H705.65V666.868H703.01ZM709.409 681.484V668.716H711.737L711.833 672.124L711.521 671.956C711.665 671.124 711.937 670.452 712.337 669.94C712.737 669.428 713.225 669.052 713.801 668.812C714.377 668.556 715.001 668.428 715.673 668.428C716.633 668.428 717.425 668.644 718.049 669.076C718.689 669.492 719.169 670.068 719.489 670.804C719.825 671.524 719.993 672.348 719.993 673.276V681.484H717.449V674.044C717.449 673.292 717.369 672.66 717.209 672.148C717.049 671.636 716.785 671.244 716.417 670.972C716.049 670.7 715.569 670.564 714.977 670.564C714.081 670.564 713.353 670.86 712.793 671.452C712.233 672.044 711.953 672.908 711.953 674.044V681.484H709.409ZM734.321 681.484C733.105 681.484 732.209 681.204 731.633 680.644C731.057 680.084 730.769 679.212 730.769 678.028V665.716H733.313V677.836C733.313 678.428 733.441 678.836 733.697 679.06C733.953 679.284 734.345 679.396 734.873 679.396H736.697V681.484H734.321ZM728.825 670.804V668.716H736.697V670.804H728.825ZM739.128 681.484V664.444H741.672V671.596L741.36 671.548C741.504 670.828 741.768 670.244 742.152 669.796C742.536 669.332 743.008 668.988 743.568 668.764C744.128 668.54 744.744 668.428 745.416 668.428C746.344 668.428 747.128 668.636 747.768 669.052C748.408 669.452 748.888 670.02 749.208 670.756C749.544 671.492 749.712 672.332 749.712 673.276V681.484H747.168V673.948C747.168 672.796 746.968 671.948 746.568 671.404C746.184 670.844 745.576 670.564 744.744 670.564C743.816 670.564 743.072 670.86 742.512 671.452C741.952 672.028 741.672 672.876 741.672 673.996V681.484H739.128ZM758.283 681.772C757.035 681.772 755.955 681.5 755.043 680.956C754.147 680.412 753.451 679.636 752.955 678.628C752.475 677.62 752.235 676.444 752.235 675.1C752.235 673.756 752.475 672.588 752.955 671.596C753.451 670.588 754.147 669.812 755.043 669.268C755.939 668.708 756.995 668.428 758.211 668.428C759.363 668.428 760.379 668.7 761.259 669.244C762.139 669.772 762.819 670.54 763.299 671.548C763.795 672.556 764.043 673.772 764.043 675.196V675.844H754.875C754.939 677.092 755.267 678.028 755.859 678.652C756.467 679.276 757.283 679.588 758.307 679.588C759.059 679.588 759.683 679.412 760.179 679.06C760.675 678.708 761.019 678.236 761.211 677.644L763.851 677.812C763.515 678.996 762.851 679.956 761.859 680.692C760.883 681.412 759.691 681.772 758.283 681.772ZM754.875 673.924H761.355C761.275 672.788 760.947 671.948 760.371 671.404C759.811 670.86 759.091 670.588 758.211 670.588C757.299 670.588 756.547 670.876 755.955 671.452C755.379 672.012 755.019 672.836 754.875 673.924ZM775.475 681.484C774.643 681.484 773.971 681.268 773.459 680.836C772.947 680.404 772.691 679.716 772.691 678.772V664.444H775.235V678.532C775.235 678.82 775.307 679.036 775.451 679.18C775.611 679.324 775.835 679.396 776.123 679.396H777.131V681.484H775.475ZM779.277 681.484V668.716H781.821V681.484H779.277ZM779.229 666.868V664.324H781.869V666.868H779.229ZM790.103 681.772C788.903 681.772 787.887 681.588 787.055 681.22C786.239 680.852 785.607 680.348 785.159 679.708C784.711 679.052 784.455 678.3 784.391 677.452L787.007 677.332C787.135 678.036 787.439 678.596 787.919 679.012C788.399 679.428 789.127 679.636 790.103 679.636C790.903 679.636 791.535 679.508 791.999 679.252C792.463 678.996 792.695 678.588 792.695 678.028C792.695 677.724 792.615 677.468 792.455 677.26C792.311 677.036 792.023 676.852 791.591 676.708C791.159 676.548 790.519 676.396 789.671 676.252C788.407 676.012 787.415 675.732 786.695 675.412C785.975 675.092 785.463 674.684 785.159 674.188C784.855 673.692 784.703 673.092 784.703 672.388C784.703 671.22 785.135 670.268 785.999 669.532C786.879 668.796 788.143 668.428 789.791 668.428C790.895 668.428 791.823 668.62 792.575 669.004C793.327 669.372 793.911 669.876 794.327 670.516C794.759 671.14 795.031 671.844 795.143 672.628L792.527 672.772C792.447 672.324 792.287 671.94 792.047 671.62C791.823 671.284 791.519 671.028 791.135 670.852C790.751 670.66 790.295 670.564 789.767 670.564C788.951 670.564 788.343 670.724 787.943 671.044C787.543 671.364 787.343 671.78 787.343 672.292C787.343 672.676 787.431 672.988 787.607 673.228C787.799 673.468 788.103 673.668 788.519 673.828C788.935 673.972 789.487 674.1 790.175 674.212C791.503 674.436 792.543 674.716 793.295 675.052C794.047 675.372 794.575 675.772 794.879 676.252C795.183 676.732 795.335 677.316 795.335 678.004C795.335 678.804 795.111 679.484 794.663 680.044C794.215 680.604 793.599 681.036 792.815 681.34C792.031 681.628 791.127 681.772 790.103 681.772ZM802.337 681.484C801.121 681.484 800.225 681.204 799.649 680.644C799.073 680.084 798.785 679.212 798.785 678.028V665.716H801.329V677.836C801.329 678.428 801.457 678.836 801.713 679.06C801.969 679.284 802.361 679.396 802.889 679.396H804.713V681.484H802.337ZM796.841 670.804V668.716H804.713V670.804H796.841Z" fill="#101828"/>
</svg>
