<svg width="14" height="14" viewBox="0 0 14 14" fill="none" xmlns="http://www.w3.org/2000/svg">
<path d="M11.25 4.33331V6.33331H9.91668V4.33331H7.91668V2.99998H9.91668H11.25M12.5833 1.66665V9.66665H4.58334V1.66665H12.5833ZM12.5833 0.333313H4.58334C3.85001 0.333313 3.25001 0.933313 3.25001 1.66665V9.66665C3.25001 10.4066 3.85001 11 4.58334 11H12.5833C13.3233 11 13.9167 10.4066 13.9167 9.66665V1.66665C13.9167 0.933313 13.3233 0.333313 12.5833 0.333313ZM1.91668 2.99998H0.583344V12.3333C0.583344 13.0733 1.18334 13.6666 1.91668 13.6666H11.25V12.3333H1.91668V2.99998Z" fill="#202124"/>
</svg>
