<svg width="200" height="60" viewBox="0 0 200 60" fill="none" xmlns="http://www.w3.org/2000/svg">
<g filter="url(#filter0_diii_11769_67151)">
<rect x="10" y="9" width="180" height="40" rx="20" fill="url(#paint0_linear_11769_67151)" shape-rendering="crispEdges"/>
<rect x="10.5" y="9.5" width="179" height="39" rx="19.5" stroke="url(#paint1_linear_11769_67151)" shape-rendering="crispEdges"/>
<rect x="29.5" y="13" width="141" height="17.8491" rx="8.92454" fill="url(#paint2_linear_11769_67151)" fill-opacity="0.5"/>
<path d="M47.25 21.9166L46 20.6666L44.75 21.9166L43.5 20.6666L42.25 21.9166L41 20.6666L39.75 21.9166L38.5 20.6666L37.25 21.9166L36 20.6666L34.75 21.9166L33.5 20.6666V37.3333L34.75 36.0833L36 37.3333L37.25 36.0833L38.5 37.3333L39.75 36.0833L41 37.3333V34.9083H35.1667V23.0916H46.8333V30.05L48.5 30.8833V20.6666L47.25 21.9166ZM42.6667 38.1666V34.8333L46 34L42.6667 33.1666V29.8333L51 34L42.6667 38.1666ZM41 28.1666V29.8333H36V28.1666H41ZM36 33.1666V31.5H41V33.1666H36ZM46 24.8333V26.5H36V24.8333H46Z" fill="white"/>
<path d="M60.568 34.756C59.6293 34.756 58.8187 34.5907 58.136 34.26C57.4533 33.9293 56.9147 33.4707 56.52 32.884C56.136 32.2867 55.912 31.5933 55.848 30.804L57.96 30.676C58.024 31.1667 58.1627 31.5827 58.376 31.924C58.6 32.2653 58.8933 32.5267 59.256 32.708C59.6293 32.8787 60.0773 32.964 60.6 32.964C61.048 32.964 61.4267 32.9107 61.736 32.804C62.056 32.6867 62.296 32.5213 62.456 32.308C62.6267 32.084 62.712 31.812 62.712 31.492C62.712 31.204 62.6427 30.948 62.504 30.724C62.3653 30.4893 62.0987 30.2813 61.704 30.1C61.3093 29.908 60.7227 29.7213 59.944 29.54C59.0053 29.3267 58.2533 29.0867 57.688 28.82C57.1227 28.5427 56.712 28.2013 56.456 27.796C56.2 27.38 56.072 26.8627 56.072 26.244C56.072 25.5827 56.2373 25.0013 56.568 24.5C56.8987 23.988 57.368 23.5933 57.976 23.316C58.584 23.028 59.3147 22.884 60.168 22.884C61.0747 22.884 61.8427 23.0493 62.472 23.38C63.1013 23.7 63.5973 24.1427 63.96 24.708C64.3227 25.2733 64.5467 25.924 64.632 26.66L62.536 26.756C62.4827 26.34 62.3547 25.9773 62.152 25.668C61.96 25.3587 61.6933 25.1187 61.352 24.948C61.0213 24.7667 60.616 24.676 60.136 24.676C59.5387 24.676 59.064 24.8147 58.712 25.092C58.3707 25.3587 58.2 25.716 58.2 26.164C58.2 26.4733 58.2693 26.7293 58.408 26.932C58.5573 27.1347 58.8187 27.3107 59.192 27.46C59.5653 27.5987 60.088 27.748 60.76 27.908C61.7733 28.1213 62.5787 28.3933 63.176 28.724C63.7733 29.0547 64.2 29.4387 64.456 29.876C64.712 30.3133 64.84 30.8147 64.84 31.38C64.84 32.0733 64.664 32.676 64.312 33.188C63.96 33.6893 63.464 34.0787 62.824 34.356C62.184 34.6227 61.432 34.756 60.568 34.756ZM66.6675 34.5V27.024H68.4595V34.5H66.6675ZM66.6395 26.03V24.434H68.5015V26.03H66.6395ZM70.9566 34.5V27.024H72.5806L72.6366 28.858L72.4686 28.774C72.5526 28.3727 72.6973 28.032 72.9026 27.752C73.1173 27.4627 73.374 27.2433 73.6726 27.094C73.9806 26.9353 74.3166 26.856 74.6806 26.856C75.3153 26.856 75.8286 27.038 76.2206 27.402C76.6126 27.7567 76.86 28.2467 76.9626 28.872H76.7246C76.8086 28.4333 76.9533 28.0693 77.1586 27.78C77.364 27.4813 77.6206 27.2527 77.9286 27.094C78.246 26.9353 78.6006 26.856 78.9926 26.856C79.506 26.856 79.9493 26.968 80.3226 27.192C80.696 27.4067 80.9806 27.724 81.1766 28.144C81.382 28.564 81.4846 29.082 81.4846 29.698V34.5H79.6926V30.16C79.6926 29.544 79.5853 29.082 79.3706 28.774C79.1653 28.466 78.848 28.312 78.4186 28.312C78.1293 28.312 77.882 28.3867 77.6766 28.536C77.4713 28.6853 77.3126 28.9047 77.2006 29.194C77.098 29.474 77.0466 29.8147 77.0466 30.216V34.5H75.3806V30.216C75.3806 29.6 75.2873 29.1287 75.1006 28.802C74.914 28.4753 74.592 28.312 74.1346 28.312C73.8453 28.312 73.598 28.3867 73.3926 28.536C73.1966 28.6853 73.038 28.9047 72.9166 29.194C72.8046 29.474 72.7486 29.8147 72.7486 30.216V34.5H70.9566ZM86.1453 34.668C85.3893 34.668 84.7873 34.4207 84.3393 33.926C83.9007 33.422 83.6813 32.7267 83.6813 31.84V27.024H85.4733V31.392C85.4733 32.0173 85.576 32.4793 85.7813 32.778C85.996 33.0673 86.318 33.212 86.7473 33.212C87.2327 33.212 87.606 33.0533 87.8673 32.736C88.138 32.4093 88.2733 31.938 88.2733 31.322V27.024H90.0653V34.5H88.4273L88.3853 32.442L88.6093 32.512C88.4973 33.2213 88.2313 33.758 87.8113 34.122C87.3913 34.486 86.836 34.668 86.1453 34.668ZM94.2468 34.5C93.7055 34.5 93.2715 34.36 92.9448 34.08C92.6182 33.8 92.4548 33.352 92.4548 32.736V24.56H94.2468V32.554C94.2468 32.7407 94.2935 32.8807 94.3868 32.974C94.4895 33.0673 94.6295 33.114 94.8068 33.114H95.3528V34.5H94.2468ZM99.1738 34.668C98.3898 34.668 97.7598 34.4907 97.2838 34.136C96.8078 33.772 96.5698 33.268 96.5698 32.624C96.5698 31.98 96.7704 31.476 97.1718 31.112C97.5731 30.748 98.1844 30.4867 99.0058 30.328L101.484 29.838C101.484 29.306 101.362 28.9093 101.12 28.648C100.877 28.3773 100.518 28.242 100.042 28.242C99.6124 28.242 99.2718 28.3447 99.0198 28.55C98.7771 28.746 98.6091 29.0307 98.5158 29.404L96.6958 29.32C96.8451 28.5267 97.2091 27.92 97.7878 27.5C98.3664 27.0707 99.1178 26.856 100.042 26.856C101.106 26.856 101.908 27.1267 102.45 27.668C103 28.2 103.276 28.9653 103.276 29.964V32.68C103.276 32.876 103.308 33.0113 103.374 33.086C103.448 33.1607 103.556 33.198 103.696 33.198H103.934V34.5C103.878 34.5187 103.784 34.5327 103.654 34.542C103.532 34.5513 103.406 34.556 103.276 34.556C102.968 34.556 102.692 34.5093 102.45 34.416C102.207 34.3133 102.02 34.1407 101.89 33.898C101.759 33.646 101.694 33.3053 101.694 32.876L101.848 32.988C101.773 33.3147 101.61 33.6087 101.358 33.87C101.115 34.122 100.807 34.318 100.434 34.458C100.06 34.598 99.6404 34.668 99.1738 34.668ZM99.5378 33.366C99.9391 33.366 100.284 33.2867 100.574 33.128C100.863 32.9693 101.087 32.75 101.246 32.47C101.404 32.19 101.484 31.8587 101.484 31.476V31.056L99.5518 31.448C99.1504 31.532 98.8611 31.658 98.6838 31.826C98.5158 31.9847 98.4318 32.1947 98.4318 32.456C98.4318 32.7453 98.5251 32.9693 98.7118 33.128C98.9078 33.2867 99.1831 33.366 99.5378 33.366ZM108.131 34.5C107.384 34.5 106.833 34.3273 106.479 33.982C106.133 33.6367 105.961 33.0953 105.961 32.358V25.274H107.753V32.19C107.753 32.5353 107.827 32.778 107.977 32.918C108.126 33.0487 108.359 33.114 108.677 33.114H109.727V34.5H108.131ZM104.785 28.41V27.024H109.727V28.41H104.785ZM114.572 34.668C113.825 34.668 113.177 34.5093 112.626 34.192C112.075 33.8653 111.651 33.408 111.352 32.82C111.053 32.232 110.904 31.546 110.904 30.762C110.904 29.978 111.053 29.2967 111.352 28.718C111.651 28.13 112.071 27.6727 112.612 27.346C113.163 27.0193 113.802 26.856 114.53 26.856C115.239 26.856 115.86 27.0147 116.392 27.332C116.933 27.6493 117.349 28.1067 117.638 28.704C117.927 29.3013 118.072 30.02 118.072 30.86V31.266H112.766C112.803 31.9193 112.981 32.414 113.298 32.75C113.625 33.0767 114.054 33.24 114.586 33.24C114.987 33.24 115.319 33.1513 115.58 32.974C115.851 32.7873 116.037 32.5307 116.14 32.204L117.974 32.316C117.769 33.044 117.363 33.618 116.756 34.038C116.159 34.458 115.431 34.668 114.572 34.668ZM112.766 30.062H116.224C116.187 29.4553 116.014 29.0073 115.706 28.718C115.398 28.4193 115.006 28.27 114.53 28.27C114.054 28.27 113.657 28.424 113.34 28.732C113.032 29.04 112.841 29.4833 112.766 30.062ZM126.698 34.724C125.606 34.724 124.766 34.4953 124.178 34.038C123.59 33.5713 123.296 32.9087 123.296 32.05C123.296 31.63 123.361 31.252 123.492 30.916C123.632 30.58 123.847 30.2627 124.136 29.964C124.435 29.656 124.831 29.3433 125.326 29.026C125.111 28.774 124.929 28.536 124.78 28.312C124.631 28.0787 124.514 27.8407 124.43 27.598C124.355 27.346 124.318 27.0753 124.318 26.786C124.318 26.0393 124.561 25.4467 125.046 25.008C125.541 24.56 126.236 24.336 127.132 24.336C127.739 24.336 128.247 24.434 128.658 24.63C129.069 24.826 129.381 25.0967 129.596 25.442C129.811 25.7873 129.918 26.184 129.918 26.632C129.918 27.2013 129.745 27.6913 129.4 28.102C129.064 28.5127 128.527 28.942 127.79 29.39L129.596 31.644C129.857 31.2707 129.993 30.7107 130.002 29.964L131.822 30.132C131.794 30.6733 131.682 31.196 131.486 31.7C131.299 32.204 131.057 32.6287 130.758 32.974L132.046 34.5H129.932L129.526 34.01C129.237 34.2247 128.845 34.3973 128.35 34.528C127.865 34.6587 127.314 34.724 126.698 34.724ZM126.866 33.128C127.221 33.128 127.519 33.0907 127.762 33.016C128.014 32.9413 128.205 32.8387 128.336 32.708L126.306 30.188C125.905 30.4493 125.615 30.7153 125.438 30.986C125.27 31.2473 125.186 31.5507 125.186 31.896C125.186 32.2693 125.321 32.568 125.592 32.792C125.872 33.016 126.297 33.128 126.866 33.128ZM126.866 28.284C127.146 28.1067 127.37 27.9433 127.538 27.794C127.715 27.6447 127.841 27.486 127.916 27.318C128 27.15 128.042 26.9727 128.042 26.786C128.042 26.506 127.963 26.2913 127.804 26.142C127.655 25.9927 127.435 25.918 127.146 25.918C126.838 25.918 126.6 26.002 126.432 26.17C126.264 26.3287 126.18 26.5527 126.18 26.842C126.18 26.9913 126.199 27.1407 126.236 27.29C126.283 27.4393 126.353 27.5933 126.446 27.752C126.549 27.9013 126.689 28.0787 126.866 28.284ZM137.562 34.5V24.56H141.412C142.579 24.56 143.489 24.84 144.142 25.4C144.796 25.96 145.122 26.7347 145.122 27.724C145.122 28.3867 144.973 28.9607 144.674 29.446C144.376 29.922 143.951 30.286 143.4 30.538C142.85 30.79 142.187 30.916 141.412 30.916H139.382V34.5H137.562ZM139.382 29.334H141.328C141.944 29.334 142.416 29.1987 142.742 28.928C143.078 28.6573 143.246 28.256 143.246 27.724C143.246 27.2013 143.078 26.8093 142.742 26.548C142.416 26.2773 141.944 26.142 141.328 26.142H139.382V29.334ZM149.991 34.668C149.253 34.668 148.605 34.5093 148.045 34.192C147.494 33.8653 147.065 33.408 146.757 32.82C146.458 32.232 146.309 31.546 146.309 30.762C146.309 29.9687 146.458 29.2827 146.757 28.704C147.065 28.116 147.494 27.6633 148.045 27.346C148.605 27.0193 149.253 26.856 149.991 26.856C150.728 26.856 151.372 27.0193 151.923 27.346C152.473 27.6633 152.898 28.116 153.197 28.704C153.505 29.2827 153.659 29.9687 153.659 30.762C153.659 31.546 153.505 32.232 153.197 32.82C152.898 33.408 152.473 33.8653 151.923 34.192C151.372 34.5093 150.728 34.668 149.991 34.668ZM149.991 33.212C150.569 33.212 151.013 32.9973 151.321 32.568C151.638 32.1387 151.797 31.5367 151.797 30.762C151.797 29.9967 151.638 29.3993 151.321 28.97C151.013 28.5313 150.569 28.312 149.991 28.312C149.412 28.312 148.964 28.5313 148.647 28.97C148.329 29.3993 148.171 29.9967 148.171 30.762C148.171 31.5367 148.329 32.1387 148.647 32.568C148.964 32.9973 149.412 33.212 149.991 33.212ZM158.499 34.668C157.762 34.668 157.141 34.5607 156.637 34.346C156.143 34.1313 155.76 33.8327 155.489 33.45C155.219 33.0673 155.065 32.6333 155.027 32.148L156.861 32.064C156.927 32.456 157.09 32.7593 157.351 32.974C157.613 33.1887 158 33.296 158.513 33.296C158.933 33.296 159.26 33.2307 159.493 33.1C159.736 32.96 159.857 32.7453 159.857 32.456C159.857 32.288 159.815 32.148 159.731 32.036C159.647 31.924 159.489 31.826 159.255 31.742C159.022 31.658 158.677 31.574 158.219 31.49C157.454 31.3593 156.852 31.2007 156.413 31.014C155.975 30.818 155.662 30.5753 155.475 30.286C155.298 29.9967 155.209 29.6373 155.209 29.208C155.209 28.508 155.475 27.9433 156.007 27.514C156.549 27.0753 157.337 26.856 158.373 26.856C159.045 26.856 159.61 26.968 160.067 27.192C160.525 27.4067 160.879 27.7053 161.131 28.088C161.393 28.4613 161.556 28.8907 161.621 29.376L159.815 29.46C159.769 29.208 159.685 28.9887 159.563 28.802C159.442 28.6153 159.279 28.4753 159.073 28.382C158.868 28.2793 158.625 28.228 158.345 28.228C157.925 28.228 157.608 28.312 157.393 28.48C157.179 28.648 157.071 28.872 157.071 29.152C157.071 29.348 157.118 29.5113 157.211 29.642C157.314 29.7727 157.477 29.88 157.701 29.964C157.925 30.0387 158.224 30.1087 158.597 30.174C159.381 30.2953 159.997 30.454 160.445 30.65C160.903 30.8367 161.225 31.0793 161.411 31.378C161.607 31.6673 161.705 32.0173 161.705 32.428C161.705 32.904 161.57 33.31 161.299 33.646C161.038 33.982 160.665 34.2387 160.179 34.416C159.703 34.584 159.143 34.668 158.499 34.668ZM166.26 34.5C165.514 34.5 164.963 34.3273 164.608 33.982C164.263 33.6367 164.09 33.0953 164.09 32.358V25.274H165.882V32.19C165.882 32.5353 165.957 32.778 166.106 32.918C166.256 33.0487 166.489 33.114 166.806 33.114H167.856V34.5H166.26ZM162.914 28.41V27.024H167.856V28.41H162.914Z" fill="white"/>
</g>
<defs>
<filter id="filter0_diii_11769_67151" x="0" y="0" width="200" height="60" filterUnits="userSpaceOnUse" color-interpolation-filters="sRGB">
<feFlood flood-opacity="0" result="BackgroundImageFix"/>
<feColorMatrix in="SourceAlpha" type="matrix" values="0 0 0 0 0 0 0 0 0 0 0 0 0 0 0 0 0 0 127 0" result="hardAlpha"/>
<feOffset dy="1"/>
<feGaussianBlur stdDeviation="5"/>
<feComposite in2="hardAlpha" operator="out"/>
<feColorMatrix type="matrix" values="0 0 0 0 0 0 0 0 0 0 0 0 0 0 0 0 0 0 0.15 0"/>
<feBlend mode="normal" in2="BackgroundImageFix" result="effect1_dropShadow_11769_67151"/>
<feBlend mode="normal" in="SourceGraphic" in2="effect1_dropShadow_11769_67151" result="shape"/>
<feColorMatrix in="SourceAlpha" type="matrix" values="0 0 0 0 0 0 0 0 0 0 0 0 0 0 0 0 0 0 127 0" result="hardAlpha"/>
<feOffset dy="-4"/>
<feGaussianBlur stdDeviation="8"/>
<feComposite in2="hardAlpha" operator="arithmetic" k2="-1" k3="1"/>
<feColorMatrix type="matrix" values="0 0 0 0 0.588324 0 0 0 0 0.483998 0 0 0 0 0.912285 0 0 0 0.3 0"/>
<feBlend mode="normal" in2="shape" result="effect2_innerShadow_11769_67151"/>
<feColorMatrix in="SourceAlpha" type="matrix" values="0 0 0 0 0 0 0 0 0 0 0 0 0 0 0 0 0 0 127 0" result="hardAlpha"/>
<feOffset dy="-2"/>
<feGaussianBlur stdDeviation="3"/>
<feComposite in2="hardAlpha" operator="arithmetic" k2="-1" k3="1"/>
<feColorMatrix type="matrix" values="0 0 0 0 1 0 0 0 0 1 0 0 0 0 1 0 0 0 0.75 0"/>
<feBlend mode="normal" in2="effect2_innerShadow_11769_67151" result="effect3_innerShadow_11769_67151"/>
<feColorMatrix in="SourceAlpha" type="matrix" values="0 0 0 0 0 0 0 0 0 0 0 0 0 0 0 0 0 0 127 0" result="hardAlpha"/>
<feOffset dy="-3"/>
<feComposite in2="hardAlpha" operator="arithmetic" k2="-1" k3="1"/>
<feColorMatrix type="matrix" values="0 0 0 0 0.460701 0 0 0 0 0.309077 0 0 0 0 0.931534 0 0 0 0.18 0"/>
<feBlend mode="normal" in2="effect3_innerShadow_11769_67151" result="effect4_innerShadow_11769_67151"/>
</filter>
<linearGradient id="paint0_linear_11769_67151" x1="48.7023" y1="12.7341" x2="54.9058" y2="58.273" gradientUnits="userSpaceOnUse">
<stop stop-color="#26009C"/>
<stop offset="1" stop-color="#0B5ACF"/>
</linearGradient>
<linearGradient id="paint1_linear_11769_67151" x1="100" y1="9" x2="100" y2="49" gradientUnits="userSpaceOnUse">
<stop stop-color="#1C0074"/>
<stop offset="1" stop-color="white" stop-opacity="0"/>
</linearGradient>
<linearGradient id="paint2_linear_11769_67151" x1="100" y1="13" x2="100" y2="27.6989" gradientUnits="userSpaceOnUse">
<stop offset="0.0001" stop-color="white" stop-opacity="0.74"/>
<stop offset="1" stop-color="white" stop-opacity="0"/>
</linearGradient>
</defs>
</svg>
