<svg width="18" height="19" viewBox="0 0 18 19" fill="none" xmlns="http://www.w3.org/2000/svg">
<path d="M14.25 1.91663L13 0.666626L11.75 1.91663L10.5 0.666626L9.25 1.91663L8 0.666626L6.75 1.91663L5.5 0.666626L4.25 1.91663L3 0.666626L1.75 1.91663L0.5 0.666626V17.3333L1.75 16.0833L3 17.3333L4.25 16.0833L5.5 17.3333L6.75 16.0833L8 17.3333V14.9083H2.16667V3.09163H13.8333V10.05L15.5 10.8833V0.666626L14.25 1.91663ZM9.66667 18.1666V14.8333L13 14L9.66667 13.1666V9.83329L18 14L9.66667 18.1666ZM8 8.16663V9.83329H3V8.16663H8ZM3 13.1666V11.5H8V13.1666H3ZM13 4.83329V6.49996H3V4.83329H13Z" fill="white"/>
</svg>
