<svg width="20" height="20" viewBox="0 0 20 20" fill="none" xmlns="http://www.w3.org/2000/svg">
<path d="M8 0C6.89 0 6 0.89 6 2V5C6 6.11 6.89 7 8 7H9V9H0V11H4V13H3C1.89 13 1 13.89 1 15V18C1 19.11 1.89 20 3 20H7C8.11 20 9 19.11 9 18V15C9 13.89 8.11 13 7 13H6V11H14V13H13C11.89 13 11 13.89 11 15V18C11 19.11 11.89 20 13 20H17C18.11 20 19 19.11 19 18V15C19 13.89 18.11 13 17 13H16V11H20V9H11V7H12C13.11 7 14 6.11 14 5V2C14 0.89 13.11 0 12 0H8ZM8 2H12V5H8V2ZM3 15H7V18H3V15ZM13 15H17V18H13V15Z" fill="white"/>
</svg>
