<svg width="61" height="60" viewBox="0 0 61 60" fill="none" xmlns="http://www.w3.org/2000/svg">
<rect x="0.330078" width="60" height="60" rx="8" fill="#B2DDFF"/>
<path d="M17.5801 18.75V27.5L28.8301 30L17.5801 32.5V41.25L26.6676 37.3625C27.1824 39.1984 28.2827 40.8158 29.8013 41.9688C31.3198 43.1218 33.1734 43.7473 35.0801 43.75C37.4007 43.75 39.6263 42.8281 41.2673 41.1872C42.9082 39.5462 43.8301 37.3206 43.8301 35C43.8301 32.6794 42.9082 30.4538 41.2673 28.8128C39.6263 27.1719 37.4007 26.25 35.0801 26.25L17.5801 18.75ZM20.0801 22.5375L31.0551 27.25C30.7626 27.4006 30.4788 27.5675 30.2051 27.75L20.0801 25.5V22.5375ZM35.0801 28.75C36.7377 28.75 38.3274 29.4085 39.4995 30.5806C40.6716 31.7527 41.3301 33.3424 41.3301 35C41.3301 36.6576 40.6716 38.2473 39.4995 39.4194C38.3274 40.5915 36.7377 41.25 35.0801 41.25C33.4225 41.25 31.8328 40.5915 30.6607 39.4194C29.4886 38.2473 28.8301 36.6576 28.8301 35C28.8301 33.3424 29.4886 31.7527 30.6607 30.5806C31.8328 29.4085 33.4225 28.75 35.0801 28.75ZM33.8301 30.625V35.625L37.5801 38.125L38.5176 36.5625L35.7051 34.6875V30.625H33.8301ZM26.5551 33.0625C26.4238 33.6245 26.3484 34.1981 26.3301 34.775L20.0801 37.4625V34.5L26.5551 33.0625Z" fill="#175CD3"/>
</svg>
