<svg width="17" height="15" viewBox="0 0 17 15" fill="none" xmlns="http://www.w3.org/2000/svg">
<path d="M15.5833 7.41665L16.75 8.59165L11.3083 14.0833L8.41667 11.1666L9.58333 9.99165L11.3083 11.725L15.5833 7.41665ZM7.16667 0.333313C8.05072 0.333313 8.89857 0.684502 9.52369 1.30962C10.1488 1.93474 10.5 2.78259 10.5 3.66665C10.5 4.5507 10.1488 5.39855 9.52369 6.02367C8.89857 6.64879 8.05072 6.99998 7.16667 6.99998C6.28261 6.99998 5.43476 6.64879 4.80964 6.02367C4.18452 5.39855 3.83333 4.5507 3.83333 3.66665C3.83333 2.78259 4.18452 1.93474 4.80964 1.30962C5.43476 0.684502 6.28261 0.333313 7.16667 0.333313ZM7.16667 1.99998C6.72464 1.99998 6.30072 2.17557 5.98816 2.48814C5.67559 2.8007 5.5 3.22462 5.5 3.66665C5.5 4.10867 5.67559 4.5326 5.98816 4.84516C6.30072 5.15772 6.72464 5.33331 7.16667 5.33331C7.60869 5.33331 8.03262 5.15772 8.34518 4.84516C8.65774 4.5326 8.83333 4.10867 8.83333 3.66665C8.83333 3.22462 8.65774 2.8007 8.34518 2.48814C8.03262 2.17557 7.60869 1.99998 7.16667 1.99998ZM7.16667 7.83331C7.73333 7.83331 8.41667 7.90831 9.175 8.04998L7.78333 9.44165L7.16667 9.41665C4.69167 9.41665 2.08333 10.6333 2.08333 11.1666V12.0833H7.25L8.83333 13.6666H0.5V11.1666C0.5 8.94998 4.94167 7.83331 7.16667 7.83331Z" fill="white"/>
</svg>
