<svg width="20" height="20" viewBox="0 0 20 20" fill="none" xmlns="http://www.w3.org/2000/svg">
<path d="M19.5833 14.1665L15.4166 18.3332L12.5 15.4165L13.75 14.1665L15.4166 15.8332L18.3333 12.9165L19.5833 14.1665ZM4.99998 1.6665C4.07498 1.6665 3.33331 2.4165 3.33331 3.33317V16.6665C3.33331 17.5915 4.07498 18.3332 4.99998 18.3332H11.5083C11.2083 17.8165 11 17.2498 10.9 16.6665H4.99998V3.33317H10.8333V7.49984H15V10.8998C15.275 10.8582 15.5583 10.8332 15.8333 10.8332C16.1166 10.8332 16.3916 10.8582 16.6666 10.8998V6.6665L11.6666 1.6665M6.66665 9.99984V11.6665H13.3333V9.99984M6.66665 13.3332V14.9998H10.8333V13.3332H6.66665Z" fill="white"/>
</svg>
