<svg width="17" height="18" viewBox="0 0 17 18" fill="none" xmlns="http://www.w3.org/2000/svg">
<path d="M16.5833 13.1665L12.4167 17.3332L9.49999 14.4165L10.75 13.1665L12.4167 14.8332L15.3333 11.9165L16.5833 13.1665ZM1.99999 0.666504C1.07499 0.666504 0.333328 1.4165 0.333328 2.33317V15.6665C0.333328 16.5915 1.07499 17.3332 1.99999 17.3332H8.50833C8.20833 16.8165 7.99999 16.2498 7.89999 15.6665H1.99999V2.33317H7.83333V6.49984H12V9.89984C12.275 9.85817 12.5583 9.83317 12.8333 9.83317C13.1167 9.83317 13.3917 9.85817 13.6667 9.89984V5.6665L8.66666 0.666504M3.66666 8.99984V10.6665H10.3333V8.99984M3.66666 12.3332V13.9998H7.83333V12.3332H3.66666Z" fill="white"/>
</svg>
