<svg width="80" height="80" viewBox="0 0 80 80" fill="none" xmlns="http://www.w3.org/2000/svg">
<path fill-rule="evenodd" clip-rule="evenodd" d="M39.8906 0.0153695C40.5781 -0.000255514 41.4062 0.0934945 41.8281 0.234119C42.25 0.374744 42.9844 0.70287 43.4688 0.98412C43.9531 1.26537 45.6094 2.59349 47.1406 3.95287C48.8125 5.43724 50.0469 6.40599 50.2344 6.40599C50.4062 6.40599 52.6562 6.23412 55.2344 6.03099C58.6719 5.76537 60.1719 5.70287 60.8594 5.81224C61.375 5.89037 62.2344 6.15599 62.7656 6.40599C63.3125 6.67162 64.1406 7.24974 64.625 7.70287C65.2031 8.24974 65.6719 8.87474 66.0312 9.60912C66.3906 10.3591 66.8438 11.9216 67.5 14.6872C68.0312 16.8747 68.4688 18.6716 68.4844 18.6872C68.5 18.7029 70.4531 19.8591 72.8125 21.2654C75.6875 22.9685 77.375 24.0935 77.9062 24.6091C78.3438 25.031 78.8906 25.781 79.1406 26.2497C79.375 26.7185 79.6719 27.4216 79.7812 27.8122C79.9062 28.2029 80 28.9216 80 29.4216C80 29.906 79.9219 30.6404 79.8125 31.0466C79.7188 31.4685 78.875 33.6247 76.2812 39.9216L77.75 43.5154C78.5625 45.4841 79.4062 47.5779 79.6094 48.1716C79.875 48.8591 80 49.5466 80 50.2029C80 50.7341 79.8906 51.5935 79.75 52.1091C79.625 52.6247 79.3281 53.3904 79.0938 53.8122C78.8594 54.2185 78.2812 54.9372 77.8125 55.3747C77.2656 55.8904 75.375 57.1404 68.4375 61.3279L67.4844 65.3122C66.9062 67.7029 66.3438 69.7029 66.0625 70.3122C65.7656 70.9685 65.2812 71.6404 64.7031 72.2029C64.2031 72.6872 63.4219 73.2654 62.8906 73.5154C62.375 73.7497 61.5312 74.0154 61.0156 74.1091C60.2812 74.2341 59 74.1872 50.0312 73.5154L47.0469 76.1404C45.4062 77.5779 43.7031 78.9216 43.2812 79.1404C42.8438 79.3591 42.2031 79.6404 41.8281 79.7654C41.4688 79.8904 40.6406 79.9997 40 79.9997C39.2031 79.9997 38.5312 79.8904 37.8906 79.6716C37.375 79.4841 36.5938 79.0935 36.1719 78.8122C35.7344 78.531 34.1719 77.2185 29.9844 73.5154L24.9531 73.8904C20.7812 74.2029 19.75 74.2497 18.9062 74.0935C18.3438 73.9997 17.5 73.7185 17.0312 73.4841C16.5625 73.2497 15.7812 72.6716 15.2969 72.2029C14.7188 71.6404 14.2344 70.9685 13.9375 70.3122C13.6562 69.7185 13.0469 67.6091 11.4844 61.2029L7.26562 58.6872C4.64062 57.1404 2.73438 55.8904 2.20312 55.3904C1.75 54.9685 1.1875 54.2966 0.96875 53.906C0.75 53.5154 0.4375 52.7966 0.28125 52.2966C0.125 51.8122 0 50.9685 0 50.4216C0 49.8904 0.09375 49.0935 0.234375 48.6716C0.359375 48.2341 1.1875 46.0935 3.71875 39.9216L2.17188 36.1716C1.3125 34.1091 0.46875 31.9997 0.296875 31.4841C0.125 30.9685 0 30.1247 0 29.6091C0 29.0935 0.09375 28.3122 0.21875 27.8904C0.328125 27.4529 0.625 26.7185 0.859375 26.2497C1.10938 25.781 1.65625 25.031 2.09375 24.6091C2.60938 24.1091 4.10938 23.1091 6.3125 21.7966C8.20312 20.6716 9.98438 19.6247 10.2812 19.4529C10.8125 19.1404 10.8594 19.0466 12.3281 14.3747C13.1875 11.656 14.0156 9.34349 14.25 8.98412C14.4687 8.64037 15 8.03099 15.4062 7.64037C15.8281 7.24974 16.375 6.79662 16.6406 6.64037C16.8906 6.48412 17.3906 6.24974 17.7344 6.14037C18.0781 6.01537 18.75 5.85912 19.2188 5.78099C19.7812 5.70287 21.6875 5.79662 24.7656 6.03099C27.3438 6.23412 29.5938 6.39037 29.7656 6.40599C29.9531 6.40599 31.1406 5.46849 32.7344 4.04662C34.1875 2.74974 35.7344 1.46849 36.1719 1.18724C36.5938 0.905994 37.3438 0.530994 37.8125 0.343494C38.375 0.140369 39.0781 0.0309945 39.875 0.0153695H39.8906ZM36.6562 6.85912C35.625 7.78099 34.1719 9.07787 33.4062 9.73412C32.6562 10.406 31.8281 10.9997 31.5312 11.0622C31.2188 11.156 29.0469 11.0466 25.5625 10.781C22.0312 10.5154 19.9219 10.406 19.625 10.4997C19.3594 10.5779 19 10.7341 18.7969 10.8591C18.6094 10.9841 18.3594 11.281 18.2344 11.531C18.1094 11.7654 17.3281 14.1247 16.5 16.7966C15.6094 19.6404 14.8281 21.8279 14.625 22.1091C14.4062 22.406 12.7031 23.4997 10.1562 24.9997C7.89062 26.3279 5.82812 27.5935 5.57812 27.8122C5.32812 28.031 5.03125 28.4372 4.90625 28.7029C4.79688 28.9841 4.70312 29.3904 4.70312 29.6091C4.70312 29.8279 5.57812 32.1247 6.65625 34.7341C7.75 37.3904 8.60938 39.6716 8.60938 39.9685C8.60938 40.2654 7.84375 42.3279 6.70312 45.0466C5.125 48.8279 4.79688 49.7497 4.78125 50.4216C4.78125 50.9997 4.875 51.3435 5.10938 51.6716C5.29688 51.9216 7.09375 53.0935 9.40625 54.4841C11.5938 55.781 13.7969 57.1091 14.2969 57.4529C14.8125 57.781 15.3594 58.2185 15.5156 58.4372C15.6719 58.656 16.2812 60.8904 16.8906 63.4372C17.5 65.9685 18.1094 68.2185 18.25 68.4372C18.3906 68.656 18.6562 68.9529 18.8281 69.0935C19.0156 69.2497 19.3594 69.406 19.625 69.4685C19.8906 69.5154 22.5469 69.3747 25.5625 69.1404C30.4062 68.7654 31.0938 68.7497 31.5781 68.9372C31.875 69.0622 33.625 70.4841 35.4375 72.0779C38.0469 74.3591 38.9062 75.0466 39.4219 75.1872C39.9375 75.3122 40.2344 75.3122 40.6719 75.1872C41.0781 75.0622 42.3281 74.0622 44.5781 72.0622C46.4062 70.4529 48.125 69.0466 48.375 68.9372C48.7656 68.7497 49.6875 68.781 54.3906 69.1404C57.4375 69.3747 60.1562 69.5154 60.4062 69.4685C60.6562 69.4216 61.1094 69.156 61.3906 68.8747C61.6719 68.5935 61.9688 68.1404 62.0469 67.8904C62.125 67.6404 62.6562 65.4529 63.2344 63.0466C64.0312 59.7497 64.375 58.5779 64.6406 58.281C64.8281 58.0622 67.1562 56.5935 69.7969 54.9997C72.6562 53.281 74.7344 51.9372 74.9219 51.6716C75.1562 51.3591 75.25 50.9997 75.25 50.4216C75.2344 49.7497 74.9062 48.8279 73.3281 45.0466C72.1875 42.3279 71.4219 40.2654 71.4219 39.9685C71.4219 39.6716 72.2812 37.3904 73.375 34.7341C74.4531 32.1247 75.3281 29.8279 75.3281 29.6091C75.3281 29.3904 75.25 29.031 75.1562 28.781C75.0625 28.5466 74.8438 28.1872 74.6562 27.9997C74.4688 27.7966 72.1719 26.3435 69.5469 24.7654C66.7031 23.0622 64.6719 21.7497 64.5 21.4997C64.3594 21.281 63.75 19.0466 63.1406 16.5622C62.5312 14.0622 61.9375 11.8279 61.8125 11.5622C61.6875 11.2966 61.4219 10.9841 61.2188 10.8591C61.0312 10.7341 60.6562 10.5779 60.4062 10.4997C60.1094 10.406 58 10.5154 54.4688 10.781C50.9844 11.0466 48.8125 11.156 48.4844 11.0622C48.1562 10.9841 46.875 9.95287 44.8594 8.15599C43.1406 6.64037 41.4219 5.23412 41.0625 5.03099C40.7031 4.84349 40.1875 4.68724 39.9375 4.68724C39.6719 4.70287 39.2656 4.81224 39 4.95287C38.7344 5.09349 37.6875 5.95287 36.6562 6.85912ZM39.7344 14.2341C40.5781 14.2341 41.9844 14.2966 42.8594 14.3904C43.75 14.4841 45.2344 14.7654 46.1875 14.9997C47.1406 15.2341 48.6406 15.7185 49.5469 16.0622C50.4531 16.4216 51.7656 17.0466 52.4844 17.4529C53.1875 17.8747 54.4219 18.656 55.2031 19.2185C55.9844 19.781 57.3438 20.9372 58.2031 21.8122C59.0781 22.6872 60.1875 23.9529 60.6719 24.6247C61.1562 25.2966 61.9062 26.4529 62.3438 27.1872C62.7812 27.9216 63.4062 29.1872 63.75 29.9997C64.0938 30.8122 64.5469 32.1247 64.7812 32.8904C65 33.656 65.2969 34.9685 65.4375 35.781C65.5938 36.7029 65.7031 38.2341 65.7031 39.8435C65.7188 41.3122 65.625 43.031 65.5 43.8279C65.3906 44.5935 65.0625 46.0466 64.7812 47.031C64.5 48.0154 63.9844 49.4685 63.6562 50.2341C63.3125 50.9997 62.7031 52.2341 62.2656 52.9372C61.8438 53.656 61.0469 54.8591 60.4844 55.5935C59.9219 56.3435 58.8281 57.5779 58.0469 58.3591C57.2656 59.1247 55.9844 60.2185 55.2031 60.781C54.4062 61.3435 53.1875 62.1247 52.4844 62.5466C51.7656 62.9529 50.4844 63.5622 49.625 63.906C48.7656 64.2341 47.3906 64.6872 46.5781 64.906C45.7656 65.1091 44.5625 65.3747 43.9219 65.4997C43.2344 65.6091 41.5938 65.6872 39.9375 65.6872C38.0156 65.6872 36.6719 65.5935 35.7188 65.4216C34.9531 65.281 33.6719 64.9841 32.9062 64.7654C32.1406 64.531 30.7969 64.0622 29.9375 63.7029C29.0781 63.3279 27.7344 62.656 26.9688 62.2029C26.2031 61.7341 25.0312 60.9529 24.3906 60.4685C23.75 59.9841 22.625 58.9841 21.8906 58.2654C21.1563 57.5466 20.125 56.3904 19.6094 55.7029C19.0781 55.0154 18.2812 53.8122 17.8125 53.0466C17.3438 52.281 16.6719 50.9372 16.3125 50.0779C15.9531 49.2185 15.4844 47.8747 15.25 47.1091C15.0312 46.3435 14.7344 45.0622 14.5938 44.2966C14.4062 43.3122 14.3281 42.031 14.3281 39.9997C14.3281 37.9685 14.4062 36.6872 14.5938 35.7029C14.7344 34.9372 15.0312 33.656 15.25 32.8904C15.4844 32.1247 15.9688 30.7497 16.3594 29.8435C16.7344 28.9372 17.4062 27.6091 17.8438 26.8747C18.2812 26.1404 19.0469 25.0154 19.5312 24.3747C20.0156 23.7341 21 22.6091 21.7344 21.8747C22.4688 21.1404 23.625 20.1091 24.3125 19.5935C25 19.0779 26.1563 18.281 26.8906 17.8435C27.625 17.406 28.8594 16.7654 29.625 16.4372C30.3906 16.0935 31.5938 15.6404 32.2812 15.4216C32.9688 15.2029 34.0938 14.906 34.7812 14.7654C35.4688 14.6247 36.5312 14.4529 37.125 14.3904C37.7188 14.3122 38.9062 14.2497 39.7344 14.2341ZM36.0312 19.3122C35.3438 19.4372 34.2188 19.7341 33.5312 19.9529C32.8438 20.1716 31.75 20.5935 31.1094 20.8904C30.4688 21.1872 29.2344 21.8904 28.375 22.4529C27.3594 23.1247 26.2031 24.1091 25.0938 25.2185C24.1406 26.1716 23.0156 27.4841 22.5938 28.1247C22.1563 28.7654 21.5156 29.8904 21.1406 30.6247C20.7812 31.3591 20.2813 32.5935 20.0156 33.3591C19.7656 34.1247 19.4375 35.3591 19.2812 36.0935C19.0781 37.0466 19 38.1404 19 39.9997C19 41.8591 19.0781 42.9529 19.2812 43.906C19.4375 44.6404 19.75 45.7966 19.9688 46.4841C20.1875 47.1716 20.6094 48.2654 20.9062 48.906C21.2031 49.5466 21.9062 50.781 22.4688 51.6404C23.1406 52.6716 24.0469 53.7654 25.1562 54.8591C26.2031 55.906 27.4063 56.8904 28.4531 57.5779C29.3594 58.1872 30.7031 58.9372 31.4531 59.2497C32.2188 59.5779 33.4375 60.0154 34.1875 60.2341C34.9531 60.4529 36.0156 60.7185 36.5781 60.8279C37.1406 60.9216 38.7188 61.0154 40.0938 61.0154C41.8906 60.9997 42.9688 60.9216 43.9219 60.7185C44.6562 60.5622 45.8125 60.2654 46.5 60.0466C47.1875 59.8279 48.2812 59.406 48.9219 59.1091C49.5625 58.8122 50.7656 58.1247 51.5781 57.5935C52.3906 57.0466 53.6875 56.0154 54.4531 55.2966C55.2188 54.5779 56.2656 53.4216 56.7656 52.7341C57.2812 52.0466 57.9844 51.031 58.2969 50.4685C58.625 49.906 59.1875 48.7185 59.5625 47.8122C59.9219 46.906 60.3906 45.406 60.6094 44.4529C60.9531 42.9529 61.0156 42.3747 61.0156 39.9997C61.0156 37.6247 60.9531 37.0466 60.6094 35.5466C60.3906 34.5935 59.9375 33.1247 59.5938 32.2654C59.2656 31.406 58.7031 30.2029 58.3438 29.6091C58 28.9997 57.2812 27.9529 56.7656 27.2654C56.2656 26.5779 55.2188 25.4216 54.4531 24.7029C53.6875 23.9685 52.3906 22.9372 51.5781 22.406C50.7656 21.8747 49.5625 21.1872 48.9219 20.8904C48.2812 20.5935 47.1875 20.1716 46.5 19.9529C45.8125 19.7341 44.6875 19.4372 44 19.2966C43.2812 19.1404 41.8125 19.0154 40.5625 18.9841C39.3594 18.9529 38.125 18.9685 37.8281 18.9997C37.5312 19.0466 36.7188 19.1716 36.0312 19.3122ZM51.7031 30.6247C51.9688 30.6247 52.4844 30.7654 52.8281 30.9372C53.2656 31.156 53.5469 31.4372 53.7656 31.906C53.9375 32.281 54.0781 32.7341 54.0781 32.9216C54.0781 33.1247 53.9688 33.5466 53.8438 33.8591C53.6719 34.281 51.4219 36.6404 46.4531 41.6091C42.4844 45.5935 39.0469 48.906 38.7188 49.0779C38.4062 49.2341 37.9219 49.3747 37.6719 49.3747C37.4062 49.3747 36.9375 49.2341 36.6094 49.0779C36.2969 48.906 33.875 46.6091 31.2344 43.9529C28.6094 41.3122 26.3438 38.906 26.2031 38.6247C26.0625 38.3591 25.9531 37.906 25.9531 37.656C25.9531 37.3904 26.0938 36.906 26.2656 36.5622C26.474 36.1456 26.7865 35.8331 27.2031 35.6247C27.5469 35.4529 28.0312 35.3122 28.2969 35.3122C28.5625 35.3122 29 35.4216 29.2656 35.5622C29.5469 35.7029 31.5625 37.5779 37.6719 43.6716L43.9688 37.406C47.4219 33.9529 50.4688 31.0154 50.7188 30.8747C50.9688 30.7497 51.4219 30.6404 51.6875 30.6247H51.7031Z" fill="#039855"/>
</svg>
