<svg width="16" height="16" viewBox="0 0 16 16" fill="none" xmlns="http://www.w3.org/2000/svg">
<path d="M6.83366 10.499H11.8337V12.1657H6.83366V10.499ZM5.16699 3.83236H3.50033V5.49902H5.16699V3.83236ZM6.83366 8.83236H11.8337V7.16569H6.83366V8.83236ZM6.83366 5.49902H11.8337V3.83236H6.83366V5.49902ZM5.16699 7.16569H3.50033V8.83236H5.16699V7.16569ZM15.167 2.16569V13.8324C15.167 14.749 14.417 15.499 13.5003 15.499H1.83366C0.916992 15.499 0.166992 14.749 0.166992 13.8324V2.16569C0.166992 1.24902 0.916992 0.499023 1.83366 0.499023H13.5003C14.417 0.499023 15.167 1.24902 15.167 2.16569ZM13.5003 2.16569H1.83366V13.8324H13.5003V2.16569ZM5.16699 10.499H3.50033V12.1657H5.16699V10.499Z" fill="white"/>
</svg>
