<svg width="16" height="16" viewBox="0 0 16 16" fill="none" xmlns="http://www.w3.org/2000/svg">
<path d="M7.16667 10.5H12.1667V12.1667H7.16667V10.5ZM5.5 3.83333H3.83333V5.5H5.5V3.83333ZM7.16667 8.83333H12.1667V7.16667H7.16667V8.83333ZM7.16667 5.5H12.1667V3.83333H7.16667V5.5ZM5.5 7.16667H3.83333V8.83333H5.5V7.16667ZM15.5 2.16667V13.8333C15.5 14.75 14.75 15.5 13.8333 15.5H2.16667C1.25 15.5 0.5 14.75 0.5 13.8333V2.16667C0.5 1.25 1.25 0.5 2.16667 0.5H13.8333C14.75 0.5 15.5 1.25 15.5 2.16667ZM13.8333 2.16667H2.16667V13.8333H13.8333V2.16667ZM5.5 10.5H3.83333V12.1667H5.5V10.5Z" fill="#25009D"/>
</svg>
