<svg width="21" height="20" viewBox="0 0 21 20" fill="none" xmlns="http://www.w3.org/2000/svg">
<path d="M9.83366 12.499H14.8337V14.1657H9.83366V12.499ZM8.16699 5.83236H6.50033V7.49902H8.16699V5.83236ZM9.83366 10.8324H14.8337V9.16569H9.83366V10.8324ZM9.83366 7.49902H14.8337V5.83236H9.83366V7.49902ZM8.16699 9.16569H6.50033V10.8324H8.16699V9.16569ZM18.167 4.16569V15.8324C18.167 16.749 17.417 17.499 16.5003 17.499H4.83366C3.91699 17.499 3.16699 16.749 3.16699 15.8324V4.16569C3.16699 3.24902 3.91699 2.49902 4.83366 2.49902H16.5003C17.417 2.49902 18.167 3.24902 18.167 4.16569ZM16.5003 4.16569H4.83366V15.8324H16.5003V4.16569ZM8.16699 12.499H6.50033V14.1657H8.16699V12.499Z" fill="white"/>
</svg>
