<svg width="21" height="20" viewBox="0 0 21 20" fill="none" xmlns="http://www.w3.org/2000/svg">
<path d="M9.83341 12.499H14.8334V14.1657H9.83341V12.499ZM8.16675 5.83236H6.50008V7.49902H8.16675V5.83236ZM9.83341 10.8324H14.8334V9.16569H9.83341V10.8324ZM9.83341 7.49902H14.8334V5.83236H9.83341V7.49902ZM8.16675 9.16569H6.50008V10.8324H8.16675V9.16569ZM18.1667 4.16569V15.8324C18.1667 16.749 17.4167 17.499 16.5001 17.499H4.83341C3.91675 17.499 3.16675 16.749 3.16675 15.8324V4.16569C3.16675 3.24902 3.91675 2.49902 4.83341 2.49902H16.5001C17.4167 2.49902 18.1667 3.24902 18.1667 4.16569ZM16.5001 4.16569H4.83341V15.8324H16.5001V4.16569ZM8.16675 12.499H6.50008V14.1657H8.16675V12.499Z" fill="#202124"/>
</svg>
