<svg width="16" height="16" viewBox="0 0 16 16" fill="none" xmlns="http://www.w3.org/2000/svg">
<path d="M6.83341 10.499H11.8334V12.1657H6.83341V10.499ZM5.16675 3.83236H3.50008V5.49902H5.16675V3.83236ZM6.83341 8.83236H11.8334V7.16569H6.83341V8.83236ZM6.83341 5.49902H11.8334V3.83236H6.83341V5.49902ZM5.16675 7.16569H3.50008V8.83236H5.16675V7.16569ZM15.1667 2.16569V13.8324C15.1667 14.749 14.4167 15.499 13.5001 15.499H1.83341C0.916748 15.499 0.166748 14.749 0.166748 13.8324V2.16569C0.166748 1.24902 0.916748 0.499023 1.83341 0.499023H13.5001C14.4167 0.499023 15.1667 1.24902 15.1667 2.16569ZM13.5001 2.16569H1.83341V13.8324H13.5001V2.16569ZM5.16675 10.499H3.50008V12.1657H5.16675V10.499Z" fill="#202124"/>
</svg>
