<svg width="45" height="42" viewBox="0 0 45 42" fill="none" xmlns="http://www.w3.org/2000/svg">
<path d="M-4.95911e-05 41.46C15.0532 41.46 17.1517 31.5197 24.2538 14.2203C29.9277 0.404009 38.0278 0.00877157 38.7076 0.000170095H38.7534C38.7534 0.000170095 38.7379 -0.000212619 38.7076 0.000170095H-4.95911e-05V41.46Z" fill="#25009D"/>
<path d="M-4.95911e-05 41.46C15.0532 41.46 17.1517 31.5197 24.2538 14.2203C29.9277 0.404009 38.0278 0.00877157 38.7076 0.000170095H38.7534C38.7534 0.000170095 38.7379 -0.000212619 38.7076 0.000170095H-4.95911e-05V41.46Z" fill="url(#paint0_linear_12266_52596)" style="mix-blend-mode:screen"/>
<path d="M39.3812 0C39.3812 0 44.9537 2.83721 44.9537 7.44934H27.7534C27.7534 7.44934 30.9976 0 39.3812 0Z" fill="#150059"/>
<defs>
<linearGradient id="paint0_linear_12266_52596" x1="28.8679" y1="0.000170094" x2="28.8679" y2="22.1693" gradientUnits="userSpaceOnUse">
<stop/>
<stop offset="0.325" stop-color="#175EE6"/>
<stop offset="1"/>
</linearGradient>
</defs>
</svg>
