<svg width="44" height="42" viewBox="0 0 44 42" fill="none" xmlns="http://www.w3.org/2000/svg">
<path d="M5.23676 0C5.23676 0 0 2.75618 0 7.36831H16.1211C16.1211 7.36831 13.6156 0 5.23676 0Z" fill="#150059"/>
<path d="M43.8746 41.46C28.8213 41.46 26.7229 31.5197 19.6207 14.2203C13.9468 0.404009 5.8467 0.00877157 5.1669 0.000170095H5.12109C5.12109 0.000170095 5.13665 -0.000212619 5.1669 0.000170095H43.8746V41.46Z" fill="#25009D"/>
<path d="M43.8746 41.46C28.8213 41.46 26.7229 31.5197 19.6207 14.2203C13.9468 0.404009 5.8467 0.00877157 5.1669 0.000170095H5.12109C5.12109 0.000170095 5.13665 -0.000212619 5.1669 0.000170095H43.8746V41.46Z" fill="url(#paint0_linear_12266_52595)" style="mix-blend-mode:screen"/>
<defs>
<linearGradient id="paint0_linear_12266_52595" x1="15.0066" y1="0.000170094" x2="15.0066" y2="22.1693" gradientUnits="userSpaceOnUse">
<stop/>
<stop offset="0.325" stop-color="#175EE6"/>
<stop offset="1"/>
</linearGradient>
</defs>
</svg>
