<svg width="20" height="14" viewBox="0 0 20 14" fill="none" xmlns="http://www.w3.org/2000/svg">
<path d="M5.83333 0.333252C4 0.333252 2.5 1.83325 2.5 3.66659C2.5 5.49992 4 6.99992 5.83333 6.99992C7.66667 6.99992 9.16667 5.49992 9.16667 3.66659C9.16667 1.83325 7.66667 0.333252 5.83333 0.333252ZM5.83333 5.33325C4.91667 5.33325 4.16667 4.58325 4.16667 3.66659C4.16667 2.74992 4.91667 1.99992 5.83333 1.99992C6.75 1.99992 7.5 2.74992 7.5 3.66659C7.5 4.58325 6.75 5.33325 5.83333 5.33325ZM5.83333 8.66658C2.58333 8.66658 0 10.1666 0 11.9999V13.6666H9.16667V11.9999H1.66667C1.66667 11.4999 3.16667 10.3333 5.83333 10.3333C7.33333 10.3333 8.5 10.7499 9.16667 11.1666V9.33325C8.25 8.91658 7.08333 8.66658 5.83333 8.66658ZM18.3333 0.333252H12.5C11.5833 0.333252 10.8333 1.08325 10.8333 1.99992V11.9999C10.8333 12.9166 11.5833 13.6666 12.5 13.6666H18.3333C19.25 13.6666 20 12.9166 20 11.9999V1.99992C20 1.08325 19.25 0.333252 18.3333 0.333252ZM13.3333 11.9999H12.5V1.99992H13.3333V11.9999ZM18.3333 11.9999H15V1.99992H18.3333V11.9999Z" fill="white"/>
</svg>