<svg width="25" height="24" viewBox="0 0 25 24" fill="none" xmlns="http://www.w3.org/2000/svg">
<path d="M11.8 8H13.8V14H11.8V8ZM15.8 1H9.80005V3H15.8V1ZM12.8 20C8.93005 20 5.80005 16.87 5.80005 13C5.80005 9.13 8.93005 6 12.8 6C16.67 6 19.8 9.13 19.8 13C20.5 13 21.16 13.13 21.8 13.35C21.8 13.23 21.8 13.12 21.8 13C21.8 10.88 21.06 8.93 19.83 7.39L21.25 5.97C20.8 5.46 20.35 5 19.84 4.56L18.42 6C16.87 4.74 14.92 4 12.8 4C7.83005 4 3.80005 8.03 3.80005 13C3.80005 17.97 7.83005 22 12.8 22C13.39 22 13.96 21.94 14.51 21.83C14.2 21.25 13.98 20.6 13.88 19.91C13.52 19.96 13.17 20 12.8 20ZM22.14 15.84L18.55 19.43L16.96 17.84L15.8 19L18.55 22L23.3 17.25L22.14 15.84Z" fill="#039855"/>
</svg>
