<svg width="23" height="16" viewBox="0 0 23 16" fill="none" xmlns="http://www.w3.org/2000/svg">
<path d="M0.5 0.5H23V15.5H0.5V0.5ZM11.75 4.25C12.7446 4.25 13.6984 4.64509 14.4017 5.34835C15.1049 6.05161 15.5 7.00544 15.5 8C15.5 8.99456 15.1049 9.94839 14.4017 10.6517C13.6984 11.3549 12.7446 11.75 11.75 11.75C10.7554 11.75 9.80161 11.3549 9.09835 10.6517C8.39509 9.94839 8 8.99456 8 8C8 7.00544 8.39509 6.05161 9.09835 5.34835C9.80161 4.64509 10.7554 4.25 11.75 4.25ZM5.5 3C5.5 3.66304 5.23661 4.29893 4.76777 4.76777C4.29893 5.23661 3.66304 5.5 3 5.5V10.5C3.66304 10.5 4.29893 10.7634 4.76777 11.2322C5.23661 11.7011 5.5 12.337 5.5 13H18C18 12.337 18.2634 11.7011 18.7322 11.2322C19.2011 10.7634 19.837 10.5 20.5 10.5V5.5C19.837 5.5 19.2011 5.23661 18.7322 4.76777C18.2634 4.29893 18 3.66304 18 3H5.5Z" fill="#444CE7"/>
</svg>
