<svg width="40" height="41" viewBox="0 0 40 41" fill="none" xmlns="http://www.w3.org/2000/svg">
<rect y="0.333496" width="40" height="40" rx="8" fill="#E0F2FE"/>
<path d="M25 15.3335V17.3335H23V15.3335H25ZM21 15.3335V17.3335H15V15.3335H21ZM21 19.3335H15V21.3335H21V19.3335ZM23 19.3335V21.3335H25V19.3335H23ZM29 30.3335L26 28.3335L23 30.3335L20 28.3335L17 30.3335L14 28.3335L11 30.3335V11.3335H29V30.3335ZM27 26.5935V13.3335H13V26.5935L14 25.9335L17 27.9335L20 25.9335L23 27.9335L26 25.9335L27 26.5935Z" fill="#175CD3"/>
</svg>
