<svg width="31" height="30" viewBox="0 0 31 30" fill="none" xmlns="http://www.w3.org/2000/svg">
<path d="M4.5 7.5H27V22.5H4.5V7.5ZM15.75 11.25C16.7446 11.25 17.6984 11.6451 18.4017 12.3483C19.1049 13.0516 19.5 14.0054 19.5 15C19.5 15.9946 19.1049 16.9484 18.4017 17.6517C17.6984 18.3549 16.7446 18.75 15.75 18.75C14.7554 18.75 13.8016 18.3549 13.0983 17.6517C12.3951 16.9484 12 15.9946 12 15C12 14.0054 12.3951 13.0516 13.0983 12.3483C13.8016 11.6451 14.7554 11.25 15.75 11.25ZM9.5 10C9.5 10.663 9.23661 11.2989 8.76777 11.7678C8.29893 12.2366 7.66304 12.5 7 12.5V17.5C7.66304 17.5 8.29893 17.7634 8.76777 18.2322C9.23661 18.7011 9.5 19.337 9.5 20H22C22 19.337 22.2634 18.7011 22.7322 18.2322C23.2011 17.7634 23.837 17.5 24.5 17.5V12.5C23.837 12.5 23.2011 12.2366 22.7322 11.7678C22.2634 11.2989 22 10.663 22 10H9.5Z" fill="#444CE7"/>
</svg>
