<svg width="19" height="19" viewBox="0 0 19 19" fill="none" xmlns="http://www.w3.org/2000/svg">
<path d="M7.33329 10.834C8.24996 10.834 8.99996 11.5757 8.99996 12.5007C8.99996 13.4257 8.25829 14.1673 7.33329 14.1673C6.40829 14.1673 5.66663 13.4257 5.66663 12.5007C5.66663 11.5757 6.41663 10.834 7.33329 10.834ZM14 0.833984C11.7 0.833984 9.83329 2.70065 9.83329 5.00065V6.66732H2.33329C1.41663 6.66732 0.666626 7.41732 0.666626 8.33398V16.6673C0.666626 17.584 1.41663 18.334 2.33329 18.334H12.3333C13.25 18.334 14 17.584 14 16.6673V8.33398C14 7.41732 13.25 6.66732 12.3333 6.66732H11.5V5.00065C11.5 3.61732 12.6166 2.50065 14 2.50065C15.3833 2.50065 16.5 3.61732 16.5 5.00065V6.66732H18.1666V5.00065C18.1666 2.70065 16.3 0.833984 14 0.833984ZM12.3333 8.33398V16.6673H2.33329V8.33398H12.3333Z" fill="white"/>
</svg>
