<svg width="20" height="20" viewBox="0 0 20 20" fill="none" xmlns="http://www.w3.org/2000/svg">
<path d="M6.66659 9.99935H13.3333V11.666H6.66659V9.99935ZM8.33325 16.666H4.99992V3.33268H10.8333V7.49935H14.9999V10.0827L16.6666 8.41602V6.66602L11.6666 1.66602H4.99992C4.55789 1.66602 4.13397 1.84161 3.82141 2.15417C3.50885 2.46673 3.33325 2.89065 3.33325 3.33268V16.666C3.33325 17.108 3.50885 17.532 3.82141 17.8445C4.13397 18.1571 4.55789 18.3327 4.99992 18.3327H8.33325V16.666ZM6.66659 14.9993H10.0833L10.8333 14.2493V13.3327H6.66659V14.9993ZM16.8333 10.8327C16.9166 10.8327 17.0833 10.916 17.1666 10.9993L18.2499 12.0827C18.4166 12.2493 18.4166 12.5827 18.2499 12.7493L17.4166 13.5827L15.6666 11.8327L16.4999 10.9993C16.5833 10.916 16.6666 10.8327 16.8333 10.8327ZM16.8333 14.0827L11.7499 19.166H9.99992V17.416L15.0833 12.3327L16.8333 14.0827Z" fill="white"/>
</svg>