<svg width="19" height="14" viewBox="0 0 19 14" fill="none" xmlns="http://www.w3.org/2000/svg">
<path d="M4.91683 13.6666C3.65016 13.6666 2.56961 13.2305 1.67516 12.3583C0.780718 11.4805 0.333496 10.411 0.333496 9.14992C0.333496 8.06659 0.658496 7.09992 1.3085 6.24992C1.96405 5.39992 2.81961 4.85825 3.87516 4.62492C4.22516 3.34714 4.91961 2.31381 5.9585 1.52492C7.00294 0.730474 8.1835 0.333252 9.50016 0.333252C11.1279 0.333252 12.5057 0.899919 13.6335 2.03325C14.7668 3.16103 15.3335 4.53881 15.3335 6.16658C16.2946 6.2777 17.0891 6.69436 17.7168 7.41658C18.3502 8.1277 18.6668 8.96103 18.6668 9.91658C18.6668 10.961 18.3029 11.8471 17.5752 12.5749C16.8474 13.3027 15.9613 13.6666 14.9168 13.6666H10.3335C9.87794 13.6666 9.48627 13.5027 9.15849 13.1749C8.83072 12.8527 8.66683 12.461 8.66683 11.9999V7.70825L7.3335 8.99992L6.16683 7.83325L9.50016 4.49992L12.8335 7.83325L11.6668 8.99992L10.3335 7.70825V11.9999H14.9168C15.5002 11.9999 15.9918 11.7971 16.3918 11.3916C16.7974 10.9916 17.0002 10.4999 17.0002 9.91658C17.0002 9.33325 16.7974 8.84159 16.3918 8.44158C15.9918 8.03603 15.5002 7.83325 14.9168 7.83325H13.6668V6.16658C13.6668 5.01659 13.2613 4.03325 12.4502 3.21659C11.6391 2.40547 10.6557 1.99992 9.50016 1.99992C8.35016 1.99992 7.36683 2.40547 6.55016 3.21659C5.73905 4.03325 5.3335 5.01659 5.3335 6.16658H4.91683C4.11127 6.16658 3.42516 6.4527 2.8585 7.02492C2.28627 7.59158 2.00016 8.2777 2.00016 9.08325C2.00016 9.88881 2.28627 10.5833 2.8585 11.1666C3.42516 11.7221 4.11127 11.9999 4.91683 11.9999H7.00016V13.6666" fill="white"/>
</svg>
