<svg width="20" height="20" viewBox="0 0 20 20" fill="none" xmlns="http://www.w3.org/2000/svg">
<path d="M5.41671 16.6673C4.15004 16.6673 3.06948 16.2312 2.17504 15.359C1.2806 14.4812 0.833374 13.4118 0.833374 12.1507C0.833374 11.0673 1.15837 10.1007 1.80837 9.25065C2.46393 8.40065 3.31948 7.85898 4.37504 7.62565C4.72504 6.34787 5.41948 5.31454 6.45837 4.52565C7.50282 3.73121 8.68337 3.33398 10 3.33398C11.6278 3.33398 13.0056 3.90065 14.1334 5.03398C15.2667 6.16176 15.8334 7.53954 15.8334 9.16732C16.7945 9.27843 17.5889 9.6951 18.2167 10.4173C18.85 11.1284 19.1667 11.9618 19.1667 12.9173C19.1667 13.9618 18.8028 14.8479 18.075 15.5757C17.3473 16.3034 16.4612 16.6673 15.4167 16.6673H10.8334C10.3778 16.6673 9.98615 16.5034 9.65837 16.1757C9.3306 15.8534 9.16671 15.4618 9.16671 15.0007V10.709L7.83337 12.0007L6.66671 10.834L10 7.50065L13.3334 10.834L12.1667 12.0007L10.8334 10.709V15.0007H15.4167C16 15.0007 16.4917 14.7979 16.8917 14.3923C17.2973 13.9923 17.5 13.5007 17.5 12.9173C17.5 12.334 17.2973 11.8423 16.8917 11.4423C16.4917 11.0368 16 10.834 15.4167 10.834H14.1667V9.16732C14.1667 8.01732 13.7612 7.03398 12.95 6.21732C12.1389 5.40621 11.1556 5.00065 10 5.00065C8.85004 5.00065 7.86671 5.40621 7.05004 6.21732C6.23893 7.03398 5.83337 8.01732 5.83337 9.16732H5.41671C4.61115 9.16732 3.92504 9.45343 3.35837 10.0257C2.78615 10.5923 2.50004 11.2784 2.50004 12.084C2.50004 12.8895 2.78615 13.584 3.35837 14.1673C3.92504 14.7229 4.61115 15.0007 5.41671 15.0007H7.50004V16.6673" fill="#202124"/>
</svg>
