<svg width="12" height="12" viewBox="0 0 12 12" fill="none" xmlns="http://www.w3.org/2000/svg">
<path d="M6.00008 0.667969C6.70732 0.667969 7.3856 0.94892 7.8857 1.44902C8.3858 1.94911 8.66675 2.62739 8.66675 3.33464C8.66675 4.04188 8.3858 4.72016 7.8857 5.22025C7.3856 5.72035 6.70732 6.0013 6.00008 6.0013C5.29284 6.0013 4.61456 5.72035 4.11446 5.22025C3.61437 4.72016 3.33341 4.04188 3.33341 3.33464C3.33341 2.62739 3.61437 1.94911 4.11446 1.44902C4.61456 0.94892 5.29284 0.667969 6.00008 0.667969ZM6.00008 2.0013C5.64646 2.0013 5.30732 2.14178 5.05727 2.39183C4.80722 2.64187 4.66675 2.98101 4.66675 3.33464C4.66675 3.68826 4.80722 4.0274 5.05727 4.27744C5.30732 4.52749 5.64646 4.66797 6.00008 4.66797C6.3537 4.66797 6.69284 4.52749 6.94289 4.27744C7.19294 4.0274 7.33341 3.68826 7.33341 3.33464C7.33341 2.98101 7.19294 2.64187 6.94289 2.39183C6.69284 2.14178 6.3537 2.0013 6.00008 2.0013ZM6.00008 6.66797C7.78008 6.66797 11.3334 7.55464 11.3334 9.33463V11.3346H0.666748V9.33463C0.666748 7.55464 4.22008 6.66797 6.00008 6.66797ZM6.00008 7.93463C4.02008 7.93463 1.93341 8.90797 1.93341 9.33463V10.068H10.0667V9.33463C10.0667 8.90797 7.98008 7.93463 6.00008 7.93463Z" fill="#202124"/>
</svg>
