<svg width="72" height="67" viewBox="0 0 72 67" fill="none" xmlns="http://www.w3.org/2000/svg">
<path fill-rule="evenodd" clip-rule="evenodd" d="M36.4688 0.140857C36.8594 0.172107 37.7344 0.343982 38.4219 0.500232C39.1094 0.672107 40.125 1.04711 40.6719 1.31273C41.2188 1.59398 42.0625 2.18773 42.5469 2.62523C43.0312 3.06273 43.6719 3.76586 43.9844 4.18773C44.2969 4.60961 50.3906 15.5627 57.5156 28.5471C64.6406 41.5159 70.5938 52.4221 70.7188 52.7659C70.8594 53.1096 71.0781 53.8596 71.2188 54.4377C71.3594 55.0315 71.4688 55.8127 71.4688 56.2034C71.4688 56.594 71.3594 57.4534 71.2344 58.1096C71.0938 58.8284 70.7031 59.9221 70.2969 60.7659C69.75 61.9065 69.3438 62.469 68.4688 63.3596C67.5469 64.2971 67.0469 64.6565 65.8438 65.2346C64.9531 65.6565 63.8594 66.0471 63.1094 66.1877C61.9844 66.4221 59.0625 66.4377 35.5312 66.4065C9.4375 66.3596 9.1875 66.3596 8.10938 66.0315C7.51562 65.8596 6.48438 65.4377 5.84375 65.094C5.07812 64.7034 4.29688 64.1096 3.57812 63.3909C2.82812 62.6409 2.28125 61.8909 1.82812 61.0471C1.46875 60.3596 1.03125 59.2034 0.859375 58.469C0.671875 57.7346 0.53125 56.8127 0.53125 56.3909C0.53125 55.9846 0.640625 55.1721 0.765625 54.5627C0.890625 53.9534 1.10938 53.1721 1.26563 52.7971C1.40625 52.4377 7.35938 41.5315 14.4844 28.5471C21.6094 15.5627 27.6719 4.64086 27.9531 4.25023C28.2344 3.85961 28.8438 3.18773 29.2969 2.76586C29.7656 2.32836 30.5 1.78148 30.9219 1.54711C31.3594 1.31273 32.0938 0.968982 32.5625 0.797107C33.0312 0.625232 33.9531 0.390857 34.5938 0.281482C35.2344 0.172107 36.0781 0.109607 36.4688 0.140857ZM33.625 7.79711C33.4688 7.95336 27.5156 18.6877 20.375 31.6721C11.5625 47.7034 7.375 55.469 7.3125 55.8909C7.26562 56.2346 7.29688 56.8127 7.39062 57.1721C7.5 57.5784 7.82812 58.1252 8.21875 58.5627C8.70312 59.0784 9.10938 59.3284 9.67188 59.5002C10.3438 59.6877 14.2188 59.719 36 59.719C57.7812 59.719 61.6562 59.6877 62.3281 59.5002C62.8906 59.3284 63.2969 59.0784 63.7656 58.5627C64.1719 58.1252 64.5 57.5784 64.6094 57.1721C64.7031 56.8127 64.7344 56.2346 64.6875 55.8909C64.625 55.469 60.4219 47.6721 51.5938 31.6096C39.4531 9.53148 38.5312 7.90648 37.9062 7.46898C37.3438 7.06273 37.0469 6.96898 36.1875 6.93773C35.375 6.90648 35 6.96898 34.5156 7.20336C34.1719 7.37523 33.7656 7.64086 33.625 7.79711ZM36.1719 19.7502C36.9531 19.7815 37.3281 19.8909 37.7656 20.1877C38.0937 20.4065 38.5469 20.8596 39.2031 21.7971V37.5002L38.7344 38.1877C38.4688 38.5471 37.9375 39.0315 37.5625 39.2502C37.0469 39.5315 36.625 39.6252 36 39.6252C35.4531 39.6252 34.9219 39.5159 34.5156 39.2971C34.1719 39.1252 33.7031 38.7659 33.4531 38.4846C33.2188 38.219 32.9531 37.7346 32.8594 37.4065C32.7656 37.0315 32.7188 34.2502 32.7969 21.7815L33.2656 21.1096C33.5312 20.7502 34.0469 20.2815 34.4375 20.0784C35.0156 19.7659 35.3125 19.7034 36.1719 19.7502ZM36.2656 46.3596C36.6406 46.4065 37.2031 46.5784 37.5156 46.7346C37.8438 46.8909 38.2656 47.2034 38.4531 47.4065C38.6406 47.594 38.9062 48.0315 39.0312 48.344C39.1719 48.6721 39.2812 49.2659 39.2812 49.6721C39.2812 50.094 39.1406 50.7034 38.9844 51.0471C38.8281 51.3909 38.5 51.8596 38.25 52.094C38 52.3284 37.5312 52.6252 37.2031 52.7502C36.8906 52.8909 36.3438 53.0002 36 53.0002C35.6562 53.0002 35.1094 52.8909 34.7812 52.7502C34.4688 52.6252 34 52.3284 33.7656 52.094C33.5156 51.8596 33.1875 51.4065 33.0156 51.0784C32.8438 50.7346 32.7188 50.1721 32.7188 49.719C32.7188 49.2815 32.8281 48.6721 32.9688 48.344C33.0938 48.0315 33.3594 47.594 33.5469 47.4065C33.7344 47.2034 34.0938 46.9221 34.3281 46.7971C34.5625 46.6565 34.9531 46.4846 35.1875 46.4221C35.4219 46.344 35.9063 46.3284 36.2656 46.3596Z" fill="#DC6803"/>
</svg>
