<svg width="48" height="48" viewBox="0 0 48 48" fill="none" xmlns="http://www.w3.org/2000/svg">
<rect width="48" height="48" rx="24" fill="#FEF0C7"/>
<path d="M31.5 15.5L30 14L28.5 15.5L27 14L25.5 15.5L24 14L22.5 15.5L21 14L19.5 15.5L18 14L16.5 15.5L15 14V34L16.5 32.5L18 34L19.5 32.5L21 34L22.58 32.42C22.72 32.61 22.88 32.78 23.05 32.95C24.36 34.26 26.14 35 28 35C31.86 35 35 31.87 35 28C35 26.17 34.28 24.41 33 23.1V14L31.5 15.5ZM31 21.68C30.07 21.24 29.05 21 28 21C24.14 21 21 24.13 21 28C21 29.05 21.24 30.07 21.68 31H17V17H31V21.68ZM32.85 28C32.85 28.64 32.73 29.27 32.5 29.86C32.24 30.44 31.88 31 31.43 31.43C31 31.88 30.44 32.24 29.86 32.5C29.27 32.73 28.64 32.85 28 32.85C25.32 32.85 23.15 30.68 23.15 28C23.15 26.71 23.66 25.5 24.57 24.57C25.5 23.66 26.71 23.15 28 23.15C30.67 23.15 32.85 25.32 32.85 28ZM27 28.69V25H28.5V27.82L30.94 29.23L30.19 30.53L27 28.69Z" fill="#DC6803"/>
</svg>
