<svg width="20" height="12" viewBox="0 0 20 12" fill="none" xmlns="http://www.w3.org/2000/svg">
<path d="M6.25001 0.166748C7.85834 0.166748 9.16668 1.47508 9.16668 3.08341C9.16668 4.69175 7.85834 6.00008 6.25001 6.00008C4.64168 6.00008 3.33334 4.69175 3.33334 3.08341C3.33334 1.47508 4.64168 0.166748 6.25001 0.166748ZM0.833344 11.8334V9.75008C0.833344 8.14175 3.71668 6.83341 6.25001 6.83341C7.23334 6.83341 8.26668 7.03341 9.16668 7.36675V8.96675C8.48334 8.68341 7.42501 8.50008 6.25001 8.50008C4.16668 8.50008 2.50001 9.05841 2.50001 9.75008V10.1667H9.16668V11.8334H0.833344ZM18.3333 11.8334H11.6667C11.2083 11.8334 10.8333 11.4584 10.8333 11.0001V1.00008C10.8333 0.541748 11.2083 0.166748 11.6667 0.166748H15.8333L19.1667 3.50008V11.0001C19.1667 11.4584 18.7917 11.8334 18.3333 11.8334ZM12.5 1.83341V10.1667H17.5V4.33341H15V1.83341H12.5ZM6.25001 1.83341C5.55834 1.83341 5.00001 2.39175 5.00001 3.08341C5.00001 3.77508 5.55834 4.33341 6.25001 4.33341C6.94168 4.33341 7.50001 3.77508 7.50001 3.08341C7.50001 2.39175 6.94168 1.83341 6.25001 1.83341ZM13.3333 6.83341H16.6667V8.50008H13.3333V6.83341Z" fill="black"/>
</svg>
