<svg width="20" height="12" viewBox="0 0 20 12" fill="none" xmlns="http://www.w3.org/2000/svg">
<path d="M6.25016 0.166748C7.8585 0.166748 9.16683 1.47508 9.16683 3.08341C9.16683 4.69175 7.8585 6.00008 6.25016 6.00008C4.64183 6.00008 3.3335 4.69175 3.3335 3.08341C3.3335 1.47508 4.64183 0.166748 6.25016 0.166748ZM0.833496 11.8334V9.75008C0.833496 8.14175 3.71683 6.83341 6.25016 6.83341C7.2335 6.83341 8.26683 7.03341 9.16683 7.36675V8.96675C8.4835 8.68341 7.42516 8.50008 6.25016 8.50008C4.16683 8.50008 2.50016 9.05841 2.50016 9.75008V10.1667H9.16683V11.8334H0.833496ZM18.3335 11.8334H11.6668C11.2085 11.8334 10.8335 11.4584 10.8335 11.0001V1.00008C10.8335 0.541748 11.2085 0.166748 11.6668 0.166748H15.8335L19.1668 3.50008V11.0001C19.1668 11.4584 18.7918 11.8334 18.3335 11.8334ZM12.5002 1.83341V10.1667H17.5002V4.33341H15.0002V1.83341H12.5002ZM6.25016 1.83341C5.5585 1.83341 5.00016 2.39175 5.00016 3.08341C5.00016 3.77508 5.5585 4.33341 6.25016 4.33341C6.94183 4.33341 7.50016 3.77508 7.50016 3.08341C7.50016 2.39175 6.94183 1.83341 6.25016 1.83341ZM13.3335 6.83341H16.6668V8.50008H13.3335V6.83341Z" fill="white"/>
</svg>