<svg width="18" height="18" viewBox="0 0 18 18" fill="none" xmlns="http://www.w3.org/2000/svg">
<path d="M7.33329 0.666656C6.40829 0.666656 5.66663 1.40832 5.66663 2.33332V4.83332C5.66663 5.75832 6.40829 6.49999 7.33329 6.49999H8.16663V8.16666H0.666626V9.83332H3.99996V11.5H3.16663C2.24163 11.5 1.49996 12.2417 1.49996 13.1667V15.6667C1.49996 16.5917 2.24163 17.3333 3.16663 17.3333H6.49996C7.42496 17.3333 8.16663 16.5917 8.16663 15.6667V13.1667C8.16663 12.2417 7.42496 11.5 6.49996 11.5H5.66663V9.83332H12.3333V11.5H11.5C10.575 11.5 9.83329 12.2417 9.83329 13.1667V15.6667C9.83329 16.5917 10.575 17.3333 11.5 17.3333H14.8333C15.7583 17.3333 16.5 16.5917 16.5 15.6667V13.1667C16.5 12.2417 15.7583 11.5 14.8333 11.5H14V9.83332H17.3333V8.16666H9.83329V6.49999H10.6666C11.5916 6.49999 12.3333 5.75832 12.3333 4.83332V2.33332C12.3333 1.40832 11.5916 0.666656 10.6666 0.666656H7.33329ZM7.33329 2.33332H10.6666V4.83332H7.33329V2.33332ZM3.16663 13.1667H6.49996V15.6667H3.16663V13.1667ZM11.5 13.1667H14.8333V15.6667H11.5V13.1667Z" fill="#202124"/>
</svg>
