<svg width="20" height="20" viewBox="0 0 20 20" fill="none" xmlns="http://www.w3.org/2000/svg">
<path d="M14.1667 7.49992H6.66675V5.83325H14.1667V7.49992ZM5.83342 5.83325H4.16675V7.49992H5.83342V5.83325ZM5.83342 3.33325H4.16675V4.99992H5.83342V3.33325ZM8.33342 3.33325H6.66675V4.99992H8.33342V3.33325ZM10.8334 14.1666V15.8333H11.6667C12.1251 15.8333 12.5001 16.2083 12.5001 16.6666H18.3334V18.3333H12.5001C12.5001 18.7916 12.1251 19.1666 11.6667 19.1666H8.33342C7.87508 19.1666 7.50008 18.7916 7.50008 18.3333H1.66675V16.6666H7.50008C7.50008 16.2083 7.87508 15.8333 8.33342 15.8333H9.16675V14.1666H3.33341C2.40841 14.1666 1.66675 13.4249 1.66675 12.4999V2.49992C1.66675 1.57492 2.41675 0.833252 3.33341 0.833252H16.6667C17.5917 0.833252 18.3334 1.57492 18.3334 2.49992V12.4999C18.3334 13.4249 17.5917 14.1666 16.6667 14.1666H10.8334ZM16.6667 12.4999V2.49992H3.33341V12.4999H16.6667ZM9.16675 4.99992H15.8334V3.33325H9.16675V4.99992ZM4.16675 9.99992H9.16675V8.33325H4.16675V9.99992ZM10.8334 11.6666H15.8334V9.99992H10.8334V11.6666Z" fill="black"/>
</svg>